<?xml version="1.0" encoding="UTF-8"?>
<svg width="57px" height="65px" viewBox="0 0 57 65" version="1.1" xmlns="http://www.w3.org/2000/svg" xmlns:xlink="http://www.w3.org/1999/xlink">
    <!-- Generator: Sketch 63.1 (92452) - https://sketch.com -->
    <title>编组</title>
    <desc>Created with Sketch.</desc>
    <defs>
        <linearGradient x1="50.0035283%" y1="-1.66069684%" x2="50.0035283%" y2="101.628134%" id="linearGradient-1">
            <stop stop-color="#DEECFF" offset="0%"></stop>
            <stop stop-color="#DFECFF" stop-opacity="0.95" offset="12%"></stop>
            <stop stop-color="#E3EEFF" stop-opacity="0.81" offset="35%"></stop>
            <stop stop-color="#E9F2FF" stop-opacity="0.59" offset="65%"></stop>
            <stop stop-color="#F2F7FF" stop-opacity="0.3" offset="100%"></stop>
        </linearGradient>
        <linearGradient x1="-33.8478172%" y1="32.9692371%" x2="-31.96267%" y2="67.0416766%" id="linearGradient-2">
            <stop stop-color="#DEECFF" offset="0%"></stop>
            <stop stop-color="#DFECFF" stop-opacity="0.95" offset="12%"></stop>
            <stop stop-color="#E3EEFF" stop-opacity="0.81" offset="35%"></stop>
            <stop stop-color="#E9F2FF" stop-opacity="0.59" offset="65%"></stop>
            <stop stop-color="#F2F7FF" stop-opacity="0.3" offset="100%"></stop>
        </linearGradient>
        <linearGradient x1="0.00942573578%" y1="50.0162813%" x2="99.9976309%" y2="50.0162813%" id="linearGradient-3">
            <stop stop-color="#DEECFF" offset="0%"></stop>
            <stop stop-color="#EBF3FF" offset="72%"></stop>
            <stop stop-color="#F2F7FF" offset="100%"></stop>
        </linearGradient>
        <linearGradient x1="-0.00269397653%" y1="49.967887%" x2="100.000409%" y2="49.967887%" id="linearGradient-4">
            <stop stop-color="#333B47" offset="0%"></stop>
            <stop stop-color="#FFFFFF" stop-opacity="0.3" offset="100%"></stop>
        </linearGradient>
        <linearGradient x1="-0.0369396911%" y1="50.1854796%" x2="100.030326%" y2="50.1854796%" id="linearGradient-5">
            <stop stop-color="#A9C1F4" offset="0%"></stop>
            <stop stop-color="#EBF4FF" offset="100%"></stop>
        </linearGradient>
        <filter x="-40.1%" y="-66.8%" width="180.1%" height="233.5%" filterUnits="objectBoundingBox" id="filter-6">
            <feGaussianBlur stdDeviation="3" in="SourceGraphic"></feGaussianBlur>
        </filter>
        <linearGradient x1="100%" y1="50%" x2="0%" y2="50%" id="linearGradient-7">
            <stop stop-color="#FFFFFF" offset="0%"></stop>
            <stop stop-color="#FFFFFF" stop-opacity="0.99" offset="0%"></stop>
            <stop stop-color="#FFFFFF" stop-opacity="0.47" offset="51%"></stop>
            <stop stop-color="#FFFFFF" stop-opacity="0.13" offset="85%"></stop>
            <stop stop-color="#FFFFFF" stop-opacity="0" offset="100%"></stop>
        </linearGradient>
        <linearGradient x1="-1.48582499e-12%" y1="50.3333333%" x2="99.9253174%" y2="50.3333333%" id="linearGradient-8">
            <stop stop-color="#A4AFCF" offset="0%"></stop>
            <stop stop-color="#D4DAE9" offset="100%"></stop>
        </linearGradient>
        <linearGradient x1="99.9354422%" y1="49.862259%" x2="-0.129115558%" y2="49.862259%" id="linearGradient-9">
            <stop stop-color="#AEBADB" offset="0%"></stop>
            <stop stop-color="#D4DAE9" offset="100%"></stop>
        </linearGradient>
        <linearGradient x1="0.0874125874%" y1="49.8847926%" x2="100.262238%" y2="49.8847926%" id="linearGradient-10">
            <stop stop-color="#A4AFCF" offset="0%"></stop>
            <stop stop-color="#ABB5D2" offset="27%"></stop>
            <stop stop-color="#BFC7DD" offset="68%"></stop>
            <stop stop-color="#D4DAE9" offset="100%"></stop>
        </linearGradient>
        <linearGradient x1="99.9998738%" y1="50%" x2="-1.1154503e-12%" y2="50%" id="linearGradient-11">
            <stop stop-color="#AEBADB" offset="0%"></stop>
            <stop stop-color="#CBD2E5" offset="54%"></stop>
            <stop stop-color="#E1E4ED" offset="100%"></stop>
        </linearGradient>
        <linearGradient x1="47%" y1="50%" x2="53%" y2="50%" id="linearGradient-12">
            <stop stop-color="#AEBADB" offset="0%"></stop>
            <stop stop-color="#CBD2E5" offset="54%"></stop>
            <stop stop-color="#E1E4ED" offset="100%"></stop>
        </linearGradient>
        <linearGradient x1="-4.72678644e-12%" y1="50%" x2="100%" y2="50%" id="linearGradient-13">
            <stop stop-color="#FFFFFF" stop-opacity="0" offset="0%"></stop>
            <stop stop-color="#FFFFFF" stop-opacity="0.06" offset="6%"></stop>
            <stop stop-color="#FFFFFF" stop-opacity="0.73" offset="72%"></stop>
            <stop stop-color="#FFFFFF" offset="100%"></stop>
        </linearGradient>
    </defs>
    <g id="Air-Gap新" stroke="none" stroke-width="1" fill="none" fill-rule="evenodd">
        <g id="详情3" transform="translate(-43.000000, -169.000000)">
            <g id="编组" transform="translate(32.000000, 161.000000)">
                <rect id="矩形" x="0" y="0" width="80" height="80"></rect>
                <g id="编组-16" transform="translate(12.000000, 8.000000)">
                    <path d="M54.7913565,44.4172481 C55.5111287,44.8345074 55.5215602,45.5125537 54.7913565,45.929813 L29.0673231,60.8781259 C28.3475509,61.2953852 27.1687935,61.2953852 26.4490213,60.8781259 L0.547652778,45.929813 C-0.182550926,45.5125537 -0.182550926,44.8345074 0.547652778,44.4172481 L26.2716861,29.4689352 C26.9914583,29.0516759 28.1597843,29.0516759 28.889988,29.4689352 L54.7913565,44.4172481 L54.7913565,44.4172481 Z" id="路径" stroke="url(#linearGradient-1)"></path>
                    <path d="M54.7913565,47.2441796 C55.5111287,47.6614389 55.5215602,48.3394852 54.7913565,48.7567444 L29.0673231,63.7050574 C28.3475509,64.1223167 27.1687935,64.1223167 26.4490213,63.7050574 L0.547652778,48.7567444 C-0.182550926,48.3394852 -0.182550926,47.6614389 0.547652778,47.2441796 L26.2716861,32.2958667 C26.9914583,31.8786074 28.1597843,31.8786074 28.889988,32.2958667 L54.7913565,47.2441796 L54.7913565,47.2441796 Z" id="路径" stroke="url(#linearGradient-2)" stroke-width="0.5"></path>
                    <path d="M54.7913565,37.3968611 C55.5111287,37.8141204 55.5215602,38.4921667 54.7913565,38.9094259 L29.0673231,53.8577389 C28.3475509,54.2749981 27.1687935,54.2749981 26.4490213,53.8577389 L0.547652778,38.9094259 C-0.182550926,38.4921667 -0.182550926,37.8141204 0.547652778,37.3968611 L26.2716861,22.4485481 C26.9914583,22.0312889 28.1597843,22.0312889 28.889988,22.4485481 L54.7913565,37.3968611 L54.7913565,37.3968611 Z" id="路径" fill="url(#linearGradient-3)" fill-rule="nonzero"></path>
                    <path d="M54.801788,38.4713037 L29.0777546,53.4196167 C28.3579824,53.8368759 27.179225,53.8368759 26.4594528,53.4196167 L0.558084259,38.4713037 C0.297297222,38.3148315 0.130393519,38.1270648 0.0573731481,37.9392981 C-0.0678046296,38.283537 0.0990990741,38.6590704 0.558084259,38.9198574 L26.4594528,53.8681704 C27.179225,54.2854296 28.3579824,54.2854296 29.0777546,53.8681704 L54.801788,38.9198574 C55.2607731,38.6486389 55.4172454,38.283537 55.2920676,37.9392981 C55.2190472,38.1374963 55.062575,38.3148315 54.801788,38.4713037 Z" id="路径" fill="url(#linearGradient-4)" fill-rule="nonzero" opacity="0.31"></path>
                    <path d="M55.3024991,38.3565574 L55.3024991,38.3774204 C55.2712046,38.4400093 55.2503417,38.4921667 55.2086157,38.5443241 L55.1877528,38.5756185 C55.1460269,38.6277759 55.0938694,38.6903648 55.041712,38.7425222 C54.9999861,38.7738167 54.9582602,38.8051111 54.9165343,38.8364056 C54.8748083,38.8677 54.8435139,38.888563 54.801788,38.9198574 L29.0777546,53.8681704 C28.9630083,53.9307593 28.8378306,53.9829167 28.7126528,54.0246426 C28.6709269,54.0455056 28.6187694,54.055937 28.5770435,54.0663685 C28.5144546,54.0872315 28.4518657,54.097663 28.3892769,54.1080944 C28.3162565,54.1185259 28.2432361,54.1393889 28.1597843,54.1498204 C28.1389213,54.1498204 28.1284898,54.1498204 28.1076269,54.1498204 C28.003312,54.1602519 27.8989972,54.1706833 27.7946824,54.1706833 C27.7738194,54.1706833 27.763388,54.1706833 27.742525,54.1706833 C27.6382102,54.1706833 27.5338954,54.1706833 27.440012,54.1498204 L27.3982861,54.1498204 C27.2939713,54.1289574 27.200088,54.1185259 27.0957731,54.097663 L27.0436157,54.097663 C26.9601639,54.0663685 26.8662806,54.0350741 26.7828287,54.0037796 C26.7723972,54.0037796 26.7515343,54.0037796 26.7411028,53.9933481 C26.636788,53.9516222 26.5429046,53.9098963 26.4594528,53.8577389 L0.558084259,38.9094259 C0.380749074,38.8051111 0.234708333,38.6799333 0.151256481,38.5547556 C0.0573731481,38.4295778 0.0152125772,38.283537 0.0152125772,38.1479278 L0.0152125772,41.8198093 C0.00521574074,42.0910278 0.182550926,42.3726778 0.547652778,42.5813074 L26.4490213,57.5296204 C26.5324731,57.5817778 26.6263565,57.6235037 26.7098083,57.6547981 L26.7202398,57.6547981 C26.7202398,57.6547981 26.7515343,57.6652296 26.7619657,57.6756611 C26.8141231,57.6965241 26.8662806,57.717387 26.9288694,57.7278185 C26.9601639,57.7278185 26.9914583,57.73825 27.0227528,57.7486815 L27.0749102,57.7486815 C27.0749102,57.7486815 27.1062046,57.7695444 27.1270676,57.7695444 C27.1896565,57.7799759 27.2522454,57.7904074 27.3148343,57.8008389 C27.3356972,57.8008389 27.3565602,57.8008389 27.3774231,57.8008389 L27.4191491,57.8008389 C27.4191491,57.8008389 27.460875,57.8112704 27.4921694,57.8112704 C27.5547583,57.8112704 27.6173472,57.8112704 27.6799361,57.8112704 C27.7007991,57.8112704 27.721662,57.8112704 27.7320935,57.8112704 C27.7529565,57.8112704 27.763388,57.8112704 27.7842509,57.8112704 C27.8155454,57.8112704 27.8364083,57.8112704 27.8677028,57.8112704 C27.9407231,57.8112704 28.003312,57.8112704 28.0763324,57.8008389 L28.0971954,57.8008389 C28.0971954,57.8008389 28.1284898,57.8008389 28.1493528,57.7904074 C28.2015102,57.7904074 28.2536676,57.7799759 28.305825,57.7695444 C28.326688,57.7695444 28.3475509,57.759113 28.3684139,57.7486815 C28.4310028,57.73825 28.4935917,57.717387 28.5561806,57.7069556 C28.587475,57.7069556 28.6187694,57.6965241 28.6500639,57.6860926 C28.6604954,57.6860926 28.6813583,57.6756611 28.6917898,57.6652296 C28.8169676,57.6235037 28.9421454,57.5713463 29.0568917,57.5087574 L54.780925,42.5604444 L54.801788,42.5604444 C54.801788,42.5604444 54.8643769,42.4978556 54.8956713,42.4769926 C54.9373972,42.4456981 54.9895546,42.4144037 55.0208491,42.3831093 L55.0312806,42.3831093 C55.0312806,42.3831093 55.1147324,42.2892259 55.1460269,42.2475 C55.1460269,42.2475 55.1564583,42.226637 55.1668898,42.2162056 L55.1877528,42.1849111 C55.1877528,42.1849111 55.2086157,42.1536167 55.2190472,42.1327537 C55.2399102,42.1014593 55.2503417,42.0597333 55.2712046,42.0284389 L55.2712046,41.986713 C55.2712046,41.986713 55.2920676,41.944987 55.3024991,41.9241241 C55.3024991,41.8928296 55.3129306,41.8511037 55.3129306,41.8198093 L55.3129306,38.1270648 C55.323362,38.1896537 55.3129306,38.2522426 55.2920676,38.3148315 L55.3024991,38.3565574 Z" id="路径" fill="url(#linearGradient-5)" fill-rule="nonzero"></path>
                    <path d="M33.0701144,29.9502949 L39.3347056,33.7422324 L23.1477056,43.2462324 L17.1748464,39.6319818 C16.7653253,39.3865651 16.7653253,38.9877631 17.1748464,38.7423464 L31.6016889,29.9502949 C32.0053596,29.7048782 32.6605934,29.7048782 33.0701144,29.9502949 Z" id="形状结合备份" fill="#13389E" fill-rule="nonzero" opacity="0.476872762" filter="url(#filter-6)"></path>
                    <path d="M30.7885176,3.51540926 L25.3537157,1.40825 C25.8961528,1.6899 26.4490213,1.94025556 26.9810269,2.14888519 L32.4158287,4.25604444 C31.8733917,4.04741481 31.3309546,3.79705926 30.7885176,3.51540926" id="路径" fill="#848484" fill-rule="nonzero"></path>
                    <path d="M30.7885176,3.51540926 L25.3537157,1.40825 C25.8961528,1.6899 26.4490213,1.94025556 26.9810269,2.14888519 L32.4158287,4.25604444 C31.8733917,4.04741481 31.3309546,3.79705926 30.7885176,3.51540926" id="路径" fill="#848484" fill-rule="nonzero"></path>
                    <polyline id="路径" fill="url(#linearGradient-7)" fill-rule="nonzero" points="25.3432843 -8.59330302e-14 30.7780861 2.10715926 30.6633398 2.27406296"></polyline>
                    <polygon id="路径" fill="#4E4E4E" fill-rule="nonzero" points="40.8027398 4.34992778 35.367938 2.24276852 35.2949176 2.27406296 40.719288 4.38122222"></polygon>
                    <path d="M27.6590731,1.1266 C27.8364083,1.19962037 28.024175,1.26220926 28.2015102,1.32479815 C28.3371194,1.37695556 28.4831602,1.41868148 28.6187694,1.46040741 L28.6709269,1.46040741 C28.7961046,1.51256481 28.9317139,1.54385926 29.0568917,1.5751537 C29.0986176,1.58558519 29.150775,1.59601667 29.1925009,1.60644815 C29.2968157,1.62731111 29.411562,1.65860556 29.5158769,1.67946852 C29.5576028,1.67946852 29.5993287,1.70033148 29.6410546,1.70033148 C29.714075,1.71076296 29.7870954,1.72119444 29.8601157,1.74205741 C29.9644306,1.76292037 30.0583139,1.77335185 30.1626287,1.79421481 C30.2356491,1.8046463 30.3086694,1.81507778 30.3816898,1.82550926 C30.4755731,1.83594074 30.5694565,1.84637222 30.6737713,1.8568037 C30.7572231,1.8568037 30.840675,1.86723519 30.9345583,1.87766667 C30.9971472,1.87766667 31.0597361,1.87766667 31.122325,1.88809815 C31.2162083,1.88809815 31.3100917,1.88809815 31.403975,1.88809815 C31.4561324,1.88809815 31.5187213,1.88809815 31.5708787,1.88809815 C31.7169194,1.88809815 31.8525287,1.88809815 31.9985694,1.88809815 C32.0194324,1.88809815 32.0402954,1.88809815 32.0611583,1.88809815 C32.1759046,1.88809815 32.2906509,1.87766667 32.3949657,1.86723519 C32.5931639,1.8568037 32.791362,1.83594074 32.9791287,1.8046463 C33.0208546,1.8046463 33.0521491,1.79421481 33.093875,1.78378333 C33.2399157,1.76292037 33.3859565,1.74205741 33.5319972,1.71076296 C33.5945861,1.70033148 33.657175,1.6899 33.7197639,1.66903704 C33.8345102,1.64817407 33.938825,1.61687963 34.0535713,1.59601667 C34.1161602,1.5751537 34.1891806,1.56472222 34.2517694,1.54385926 C34.3560843,1.51256481 34.4603991,1.48127037 34.5647139,1.44997593 C34.6273028,1.42911296 34.7003231,1.40825 34.762912,1.38738704 C34.8567954,1.35609259 34.9611102,1.32479815 35.0549935,1.28307222 C35.1384454,1.25177778 35.2218972,1.23091481 35.2949176,1.19962037 L36.192025,0.855381481 L41.6268269,2.96254074 L40.7297194,3.30677963 L40.6358361,3.33807407 C40.6358361,3.33807407 40.5315213,3.36936852 40.4897954,3.39023148 C40.395912,3.42152593 40.2915972,3.46325185 40.1977139,3.4945463 C40.1768509,3.4945463 40.155988,3.50497778 40.135125,3.51540926 C40.0933991,3.52584074 40.0412417,3.53627222 39.9995157,3.55713519 C39.8952009,3.58842963 39.7908861,3.61972407 39.6970028,3.65101852 C39.6657083,3.65101852 39.6344139,3.67188148 39.6031194,3.68231296 C39.571825,3.68231296 39.5300991,3.70317593 39.4988046,3.70317593 C39.3840583,3.73447037 39.2797435,3.75533333 39.1649972,3.7761963 C39.1232713,3.7761963 39.0919769,3.79705926 39.0502509,3.80749074 C39.029388,3.80749074 38.9980935,3.80749074 38.9772306,3.81792222 C38.8311898,3.84921667 38.6851491,3.87007963 38.5391083,3.89094259 C38.5078139,3.89094259 38.4765194,3.90137407 38.445225,3.91180556 L38.424362,3.91180556 C38.2261639,3.9431 38.0383972,3.96396296 37.8401991,3.97439444 C37.8193361,3.97439444 37.8089046,3.97439444 37.7880417,3.97439444 C37.6941583,3.97439444 37.600275,3.98482593 37.5063917,3.98482593 C37.4855287,3.98482593 37.4646657,3.98482593 37.4438028,3.98482593 C37.318625,3.98482593 37.1934472,3.98482593 37.057838,3.98482593 L37.016112,3.98482593 C36.9639546,3.98482593 36.9013657,3.98482593 36.8492083,3.98482593 C36.755325,3.98482593 36.6614417,3.98482593 36.5675583,3.98482593 C36.5049694,3.98482593 36.4423806,3.98482593 36.3797917,3.97439444 C36.3276343,3.97439444 36.2650454,3.97439444 36.212888,3.96396296 C36.1815935,3.96396296 36.1502991,3.96396296 36.1294361,3.96396296 C36.0355528,3.96396296 35.9416694,3.9431 35.8373546,3.93266852 C35.7643343,3.93266852 35.6913139,3.91180556 35.6182935,3.90137407 C35.5139787,3.89094259 35.4200954,3.87007963 35.3157806,3.84921667 C35.2636231,3.84921667 35.2114657,3.8283537 35.1593083,3.8283537 C35.1384454,3.8283537 35.1175824,3.8283537 35.0967194,3.81792222 C35.0549935,3.81792222 35.0132676,3.79705926 34.9715417,3.79705926 C34.8672269,3.7761963 34.7524806,3.75533333 34.6481657,3.72403889 C34.6064398,3.71360741 34.5542824,3.70317593 34.5125565,3.69274444 C34.3873787,3.66145 34.2517694,3.63015556 34.1265917,3.58842963 L34.0744343,3.58842963 C33.9492565,3.53627222 33.8240787,3.4945463 33.6989009,3.45282037 L33.657175,3.43195741 C33.4798398,3.36936852 33.2920731,3.30677963 33.114738,3.23375926 L27.6799361,1.1266 L27.6590731,1.1266 Z" id="路径" fill="url(#linearGradient-8)" fill-rule="nonzero"></path>
                    <path d="M30.7885176,3.51540926 L25.3537157,1.40825 C25.8961528,1.6899 26.4490213,1.94025556 26.9810269,2.14888519 L32.4158287,4.25604444 C31.8733917,4.04741481 31.3309546,3.79705926 30.7885176,3.51540926" id="路径" fill="#848484" fill-rule="nonzero"></path>
                    <path d="M16.1531491,9.50307963 C16.215738,9.47178519 16.2783269,9.44049074 16.3304843,9.39876481 C16.5808398,9.26315556 16.8207639,9.11711481 17.060688,8.98150556 C17.1128454,8.95021111 17.1545713,8.92934815 17.1962972,8.8980537 C17.3840639,8.78330741 17.5718306,8.66856111 17.7491657,8.55381481 C17.8221861,8.51208889 17.8952065,8.45993148 17.9682269,8.41820556 C18.1351306,8.31389074 18.2916028,8.20957593 18.4585065,8.10526111 C18.5210954,8.06353519 18.5732528,8.02180926 18.6358417,7.99051481 C18.8549028,7.84447407 19.0635324,7.69843333 19.272162,7.55239259 C19.293025,7.53152963 19.3243194,7.52109815 19.3451824,7.50023519 C19.5329491,7.36462593 19.7102843,7.23944815 19.8876194,7.10383889 C19.9397769,7.06211296 20.0023657,7.02038704 20.0545231,6.97866111 C20.1484065,6.90564074 20.2527213,6.83262037 20.3466046,6.74916852 C20.5448028,6.5926963 20.7430009,6.43622407 20.9307676,6.27975185 C21.003788,6.21716296 21.0768083,6.15457407 21.1498287,6.10241667 C21.4001843,5.89378704 21.6401083,5.68515741 21.8800324,5.4660963 L21.9113269,5.43480185 C22.1408194,5.22617222 22.3598806,5.01754259 22.5685102,4.80891296 C22.6310991,4.74632407 22.7041194,4.6733037 22.7667083,4.61071481 C22.933612,4.44381111 23.0900843,4.27690741 23.2465565,4.1100037 C23.3091454,4.03698333 23.3717343,3.97439444 23.4343231,3.90137407 C23.6533843,3.67188148 23.8620139,3.43195741 24.060212,3.19203333 C24.2062528,3.01469815 24.3522935,2.83736296 24.4879028,2.66002778 C24.5296287,2.60787037 24.5609231,2.55571296 24.6026491,2.51398704 C24.7069639,2.37837778 24.8112787,2.24276852 24.905162,2.10715926 C24.946888,2.05500185 24.9886139,1.99241296 25.0303398,1.94025556 C25.1659491,1.75248889 25.3015583,1.56472222 25.4267361,1.37695556 L30.861538,3.48411481 C30.7363602,3.67188148 30.6007509,3.85964815 30.4651417,4.04741481 C30.4234157,4.09957222 30.3816898,4.16216111 30.3399639,4.21431852 C30.2878065,4.28733889 30.2356491,4.36035926 30.1730602,4.44381111 C30.1313343,4.5064 30.0791769,4.56898889 30.0270194,4.6211463 C29.9852935,4.6733037 29.9539991,4.72546111 29.9122731,4.76718704 C29.7766639,4.94452222 29.6306231,5.12185741 29.4845824,5.28876111 L29.4845824,5.28876111 C29.2863843,5.52868519 29.0777546,5.76860926 28.8586935,6.00853333 C28.8378306,6.0293963 28.8169676,6.06069074 28.7856731,6.0815537 C28.7439472,6.12327963 28.7022213,6.16500556 28.6604954,6.20673148 C28.5040231,6.37363519 28.3371194,6.54053889 28.1806472,6.70744259 C28.1389213,6.74916852 28.0971954,6.79089444 28.0554694,6.83262037 C28.0346065,6.85348333 28.003312,6.88477778 27.9824491,6.90564074 C27.763388,7.11427037 27.5547583,7.3229 27.3252657,7.53152963 L27.2939713,7.55239259 L27.2939713,7.55239259 C27.0540472,7.7714537 26.8141231,7.98008333 26.5637676,8.18871296 C26.5429046,8.20957593 26.5116102,8.23043889 26.4907472,8.25130185 C26.4490213,8.29302778 26.3968639,8.32432222 26.3447065,8.36604815 C26.1569398,8.52252037 25.9587417,8.67899259 25.7605435,8.83546481 C25.7083861,8.87719074 25.6666602,8.90848519 25.6249343,8.95021111 C25.5727769,8.99193704 25.5206194,9.02323148 25.468462,9.06495741 C25.4163046,9.10668333 25.3537157,9.14840926 25.3015583,9.19013519 C25.1242231,9.32574444 24.946888,9.4613537 24.7591213,9.58653148 C24.7382583,9.60739444 24.7069639,9.61782593 24.6861009,9.63868889 L24.665238,9.63868889 C24.4670398,9.79516111 24.2584102,9.94120185 24.0497806,10.0768111 C23.9871917,10.118537 23.9350343,10.160263 23.8724454,10.1915574 C23.7889935,10.2541463 23.6951102,10.3063037 23.6116583,10.3688926 C23.538638,10.42105 23.4656176,10.4627759 23.3821657,10.5149333 C23.3091454,10.5670907 23.236125,10.6088167 23.1631046,10.6505426 C22.9857694,10.7652889 22.7980028,10.8800352 22.6102361,10.98435 C22.5580787,11.0156444 22.5163528,11.0469389 22.4641954,11.0678019 L22.4329009,11.0886648 C22.2034083,11.2242741 21.9739157,11.3598833 21.7444231,11.4850611 C21.6818343,11.5163556 21.6296769,11.54765 21.567088,11.5789444 C21.4106157,11.6623963 21.264575,11.7458481 21.1081028,11.8293 C21.0455139,11.8605944 20.982925,11.9023204 20.9099046,11.9336148 L15.4751028,9.82645556 C15.6941639,9.71170926 15.913225,9.58653148 16.1322861,9.47178519 L16.1531491,9.50307963 Z" id="路径" fill="#FFFFFF" fill-rule="nonzero"></path>
                    <path d="M15.4020824,8.83546481 C15.610712,8.73115 15.8089102,8.6164037 16.0071083,8.50165741 C16.0801287,8.45993148 16.1427176,8.42863704 16.215738,8.38691111 C16.455662,8.25130185 16.6851546,8.11569259 16.9146472,7.98008333 C16.9459417,7.95922037 16.9772361,7.93835741 17.0085306,7.91749444 C17.1962972,7.80274815 17.3840639,7.68800185 17.5718306,7.57325556 C17.6448509,7.53152963 17.7178713,7.47937222 17.7804602,7.4376463 C17.9369324,7.34376296 18.0829731,7.23944815 18.2394454,7.14556481 C18.3020343,7.10383889 18.3646231,7.06211296 18.427212,7.02038704 C18.6149787,6.89520926 18.8131769,6.7596 18.990512,6.63442222 L19.032238,6.60312778 C19.2304361,6.46751852 19.4182028,6.32147778 19.6164009,6.17543704 C19.6685583,6.13371111 19.7207157,6.10241667 19.7728731,6.06069074 C19.877188,5.97723889 19.9815028,5.90421852 20.0858176,5.82076667 C20.2735843,5.67472593 20.4613509,5.5182537 20.6386861,5.37221296 C20.701275,5.32005556 20.7638639,5.26789815 20.8368843,5.21574074 C21.0663769,5.01754259 21.2958694,4.81934444 21.5149306,4.6211463 C21.546225,4.58985185 21.5775194,4.55855741 21.6088139,4.52726296 C21.7965806,4.36035926 21.9739157,4.18302407 22.1512509,4.01612037 C22.2138398,3.95353148 22.2868602,3.88051111 22.3494491,3.81792222 C22.4954898,3.67188148 22.6310991,3.52584074 22.7771398,3.3798 C22.8397287,3.31721111 22.9023176,3.24419074 22.9649065,3.18160185 C23.1318102,3.00426667 23.2882824,2.8165 23.4447546,2.63916481 C23.4760491,2.60787037 23.5073435,2.56614444 23.538638,2.53485 C23.5595009,2.51398704 23.5699324,2.49312407 23.5907954,2.47226111 C23.7159731,2.32622037 23.8307194,2.18017963 23.9454657,2.03413889 C23.9767602,1.99241296 24.0080546,1.95068704 24.0393491,1.90896111 C24.1645269,1.74205741 24.2897046,1.58558519 24.4044509,1.41868148 L24.4253139,1.39781852 C24.5609231,1.21005185 24.6861009,1.02228519 24.8217102,0.824087037 L25.3537157,0.0104314815 L30.7885176,2.11759074 L30.256512,2.9312463 C30.256512,2.9312463 30.1939231,3.02512963 30.1626287,3.07728704 C30.0687454,3.22332778 29.9644306,3.35893704 29.8705472,3.50497778 L29.8705472,3.52584074 C29.7662324,3.66145 29.6619176,3.78662778 29.5680343,3.92223704 C29.5471713,3.95353148 29.5158769,3.98482593 29.4845824,4.02655185 C29.453288,4.06827778 29.4219935,4.1100037 29.3906991,4.15172963 C29.2759528,4.29777037 29.1612065,4.44381111 29.0360287,4.58985185 C29.0151657,4.61071481 29.0047343,4.63157778 28.9838713,4.65244074 L28.9630083,4.6733037 C28.9630083,4.6733037 28.9108509,4.72546111 28.889988,4.75675556 C28.7335157,4.94452222 28.5770435,5.12185741 28.4101398,5.29919259 C28.3892769,5.33048704 28.3684139,5.35135 28.3371194,5.38264444 C28.2953935,5.42437037 28.2536676,5.4660963 28.2223731,5.50782222 C28.0867639,5.65386296 27.9407231,5.7999037 27.8051139,5.94594444 C27.763388,5.98767037 27.7320935,6.0293963 27.6903676,6.07112222 C27.6695046,6.09198519 27.6382102,6.12327963 27.6173472,6.14414259 C27.440012,6.32147778 27.2626769,6.48838148 27.0749102,6.65528519 C27.0436157,6.67614815 27.0227528,6.70744259 26.9914583,6.72830556 L26.9705954,6.72830556 C26.7515343,6.94736667 26.5220417,7.14556481 26.2925491,7.33333148 C26.2716861,7.35419444 26.2508231,7.36462593 26.2403917,7.38548889 C26.1986657,7.42721481 26.1465083,7.45850926 26.1047824,7.50023519 C25.9274472,7.64627593 25.7396806,7.80274815 25.5519139,7.94878889 C25.510188,7.98008333 25.468462,8.02180926 25.4267361,8.0531037 C25.3641472,8.09482963 25.3015583,8.14698704 25.2389694,8.18871296 C25.186812,8.23043889 25.1346546,8.26173333 25.0824972,8.30345926 C24.8947306,8.43906852 24.7069639,8.58510926 24.5087657,8.72071852 L24.5087657,8.72071852 L24.4670398,8.75201296 C24.2792731,8.88762222 24.0915065,9.0128 23.8933083,9.13797778 C23.8307194,9.1797037 23.7681306,9.22142963 23.7055417,9.26315556 C23.6325213,9.30488148 23.5699324,9.35703889 23.496912,9.39876481 C23.4134602,9.45092222 23.3300083,9.50307963 23.2465565,9.55523704 C23.1735361,9.59696296 23.1109472,9.64912037 23.0379269,9.6908463 C22.8501602,9.80559259 22.6623935,9.92033889 22.4746269,10.0350852 C22.4433324,10.0559481 22.412038,10.0768111 22.3807435,10.0976741 L22.3598806,10.0976741 C22.130388,10.2437148 21.9113269,10.3688926 21.6714028,10.5045019 C21.6088139,10.5462278 21.5357935,10.5775222 21.4627731,10.6192481 C21.3271639,10.6922685 21.1811231,10.7757204 21.0455139,10.8487407 C20.982925,10.8800352 20.9203361,10.9113296 20.8577472,10.9530556 L20.0649546,11.3703148 L14.6301528,9.26315556 L15.4229454,8.8458963 L15.4020824,8.83546481 Z" id="路径" fill="url(#linearGradient-9)" fill-rule="nonzero"></path>
                    <path d="M20.0336602,11.3494519 L20.0753861,27.5495426 C20.0753861,27.6747204 20.0753861,27.7894667 20.0753861,27.9146444 C20.0753861,27.9772333 20.0753861,28.0398222 20.0753861,28.1024111 C20.0753861,28.165 20.0753861,28.2380204 20.0753861,28.3006093 C20.0753861,28.3631981 20.0753861,28.425787 20.0858176,28.4779444 C20.0858176,28.5405333 20.0858176,28.6031222 20.1066806,28.6761426 C20.1066806,28.7387315 20.117112,28.7908889 20.1275435,28.8534778 C20.1275435,28.9160667 20.137975,28.9786556 20.1484065,29.0412444 C20.1484065,29.1038333 20.1692694,29.1664222 20.1797009,29.2290111 C20.1797009,29.2916 20.2005639,29.3437574 20.2109954,29.4063463 C20.2214269,29.4689352 20.2318583,29.5315241 20.2527213,29.6045444 C20.2631528,29.6567019 20.2735843,29.7192907 20.2840157,29.7714481 C20.3048787,29.8549 20.3257417,29.9383519 20.3466046,30.0322352 C20.3466046,30.0635296 20.3674676,30.1052556 20.3674676,30.13655 C20.398762,30.2617278 20.4300565,30.3764741 20.4717824,30.5016519 L20.4926454,30.5538093 C20.5239398,30.6685556 20.5656657,30.7728704 20.6073917,30.8876167 C20.6178231,30.9293426 20.6386861,30.960637 20.6491176,31.002363 C20.6908435,31.0962463 20.722138,31.2005611 20.7638639,31.2944444 C20.7742954,31.3361704 20.7951583,31.3674648 20.8055898,31.4091907 C20.8681787,31.5448 20.9307676,31.6908407 20.9933565,31.82645 L21.0246509,31.8786074 C21.1185343,32.0559426 21.2124176,32.2332778 21.3167324,32.4001815 L21.3375954,32.4419074 C21.4001843,32.5462222 21.4627731,32.6401056 21.525362,32.7339889 C21.546225,32.7652833 21.5775194,32.8070093 21.5983824,32.8383037 C21.6505398,32.9113241 21.7131287,32.9947759 21.7652861,33.0677963 C21.7861491,33.0990907 21.807012,33.1303852 21.8383065,33.1616796 C21.9530528,33.3181519 22.0782306,33.4641926 22.2138398,33.6102333 L22.2764287,33.6728222 C22.412038,33.818863 22.5476472,33.9544722 22.693688,34.0900815 L22.7562769,34.1526704 C22.9023176,34.2882796 23.0483583,34.4238889 23.215262,34.5490667 C23.236125,34.5699296 23.2674194,34.5907926 23.2882824,34.6012241 C23.4447546,34.7264019 23.6116583,34.8515796 23.7889935,34.9767574 C23.8098565,34.9976204 23.8411509,35.0080519 23.8620139,35.0289148 C24.0393491,35.1540926 24.2166843,35.2688389 24.4044509,35.3835852 C24.4253139,35.3940167 24.4461769,35.4148796 24.4774713,35.4253111 C24.6756694,35.5400574 24.8738676,35.6548037 25.0720657,35.7591185 L25.1242231,35.790413 C25.3328528,35.9051593 25.5519139,36.0094741 25.7814065,36.1137889 L25.8127009,36.1137889 C26.052625,36.2389667 26.2925491,36.33285 26.5324731,36.4371648 L21.0976713,34.3300056 C20.8473157,34.2361222 20.6073917,34.1318074 20.3778991,34.0274926 L20.3466046,34.0274926 C20.117112,33.9127463 19.8980509,33.8084315 19.6894213,33.6936852 L19.6372639,33.6623907 C19.4286343,33.5580759 19.2304361,33.4433296 19.0426694,33.3285833 C19.0218065,33.3181519 19.0009435,33.2972889 18.9696491,33.2868574 C18.7818824,33.1721111 18.6045472,33.0573648 18.427212,32.932187 C18.4063491,32.9113241 18.3750546,32.9008926 18.3541917,32.8800296 C18.187288,32.7548519 18.0203843,32.6296741 17.8534806,32.5044963 C17.8326176,32.4836333 17.8013231,32.4627704 17.7804602,32.4523389 C17.623988,32.3271611 17.4675157,32.1915519 17.321475,32.0559426 L17.2588861,31.9933537 C17.1128454,31.8577444 16.9772361,31.7221352 16.8416269,31.5760944 L16.779038,31.5135056 C16.6434287,31.3674648 16.5286824,31.2214241 16.4035046,31.0649519 L16.3826417,31.0336574 C16.3826417,31.0336574 16.3513472,30.9919315 16.3409157,30.9710685 C16.2783269,30.8980481 16.2261694,30.8145963 16.174012,30.7415759 C16.1531491,30.7102815 16.1218546,30.6685556 16.1009917,30.6372611 C16.0384028,30.5433778 15.9758139,30.439063 15.913225,30.3451796 L15.892362,30.3138852 L15.892362,30.3138852 C15.7880472,30.13655 15.6941639,29.9592148 15.6002806,29.7818796 L15.5794176,29.7505852 L15.5794176,29.7297222 C15.5063972,29.594113 15.4438083,29.4585037 15.3812194,29.312463 L15.3603565,29.270737 C15.3603565,29.270737 15.3394935,29.2290111 15.329062,29.1977167 C15.2873361,29.1038333 15.2560417,29.00995 15.2143157,28.9056352 C15.2143157,28.8847722 15.1934528,28.8534778 15.1830213,28.8326148 L15.1830213,28.7908889 C15.1308639,28.6865741 15.089138,28.5718278 15.0578435,28.4570815 L15.0578435,28.4153556 L15.0369806,28.4153556 C15.0056861,28.2901778 14.9639602,28.165 14.9326657,28.0502537 L14.9326657,28.0502537 C14.9326657,28.0502537 14.9222343,27.9772333 14.9118028,27.9459389 C14.8909398,27.862487 14.8700769,27.7790352 14.8492139,27.6851519 L14.8492139,27.6642889 C14.8492139,27.6642889 14.8283509,27.5704056 14.8179194,27.5286796 C14.807488,27.4660907 14.7970565,27.4035019 14.7761935,27.3304815 L14.7761935,27.299187 C14.7761935,27.299187 14.7553306,27.2053037 14.7448991,27.1531463 C14.7448991,27.0905574 14.7240361,27.0279685 14.7136046,26.9653796 L14.7136046,26.9340852 C14.7136046,26.9340852 14.6927417,26.8297704 14.6927417,26.777613 C14.6927417,26.7150241 14.6823102,26.6628667 14.6718787,26.6002778 L14.6718787,26.5689833 C14.6718787,26.5168259 14.6614472,26.4646685 14.6510157,26.4020796 C14.6510157,26.3394907 14.6405843,26.2769019 14.6405843,26.2247444 L14.6405843,26.19345 C14.6405843,26.1412926 14.6405843,26.0787037 14.6405843,26.0265463 C14.6405843,25.9639574 14.6405843,25.9013685 14.6405843,25.8387796 L14.6405843,25.8074852 C14.6405843,25.6927389 14.6405843,25.5884241 14.6405843,25.4736778 L14.5988583,9.27358704 L20.0336602,11.3807463 L20.0336602,11.3494519 Z" id="路径" fill="url(#linearGradient-10)" fill-rule="nonzero"></path>
                    <path d="M20.9203361,11.9649093 C25.3328528,9.61782593 28.6292009,6.79089444 30.7780861,3.52584074 C34.1891806,5.30962407 37.5063917,5.62256852 40.719288,4.38122222 L40.7923083,4.34992778 L40.8340594,19.6216167 C40.8444657,24.1697426 37.6107065,29.6462704 30.9345583,36.353713 C24.2688417,35.20625 20.9099046,32.1393944 20.8994731,27.2365981 L20.8994731,27.2365981 L20.9203361,11.9544778 L20.9203361,11.9544778 L20.9203361,11.9649093 Z" id="路径"></path>
                    <path d="M30.8719694,3.46325185 C34.1891806,5.29919259 37.5063917,5.61213704 40.719288,4.38122222 L40.7923083,4.34992778 L40.8340594,19.6216167 C40.8444657,24.1697426 37.6107065,29.6462704 30.8824009,36.3641444 C24.2688417,35.20625 20.9099046,32.1393944 20.8994731,27.2365981 L20.9203361,11.9544778 C25.3015583,9.63868889 28.6187694,6.79089444 30.8719694,3.46325185 L30.8719694,3.46325185 Z" id="路径" fill="url(#linearGradient-11)" fill-rule="nonzero"></path>
                    <polygon id="路径" fill="url(#linearGradient-12)" fill-rule="nonzero" points="20.8681787 11.9962037 20.9307676 11.9649093 20.9307676 11.9649093 20.9099046 27.2365981"></polygon>
                    <path d="M20.0336602,11.3494519 L20.0336602,11.6206704 L20.0753861,26.9236537 L20.0753861,27.5599741 C20.0858176,32.932187 23.6220898,36.2598296 30.559025,37.480313 L30.9241269,37.5637648 L31.2892287,37.198663 C38.2678898,30.1678444 41.6685528,24.3262148 41.6581452,19.3191037 L41.6163954,2.97297222 L40.719288,3.31721111 C37.6941583,4.47510556 34.5334194,4.18302407 31.3518176,2.4201037 L30.7676546,2.11759074 L30.2356491,2.9312463 C28.2015102,6.01896481 25.0303398,8.72071852 20.8264528,10.9426241 L20.0336602,11.3598833 L20.0336602,11.3494519 Z M20.9203361,11.9649093 C25.3328528,9.61782593 28.6292009,6.79089444 30.7780861,3.52584074 C34.1891806,5.30962407 37.5063917,5.62256852 40.719288,4.38122222 L40.7923083,4.34992778 L40.8340594,19.6216167 C40.8444657,24.1697426 37.6107065,29.6462704 30.9345583,36.353713 C24.2688417,35.20625 20.9099046,32.1393944 20.8994731,27.2365981 L20.8994731,27.2365981 L20.8577472,11.9962037 L20.9203361,11.9649093 Z" id="形状" fill="#FFFFFF" fill-rule="nonzero"></path>
                    <polygon id="路径" fill="url(#linearGradient-13)" fill-rule="nonzero" points="20.2840157 11.2555685 15.4229454 9.5761 20.1484065 11.8293"></polygon>
                </g>
            </g>
        </g>
    </g>
</svg>