<?xml version="1.0" encoding="UTF-8"?>
<svg width="24px" height="24px" viewBox="0 0 24 24" version="1.1" xmlns="http://www.w3.org/2000/svg" xmlns:xlink="http://www.w3.org/1999/xlink">
    <title>编组 34</title>
    <g id="页面-1" stroke="none" stroke-width="1" fill="none" fill-rule="evenodd">
        <g id="编组-34">
            <rect id="矩形备份-6" x="0" y="0" width="24" height="24"></rect>
            <path d="M11.5,1 L13.7333839,2.15829386 C15.1735829,2.90522037 16.699238,3.47325467 18.2765706,3.84982024 L21,4.5 L21,14.5 C19.0017171,18.0758688 15.9323983,20.9308697 12.2265579,22.6608285 L11.5,23 L8.97199339,21.667248 C6.07312607,20.1389801 3.70816904,17.7658625 2.18587549,14.8652951 L2,14.5 L2,4.5 L4.71154555,3.8566439 C6.31753821,3.47559731 7.87015874,2.89614343 9.3338038,2.13156978 L11.5,1 Z M11.5035272,2.5 L10.1732597,3.20722987 C8.64785427,4.01820384 7.04002223,4.65464067 5.37908168,5.10540442 L4.75379677,5.26571565 L3.5,5.56847651 L3.5,14.1755815 C4.85920174,16.7698725 6.91761811,18.9140468 9.43238629,20.3540105 L9.7947171,20.5549016 L11.5561568,21.5 C14.7267738,19.9516506 17.3989957,17.5223463 19.2702826,14.4984948 L19.5,14.1174375 L19.5,5.56603011 L18.2306655,5.25761797 C16.5867753,4.85819946 14.990759,4.27825778 13.470432,3.528333 L12.9039117,3.23916384 L11.5035272,2.5 Z" id="形状结合备份-2" fill="#6C7280" fill-rule="nonzero"></path>
            <path d="M11.9787126,6.92792986 L12.1266589,6.98862761 L12.2246635,7.03950457 L15.4651832,8.8911534 C15.8272418,9.09971602 16.0770601,9.45517472 16.1538246,9.8647385 L16.1743806,10.0206799 L16.178307,10.1234713 L16.178307,13.8278807 C16.178307,14.2454465 15.9944838,14.6386715 15.6780354,14.9094543 L15.5532504,15.0050668 L15.4647288,15.0604592 L12.2247728,16.9117848 C12.0667808,17.0022383 11.8948914,17.0616378 11.7745687,17.0668579 C11.6143952,17.1649264 11.4126924,17.1646253 11.3103635,17.0868876 C11.2155441,17.0733797 11.1224761,17.0502468 11.0311409,17.0171964 L10.8954355,16.960146 L10.8036436,16.9118474 L7.56311868,15.0601956 C7.20090984,14.8515272 6.95105469,14.495845 6.87442503,14.0861478 L6.85392774,13.930161 L6.85,13.8278807 L6.85,10.1234713 C6.85,9.70571394 7.033974,9.3120521 7.35032193,9.0416953 L7.47505665,8.9462852 L7.56359475,8.89088328 L10.8031234,7.04034758 C11.162325,6.83318829 11.5914958,6.79418347 11.9787126,6.92792986 Z M7.845,10.297 L7.84461078,13.8273363 C7.84461078,13.9352227 7.88541917,14.0377901 7.9534874,14.1135742 L8.00943809,14.1650551 L8.05753351,14.1973652 L11.017,15.888 L11.017,12.131 L7.845,10.297 Z M15.184,10.3 L12.012,12.134 L12.012,15.887 L14.9698513,14.1978964 C15.0633792,14.1435795 15.1319954,14.0566984 15.1635722,13.9605142 L15.1801203,13.8869952 L15.1836962,13.8273363 L15.184,10.3 Z M11.4264906,7.8529884 L11.3597629,7.87231078 L11.3308885,7.87733321 L11.2981226,7.90261042 L8.478,9.513 L11.518,11.272 L14.554,9.516 L11.7285475,7.9012071 C11.6364387,7.84808811 11.528786,7.83155371 11.4264906,7.8529884 Z" id="形状结合" fill="#6C7280" fill-rule="nonzero"></path>
        </g>
    </g>
</svg>