<?xml version="1.0" encoding="UTF-8"?>
<svg width="73px" height="82px" viewBox="0 0 73 82" version="1.1" xmlns="http://www.w3.org/2000/svg" xmlns:xlink="http://www.w3.org/1999/xlink">
    <title>编组 39</title>
    <defs>
        <linearGradient x1="50.1641964%" y1="-0.344444444%" x2="50.1641964%" y2="97.6555556%" id="linearGradient-1">
            <stop stop-color="#84C1FE" offset="0%"></stop>
            <stop stop-color="#5F92F9" stop-opacity="0.1" offset="100%"></stop>
        </linearGradient>
        <linearGradient x1="101.375028%" y1="75.8767081%" x2="56.375028%" y2="42.3206737%" id="linearGradient-2">
            <stop stop-color="#528BF3" offset="0%"></stop>
            <stop stop-color="#8F9FBC" stop-opacity="0" offset="100%"></stop>
        </linearGradient>
        <linearGradient x1="98.9102708%" y1="49.8653846%" x2="9.91027075%" y2="49.8653846%" id="linearGradient-3">
            <stop stop-color="#4D86FC" offset="0%"></stop>
            <stop stop-color="#9FBDFD" stop-opacity="0.05" offset="100%"></stop>
        </linearGradient>
        <linearGradient x1="52.1992554%" y1="41.8653846%" x2="49.0601713%" y2="35.8653846%" id="linearGradient-4">
            <stop stop-color="#9FBDFD" stop-opacity="0.05" offset="0%"></stop>
            <stop stop-color="#4D86FC" offset="100%"></stop>
        </linearGradient>
        <radialGradient cx="27.4132653%" cy="32.425%" fx="27.4132653%" fy="32.425%" r="80.0603687%" gradientTransform="translate(0.274133,0.324250),scale(1.000000,0.980000),rotate(10.278720),translate(-0.274133,-0.324250)" id="radialGradient-5">
            <stop stop-color="#8DCEFF" offset="0%"></stop>
            <stop stop-color="#4A77F5" offset="80%"></stop>
            <stop stop-color="#568AFE" offset="92%"></stop>
            <stop stop-color="#4D86FC" offset="100%"></stop>
        </radialGradient>
        <linearGradient x1="0.000210045031%" y1="49.9732559%" x2="99.8932357%" y2="49.9732559%" id="linearGradient-6">
            <stop stop-color="#2EB6E6" offset="0%"></stop>
            <stop stop-color="#3388FF" offset="100%"></stop>
        </linearGradient>
        <linearGradient x1="0.0507614213%" y1="49.9640029%" x2="100%" y2="49.9640029%" id="linearGradient-7">
            <stop stop-color="#2EB6E6" offset="0%"></stop>
            <stop stop-color="#3388FF" offset="100%"></stop>
        </linearGradient>
        <linearGradient x1="0%" y1="50%" x2="100%" y2="50%" id="linearGradient-8">
            <stop stop-color="#2EB6E6" offset="0%"></stop>
            <stop stop-color="#3388FF" offset="100%"></stop>
        </linearGradient>
        <linearGradient x1="0%" y1="15.8599121%" x2="100%" y2="82.5676699%" id="linearGradient-9">
            <stop stop-color="#2EB6E6" offset="0%"></stop>
            <stop stop-color="#3388FF" offset="100%"></stop>
        </linearGradient>
        <linearGradient x1="0%" y1="50.0699301%" x2="100%" y2="50.0699301%" id="linearGradient-10">
            <stop stop-color="#2EB6E6" offset="0%"></stop>
            <stop stop-color="#3388FF" offset="100%"></stop>
        </linearGradient>
        <linearGradient x1="0%" y1="49.7225928%" x2="100%" y2="49.7225928%" id="linearGradient-11">
            <stop stop-color="#2EB6E6" offset="0%"></stop>
            <stop stop-color="#3388FF" offset="100%"></stop>
        </linearGradient>
        <linearGradient x1="-0.34940601%" y1="49.7219341%" x2="100%" y2="49.7219341%" id="linearGradient-12">
            <stop stop-color="#2EB6E6" offset="0%"></stop>
            <stop stop-color="#3388FF" offset="100%"></stop>
        </linearGradient>
        <linearGradient x1="0%" y1="49.7822932%" x2="99.9998711%" y2="49.7822932%" id="linearGradient-13">
            <stop stop-color="#2EB6E6" offset="0%"></stop>
            <stop stop-color="#3388FF" offset="100%"></stop>
        </linearGradient>
        <linearGradient x1="7.94757721%" y1="44.5055812%" x2="96.8014051%" y2="66.8954866%" id="linearGradient-14">
            <stop stop-color="#2EB6E6" offset="0%"></stop>
            <stop stop-color="#3388FF" offset="100%"></stop>
        </linearGradient>
        <linearGradient x1="7.94757721%" y1="37.3421261%" x2="96.8014051%" y2="88.9233049%" id="linearGradient-15">
            <stop stop-color="#2EB6E6" offset="0%"></stop>
            <stop stop-color="#3388FF" offset="100%"></stop>
        </linearGradient>
        <linearGradient x1="8.67668958%" y1="0%" x2="95.989954%" y2="203.751354%" id="linearGradient-16">
            <stop stop-color="#2EB6E6" offset="0%"></stop>
            <stop stop-color="#3388FF" offset="100%"></stop>
        </linearGradient>
    </defs>
    <g id="品牌化" stroke="none" stroke-width="1" fill="none" fill-rule="evenodd">
        <g id="数据安全-AirGap-存储设备" transform="translate(-341.000000, -131.000000)">
            <g id="编组-39" transform="translate(342.000000, 133.000000)">
                <g id="编组-22">
                    <polygon id="路径" fill="url(#linearGradient-1)" opacity="0.3" points="34.8785047 5.23364486 63.8878505 22.0560748 63.8878505 55.7009346 34.8785047 72.5233645 5.87663551 55.7009346 5.87663551 22.0560748"></polygon>
                    <polygon id="Combined-Shape" fill="url(#linearGradient-2)" opacity="0.2" points="68.2691589 19.5439252 71.9401869 21.682243 71.9401869 60.5607477 38.5271028 80 5.11401869 60.5607477 5.11401869 60.4785047 34.8560748 77.7794393 68.2691589 58.3401869"></polygon>
                    <polyline id="Path" stroke="url(#linearGradient-3)" stroke-linecap="round" stroke-linejoin="round" points="34.8785047 0 68.2915888 19.4392523 68.2915888 58.317757 34.8785047 77.7570093"></polyline>
                    <polyline id="Path-2" stroke="url(#linearGradient-4)" stroke-width="4" opacity="0.4" stroke-linecap="round" stroke-linejoin="round" points="34.8785047 77.7570093 1.46542056 58.317757 1.46542056 19.4392523 34.8785047 0"></polyline>
                    <ellipse id="Oval-Copy-5" fill="url(#radialGradient-5)" fill-rule="nonzero" cx="1.46542056" cy="19.4392523" rx="1.46542056" ry="1.4953271"></ellipse>
                </g>
                <g id="资源-28备份" transform="translate(14.814984, 23.977535)" fill-rule="nonzero">
                    <path d="M40.164486,32.0449292 C40.4189119,32.0469109 40.6635014,31.9467294 40.8434133,31.7668175 C41.0233252,31.5869055 41.1235067,31.3423161 41.121525,31.0878901 L41.121525,18.968264 C41.1234861,18.7164299 41.0253506,18.4741203 40.8486791,18.2946446 C40.6720076,18.1151688 40.4312734,18.0132298 40.1794393,18.0112546 L28.0373832,18.0112546 C27.7842507,18.0112546 27.5415933,18.1123122 27.3633049,18.2920045 C27.1850165,18.4716968 27.0858573,18.7151393 27.087821,18.968264 L40.164486,32.0449292 Z" id="路径" fill="url(#linearGradient-6)"></path>
                    <g id="编组" opacity="0.6" transform="translate(0.000000, 0.000040)">
                        <path d="M22.5417443,20.9891143 C22.2788539,20.6508046 21.8093745,20.5531497 21.433385,20.7585682 L13.2560748,25.2261682 L13.2560748,25.2261682 L9.51775701,25.2261682 C9.10483383,25.2261682 8.77009346,24.8914279 8.77009346,24.4785047 L8.77009346,16.328972 L7.27476636,16.328972 L7.27476636,24.471028 C7.27476636,25.7097976 8.27898748,26.7140187 9.51775701,26.7140187 L13.7570093,26.7140187 L22.3481955,21.9372278 C22.6558395,21.7661744 22.7665682,21.3781135 22.5955148,21.0704695 C22.5796953,21.0420177 22.5617192,21.0148197 22.5417443,20.9891143 Z" id="路径" fill="url(#linearGradient-7)"></path>
                        <path d="M21.6523364,25.0242991 L27.8056075,25.0242991 L27.8056075,25.0242991 L27.8056075,26.5196262 L21.6523364,26.5196262 C21.2394133,26.5196262 20.9046729,26.1848858 20.9046729,25.7719626 C20.9046729,25.3590394 21.2394133,25.0242991 21.6523364,25.0242991 Z" id="矩形" fill="url(#linearGradient-8)"></path>
                        <path d="M40.164486,18.0111852 L28.0373832,18.0111852 C27.7842507,18.0111852 27.5415933,18.1122725 27.3633049,18.2919648 C27.1850165,18.4716571 27.0858573,18.7150996 27.087821,18.9682243 L27.087821,31.0878505 C27.0858573,31.3409751 27.1850165,31.5844177 27.3633049,31.76411 C27.5415933,31.9438022 27.7842507,32.0448895 28.0373832,32.0448895 L40.164486,32.0448895 C40.4189119,32.0468712 40.6635014,31.9466897 40.8434133,31.7667778 C41.0233252,31.5868659 41.1235067,31.3422764 41.121525,31.0878505 L41.121525,18.9682243 C41.1235067,18.7137984 41.0233252,18.4692089 40.8434133,18.289297 C40.6635014,18.109385 40.4189119,18.0092036 40.164486,18.0111852 Z" id="路径" fill="url(#linearGradient-9)"></path>
                        <rect id="矩形" fill="url(#linearGradient-10)" x="0" y="0" width="16.6803738" height="5.34579439" rx="1.2"></rect>
                        <rect id="矩形" fill="url(#linearGradient-10)" x="0" y="5.98130841" width="16.6803738" height="5.34579439" rx="1.2"></rect>
                        <rect id="矩形" fill="url(#linearGradient-10)" x="0" y="11.9700935" width="16.6803738" height="5.34579439" rx="1.2"></rect>
                    </g>
                    <path d="M16.6803738,0.897235943 L16.6803738,4.48602099 C16.6762686,4.98273577 16.2724327,5.38321725 15.7757009,5.38321725 L5.34579439,5.38321725 L0.441121495,0.127142486 C0.578092536,0.0425544843 0.736218674,-0.001513456 0.897196262,0 L15.7757009,0 C16.2724327,0 16.6762686,0.400521166 16.6803738,0.897235943 Z" id="路径" fill="url(#linearGradient-11)"></path>
                    <path d="M16.6803738,6.88602099 L16.6803738,10.4673294 C16.6803738,10.7065817 16.5848307,10.9359275 16.4149533,11.1044011 C16.2450758,11.2728746 16.014945,11.3665194 15.7757009,11.3645569 L10.9682243,11.3645569 L5.98130841,5.98134809 L15.7757009,5.98134809 C16.275338,5.98134809 16.6803738,6.38638395 16.6803738,6.88602099 L16.6803738,6.88602099 Z" id="路径" fill="url(#linearGradient-12)"></path>
                    <path d="M16.6803804,12.8673294 L16.6803804,16.4486378 C16.6813564,16.7032039 16.5723305,16.9457865 16.3813084,17.1140584 L11.5738318,11.9626565 L15.7757009,11.9626565 C16.275338,11.9626565 16.6803804,12.3676924 16.6803804,12.8673294 L16.6803804,12.8673294 Z" id="路径" fill="url(#linearGradient-13)"></path>
                    <path d="M16.6803738,0.897235943 L16.6803738,4.48602099 C16.6762686,4.98273577 16.2724327,5.38321725 15.7757009,5.38321725 L5.34579439,5.38321725 L0.441121495,0.127142486 C0.578092536,0.0425544843 0.736218674,-0.001513456 0.897196262,0 L15.7757009,0 C16.2724327,0 16.6762686,0.400521166 16.6803738,0.897235943 Z" id="路径" fill="url(#linearGradient-14)"></path>
                    <path d="M16.6803738,6.88602099 L16.6803738,10.4673294 C16.6803738,10.7065817 16.5848307,10.9359275 16.4149533,11.1044011 C16.2450758,11.2728746 16.014945,11.3665194 15.7757009,11.3645569 L10.9682243,11.3645569 L5.98130841,5.98134809 L15.7757009,5.98134809 C16.275338,5.98134809 16.6803738,6.38638395 16.6803738,6.88602099 L16.6803738,6.88602099 Z" id="路径" fill="url(#linearGradient-15)"></path>
                    <path d="M16.6803804,12.8673294 L16.6803804,16.4486378 C16.6813564,16.7032039 16.5723305,16.9457865 16.3813084,17.1140584 L11.5738318,11.9626565 L15.7757009,11.9626565 C16.275338,11.9626565 16.6803804,12.3676924 16.6803804,12.8673294 L16.6803804,12.8673294 Z" id="路径" fill="url(#linearGradient-16)"></path>
                </g>
            </g>
        </g>
    </g>
</svg>
