<?xml version="1.0" encoding="UTF-8"?>
<svg width="58px" height="66px" viewBox="0 0 58 66" version="1.1" xmlns="http://www.w3.org/2000/svg" xmlns:xlink="http://www.w3.org/1999/xlink">
    <!-- Generator: Sketch 63.1 (92452) - https://sketch.com -->
    <title>编组 4</title>
    <desc>Created with Sketch.</desc>
    <defs>
        <linearGradient x1="50.0035283%" y1="-1.66069684%" x2="50.0035283%" y2="101.628134%" id="linearGradient-1">
            <stop stop-color="#DEECFF" offset="0%"></stop>
            <stop stop-color="#DFECFF" stop-opacity="0.95" offset="12%"></stop>
            <stop stop-color="#E3EEFF" stop-opacity="0.81" offset="35%"></stop>
            <stop stop-color="#E9F2FF" stop-opacity="0.59" offset="65%"></stop>
            <stop stop-color="#F2F7FF" stop-opacity="0.3" offset="100%"></stop>
        </linearGradient>
        <linearGradient x1="-33.8478172%" y1="32.9692371%" x2="-31.96267%" y2="67.0416766%" id="linearGradient-2">
            <stop stop-color="#DEECFF" offset="0%"></stop>
            <stop stop-color="#DFECFF" stop-opacity="0.95" offset="12%"></stop>
            <stop stop-color="#E3EEFF" stop-opacity="0.81" offset="35%"></stop>
            <stop stop-color="#E9F2FF" stop-opacity="0.59" offset="65%"></stop>
            <stop stop-color="#F2F7FF" stop-opacity="0.3" offset="100%"></stop>
        </linearGradient>
        <linearGradient x1="0.00942573578%" y1="50.0162813%" x2="99.9976309%" y2="50.0162813%" id="linearGradient-3">
            <stop stop-color="#DEECFF" offset="0%"></stop>
            <stop stop-color="#EBF3FF" offset="72%"></stop>
            <stop stop-color="#F2F7FF" offset="100%"></stop>
        </linearGradient>
        <linearGradient x1="-0.00269397653%" y1="49.967887%" x2="100.000409%" y2="49.967887%" id="linearGradient-4">
            <stop stop-color="#333B47" offset="0%"></stop>
            <stop stop-color="#FFFFFF" stop-opacity="0.3" offset="100%"></stop>
        </linearGradient>
        <linearGradient x1="-0.0369396911%" y1="50.1854796%" x2="100.030326%" y2="50.1854796%" id="linearGradient-5">
            <stop stop-color="#A9C1F4" offset="0%"></stop>
            <stop stop-color="#EBF4FF" offset="100%"></stop>
        </linearGradient>
        <filter x="-41.8%" y="-69.6%" width="183.6%" height="239.3%" filterUnits="objectBoundingBox" id="filter-6">
            <feGaussianBlur stdDeviation="3" in="SourceGraphic"></feGaussianBlur>
        </filter>
        <linearGradient x1="100%" y1="50%" x2="0%" y2="50%" id="linearGradient-7">
            <stop stop-color="#FFFFFF" offset="0%"></stop>
            <stop stop-color="#FFFFFF" stop-opacity="0.99" offset="0%"></stop>
            <stop stop-color="#FFFFFF" stop-opacity="0.47" offset="51%"></stop>
            <stop stop-color="#FFFFFF" stop-opacity="0.13" offset="85%"></stop>
            <stop stop-color="#FFFFFF" stop-opacity="0" offset="100%"></stop>
        </linearGradient>
        <linearGradient x1="-1.48582499e-12%" y1="50.3333333%" x2="99.9253174%" y2="50.3333333%" id="linearGradient-8">
            <stop stop-color="#43C486" offset="0%"></stop>
            <stop stop-color="#48C588" offset="6%"></stop>
            <stop stop-color="#7ED89E" offset="69%"></stop>
            <stop stop-color="#94E0A7" offset="100%"></stop>
        </linearGradient>
        <linearGradient x1="99.9354422%" y1="49.862259%" x2="-0.129115558%" y2="49.862259%" id="linearGradient-9">
            <stop stop-color="#54D697" offset="0%"></stop>
            <stop stop-color="#65D79E" offset="17%"></stop>
            <stop stop-color="#9BDDB4" offset="73%"></stop>
            <stop stop-color="#B1E0BD" offset="100%"></stop>
        </linearGradient>
        <linearGradient x1="0.0874125874%" y1="49.8847926%" x2="100.262238%" y2="49.8847926%" id="linearGradient-10">
            <stop stop-color="#44CF8C" offset="0%"></stop>
            <stop stop-color="#5AD393" offset="32%"></stop>
            <stop stop-color="#92DFA6" offset="99%"></stop>
            <stop stop-color="#94E0A7" offset="100%"></stop>
        </linearGradient>
        <linearGradient x1="99.9998738%" y1="50%" x2="-1.1154503e-12%" y2="50%" id="linearGradient-11">
            <stop stop-color="#4FDB97" offset="0%"></stop>
            <stop stop-color="#59DC99" offset="11%"></stop>
            <stop stop-color="#8FE4A6" offset="71%"></stop>
            <stop stop-color="#A5E8AB" offset="100%"></stop>
        </linearGradient>
        <linearGradient x1="47%" y1="50%" x2="53%" y2="50%" id="linearGradient-12">
            <stop stop-color="#4FDB97" offset="0%"></stop>
            <stop stop-color="#59DC99" offset="11%"></stop>
            <stop stop-color="#8FE4A6" offset="71%"></stop>
            <stop stop-color="#A5E8AB" offset="100%"></stop>
        </linearGradient>
        <linearGradient x1="-4.72678644e-12%" y1="50%" x2="100%" y2="50%" id="linearGradient-13">
            <stop stop-color="#FFFFFF" stop-opacity="0" offset="0%"></stop>
            <stop stop-color="#FFFFFF" stop-opacity="0.06" offset="6%"></stop>
            <stop stop-color="#FFFFFF" stop-opacity="0.73" offset="72%"></stop>
            <stop stop-color="#FFFFFF" offset="100%"></stop>
        </linearGradient>
        <linearGradient x1="50.0114311%" y1="-1.96397723%" x2="50.0114311%" y2="102.018254%" id="linearGradient-14">
            <stop stop-color="#8CE0B4" stop-opacity="0" offset="17%"></stop>
            <stop stop-color="#00E093" offset="100%"></stop>
        </linearGradient>
        <linearGradient x1="0%" y1="50%" x2="100%" y2="50%" id="linearGradient-15">
            <stop stop-color="#4FDB97" offset="0%"></stop>
            <stop stop-color="#59DC99" offset="11%"></stop>
            <stop stop-color="#8FE4A6" offset="71%"></stop>
            <stop stop-color="#A5E8AB" offset="100%"></stop>
        </linearGradient>
    </defs>
    <g id="Air-Gap新" stroke="none" stroke-width="1" fill="none" fill-rule="evenodd">
        <g id="详情2" transform="translate(-43.000000, -167.000000)">
            <g id="编组-4" transform="translate(32.000000, 161.000000)">
                <rect id="矩形" x="0" y="0" width="80" height="80"></rect>
                <g id="编组-3" transform="translate(11.000000, 6.000000)">
                    <g id="编组-2" transform="translate(0.000000, 22.546250)">
                        <g id="编组" opacity="0.5" transform="translate(0.000000, 6.481250)" stroke="url(#linearGradient-1)">
                            <path d="M56.8225,16.21375 C57.555625,16.63875 57.56625,17.329375 56.8225,17.754375 L30.62125,32.98 C29.888125,33.405 28.6875,33.405 27.954375,32.98 L1.5725,17.754375 C0.82875,17.329375 0.82875,16.63875 1.5725,16.21375 L27.77375,0.988125 C28.506875,0.563125 29.696875,0.563125 30.440625,0.988125 L56.8225,16.21375 L56.8225,16.21375 Z" id="路径"></path>
                        </g>
                        <g id="编组" opacity="0.3" transform="translate(0.000000, 9.668750)" stroke="url(#linearGradient-2)" stroke-width="0.5">
                            <path d="M56.8225,15.905625 C57.555625,16.330625 57.56625,17.02125 56.8225,17.44625 L30.62125,32.671875 C29.888125,33.096875 28.6875,33.096875 27.954375,32.671875 L1.5725,17.44625 C0.82875,17.02125 0.82875,16.330625 1.5725,15.905625 L27.77375,0.68 C28.506875,0.255 29.696875,0.255 30.440625,0.68 L56.8225,15.905625 L56.8225,15.905625 Z" id="路径"></path>
                        </g>
                        <path d="M56.8225,15.544375 C57.555625,15.969375 57.56625,16.66 56.8225,17.085 L30.62125,32.310625 C29.888125,32.735625 28.6875,32.735625 27.954375,32.310625 L1.5725,17.085 C0.82875,16.66 0.82875,15.969375 1.5725,15.544375 L27.77375,0.31875 C28.506875,-0.10625 29.696875,-0.10625 30.440625,0.31875 L56.8225,15.544375 L56.8225,15.544375 Z" id="路径" fill="url(#linearGradient-3)" fill-rule="nonzero"></path>
                        <path d="M56.833125,16.63875 L30.631875,31.864375 C29.89875,32.289375 28.698125,32.289375 27.965,31.864375 L1.583125,16.63875 C1.3175,16.479375 1.1475,16.288125 1.073125,16.096875 C0.945625,16.4475 1.115625,16.83 1.583125,17.095625 L27.965,32.32125 C28.698125,32.74625 29.89875,32.74625 30.631875,32.32125 L56.833125,17.095625 C57.300625,16.819375 57.46,16.4475 57.3325,16.096875 C57.258125,16.29875 57.09875,16.479375 56.833125,16.63875 Z" id="路径" fill="url(#linearGradient-4)" fill-rule="nonzero" opacity="0.31"></path>
                        <path d="M57.343125,16.521875 L57.343125,16.543125 C57.31125,16.606875 57.29,16.66 57.2475,16.713125 L57.22625,16.745 C57.18375,16.798125 57.130625,16.861875 57.0775,16.915 C57.035,16.946875 56.9925,16.97875 56.95,17.010625 C56.9075,17.0425 56.875625,17.06375 56.833125,17.095625 L30.631875,32.32125 C30.515,32.385 30.3875,32.438125 30.26,32.480625 C30.2175,32.501875 30.164375,32.5125 30.121875,32.523125 C30.058125,32.544375 29.994375,32.555 29.930625,32.565625 C29.85625,32.57625 29.781875,32.5975 29.696875,32.608125 C29.675625,32.608125 29.665,32.608125 29.64375,32.608125 C29.5375,32.61875 29.43125,32.629375 29.325,32.629375 C29.30375,32.629375 29.293125,32.629375 29.271875,32.629375 C29.165625,32.629375 29.059375,32.629375 28.96375,32.608125 L28.92125,32.608125 C28.815,32.586875 28.719375,32.57625 28.613125,32.555 L28.56,32.555 C28.475,32.523125 28.379375,32.49125 28.294375,32.459375 C28.28375,32.459375 28.2625,32.459375 28.251875,32.44875 C28.145625,32.40625 28.05,32.36375 27.965,32.310625 L1.583125,17.085 C1.4025,16.97875 1.25375,16.85125 1.16875,16.72375 C1.073125,16.59625 1.03018229,16.4475 1.03018229,16.309375 L1.03018229,20.049375 C1.02,20.325625 1.200625,20.6125 1.5725,20.825 L27.954375,36.050625 C28.039375,36.10375 28.135,36.14625 28.22,36.178125 L28.230625,36.178125 C28.230625,36.178125 28.2625,36.18875 28.273125,36.199375 C28.32625,36.220625 28.379375,36.241875 28.443125,36.2525 C28.475,36.2525 28.506875,36.263125 28.53875,36.27375 L28.591875,36.27375 C28.591875,36.27375 28.62375,36.295 28.645,36.295 C28.70875,36.305625 28.7725,36.31625 28.83625,36.326875 C28.8575,36.326875 28.87875,36.326875 28.9,36.326875 L28.9425,36.326875 C28.9425,36.326875 28.985,36.3375 29.016875,36.3375 C29.080625,36.3375 29.144375,36.3375 29.208125,36.3375 C29.229375,36.3375 29.250625,36.3375 29.26125,36.3375 C29.2825,36.3375 29.293125,36.3375 29.314375,36.3375 C29.34625,36.3375 29.3675,36.3375 29.399375,36.3375 C29.47375,36.3375 29.5375,36.3375 29.611875,36.326875 L29.633125,36.326875 C29.633125,36.326875 29.665,36.326875 29.68625,36.31625 C29.739375,36.31625 29.7925,36.305625 29.845625,36.295 C29.866875,36.295 29.888125,36.284375 29.909375,36.27375 C29.973125,36.263125 30.036875,36.241875 30.100625,36.23125 C30.1325,36.23125 30.164375,36.220625 30.19625,36.21 C30.206875,36.21 30.228125,36.199375 30.23875,36.18875 C30.36625,36.14625 30.49375,36.093125 30.610625,36.029375 L56.811875,20.80375 L56.833125,20.80375 C56.833125,20.80375 56.896875,20.74 56.92875,20.71875 C56.97125,20.686875 57.024375,20.655 57.05625,20.623125 L57.066875,20.623125 C57.066875,20.623125 57.151875,20.5275 57.18375,20.485 C57.18375,20.485 57.194375,20.46375 57.205,20.453125 L57.22625,20.42125 C57.22625,20.42125 57.2475,20.389375 57.258125,20.368125 C57.279375,20.33625 57.29,20.29375 57.31125,20.261875 L57.31125,20.219375 C57.31125,20.219375 57.3325,20.176875 57.343125,20.155625 C57.343125,20.12375 57.35375,20.08125 57.35375,20.049375 L57.35375,16.288125 C57.364375,16.351875 57.35375,16.415625 57.3325,16.479375 L57.343125,16.521875 Z" id="路径" fill="url(#linearGradient-5)" fill-rule="nonzero"></path>
                        <path d="M34.6572223,9.84519904 L40.663,13.47975 L25.144,22.59175 L19.4194364,19.1264185 C19.0268545,18.8911531 19.0268545,18.5088469 19.4194364,18.2735815 L33.2495358,9.84519904 C33.6365093,9.60993365 34.2646404,9.60993365 34.6572223,9.84519904 Z" id="形状结合" fill="#13389E" fill-rule="nonzero" opacity="0.476872762" filter="url(#filter-6)"></path>
                    </g>
                    <path d="M32.374375,3.580625 L26.83875,1.434375 C27.39125,1.72125 27.954375,1.97625 28.49625,2.18875 L34.031875,4.335 C33.479375,4.1225 32.926875,3.8675 32.374375,3.580625" id="路径" fill="#848484" fill-rule="nonzero"></path>
                    <path d="M32.374375,3.580625 L26.83875,1.434375 C27.39125,1.72125 27.954375,1.97625 28.49625,2.18875 L34.031875,4.335 C33.479375,4.1225 32.926875,3.8675 32.374375,3.580625" id="路径" fill="#848484" fill-rule="nonzero"></path>
                    <polyline id="路径" fill="url(#linearGradient-7)" fill-rule="nonzero" points="26.828125 1.54293245e-13 32.36375 2.14625 32.246875 2.31625"></polyline>
                    <polygon id="路径" fill="#4E4E4E" fill-rule="nonzero" points="42.574375 4.430625 37.03875 2.284375 36.964375 2.31625 42.489375 4.4625"></polygon>
                    <path d="M29.186875,1.1475 C29.3675,1.221875 29.55875,1.285625 29.739375,1.349375 C29.8775,1.4025 30.02625,1.445 30.164375,1.4875 L30.2175,1.4875 C30.345,1.540625 30.483125,1.5725 30.610625,1.604375 C30.653125,1.615 30.70625,1.625625 30.74875,1.63625 C30.855,1.6575 30.971875,1.689375 31.078125,1.710625 C31.120625,1.710625 31.163125,1.731875 31.205625,1.731875 C31.28,1.7425 31.354375,1.753125 31.42875,1.774375 C31.535,1.795625 31.630625,1.80625 31.736875,1.8275 C31.81125,1.838125 31.885625,1.84875 31.96,1.859375 C32.055625,1.87 32.15125,1.880625 32.2575,1.89125 C32.3425,1.89125 32.4275,1.901875 32.523125,1.9125 C32.586875,1.9125 32.650625,1.9125 32.714375,1.923125 C32.81,1.923125 32.905625,1.923125 33.00125,1.923125 C33.054375,1.923125 33.118125,1.923125 33.17125,1.923125 C33.32,1.923125 33.458125,1.923125 33.606875,1.923125 C33.628125,1.923125 33.649375,1.923125 33.670625,1.923125 C33.7875,1.923125 33.904375,1.9125 34.010625,1.901875 C34.2125,1.89125 34.414375,1.87 34.605625,1.838125 C34.648125,1.838125 34.68,1.8275 34.7225,1.816875 C34.87125,1.795625 35.02,1.774375 35.16875,1.7425 C35.2325,1.731875 35.29625,1.72125 35.36,1.7 C35.476875,1.67875 35.583125,1.646875 35.7,1.625625 C35.76375,1.604375 35.838125,1.59375 35.901875,1.5725 C36.008125,1.540625 36.114375,1.50875 36.220625,1.476875 C36.284375,1.455625 36.35875,1.434375 36.4225,1.413125 C36.518125,1.38125 36.624375,1.349375 36.72,1.306875 C36.805,1.275 36.89,1.25375 36.964375,1.221875 L37.878125,0.87125 L43.41375,3.0175 L42.5,3.368125 L42.404375,3.4 C42.404375,3.4 42.298125,3.431875 42.255625,3.453125 C42.16,3.485 42.05375,3.5275 41.958125,3.559375 C41.936875,3.559375 41.915625,3.57 41.894375,3.580625 C41.851875,3.59125 41.79875,3.601875 41.75625,3.623125 C41.65,3.655 41.54375,3.686875 41.448125,3.71875 C41.41625,3.71875 41.384375,3.74 41.3525,3.750625 C41.320625,3.750625 41.278125,3.771875 41.24625,3.771875 C41.129375,3.80375 41.023125,3.825 40.90625,3.84625 C40.86375,3.84625 40.831875,3.8675 40.789375,3.878125 C40.768125,3.878125 40.73625,3.878125 40.715,3.88875 C40.56625,3.920625 40.4175,3.941875 40.26875,3.963125 C40.236875,3.963125 40.205,3.97375 40.173125,3.984375 L40.151875,3.984375 C39.95,4.01625 39.75875,4.0375 39.556875,4.048125 C39.535625,4.048125 39.525,4.048125 39.50375,4.048125 C39.408125,4.048125 39.3125,4.05875 39.216875,4.05875 C39.195625,4.05875 39.174375,4.05875 39.153125,4.05875 C39.025625,4.05875 38.898125,4.05875 38.76,4.05875 L38.7175,4.05875 C38.664375,4.05875 38.600625,4.05875 38.5475,4.05875 C38.451875,4.05875 38.35625,4.05875 38.260625,4.05875 C38.196875,4.05875 38.133125,4.05875 38.069375,4.048125 C38.01625,4.048125 37.9525,4.048125 37.899375,4.0375 C37.8675,4.0375 37.835625,4.0375 37.814375,4.0375 C37.71875,4.0375 37.623125,4.01625 37.516875,4.005625 C37.4425,4.005625 37.368125,3.984375 37.29375,3.97375 C37.1875,3.963125 37.091875,3.941875 36.985625,3.920625 C36.9325,3.920625 36.879375,3.899375 36.82625,3.899375 C36.805,3.899375 36.78375,3.899375 36.7625,3.88875 C36.72,3.88875 36.6775,3.8675 36.635,3.8675 C36.52875,3.84625 36.411875,3.825 36.305625,3.793125 C36.263125,3.7825 36.21,3.771875 36.1675,3.76125 C36.04,3.729375 35.901875,3.6975 35.774375,3.655 L35.72125,3.655 C35.59375,3.601875 35.46625,3.559375 35.33875,3.516875 L35.29625,3.495625 C35.115625,3.431875 34.924375,3.368125 34.74375,3.29375 L29.208125,1.1475 L29.186875,1.1475 Z" id="路径" fill="url(#linearGradient-8)" fill-rule="nonzero"></path>
                    <path d="M32.374375,3.580625 L26.83875,1.434375 C27.39125,1.72125 27.954375,1.97625 28.49625,2.18875 L34.031875,4.335 C33.479375,4.1225 32.926875,3.8675 32.374375,3.580625" id="路径" fill="#848484" fill-rule="nonzero"></path>
                    <path d="M17.4675,9.679375 C17.53125,9.6475 17.595,9.615625 17.648125,9.573125 C17.903125,9.435 18.1475,9.28625 18.391875,9.148125 C18.445,9.11625 18.4875,9.095 18.53,9.063125 C18.72125,8.94625 18.9125,8.829375 19.093125,8.7125 C19.1675,8.67 19.241875,8.616875 19.31625,8.574375 C19.48625,8.468125 19.645625,8.361875 19.815625,8.255625 C19.879375,8.213125 19.9325,8.170625 19.99625,8.13875 C20.219375,7.99 20.431875,7.84125 20.644375,7.6925 C20.665625,7.67125 20.6975,7.660625 20.71875,7.639375 C20.91,7.50125 21.090625,7.37375 21.27125,7.235625 C21.324375,7.193125 21.388125,7.150625 21.44125,7.108125 C21.536875,7.03375 21.643125,6.959375 21.73875,6.874375 C21.940625,6.715 22.1425,6.555625 22.33375,6.39625 C22.408125,6.3325 22.4825,6.26875 22.556875,6.215625 C22.811875,6.003125 23.05625,5.790625 23.300625,5.5675 L23.3325,5.535625 C23.56625,5.323125 23.789375,5.110625 24.001875,4.898125 C24.065625,4.834375 24.14,4.76 24.20375,4.69625 C24.37375,4.52625 24.533125,4.35625 24.6925,4.18625 C24.75625,4.111875 24.82,4.048125 24.88375,3.97375 C25.106875,3.74 25.319375,3.495625 25.52125,3.25125 C25.67,3.070625 25.81875,2.89 25.956875,2.709375 C25.999375,2.65625 26.03125,2.603125 26.07375,2.560625 C26.18,2.4225 26.28625,2.284375 26.381875,2.14625 C26.424375,2.093125 26.466875,2.029375 26.509375,1.97625 C26.6475,1.785 26.785625,1.59375 26.913125,1.4025 L32.44875,3.54875 C32.32125,3.74 32.183125,3.93125 32.045,4.1225 C32.0025,4.175625 31.96,4.239375 31.9175,4.2925 C31.864375,4.366875 31.81125,4.44125 31.7475,4.52625 C31.705,4.59 31.651875,4.65375 31.59875,4.706875 C31.55625,4.76 31.524375,4.813125 31.481875,4.855625 C31.34375,5.03625 31.195,5.216875 31.04625,5.386875 L31.04625,5.386875 C30.844375,5.63125 30.631875,5.875625 30.40875,6.12 C30.3875,6.14125 30.36625,6.173125 30.334375,6.194375 C30.291875,6.236875 30.249375,6.279375 30.206875,6.321875 C30.0475,6.491875 29.8775,6.661875 29.718125,6.831875 C29.675625,6.874375 29.633125,6.916875 29.590625,6.959375 C29.569375,6.980625 29.5375,7.0125 29.51625,7.03375 C29.293125,7.24625 29.080625,7.45875 28.846875,7.67125 L28.815,7.6925 L28.815,7.6925 C28.570625,7.915625 28.32625,8.128125 28.07125,8.340625 C28.05,8.361875 28.018125,8.383125 27.996875,8.404375 C27.954375,8.446875 27.90125,8.47875 27.848125,8.52125 C27.656875,8.680625 27.455,8.84 27.253125,8.999375 C27.2,9.041875 27.1575,9.07375 27.115,9.11625 C27.061875,9.15875 27.00875,9.190625 26.955625,9.233125 C26.9025,9.275625 26.83875,9.318125 26.785625,9.360625 C26.605,9.49875 26.424375,9.636875 26.233125,9.764375 C26.211875,9.785625 26.18,9.79625 26.15875,9.8175 L26.1375,9.8175 C25.935625,9.976875 25.723125,10.125625 25.510625,10.26375 C25.446875,10.30625 25.39375,10.34875 25.33,10.380625 C25.245,10.444375 25.149375,10.4975 25.064375,10.56125 C24.99,10.614375 24.915625,10.656875 24.830625,10.71 C24.75625,10.763125 24.681875,10.805625 24.6075,10.848125 C24.426875,10.965 24.235625,11.081875 24.044375,11.188125 C23.99125,11.22 23.94875,11.251875 23.895625,11.273125 L23.86375,11.294375 C23.63,11.4325 23.39625,11.570625 23.1625,11.698125 C23.09875,11.73 23.045625,11.761875 22.981875,11.79375 C22.8225,11.87875 22.67375,11.96375 22.514375,12.04875 C22.450625,12.080625 22.386875,12.123125 22.3125,12.155 L16.776875,10.00875 C17,9.891875 17.223125,9.764375 17.44625,9.6475 L17.4675,9.679375 Z" id="路径" fill="#FFFFFF" fill-rule="nonzero"></path>
                    <path d="M16.7025,8.999375 C16.915,8.893125 17.116875,8.77625 17.31875,8.659375 C17.393125,8.616875 17.456875,8.585 17.53125,8.5425 C17.775625,8.404375 18.009375,8.26625 18.243125,8.128125 C18.275,8.106875 18.306875,8.085625 18.33875,8.064375 C18.53,7.9475 18.72125,7.830625 18.9125,7.71375 C18.986875,7.67125 19.06125,7.618125 19.125,7.575625 C19.284375,7.48 19.433125,7.37375 19.5925,7.278125 C19.65625,7.235625 19.72,7.193125 19.78375,7.150625 C19.975,7.023125 20.176875,6.885 20.3575,6.7575 L20.4,6.725625 C20.601875,6.5875 20.793125,6.43875 20.995,6.29 C21.048125,6.2475 21.10125,6.215625 21.154375,6.173125 C21.260625,6.088125 21.366875,6.01375 21.473125,5.92875 C21.664375,5.78 21.855625,5.620625 22.03625,5.471875 C22.1,5.41875 22.16375,5.365625 22.238125,5.3125 C22.471875,5.110625 22.705625,4.90875 22.92875,4.706875 C22.960625,4.675 22.9925,4.643125 23.024375,4.61125 C23.215625,4.44125 23.39625,4.260625 23.576875,4.090625 C23.640625,4.026875 23.715,3.9525 23.77875,3.88875 C23.9275,3.74 24.065625,3.59125 24.214375,3.4425 C24.278125,3.37875 24.341875,3.304375 24.405625,3.240625 C24.575625,3.06 24.735,2.86875 24.894375,2.688125 C24.92625,2.65625 24.958125,2.61375 24.99,2.581875 C25.01125,2.560625 25.021875,2.539375 25.043125,2.518125 C25.170625,2.369375 25.2875,2.220625 25.404375,2.071875 C25.43625,2.029375 25.468125,1.986875 25.5,1.944375 C25.6275,1.774375 25.755,1.615 25.871875,1.445 L25.893125,1.42375 C26.03125,1.2325 26.15875,1.04125 26.296875,0.839375 L26.83875,0.010625 L32.374375,2.156875 L31.8325,2.985625 C31.8325,2.985625 31.76875,3.08125 31.736875,3.134375 C31.64125,3.283125 31.535,3.42125 31.439375,3.57 L31.439375,3.59125 C31.333125,3.729375 31.226875,3.856875 31.13125,3.995 C31.11,4.026875 31.078125,4.05875 31.04625,4.10125 C31.014375,4.14375 30.9825,4.18625 30.950625,4.22875 C30.83375,4.3775 30.716875,4.52625 30.589375,4.675 C30.568125,4.69625 30.5575,4.7175 30.53625,4.73875 L30.515,4.76 C30.515,4.76 30.461875,4.813125 30.440625,4.845 C30.28125,5.03625 30.121875,5.216875 29.951875,5.3975 C29.930625,5.429375 29.909375,5.450625 29.8775,5.4825 C29.835,5.525 29.7925,5.5675 29.760625,5.61 C29.6225,5.75875 29.47375,5.9075 29.335625,6.05625 C29.293125,6.09875 29.26125,6.14125 29.21875,6.18375 C29.1975,6.205 29.165625,6.236875 29.144375,6.258125 C28.96375,6.43875 28.783125,6.60875 28.591875,6.77875 C28.56,6.8 28.53875,6.831875 28.506875,6.853125 L28.485625,6.853125 C28.2625,7.07625 28.02875,7.278125 27.795,7.469375 C27.77375,7.490625 27.7525,7.50125 27.741875,7.5225 C27.699375,7.565 27.64625,7.596875 27.60375,7.639375 C27.423125,7.788125 27.231875,7.9475 27.040625,8.09625 C26.998125,8.128125 26.955625,8.170625 26.913125,8.2025 C26.849375,8.245 26.785625,8.298125 26.721875,8.340625 C26.66875,8.383125 26.615625,8.415 26.5625,8.4575 C26.37125,8.595625 26.18,8.744375 25.978125,8.8825 L25.978125,8.8825 L25.935625,8.914375 C25.744375,9.0525 25.553125,9.18 25.35125,9.3075 C25.2875,9.35 25.22375,9.3925 25.16,9.435 C25.085625,9.4775 25.021875,9.530625 24.9475,9.573125 C24.8625,9.62625 24.7775,9.679375 24.6925,9.7325 C24.618125,9.775 24.554375,9.828125 24.48,9.870625 C24.28875,9.9875 24.0975,10.104375 23.90625,10.22125 C23.874375,10.2425 23.8425,10.26375 23.810625,10.285 L23.789375,10.285 C23.555625,10.43375 23.3325,10.56125 23.088125,10.699375 C23.024375,10.741875 22.95,10.77375 22.875625,10.81625 C22.7375,10.890625 22.58875,10.975625 22.450625,11.05 C22.386875,11.081875 22.323125,11.11375 22.259375,11.15625 L21.451875,11.58125 L15.91625,9.435 L16.72375,9.01 L16.7025,8.999375 Z" id="路径" fill="url(#linearGradient-9)" fill-rule="nonzero"></path>
                    <path d="M21.42,11.56 L21.4625,28.060625 C21.4625,28.188125 21.4625,28.305 21.4625,28.4325 C21.4625,28.49625 21.4625,28.56 21.4625,28.62375 C21.4625,28.6875 21.4625,28.761875 21.4625,28.825625 C21.4625,28.889375 21.4625,28.953125 21.473125,29.00625 C21.473125,29.07 21.473125,29.13375 21.494375,29.208125 C21.494375,29.271875 21.505,29.325 21.515625,29.38875 C21.515625,29.4525 21.52625,29.51625 21.536875,29.58 C21.536875,29.64375 21.558125,29.7075 21.56875,29.77125 C21.56875,29.835 21.59,29.888125 21.600625,29.951875 C21.61125,30.015625 21.621875,30.079375 21.643125,30.15375 C21.65375,30.206875 21.664375,30.270625 21.675,30.32375 C21.69625,30.40875 21.7175,30.49375 21.73875,30.589375 C21.73875,30.62125 21.76,30.66375 21.76,30.695625 C21.791875,30.823125 21.82375,30.94 21.86625,31.0675 L21.8875,31.120625 C21.919375,31.2375 21.961875,31.34375 22.004375,31.460625 C22.015,31.503125 22.03625,31.535 22.046875,31.5775 C22.089375,31.673125 22.12125,31.779375 22.16375,31.875 C22.174375,31.9175 22.195625,31.949375 22.20625,31.991875 C22.27,32.13 22.33375,32.27875 22.3975,32.416875 L22.429375,32.47 C22.525,32.650625 22.620625,32.83125 22.726875,33.00125 L22.748125,33.04375 C22.811875,33.15 22.875625,33.245625 22.939375,33.34125 C22.960625,33.373125 22.9925,33.415625 23.01375,33.4475 C23.066875,33.521875 23.130625,33.606875 23.18375,33.68125 C23.205,33.713125 23.22625,33.745 23.258125,33.776875 C23.375,33.93625 23.5025,34.085 23.640625,34.23375 L23.704375,34.2975 C23.8425,34.44625 23.980625,34.584375 24.129375,34.7225 L24.193125,34.78625 C24.341875,34.924375 24.490625,35.0625 24.660625,35.19 C24.681875,35.21125 24.71375,35.2325 24.735,35.243125 C24.894375,35.370625 25.064375,35.498125 25.245,35.625625 C25.26625,35.646875 25.298125,35.6575 25.319375,35.67875 C25.5,35.80625 25.680625,35.923125 25.871875,36.04 C25.893125,36.050625 25.914375,36.071875 25.94625,36.0825 C26.148125,36.199375 26.35,36.31625 26.551875,36.4225 L26.605,36.454375 C26.8175,36.57125 27.040625,36.6775 27.274375,36.78375 L27.30625,36.78375 C27.550625,36.91125 27.795,37.006875 28.039375,37.113125 L22.50375,34.966875 C22.24875,34.87125 22.004375,34.765 21.770625,34.65875 L21.73875,34.65875 C21.505,34.541875 21.281875,34.435625 21.069375,34.31875 L21.01625,34.286875 C20.80375,34.180625 20.601875,34.06375 20.410625,33.946875 C20.389375,33.93625 20.368125,33.915 20.33625,33.904375 C20.145,33.7875 19.964375,33.670625 19.78375,33.543125 C19.7625,33.521875 19.730625,33.51125 19.709375,33.49 C19.539375,33.3625 19.369375,33.235 19.199375,33.1075 C19.178125,33.08625 19.14625,33.065 19.125,33.054375 C18.965625,32.926875 18.80625,32.78875 18.6575,32.650625 L18.59375,32.586875 C18.445,32.44875 18.306875,32.310625 18.16875,32.161875 L18.105,32.098125 C17.966875,31.949375 17.85,31.800625 17.7225,31.64125 L17.70125,31.609375 C17.70125,31.609375 17.669375,31.566875 17.65875,31.545625 C17.595,31.47125 17.541875,31.38625 17.48875,31.311875 C17.4675,31.28 17.435625,31.2375 17.414375,31.205625 C17.350625,31.11 17.286875,31.00375 17.223125,30.908125 L17.201875,30.87625 L17.201875,30.87625 C17.095625,30.695625 17,30.515 16.904375,30.334375 L16.883125,30.3025 L16.883125,30.28125 C16.80875,30.143125 16.745,30.005 16.68125,29.85625 L16.66,29.81375 C16.66,29.81375 16.63875,29.77125 16.628125,29.739375 C16.585625,29.64375 16.55375,29.548125 16.51125,29.441875 C16.51125,29.420625 16.49,29.38875 16.479375,29.3675 L16.479375,29.325 C16.42625,29.21875 16.38375,29.101875 16.351875,28.985 L16.351875,28.9425 L16.330625,28.9425 C16.29875,28.815 16.25625,28.6875 16.224375,28.570625 L16.224375,28.570625 C16.224375,28.570625 16.21375,28.49625 16.203125,28.464375 C16.181875,28.379375 16.160625,28.294375 16.139375,28.19875 L16.139375,28.1775 C16.139375,28.1775 16.118125,28.081875 16.1075,28.039375 C16.096875,27.975625 16.08625,27.911875 16.065,27.8375 L16.065,27.805625 C16.065,27.805625 16.04375,27.71 16.033125,27.656875 C16.033125,27.593125 16.011875,27.529375 16.00125,27.465625 L16.00125,27.43375 C16.00125,27.43375 15.98,27.3275 15.98,27.274375 C15.98,27.210625 15.969375,27.1575 15.95875,27.09375 L15.95875,27.061875 C15.95875,27.00875 15.948125,26.955625 15.9375,26.891875 C15.9375,26.828125 15.926875,26.764375 15.926875,26.71125 L15.926875,26.679375 C15.926875,26.62625 15.926875,26.5625 15.926875,26.509375 C15.926875,26.445625 15.926875,26.381875 15.926875,26.318125 L15.926875,26.28625 C15.926875,26.169375 15.926875,26.063125 15.926875,25.94625 L15.884375,9.445625 L21.42,11.591875 L21.42,11.56 Z" id="路径" fill="url(#linearGradient-10)" fill-rule="nonzero"></path>
                    <path d="M22.323125,12.186875 C26.8175,9.79625 30.175,6.916875 32.36375,3.59125 C35.838125,5.408125 39.216875,5.726875 42.489375,4.4625 L42.56375,4.430625 L42.6062756,19.985625 C42.616875,24.618125 39.323125,30.19625 32.523125,37.028125 C25.73375,35.859375 22.3125,32.735625 22.301875,27.741875 L22.301875,27.741875 L22.323125,12.17625 L22.323125,12.17625 L22.323125,12.186875 Z" id="路径"></path>
                    <g id="编组" transform="translate(21.250000, 3.527500)" fill-rule="nonzero">
                        <path d="M11.209375,0 C14.588125,1.87 17.966875,2.18875 21.239375,0.935 L21.31375,0.903125 L21.3562756,16.458125 C21.366875,21.090625 18.073125,26.66875 11.22,33.51125 C4.48375,32.331875 1.0625,29.208125 1.051875,24.214375 L1.073125,8.64875 C5.535625,6.29 8.914375,3.389375 11.209375,0 L11.209375,0 Z" id="路径" fill="url(#linearGradient-11)"></path>
                        <polygon id="路径" fill="url(#linearGradient-12)" points="1.02 8.69125 1.08375 8.659375 1.08375 8.659375 1.0625 24.214375"></polygon>
                    </g>
                    <path d="M21.42,11.56 L21.42,11.83625 L21.4625,27.423125 L21.4625,28.07125 C21.473125,33.543125 25.075,36.9325 32.140625,38.175625 L32.5125,38.260625 L32.884375,37.88875 C39.9925,30.7275 43.45625,24.7775 43.4456494,19.6775 L43.403125,3.028125 L42.489375,3.37875 C39.408125,4.558125 36.18875,4.260625 32.948125,2.465 L32.353125,2.156875 L31.81125,2.985625 C29.739375,6.130625 26.509375,8.8825 22.2275,11.145625 L21.42,11.570625 L21.42,11.56 Z M22.323125,12.186875 C26.8175,9.79625 30.175,6.916875 32.36375,3.59125 C35.838125,5.408125 39.216875,5.726875 42.489375,4.4625 L42.56375,4.430625 L42.6062756,19.985625 C42.616875,24.618125 39.323125,30.19625 32.523125,37.028125 C25.73375,35.859375 22.3125,32.735625 22.301875,27.741875 L22.301875,27.741875 L22.259375,12.21875 L22.323125,12.186875 Z" id="形状" fill="#FFFFFF" fill-rule="nonzero"></path>
                    <polygon id="路径" fill="url(#linearGradient-13)" fill-rule="nonzero" points="21.675 11.464375 16.72375 9.75375 21.536875 12.04875"></polygon>
                    <path d="M30.504375,25.56375 C30.504375,25.56375 30.419375,25.56375 30.3875,25.56375 C29.89875,25.52125 29.463125,25.245 29.21875,24.82 L26.18,19.40125 C25.956875,19.008125 26.095,18.498125 26.49875,18.275 C26.891875,18.051875 27.401875,18.19 27.625,18.59375 L30.53625,23.789375 L36.635,16.160625 C36.921875,15.81 37.4425,15.74625 37.793125,16.033125 C38.14375,16.32 38.2075,16.840625 37.920625,17.19125 L31.651875,25.021875 C31.365,25.3725 30.950625,25.574375 30.504375,25.574375 L30.504375,25.56375 Z" id="路径" fill="#FFFFFF" fill-rule="nonzero"></path>
                    <path d="M45.464375,8.170625 C36.35875,2.91125 21.643125,2.91125 12.60125,8.170625 C3.559375,13.43 3.601875,21.95125 12.7075,27.2 C21.813125,32.44875 36.52875,32.459375 45.570625,27.2 C54.6125,21.940625 54.57,13.419375 45.464375,8.170625" id="路径" stroke="url(#linearGradient-14)" stroke-linecap="round"></path>
                    <circle id="椭圆形" fill="url(#linearGradient-15)" fill-rule="nonzero" cx="44.274375" cy="27.529375" r="1.59375"></circle>
                </g>
            </g>
        </g>
    </g>
</svg>