<?xml version="1.0" encoding="UTF-8"?>
<svg width="73px" height="82px" viewBox="0 0 73 82" version="1.1" xmlns="http://www.w3.org/2000/svg" xmlns:xlink="http://www.w3.org/1999/xlink">
    <title>编组 54</title>
    <defs>
        <linearGradient x1="50.1641964%" y1="-0.344444444%" x2="50.1641964%" y2="97.6555556%" id="linearGradient-1">
            <stop stop-color="#84C1FE" offset="0%"></stop>
            <stop stop-color="#5F92F9" stop-opacity="0.1" offset="100%"></stop>
        </linearGradient>
        <linearGradient x1="101.375028%" y1="75.8767081%" x2="56.375028%" y2="42.3206737%" id="linearGradient-2">
            <stop stop-color="#528BF3" offset="0%"></stop>
            <stop stop-color="#8F9FBC" stop-opacity="0" offset="100%"></stop>
        </linearGradient>
        <linearGradient x1="98.9102708%" y1="49.8653846%" x2="9.91027075%" y2="49.8653846%" id="linearGradient-3">
            <stop stop-color="#4D86FC" offset="0%"></stop>
            <stop stop-color="#9FBDFD" stop-opacity="0.05" offset="100%"></stop>
        </linearGradient>
        <linearGradient x1="52.1992554%" y1="41.8653846%" x2="49.0601713%" y2="35.8653846%" id="linearGradient-4">
            <stop stop-color="#9FBDFD" stop-opacity="0.05" offset="0%"></stop>
            <stop stop-color="#4D86FC" offset="100%"></stop>
        </linearGradient>
        <radialGradient cx="27.4132653%" cy="32.425%" fx="27.4132653%" fy="32.425%" r="80.0603687%" gradientTransform="translate(0.274133,0.324250),scale(1.000000,0.980000),rotate(10.278720),translate(-0.274133,-0.324250)" id="radialGradient-5">
            <stop stop-color="#8DCEFF" offset="0%"></stop>
            <stop stop-color="#4A77F5" offset="80%"></stop>
            <stop stop-color="#568AFE" offset="92%"></stop>
            <stop stop-color="#4D86FC" offset="100%"></stop>
        </radialGradient>
        <linearGradient x1="-6%" y1="49.898167%" x2="107%" y2="49.898167%" id="linearGradient-6">
            <stop stop-color="#2EB6E6" offset="0%"></stop>
            <stop stop-color="#3388FF" offset="100%"></stop>
        </linearGradient>
        <linearGradient x1="50.1165501%" y1="-7%" x2="50.1165501%" y2="107%" id="linearGradient-7">
            <stop stop-color="#2EB6E6" offset="0%"></stop>
            <stop stop-color="#3388FF" offset="100%"></stop>
        </linearGradient>
        <linearGradient x1="50%" y1="38%" x2="50%" y2="62%" id="linearGradient-8">
            <stop stop-color="#2EB6E6" offset="0%"></stop>
            <stop stop-color="#3388FF" offset="100%"></stop>
        </linearGradient>
        <linearGradient x1="50.1285347%" y1="-7%" x2="50.1285347%" y2="107%" id="linearGradient-9">
            <stop stop-color="#2EB6E6" offset="0%"></stop>
            <stop stop-color="#3388FF" offset="100%"></stop>
        </linearGradient>
        <linearGradient x1="32551%" y1="58.266129%" x2="32551%" y2="58.781362%" id="linearGradient-10">
            <stop stop-color="#2EB6E6" offset="0%"></stop>
            <stop stop-color="#3388FF" offset="100%"></stop>
        </linearGradient>
        <linearGradient x1="30119%" y1="-478.195489%" x2="30119%" y2="-449.874687%" id="linearGradient-11">
            <stop stop-color="#2EB6E6" offset="0%"></stop>
            <stop stop-color="#3388FF" offset="100%"></stop>
        </linearGradient>
        <linearGradient x1="50%" y1="-1.25729681%" x2="50%" y2="101.279749%" id="linearGradient-12">
            <stop stop-color="#2EB6E6" offset="0%"></stop>
            <stop stop-color="#3388FF" offset="100%"></stop>
        </linearGradient>
        <linearGradient x1="50%" y1="-0.402792696%" x2="50%" y2="100.402793%" id="linearGradient-13">
            <stop stop-color="#2EB6E6" offset="0%"></stop>
            <stop stop-color="#3388FF" offset="100%"></stop>
        </linearGradient>
        <linearGradient x1="49.8187108%" y1="-0.507942685%" x2="49.8187108%" y2="100.507404%" id="linearGradient-14">
            <stop stop-color="#2EB6E6" offset="0%"></stop>
            <stop stop-color="#3388FF" offset="100%"></stop>
        </linearGradient>
        <linearGradient x1="50%" y1="0%" x2="50%" y2="100%" id="linearGradient-15">
            <stop stop-color="#2EB6E6" offset="0%"></stop>
            <stop stop-color="#3388FF" offset="100%"></stop>
        </linearGradient>
        <linearGradient x1="50.025974%" y1="0%" x2="50.025974%" y2="100%" id="linearGradient-16">
            <stop stop-color="#2EB6E6" offset="0%"></stop>
            <stop stop-color="#3388FF" offset="100%"></stop>
        </linearGradient>
        <linearGradient x1="6.76223879%" y1="7.82289324%" x2="109.766739%" y2="112.605763%" id="linearGradient-17">
            <stop stop-color="#2EB6E6" offset="0%"></stop>
            <stop stop-color="#3388FF" offset="100%"></stop>
        </linearGradient>
        <linearGradient x1="0%" y1="29.5721514%" x2="68.9631628%" y2="73.7511229%" id="linearGradient-18">
            <stop stop-color="#2EB6E6" offset="0%"></stop>
            <stop stop-color="#3388FF" offset="100%"></stop>
        </linearGradient>
    </defs>
    <g id="品牌化" stroke="none" stroke-width="1" fill="none" fill-rule="evenodd">
        <g id="智能侦测_首页_文件系统0103" transform="translate(-346.000000, -133.000000)">
            <g id="编组-54" transform="translate(347.000000, 135.000000)">
                <g id="编组-22备份-2" transform="translate(-0.000000, 0.000000)">
                    <polygon id="路径" fill="url(#linearGradient-1)" opacity="0.3" points="34.8785047 5.23364486 63.8878505 22.0560748 63.8878505 55.7009346 34.8785047 72.5233645 5.87663551 55.7009346 5.87663551 22.0560748"></polygon>
                    <polygon id="Combined-Shape" fill="url(#linearGradient-2)" opacity="0.2" points="68.2691589 19.5439252 71.9401869 21.682243 71.9401869 60.5607477 38.5271028 80 5.11401869 60.5607477 5.11401869 60.4785047 34.8560748 77.7794393 68.2691589 58.3401869"></polygon>
                    <polyline id="Path" stroke="url(#linearGradient-3)" stroke-linecap="round" stroke-linejoin="round" points="34.8785047 0 68.2915888 19.4392523 68.2915888 58.317757 34.8785047 77.7570093"></polyline>
                    <polyline id="Path-2" stroke="url(#linearGradient-4)" stroke-width="4" opacity="0.4" stroke-linecap="round" stroke-linejoin="round" points="34.8785047 77.7570093 1.46542056 58.317757 1.46542056 19.4392523 34.8785047 0"></polyline>
                    <ellipse id="Oval-Copy-5" fill="url(#radialGradient-5)" fill-rule="nonzero" cx="1.46542056" cy="19.4392523" rx="1.46542056" ry="1.4953271"></ellipse>
                </g>
                <g id="编组-53" transform="translate(14.587979, 18.317757)">
                    <g id="编组-37备份" opacity="0.4">
                        <g id="编组-32" opacity="0.6">
                            <line x1="21.3821147" y1="3.98278388" x2="21.3821147" y2="0" id="路径" stroke="url(#linearGradient-6)" stroke-width="2"></line>
                            <line x1="39.2843632" y1="21.9823713" x2="42.7642293" y2="21.9823713" id="路径" stroke="url(#linearGradient-7)" stroke-width="2"></line>
                            <line x1="3.15540311" y1="21.9823713" x2="39.2843632" y2="21.9823713" id="路径" stroke="url(#linearGradient-8)" stroke-width="0.24"></line>
                            <line x1="0" y1="21.9823713" x2="3.15540311" y2="21.9823713" id="路径" stroke="url(#linearGradient-9)" stroke-width="2"></line>
                            <line x1="21.3821147" y1="40.1279671" x2="21.3821147" y2="3.91789127" id="路径" stroke="url(#linearGradient-10)" stroke-width="0.24"></line>
                            <line x1="21.3821147" y1="43.364486" x2="21.3821147" y2="40.1279671" id="路径" stroke="url(#linearGradient-11)" stroke-width="2"></line>
                            <circle id="椭圆形" stroke="url(#linearGradient-12)" stroke-width="2" cx="21.2198832" cy="21.9823713" r="18.06448"></circle>
                            <path d="M21.2198832,37.0861261 C12.8783097,37.0861261 6.1161284,30.3239447 6.1161284,21.9823713 C6.1161284,13.6407979 12.8783097,6.87861656 21.2198832,6.87861656 C29.5614566,6.87861656 36.3236379,13.6407979 36.3236379,21.9823713 C36.3146965,30.3202383 29.5577501,37.0771846 21.2198832,37.0861261 Z" id="路径" stroke="url(#linearGradient-13)" stroke-width="0.3"></path>
                            <path d="M21.2198832,33.1682819 C15.0474304,33.1458545 10.0597035,28.127906 10.0745768,21.9554307 C10.0895169,15.7829554 15.1014225,10.7891564 21.2739113,10.7965812 C27.4464001,10.8040225 32.4463045,15.809878 32.4463045,21.9823713 C32.4441626,24.9554225 31.2593973,27.8054958 29.1533313,29.9039533 C27.0472652,32.0024107 24.1929226,33.1768531 21.2198832,33.1682819 L21.2198832,33.1682819 Z" id="路径" stroke="url(#linearGradient-14)" stroke-width="0.28"></path>
                        </g>
                    </g>
                    <g id="编组-52" transform="translate(8.971651, 9.345794)">
                        <g id="编组-51" opacity="0.8" fill-rule="nonzero">
                            <rect id="矩形" fill="url(#linearGradient-15)" opacity="0.4" x="0" y="0" width="19.076925" height="19.076925" rx="2"></rect>
                            <rect id="矩形" fill="url(#linearGradient-16)" opacity="0.6" x="2.35306946" y="2.69790509" width="19.076925" height="19.076925" rx="2"></rect>
                            <rect id="矩形" fill-opacity="0.9" fill="url(#linearGradient-17)" x="5.7440024" y="5.59597218" width="19.076925" height="19.076925" rx="2"></rect>
                        </g>
                        <path d="M5.74055359,7.08785047 C5.74055359,6.26200411 6.41003433,5.59252336 7.23588069,5.59252336 L23.3256003,5.59252336 C24.1514467,5.59252336 24.8209274,6.26200411 24.8209274,7.08785047 L24.8209274,23.1775701 C24.8209274,24.0034164 24.1514467,24.6728972 23.3256003,24.6728972" id="路径" fill="url(#linearGradient-18)" fill-rule="nonzero"></path>
                        <g id="编组-49" opacity="0.9" transform="translate(10.248717, 10.259661)">
                            <path d="M4.28449821,4.76551664 C4.28449821,2.15284304 5.32956765,0 6.64635514,0 C7.96314263,0 9.00298672,2.13194165 9.00298672,4.76551664" id="路径" stroke="#FFFFFF" stroke-linecap="round"></path>
                            <circle id="椭圆形" fill="#FFFFFF" fill-rule="nonzero" cx="4.27404752" cy="4.9275024" r="1"></circle>
                            <path d="M5.47587737,7.33638746 C3.19240065,8.65317495 0.820093023,8.80471002 0.166924625,7.67603502 C-0.486243774,6.54736003 0.835769065,4.54082671 3.11402044,3.24494061" id="路径" stroke="#FFFFFF" stroke-linecap="round"></path>
                            <circle id="椭圆形" fill="#FFFFFF" fill-rule="nonzero" cx="5.62741244" cy="7.2527819" r="1"></circle>
                            <path d="M7.35700236,5.45003712 C9.63525373,6.76682461 10.9572666,8.7472312 10.3040982,9.87590619 C9.65092978,11.0045812 7.2733968,10.8530461 4.99514543,9.53625862" id="路径" stroke="#FFFFFF" stroke-linecap="round"></path>
                            <circle id="椭圆形" fill="#FFFFFF" fill-rule="nonzero" cx="7.22114333" cy="5.35598087" r="1"></circle>
                        </g>
                    </g>
                </g>
            </g>
        </g>
    </g>
</svg>
