<?xml version="1.0" encoding="UTF-8"?>
<svg width="12px" height="12px" viewBox="0 0 12 12" version="1.1" xmlns="http://www.w3.org/2000/svg" xmlns:xlink="http://www.w3.org/1999/xlink">
    <!-- Generator: Sketch 63.1 (92452) - https://sketch.com -->
    <title>编组 3</title>
    <desc>Created with Sketch.</desc>
    <defs>
        <path d="M9,2.24999771 C9.41421356,2.24999771 9.75,2.58578415 9.75,2.99999771 L9.75,2.99999771 L9.75,11.2499977 C9.75,11.6642113 9.41421356,11.9999977 9,11.9999977 L9,11.9999977 L0.75,11.9999977 C0.335786438,11.9999977 0,11.6642113 0,11.2499977 L0,11.2499977 L0,2.99999771 C0,2.58578415 0.335786438,2.24999771 0.75,2.24999771 L0.75,2.24999771 Z M8.625,3.37499771 L1.125,3.37499771 L1.125,10.8749977 L8.625,10.8749977 L8.625,3.37499771 Z M11.4375,0 C11.7481602,0 12,0.251839828 12,0.5625 L12,0.5625 L12,8.0625 C12,8.37316017 11.7481602,8.625 11.4375,8.625 C11.1268398,8.625 10.875,8.37316017 10.875,8.0625 L10.875,8.0625 L10.875,1.125 L3.9375,1.125 C3.62683983,1.125 3.375,0.873160172 3.375,0.5625 C3.375,0.251839828 3.62683983,0 3.9375,0 L3.9375,0 Z" id="path-1"></path>
    </defs>
    <g id="最终" stroke="none" stroke-width="1" fill="none" fill-rule="evenodd">
        <g id="注册集群2" transform="translate(-547.000000, -282.000000)">
            <g id="编组-3" transform="translate(545.000000, 280.000000)">
                <rect id="矩形" x="0" y="0" width="16" height="16"></rect>
                <g id="icon-copy" transform="translate(2.000000, 2.000000)">
                    <g>
                        <mask id="mask-2" fill="white">
                            <use xlink:href="#path-1"></use>
                        </mask>
                        <use id="形状结合" fill="#6C7280" fill-rule="nonzero" xlink:href="#path-1"></use>
                        <rect id="换色" fill="#6C92FA" mask="url(#mask-2)" x="0" y="0" width="12" height="12"></rect>
                    </g>
                </g>
            </g>
        </g>
    </g>
</svg>