<?xml version="1.0" encoding="UTF-8"?>
<svg width="25px" height="24px" viewBox="0 0 25 24" version="1.1" xmlns="http://www.w3.org/2000/svg" xmlns:xlink="http://www.w3.org/1999/xlink">
    <defs>
        <linearGradient x1="85.5410179%" y1="86.589777%" x2="13.6993152%" y2="10.1481485%" id="linearGradient-1">
            <stop stop-color="#40ACFF" offset="0%"></stop>
            <stop stop-color="#3737B7" offset="100%"></stop>
        </linearGradient>
        <linearGradient x1="6.73056385%" y1="0.0055621818%" x2="85.3922529%" y2="95.3831107%" id="linearGradient-2">
            <stop stop-color="#6AE0B9" offset="0%"></stop>
            <stop stop-color="#40ACFF" offset="100%"></stop>
        </linearGradient>
    </defs>
    <g id="初始化修改-2" stroke="none" stroke-width="1" fill="none" fill-rule="evenodd">
        <g id="1.2_手动配置_完成存储认证" transform="translate(-66.000000, -513.000000)">
            <g id="iconic/24/CPU" transform="translate(66.939651, 513.000000)">
                <rect id="矩形" x="0" y="0" width="24" height="24"></rect>
                <g id="编组" transform="translate(2.000000, 2.000000)">
                    <path d="M4.375,18.125 L4.375,19.921875 C4.375,19.9648438 4.33984375,20 4.296875,20 L3.203125,20 C3.16015625,20 3.125,19.9648438 3.125,19.921875 L3.125,18.203125 C3.125,18.1601562 3.16015625,18.125 3.203125,18.125 L4.375,18.125 Z M6.875,18.125 L6.875,19.921875 C6.875,19.9648438 6.83984375,20 6.796875,20 L5.703125,20 C5.66015625,20 5.625,19.9648438 5.625,19.921875 L5.625,18.203125 C5.625,18.1601562 5.66015625,18.125 5.703125,18.125 L6.875,18.125 Z M9.375,18.125 L9.375,19.921875 C9.375,19.9648438 9.33984375,20 9.296875,20 L8.203125,20 C8.16015625,20 8.125,19.9648438 8.125,19.921875 L8.125,18.203125 C8.125,18.1601562 8.16015625,18.125 8.203125,18.125 L9.375,18.125 Z M11.875,18.125 L11.875,19.921875 C11.875,19.9648438 11.8398438,20 11.796875,20 L10.703125,20 C10.6601563,20 10.625,19.9648438 10.625,19.921875 L10.625,18.203125 C10.625,18.1601562 10.6601563,18.125 10.703125,18.125 L11.875,18.125 Z M14.375,18.125 L14.375,19.921875 C14.375,19.9648438 14.3398438,20 14.296875,20 L13.203125,20 C13.1601563,20 13.125,19.9648438 13.125,19.921875 L13.125,18.203125 C13.125,18.1601562 13.1601563,18.125 13.203125,18.125 L14.375,18.125 Z M16.875,18.125 L16.875,19.921875 C16.875,19.9648438 16.8398438,20 16.796875,20 L15.703125,20 C15.6601563,20 15.625,19.9648438 15.625,19.921875 L15.625,18.203125 C15.625,18.1601562 15.6601563,18.125 15.703125,18.125 L16.875,18.125 Z M16.25,2.5 C16.9394531,2.5 17.5,3.05859375 17.5,3.75 L17.5,16.25 C17.5,16.9394531 16.9394531,17.5 16.25,17.5 L3.75,17.5 C3.06054688,17.5 2.5,16.9394531 2.5,16.25 L2.5,3.75 C2.5,3.05859375 3.06054688,2.5 3.75,2.5 Z M20,15.625 L20,16.796875 C20,16.8398438 19.9648438,16.875 19.921875,16.875 L18.203125,16.875 C18.1601563,16.875 18.125,16.8398438 18.125,16.796875 L18.125,15.703125 C18.125,15.6601562 18.1601563,15.625 18.203125,15.625 L20,15.625 Z M1.875,15.625 L1.875,16.796875 C1.875,16.8398438 1.83984375,16.875 1.796875,16.875 L0.078125,16.875 C0.03515625,16.875 0,16.8398438 0,16.796875 L0,15.703125 C0,15.6601562 0.03515625,15.625 0.078125,15.625 L1.875,15.625 Z M14.6875,5 L5.3125,5 C5.140625,5 5,5.140625 5,5.3125 L5,14.6875 C5,14.859375 5.140625,15 5.3125,15 L14.6875,15 C14.859375,15 15,14.859375 15,14.6875 L15,5.3125 C15,5.140625 14.859375,5 14.6875,5 Z M20,13.125 L20,14.296875 C20,14.3398438 19.9648438,14.375 19.921875,14.375 L18.203125,14.375 C18.1601563,14.375 18.125,14.3398438 18.125,14.296875 L18.125,13.203125 C18.125,13.1601562 18.1601563,13.125 18.203125,13.125 L20,13.125 Z M1.875,13.125 L1.875,14.296875 C1.875,14.3398438 1.83984375,14.375 1.796875,14.375 L0.078125,14.375 C0.03515625,14.375 0,14.3398438 0,14.296875 L0,13.203125 C0,13.1601562 0.03515625,13.125 0.078125,13.125 L1.875,13.125 Z M13.671875,6.25 C13.7148437,6.25 13.75,6.28515625 13.75,6.328125 L13.75,13.671875 C13.75,13.7148438 13.7148437,13.75 13.671875,13.75 L6.328125,13.75 C6.28515625,13.75 6.25,13.7148438 6.25,13.671875 L6.25,6.328125 C6.25,6.28515625 6.28515625,6.25 6.328125,6.25 L13.671875,6.25 Z M20,10.625 L20,11.796875 C20,11.8398438 19.9648438,11.875 19.921875,11.875 L18.203125,11.875 C18.1601563,11.875 18.125,11.8398438 18.125,11.796875 L18.125,10.703125 C18.125,10.6601562 18.1601563,10.625 18.203125,10.625 L20,10.625 Z M1.875,10.625 L1.875,11.796875 C1.875,11.8398438 1.83984375,11.875 1.796875,11.875 L0.078125,11.875 C0.03515625,11.875 0,11.8398438 0,11.796875 L0,10.703125 C0,10.6601562 0.03515625,10.625 0.078125,10.625 L1.875,10.625 Z M20,8.125 L20,9.296875 C20,9.33984375 19.9648438,9.375 19.921875,9.375 L18.203125,9.375 C18.1601563,9.375 18.125,9.33984375 18.125,9.296875 L18.125,8.203125 C18.125,8.16015625 18.1601563,8.125 18.203125,8.125 L20,8.125 Z M1.875,8.125 L1.875,9.296875 C1.875,9.33984375 1.83984375,9.375 1.796875,9.375 L0.078125,9.375 C0.03515625,9.375 0,9.33984375 0,9.296875 L0,8.203125 C0,8.16015625 0.03515625,8.125 0.078125,8.125 L1.875,8.125 Z M20,5.625 L20,6.796875 C20,6.83984375 19.9648438,6.875 19.921875,6.875 L18.203125,6.875 C18.1601563,6.875 18.125,6.83984375 18.125,6.796875 L18.125,5.703125 C18.125,5.66015625 18.1601563,5.625 18.203125,5.625 L20,5.625 Z M1.875,5.625 L1.875,6.796875 C1.875,6.83984375 1.83984375,6.875 1.796875,6.875 L0.078125,6.875 C0.03515625,6.875 0,6.83984375 0,6.796875 L0,5.703125 C0,5.66015625 0.03515625,5.625 0.078125,5.625 L1.875,5.625 Z M20,3.125 L20,4.296875 C20,4.33984375 19.9648438,4.375 19.921875,4.375 L18.203125,4.375 C18.1601563,4.375 18.125,4.33984375 18.125,4.296875 L18.125,3.203125 C18.125,3.16015625 18.1601563,3.125 18.203125,3.125 L20,3.125 Z M1.875,3.125 L1.875,4.296875 C1.875,4.33984375 1.83984375,4.375 1.796875,4.375 L0.078125,4.375 C0.03515625,4.375 0,4.33984375 0,4.296875 L0,3.203125 C0,3.16015625 0.03515625,3.125 0.078125,3.125 L1.875,3.125 Z M4.375,0 L4.375,1.796875 C4.375,1.83984375 4.33984375,1.875 4.296875,1.875 L3.203125,1.875 C3.16015625,1.875 3.125,1.83984375 3.125,1.796875 L3.125,0.078125 C3.125,0.03515625 3.16015625,0 3.203125,0 L4.375,0 Z M6.875,0 L6.875,1.796875 C6.875,1.83984375 6.83984375,1.875 6.796875,1.875 L5.703125,1.875 C5.66015625,1.875 5.625,1.83984375 5.625,1.796875 L5.625,0.078125 C5.625,0.03515625 5.66015625,0 5.703125,0 L6.875,0 Z M9.375,0 L9.375,1.796875 C9.375,1.83984375 9.33984375,1.875 9.296875,1.875 L8.203125,1.875 C8.16015625,1.875 8.125,1.83984375 8.125,1.796875 L8.125,0.078125 C8.125,0.03515625 8.16015625,0 8.203125,0 L9.375,0 Z M11.875,0 L11.875,1.796875 C11.875,1.83984375 11.8398438,1.875 11.796875,1.875 L10.703125,1.875 C10.6601563,1.875 10.625,1.83984375 10.625,1.796875 L10.625,0.078125 C10.625,0.03515625 10.6601563,0 10.703125,0 L11.875,0 Z M14.375,0 L14.375,1.796875 C14.375,1.83984375 14.3398438,1.875 14.296875,1.875 L13.203125,1.875 C13.1601563,1.875 13.125,1.83984375 13.125,1.796875 L13.125,0.078125 C13.125,0.03515625 13.1601563,0 13.203125,0 L14.375,0 Z M16.875,0 L16.875,1.796875 C16.875,1.83984375 16.8398438,1.875 16.796875,1.875 L15.703125,1.875 C15.6601563,1.875 15.625,1.83984375 15.625,1.796875 L15.625,0.078125 C15.625,0.03515625 15.6601563,0 15.703125,0 L16.875,0 Z" id="Combined-Shape" fill="url(#linearGradient-1)"></path>
                    <path d="M16.25,2.5 C16.9394531,2.5 17.5,3.05859375 17.5,3.75 L17.5,16.25 C17.5,16.5947266 17.3598633,16.9072266 17.1335449,17.1335449 L14.9077072,14.908698 C14.9646385,14.852018 15,14.773688 15,14.6875 L15,5.3125 C15,5.140625 14.859375,5 14.6875,5 L5.3125,5 C5.22681305,5 5.14889311,5.03495156 5.09229282,5.09130202 L2.86645508,2.86572266 C3.09277344,2.63964844 3.40527344,2.5 3.75,2.5 L16.25,2.5 Z M20,15.625 L20,16.796875 C20,16.8398438 19.9648438,16.875 19.921875,16.875 L18.203125,16.875 C18.1601563,16.875 18.125,16.8398438 18.125,16.796875 L18.125,15.703125 C18.125,15.6601562 18.1601563,15.625 18.203125,15.625 L20,15.625 Z M20,13.125 L20,14.296875 C20,14.3398438 19.9648438,14.375 19.921875,14.375 L18.203125,14.375 C18.1601563,14.375 18.125,14.3398438 18.125,14.296875 L18.125,13.203125 C18.125,13.1601562 18.1601563,13.125 18.203125,13.125 L20,13.125 Z M13.671875,6.25 C13.7148437,6.25 13.75,6.28515625 13.75,6.328125 L13.75,13.671875 C13.75,13.6933594 13.7412109,13.7128906 13.7270508,13.7270508 L6.27294922,6.27294922 C6.28710938,6.25878906 6.30664063,6.25 6.328125,6.25 L13.671875,6.25 Z M20,10.625 L20,11.796875 C20,11.8398438 19.9648438,11.875 19.921875,11.875 L18.203125,11.875 C18.1601563,11.875 18.125,11.8398438 18.125,11.796875 L18.125,10.703125 C18.125,10.6601562 18.1601563,10.625 18.203125,10.625 L20,10.625 Z M20,8.125 L20,9.296875 C20,9.33984375 19.9648438,9.375 19.921875,9.375 L18.203125,9.375 C18.1601563,9.375 18.125,9.33984375 18.125,9.296875 L18.125,8.203125 C18.125,8.16015625 18.1601563,8.125 18.203125,8.125 L20,8.125 Z M20,5.625 L20,6.796875 C20,6.83984375 19.9648438,6.875 19.921875,6.875 L18.203125,6.875 C18.1601563,6.875 18.125,6.83984375 18.125,6.796875 L18.125,5.703125 C18.125,5.66015625 18.1601563,5.625 18.203125,5.625 L20,5.625 Z M20,3.125 L20,4.296875 C20,4.33984375 19.9648438,4.375 19.921875,4.375 L18.203125,4.375 C18.1601563,4.375 18.125,4.33984375 18.125,4.296875 L18.125,3.203125 C18.125,3.16015625 18.1601563,3.125 18.203125,3.125 L20,3.125 Z M4.375,0 L4.375,1.796875 C4.375,1.83984375 4.33984375,1.875 4.296875,1.875 L3.203125,1.875 C3.16015625,1.875 3.125,1.83984375 3.125,1.796875 L3.125,0.078125 C3.125,0.03515625 3.16015625,0 3.203125,0 L4.375,0 Z M6.875,0 L6.875,1.796875 C6.875,1.83984375 6.83984375,1.875 6.796875,1.875 L5.703125,1.875 C5.66015625,1.875 5.625,1.83984375 5.625,1.796875 L5.625,0.078125 C5.625,0.03515625 5.66015625,0 5.703125,0 L6.875,0 Z M9.375,0 L9.375,1.796875 C9.375,1.83984375 9.33984375,1.875 9.296875,1.875 L8.203125,1.875 C8.16015625,1.875 8.125,1.83984375 8.125,1.796875 L8.125,0.078125 C8.125,0.03515625 8.16015625,0 8.203125,0 L9.375,0 Z M11.875,0 L11.875,1.796875 C11.875,1.83984375 11.8398438,1.875 11.796875,1.875 L10.703125,1.875 C10.6601563,1.875 10.625,1.83984375 10.625,1.796875 L10.625,0.078125 C10.625,0.03515625 10.6601563,0 10.703125,0 L11.875,0 Z M14.375,0 L14.375,1.796875 C14.375,1.83984375 14.3398438,1.875 14.296875,1.875 L13.203125,1.875 C13.1601563,1.875 13.125,1.83984375 13.125,1.796875 L13.125,0.078125 C13.125,0.03515625 13.1601563,0 13.203125,0 L14.375,0 Z M16.875,0 L16.875,1.796875 C16.875,1.83984375 16.8398438,1.875 16.796875,1.875 L15.703125,1.875 C15.6601563,1.875 15.625,1.83984375 15.625,1.796875 L15.625,0.078125 C15.625,0.03515625 15.6601563,0 15.703125,0 L16.875,0 Z" id="Combined-Shape" fill="url(#linearGradient-2)"></path>
                </g>
            </g>
        </g>
    </g>
</svg>