<?xml version="1.0" encoding="UTF-8"?><svg xmlns="http://www.w3.org/2000/svg" xmlns:xlink="http://www.w3.org/1999/xlink" viewBox="0 0 1168 729"><defs><style>.cls-1,.cls-2,.cls-3,.cls-4,.cls-5,.cls-6,.cls-7,.cls-8{fill:none;}.cls-2{stroke:url(#_命名的渐变_126);}.cls-2,.cls-3,.cls-4,.cls-5,.cls-6,.cls-7,.cls-8{stroke-miterlimit:10;}.cls-2,.cls-3,.cls-4,.cls-5,.cls-6,.cls-8{stroke-width:2px;}.cls-3{stroke:url(#_命名的渐变_124);}.cls-9{clip-path:url(#clippath);}.cls-10{opacity:.1;}.cls-11{opacity:.09;}.cls-12{opacity:.12;}.cls-13{fill:#1f303d;}.cls-14{fill:#212b3a;}.cls-15{fill:#3f4c5f;}.cls-16{fill:#2b3744;}.cls-17{fill:#3c4c61;}.cls-4{opacity:.04;}.cls-4,.cls-5{stroke:#fff;}.cls-18{mix-blend-mode:overlay;}.cls-5{opacity:.03;}.cls-6{stroke:#11151f;}.cls-7{stroke:#1c1c1e;}.cls-19{opacity:.17;}.cls-20{opacity:.2;}.cls-21{opacity:.4;}.cls-22{opacity:.8;}.cls-23{isolation:isolate;}.cls-8{stroke:url(#_命名的渐变_126-2);}</style><clipPath id="clippath"><rect class="cls-1" x="-1" width="1170" height="729"/></clipPath><linearGradient id="_命名的渐变_126" x1="-60.67" y1="610.27" x2="1231.51" y2="610.27" gradientTransform="matrix(1, 0, 0, 1, 0, 0)" gradientUnits="userSpaceOnUse"><stop offset="0" stop-color="#151619"/><stop offset=".64" stop-color="#191a1f"/><stop offset="1" stop-color="#151619"/></linearGradient><linearGradient id="_命名的渐变_126-2" x1="111.08" y1="217.49" x2="1329.69" y2="217.49" xlink:href="#_命名的渐变_126"/><linearGradient id="_命名的渐变_124" x1="600.43" y1="416.33" x2="1298.76" y2="416.33" gradientTransform="matrix(1, 0, 0, 1, 0, 0)" gradientUnits="userSpaceOnUse"><stop offset="0" stop-color="#191a1f"/><stop offset="1" stop-color="#151619"/></linearGradient></defs><g class="cls-23"><g id="_层_1"><g class="cls-18"><polygon class="cls-7" points="1049.7 280.03 994.88 311.89 939.7 280.03 994.52 248.17 1049.7 280.03"/></g><g class="cls-21"><polyline class="cls-14" points="1130.09 327.87 1126.85 326 1123.63 327.87 1126.87 329.74 1130.09 327.87"/><polyline class="cls-14" points="1136.62 331.64 1133.38 329.77 1130.16 331.64 1133.4 333.51 1136.62 331.64"/><polyline class="cls-14" points="1143.15 335.41 1139.91 333.54 1136.69 335.41 1139.93 337.28 1143.15 335.41"/><polyline class="cls-14" points="1149.68 339.18 1146.44 337.31 1143.22 339.18 1146.46 341.05 1149.68 339.18"/><polyline class="cls-14" points="1156.2 342.95 1152.97 341.08 1149.75 342.95 1152.99 344.82 1156.2 342.95"/><polyline class="cls-14" points="1119.8 333.85 1116.56 331.98 1113.34 333.85 1116.58 335.72 1119.8 333.85"/><polyline class="cls-14" points="1126.33 337.62 1123.09 335.75 1119.87 337.62 1123.11 339.49 1126.33 337.62"/><polyline class="cls-14" points="1132.85 341.39 1129.62 339.52 1126.4 341.39 1129.64 343.26 1132.85 341.39"/><polyline class="cls-14" points="1139.38 345.16 1136.14 343.29 1132.93 345.16 1136.17 347.03 1139.38 345.16"/><polyline class="cls-14" points="1145.91 348.93 1142.68 347.06 1139.46 348.93 1142.69 350.8 1145.91 348.93"/><polyline class="cls-14" points="1152.44 352.7 1149.2 350.83 1145.99 352.7 1149.22 354.57 1152.44 352.7"/><polyline class="cls-14" points="1109.5 339.83 1106.26 337.96 1103.05 339.83 1106.29 341.7 1109.5 339.83"/><polyline class="cls-14" points="1116.03 343.6 1112.79 341.73 1109.58 343.6 1112.82 345.47 1116.03 343.6"/><polyline class="cls-14" points="1122.56 347.37 1119.32 345.5 1116.11 347.37 1119.35 349.24 1122.56 347.37"/><polyline class="cls-14" points="1129.09 351.14 1125.85 349.27 1122.64 351.14 1125.87 353.01 1129.09 351.14"/><polyline class="cls-14" points="1135.62 354.91 1132.38 353.04 1129.17 354.91 1132.4 356.78 1135.62 354.91"/><polyline class="cls-14" points="1142.15 358.68 1138.91 356.81 1135.7 358.68 1138.93 360.55 1142.15 358.68"/><polyline class="cls-14" points="1148.68 362.45 1145.44 360.58 1142.22 362.45 1145.46 364.32 1148.68 362.45"/><polyline class="cls-14" points="1155.21 366.22 1151.97 364.35 1148.75 366.22 1151.99 368.09 1155.21 366.22"/><polyline class="cls-14" points="1099.21 345.81 1095.97 343.94 1092.76 345.81 1095.99 347.68 1099.21 345.81"/><polyline class="cls-14" points="1105.74 349.58 1102.5 347.71 1099.28 349.58 1102.52 351.45 1105.74 349.58"/><polyline class="cls-14" points="1112.27 353.35 1109.03 351.48 1105.81 353.35 1109.05 355.22 1112.27 353.35"/><polyline class="cls-14" points="1118.8 357.12 1115.56 355.25 1112.34 357.12 1115.58 358.99 1118.8 357.12"/><polyline class="cls-14" points="1125.33 360.89 1122.09 359.02 1118.87 360.89 1122.11 362.76 1125.33 360.89"/><polyline class="cls-14" points="1131.85 364.66 1128.62 362.79 1125.4 364.66 1128.64 366.53 1131.85 364.66"/><polyline class="cls-14" points="1088.92 351.79 1085.68 349.93 1082.46 351.79 1085.7 353.66 1088.92 351.79"/><polyline class="cls-14" points="1095.45 355.56 1092.21 353.69 1088.99 355.56 1092.23 357.43 1095.45 355.56"/><polyline class="cls-14" points="1101.98 359.33 1098.74 357.46 1095.52 359.33 1098.76 361.2 1101.98 359.33"/><polyline class="cls-14" points="1108.51 363.1 1105.27 361.23 1102.05 363.1 1105.29 364.97 1108.51 363.1"/><polyline class="cls-14" points="1115.03 366.87 1111.8 365 1108.58 366.87 1111.82 368.74 1115.03 366.87"/><polyline class="cls-14" points="1121.56 370.64 1118.33 368.77 1115.11 370.64 1118.35 372.51 1121.56 370.64"/><polyline class="cls-14" points="1128.09 374.41 1124.86 372.54 1121.64 374.41 1124.87 376.28 1128.09 374.41"/><polyline class="cls-14" points="1134.62 378.18 1131.38 376.31 1128.17 378.18 1131.4 380.05 1134.62 378.18"/><polyline class="cls-14" points="1141.15 381.95 1137.91 380.08 1134.7 381.95 1137.93 383.82 1141.15 381.95"/><polyline class="cls-14" points="1147.68 385.72 1144.44 383.85 1141.22 385.72 1144.46 387.59 1147.68 385.72"/><polyline class="cls-14" points="1078.63 357.78 1075.39 355.91 1072.17 357.78 1075.41 359.65 1078.63 357.78"/><polyline class="cls-14" points="1085.15 361.55 1081.92 359.68 1078.7 361.55 1081.94 363.41 1085.15 361.55"/><polyline class="cls-14" points="1091.68 365.32 1088.44 363.45 1085.23 365.31 1088.47 367.18 1091.68 365.32"/><polyline class="cls-14" points="1098.21 369.09 1094.97 367.22 1091.76 369.08 1095 370.95 1098.21 369.09"/><polyline class="cls-14" points="1104.74 372.85 1101.5 370.99 1098.29 372.85 1101.52 374.72 1104.74 372.85"/><polyline class="cls-14" points="1111.27 376.62 1108.03 374.76 1104.82 376.62 1108.05 378.49 1111.27 376.62"/><polyline class="cls-14" points="1117.8 380.39 1114.56 378.52 1111.35 380.39 1114.58 382.26 1117.8 380.39"/><polyline class="cls-14" points="1124.33 384.16 1121.09 382.29 1117.87 384.16 1121.11 386.03 1124.33 384.16"/><polyline class="cls-14" points="1130.86 387.93 1127.62 386.06 1124.4 387.93 1127.64 389.8 1130.86 387.93"/><polyline class="cls-14" points="1137.39 391.7 1134.15 389.83 1130.93 391.7 1134.17 393.57 1137.39 391.7"/><polyline class="cls-14" points="1143.91 395.47 1140.68 393.6 1137.46 395.47 1140.7 397.34 1143.91 395.47"/><polyline class="cls-14" points="1150.44 399.24 1147.2 397.37 1143.99 399.24 1147.23 401.11 1150.44 399.24"/><polyline class="cls-14" points="1068.33 363.76 1065.09 361.89 1061.88 363.76 1065.12 365.63 1068.33 363.76"/><polyline class="cls-14" points="1074.86 367.53 1071.62 365.66 1068.41 367.53 1071.64 369.4 1074.86 367.53"/><polyline class="cls-14" points="1081.39 371.3 1078.15 369.43 1074.94 371.3 1078.17 373.17 1081.39 371.3"/><polyline class="cls-14" points="1087.92 375.07 1084.68 373.2 1081.46 375.07 1084.7 376.94 1087.92 375.07"/><polyline class="cls-14" points="1058.04 369.74 1054.8 367.87 1051.59 369.74 1054.82 371.61 1058.04 369.74"/><polyline class="cls-14" points="1064.57 373.51 1061.33 371.64 1058.11 373.51 1061.35 375.38 1064.57 373.51"/><polyline class="cls-14" points="1071.1 377.28 1067.86 375.41 1064.64 377.28 1067.88 379.15 1071.1 377.28"/><polyline class="cls-14" points="1077.63 381.05 1074.39 379.18 1071.17 381.05 1074.41 382.92 1077.63 381.05"/><polyline class="cls-14" points="1084.16 384.82 1080.92 382.95 1077.7 384.82 1080.94 386.69 1084.16 384.82"/><polyline class="cls-14" points="1090.68 388.59 1087.45 386.72 1084.23 388.59 1087.47 390.46 1090.68 388.59"/><polyline class="cls-14" points="1097.21 392.36 1093.98 390.49 1090.76 392.36 1094 394.22 1097.21 392.36"/><polyline class="cls-14" points="1103.74 396.13 1100.51 394.26 1097.29 396.13 1100.53 398 1103.74 396.13"/><polyline class="cls-14" points="1110.27 399.9 1107.03 398.03 1103.82 399.9 1107.06 401.76 1110.27 399.9"/><polyline class="cls-14" points="1116.8 403.66 1113.56 401.79 1110.35 403.66 1113.58 405.53 1116.8 403.66"/><polyline class="cls-14" points="1123.33 407.43 1120.09 405.56 1116.88 407.43 1120.11 409.3 1123.33 407.43"/><polyline class="cls-14" points="1129.86 411.2 1126.62 409.33 1123.4 411.2 1126.64 413.07 1129.86 411.2"/><polyline class="cls-14" points="1047.75 375.72 1044.51 373.85 1041.29 375.72 1044.53 377.59 1047.75 375.72"/><polyline class="cls-14" points="1054.28 379.49 1051.04 377.62 1047.82 379.49 1051.06 381.36 1054.28 379.49"/><polyline class="cls-14" points="1060.8 383.26 1057.57 381.39 1054.35 383.26 1057.59 385.13 1060.8 383.26"/><polyline class="cls-14" points="1067.33 387.03 1064.1 385.16 1060.88 387.03 1064.12 388.9 1067.33 387.03"/><polyline class="cls-14" points="1073.86 390.8 1070.63 388.93 1067.41 390.8 1070.65 392.67 1073.86 390.8"/><polyline class="cls-14" points="1080.39 394.57 1077.15 392.7 1073.94 394.57 1077.18 396.44 1080.39 394.57"/><polyline class="cls-14" points="1086.92 398.34 1083.68 396.47 1080.47 398.34 1083.7 400.21 1086.92 398.34"/><polyline class="cls-14" points="1093.45 402.11 1090.21 400.24 1087 402.11 1090.24 403.98 1093.45 402.11"/><polyline class="cls-14" points="1099.98 405.88 1096.74 404.01 1093.53 405.88 1096.76 407.75 1099.98 405.88"/><polyline class="cls-14" points="1037.46 381.7 1034.22 379.83 1031 381.7 1034.24 383.57 1037.46 381.7"/><polyline class="cls-14" points="1043.98 385.47 1040.75 383.6 1037.53 385.47 1040.77 387.34 1043.98 385.47"/><polyline class="cls-14" points="1050.51 389.24 1047.27 387.37 1044.06 389.24 1047.3 391.11 1050.51 389.24"/><polyline class="cls-14" points="1057.04 393.01 1053.8 391.14 1050.59 393.01 1053.82 394.88 1057.04 393.01"/><polyline class="cls-14" points="1063.57 396.78 1060.33 394.91 1057.12 396.78 1060.35 398.65 1063.57 396.78"/></g><g><g class="cls-9"><g class="cls-22"><line class="cls-4" x1="1227.7" y1="983" x2="-63.48" y2="237.54"/><line class="cls-2" x1="1231.01" y1="983" x2="-60.17" y2="237.54"/><line class="cls-6" x1="476.47" y1="547.67" x2="70.15" y2="783.81"/><line class="cls-4" x1="478.68" y1="548.78" x2="72.35" y2="784.91"/><line class="cls-6" x1="1101.79" y1="-32.78" x2="695.46" y2="203.35"/><line class="cls-5" x1="1104" y1="-31.68" x2="697.67" y2="204.45"/><line class="cls-5" x1="107.17" y1="-134" x2="1324.77" y2="568.99"/><line class="cls-8" x1="111.58" y1="-134" x2="1329.19" y2="568.99"/><line class="cls-6" x1="171.87" y1="371.65" x2="578.2" y2="135.52"/><line class="cls-4" x1="174.07" y1="371.65" x2="580.4" y2="135.52"/><line class="cls-5" x1="1299.36" y1="214.81" x2="602.04" y2="620.05"/><line class="cls-3" x1="1298.26" y1="213.71" x2="600.93" y2="618.95"/></g></g><g><g class="cls-11"><polyline class="cls-15" points="860.3 30.73 856.82 28.72 853.37 30.73 856.85 32.74 860.3 30.73"/><polyline class="cls-15" points="867.32 34.78 863.84 32.77 860.38 34.78 863.86 36.79 867.32 34.78"/><polyline class="cls-15" points="874.33 38.83 870.85 36.82 867.39 38.83 870.87 40.84 874.33 38.83"/><polyline class="cls-15" points="881.34 42.88 877.86 40.87 874.41 42.88 877.89 44.89 881.34 42.88"/><polyline class="cls-15" points="888.35 46.93 884.88 44.92 881.42 46.93 884.9 48.93 888.35 46.93"/><polyline class="cls-15" points="895.37 50.97 891.89 48.97 888.44 50.98 891.91 52.98 895.37 50.97"/><polyline class="cls-15" points="902.38 55.02 898.9 53.02 895.45 55.02 898.92 57.03 902.38 55.02"/><polyline class="cls-15" points="909.39 59.07 905.92 57.07 902.46 59.07 905.94 61.08 909.39 59.07"/><polyline class="cls-15" points="916.41 63.12 912.93 61.11 909.47 63.12 912.95 65.13 916.41 63.12"/><polyline class="cls-15" points="821.19 20.96 817.72 18.95 814.26 20.96 817.74 22.97 821.19 20.96"/><polyline class="cls-15" points="828.21 25.01 824.73 23 821.28 25.01 824.75 27.02 828.21 25.01"/><polyline class="cls-15" points="835.22 29.06 831.74 27.05 828.29 29.06 831.77 31.07 835.22 29.06"/><polyline class="cls-15" points="842.24 33.11 838.76 31.1 835.3 33.11 838.78 35.11 842.24 33.11"/><polyline class="cls-15" points="849.25 37.15 845.77 35.15 842.31 37.15 845.79 39.16 849.25 37.15"/><polyline class="cls-15" points="856.26 41.2 852.78 39.2 849.33 41.2 852.81 43.21 856.26 41.2"/><polyline class="cls-15" points="863.27 45.25 859.8 43.24 856.34 45.25 859.82 47.26 863.27 45.25"/><polyline class="cls-15" points="870.29 49.3 866.81 47.29 863.35 49.3 866.83 51.31 870.29 49.3"/><polyline class="cls-15" points="877.3 53.35 873.82 51.34 870.37 53.35 873.84 55.36 877.3 53.35"/><polyline class="cls-15" points="884.31 57.4 880.84 55.39 877.38 57.4 880.86 59.41 884.31 57.4"/><polyline class="cls-15" points="891.32 61.45 887.85 59.44 884.39 61.45 887.87 63.46 891.32 61.45"/><polyline class="cls-15" points="898.34 65.5 894.86 63.49 891.41 65.5 894.88 67.51 898.34 65.5"/><polyline class="cls-15" points="905.35 69.55 901.87 67.54 898.42 69.55 901.9 71.55 905.35 69.55"/><polyline class="cls-15" points="880.27 67.87 876.79 65.87 873.34 67.87 876.81 69.88 880.27 67.87"/><polyline class="cls-15" points="887.28 71.92 883.8 69.92 880.35 71.92 883.83 73.93 887.28 71.92"/><polyline class="cls-15" points="894.3 75.97 890.82 73.96 887.36 75.97 890.84 77.98 894.3 75.97"/><polyline class="cls-15" points="827.14 50.01 823.66 48 820.2 50.01 823.68 52.01 827.14 50.01"/><polyline class="cls-15" points="834.15 54.05 830.67 52.05 827.21 54.05 830.69 56.06 834.15 54.05"/><polyline class="cls-15" points="841.16 58.1 837.68 56.09 834.23 58.1 837.71 60.11 841.16 58.1"/><polyline class="cls-15" points="848.17 62.15 844.7 60.14 841.24 62.15 844.72 64.16 848.17 62.15"/><polyline class="cls-15" points="855.19 66.2 851.71 64.19 848.26 66.2 851.73 68.21 855.19 66.2"/><polyline class="cls-15" points="862.2 70.25 858.72 68.24 855.27 70.25 858.74 72.26 862.2 70.25"/><polyline class="cls-15" points="869.21 74.3 865.74 72.29 862.28 74.3 865.76 76.31 869.21 74.3"/><polyline class="cls-15" points="876.23 78.35 872.75 76.34 869.29 78.35 872.77 80.36 876.23 78.35"/><polyline class="cls-15" points="883.24 82.4 879.76 80.39 876.31 82.4 879.78 84.41 883.24 82.4"/><polyline class="cls-15" points="788.03 40.23 784.55 38.23 781.1 40.23 784.57 42.24 788.03 40.23"/><polyline class="cls-15" points="795.04 44.28 791.56 42.27 788.11 44.28 791.58 46.29 795.04 44.28"/><polyline class="cls-15" points="802.05 48.33 798.58 46.32 795.12 48.33 798.6 50.34 802.05 48.33"/><polyline class="cls-15" points="809.07 52.38 805.59 50.37 802.13 52.38 805.61 54.39 809.07 52.38"/><polyline class="cls-15" points="816.08 56.43 812.6 54.42 809.15 56.43 812.62 58.44 816.08 56.43"/><polyline class="cls-15" points="823.09 60.48 819.62 58.47 816.16 60.48 819.64 62.49 823.09 60.48"/><polyline class="cls-15" points="830.11 64.53 826.63 62.52 823.17 64.53 826.65 66.54 830.11 64.53"/><polyline class="cls-15" points="837.12 68.58 833.64 66.57 830.19 68.58 833.66 70.58 837.12 68.58"/><polyline class="cls-15" points="844.13 72.62 840.66 70.62 837.2 72.63 840.68 74.63 844.13 72.62"/><polyline class="cls-15" points="851.14 76.67 847.67 74.67 844.21 76.68 847.69 78.68 851.14 76.67"/><polyline class="cls-15" points="858.16 80.72 854.68 78.72 851.23 80.72 854.7 82.73 858.16 80.72"/><polyline class="cls-15" points="865.17 84.77 861.69 82.76 858.24 84.77 861.72 86.78 865.17 84.77"/><polyline class="cls-15" points="872.19 88.82 868.71 86.81 865.25 88.82 868.73 90.83 872.19 88.82"/><polyline class="cls-15" points="755.93 34.51 752.45 32.5 749 34.51 752.48 36.52 755.93 34.51"/><polyline class="cls-15" points="762.94 38.56 759.47 36.55 756.01 38.56 759.49 40.57 762.94 38.56"/><polyline class="cls-15" points="769.96 42.61 766.48 40.6 763.03 42.61 766.5 44.62 769.96 42.61"/><polyline class="cls-15" points="776.97 46.66 773.49 44.65 770.04 46.66 773.52 48.67 776.97 46.66"/><polyline class="cls-15" points="783.98 50.71 780.51 48.7 777.05 50.71 780.53 52.71 783.98 50.71"/><polyline class="cls-15" points="791 54.76 787.52 52.75 784.07 54.76 787.54 56.76 791 54.76"/><polyline class="cls-15" points="798.01 58.81 794.53 56.8 791.08 58.81 794.56 60.81 798.01 58.81"/><polyline class="cls-15" points="805.02 62.86 801.55 60.85 798.09 62.85 801.57 64.86 805.02 62.86"/><polyline class="cls-15" points="812.04 66.9 808.56 64.9 805.1 66.9 808.58 68.91 812.04 66.9"/><polyline class="cls-15" points="819.05 70.95 815.57 68.94 812.12 70.95 815.6 72.96 819.05 70.95"/><polyline class="cls-15" points="826.06 75 822.58 72.99 819.13 75 822.61 77.01 826.06 75"/><polyline class="cls-15" points="833.07 79.05 829.6 77.04 826.14 79.05 829.62 81.06 833.07 79.05"/><polyline class="cls-15" points="840.09 83.1 836.61 81.09 833.16 83.1 836.63 85.11 840.09 83.1"/><polyline class="cls-15" points="847.1 87.15 843.62 85.14 840.17 87.15 843.65 89.16 847.1 87.15"/><polyline class="cls-15" points="854.11 91.2 850.64 89.19 847.18 91.2 850.66 93.21 854.11 91.2"/><polyline class="cls-15" points="861.13 95.25 857.65 93.24 854.2 95.25 857.67 97.25 861.13 95.25"/><polyline class="cls-15" points="822.02 85.48 818.54 83.47 815.09 85.48 818.56 87.48 822.02 85.48"/><polyline class="cls-15" points="829.03 89.52 825.56 87.52 822.1 89.53 825.58 91.53 829.03 89.52"/><polyline class="cls-15" points="836.05 93.57 832.57 91.57 829.11 93.57 832.59 95.58 836.05 93.57"/><polyline class="cls-15" points="843.06 97.62 839.58 95.61 836.13 97.62 839.6 99.63 843.06 97.62"/><polyline class="cls-15" points="850.07 101.67 846.59 99.66 843.14 101.67 846.62 103.68 850.07 101.67"/><polyline class="cls-15" points="782.91 75.7 779.44 73.7 775.98 75.7 779.46 77.71 782.91 75.7"/><polyline class="cls-15" points="789.93 79.75 786.45 77.75 782.99 79.75 786.47 81.76 789.93 79.75"/><polyline class="cls-15" points="796.94 83.8 793.46 81.79 790 83.8 793.48 85.81 796.94 83.8"/><polyline class="cls-15" points="803.95 87.85 800.47 85.84 797.02 87.85 800.5 89.86 803.95 87.85"/><polyline class="cls-15" points="810.96 91.9 807.49 89.89 804.03 91.9 807.51 93.91 810.96 91.9"/><polyline class="cls-15" points="817.98 95.95 814.5 93.94 811.05 95.95 814.52 97.96 817.98 95.95"/><polyline class="cls-15" points="824.99 100 821.51 97.99 818.06 100 821.53 102.01 824.99 100"/><polyline class="cls-15" points="832 104.05 828.53 102.04 825.07 104.05 828.55 106.06 832 104.05"/><polyline class="cls-15" points="839.02 108.1 835.54 106.09 832.08 108.1 835.56 110.1 839.02 108.1"/><polyline class="cls-15" points="757.83 74.03 754.35 72.02 750.9 74.03 754.38 76.04 757.83 74.03"/><polyline class="cls-15" points="764.84 78.08 761.36 76.07 757.91 78.08 761.39 80.09 764.84 78.08"/><polyline class="cls-15" points="771.86 82.13 768.38 80.12 764.92 82.13 768.4 84.14 771.86 82.13"/><polyline class="cls-15" points="778.87 86.18 775.39 84.17 771.94 86.18 775.42 88.19 778.87 86.18"/><polyline class="cls-15" points="785.88 90.23 782.4 88.22 778.95 90.23 782.43 92.23 785.88 90.23"/><polyline class="cls-15" points="792.89 94.28 789.42 92.27 785.96 94.28 789.44 96.28 792.89 94.28"/><polyline class="cls-15" points="799.91 98.33 796.43 96.32 792.98 98.33 796.45 100.33 799.91 98.33"/><polyline class="cls-15" points="806.92 102.37 803.44 100.37 799.99 102.37 803.47 104.38 806.92 102.37"/><polyline class="cls-15" points="813.93 106.42 810.46 104.42 807 106.42 810.48 108.43 813.93 106.42"/><polyline class="cls-15" points="820.95 110.47 817.47 108.47 814.02 110.47 817.49 112.48 820.95 110.47"/><polyline class="cls-15" points="827.96 114.52 824.48 112.51 821.03 114.52 824.51 116.53 827.96 114.52"/><polyline class="cls-15" points="788.85 104.75 785.38 102.74 781.92 104.75 785.4 106.76 788.85 104.75"/><polyline class="cls-15" points="795.86 108.8 792.39 106.79 788.93 108.8 792.41 110.81 795.86 108.8"/><polyline class="cls-15" points="802.88 112.85 799.4 110.84 795.95 112.85 799.42 114.86 802.88 112.85"/><polyline class="cls-15" points="809.89 116.9 806.41 114.89 802.96 116.9 806.44 118.91 809.89 116.9"/><polyline class="cls-15" points="816.91 120.95 813.43 118.94 809.97 120.95 813.45 122.95 816.91 120.95"/></g><g class="cls-12"><polyline class="cls-15" points="619.69 178.45 616.23 176.45 612.8 178.45 616.26 180.44 619.69 178.45"/><polyline class="cls-15" points="626.65 182.47 623.2 180.47 619.77 182.47 623.22 184.46 626.65 182.47"/><polyline class="cls-15" points="633.62 186.49 630.16 184.5 626.73 186.49 630.19 188.48 633.62 186.49"/><polyline class="cls-15" points="640.58 190.51 637.13 188.52 633.7 190.51 637.15 192.51 640.58 190.51"/><polyline class="cls-15" points="647.55 194.53 644.09 192.54 640.66 194.53 644.11 196.53 647.55 194.53"/><polyline class="cls-15" points="654.51 198.55 651.06 196.56 647.63 198.55 651.08 200.55 654.51 198.55"/><polyline class="cls-15" points="661.48 202.57 658.02 200.58 654.59 202.58 658.04 204.57 661.48 202.57"/><polyline class="cls-15" points="668.44 206.6 664.99 204.6 661.56 206.6 665.01 208.59 668.44 206.6"/><polyline class="cls-15" points="675.41 210.62 671.95 208.62 668.52 210.62 671.98 212.61 675.41 210.62"/><polyline class="cls-15" points="580.85 168.74 577.4 166.75 573.96 168.74 577.42 170.74 580.85 168.74"/><polyline class="cls-15" points="587.81 172.76 584.36 170.77 580.93 172.76 584.38 174.76 587.81 172.76"/><polyline class="cls-15" points="594.78 176.79 591.32 174.79 587.89 176.79 591.35 178.78 594.78 176.79"/><polyline class="cls-15" points="601.74 180.81 598.29 178.81 594.86 180.81 598.31 182.8 601.74 180.81"/><polyline class="cls-15" points="608.71 184.83 605.25 182.83 601.82 184.83 605.28 186.82 608.71 184.83"/><polyline class="cls-15" points="615.67 188.85 612.22 186.85 608.79 188.85 612.24 190.84 615.67 188.85"/><polyline class="cls-15" points="622.64 192.87 619.18 190.88 615.75 192.87 619.21 194.86 622.64 192.87"/><polyline class="cls-15" points="629.6 196.89 626.15 194.9 622.72 196.89 626.17 198.89 629.6 196.89"/><polyline class="cls-15" points="636.57 200.91 633.12 198.92 629.68 200.91 633.14 202.91 636.57 200.91"/><polyline class="cls-15" points="643.53 204.93 640.08 202.94 636.65 204.93 640.1 206.93 643.53 204.93"/><polyline class="cls-15" points="650.5 208.95 647.04 206.96 643.61 208.96 647.06 210.95 650.5 208.95"/><polyline class="cls-15" points="657.46 212.98 654.01 210.98 650.58 212.98 654.03 214.97 657.46 212.98"/><polyline class="cls-15" points="664.43 217 660.97 215 657.54 217 661 218.99 664.43 217"/><polyline class="cls-15" points="639.52 215.34 636.06 213.34 632.63 215.34 636.09 217.33 639.52 215.34"/><polyline class="cls-15" points="646.48 219.36 643.03 217.36 639.6 219.36 643.05 221.35 646.48 219.36"/><polyline class="cls-15" points="653.45 223.38 649.99 221.39 646.56 223.38 650.02 225.37 653.45 223.38"/><polyline class="cls-15" points="586.75 197.59 583.29 195.6 579.86 197.59 583.32 199.58 586.75 197.59"/><polyline class="cls-15" points="593.71 201.61 590.26 199.62 586.83 201.61 590.28 203.61 593.71 201.61"/><polyline class="cls-15" points="600.68 205.63 597.22 203.64 593.79 205.63 597.25 207.63 600.68 205.63"/><polyline class="cls-15" points="607.64 209.65 604.19 207.66 600.76 209.65 604.21 211.65 607.64 209.65"/><polyline class="cls-15" points="614.61 213.67 611.15 211.68 607.72 213.68 611.17 215.67 614.61 213.67"/><polyline class="cls-15" points="621.57 217.7 618.12 215.7 614.69 217.7 618.14 219.69 621.57 217.7"/><polyline class="cls-15" points="628.54 221.72 625.08 219.72 621.65 221.72 625.1 223.71 628.54 221.72"/><polyline class="cls-15" points="635.5 225.74 632.05 223.74 628.62 225.74 632.07 227.73 635.5 225.74"/><polyline class="cls-15" points="642.47 229.76 639.01 227.77 635.58 229.76 639.04 231.75 642.47 229.76"/><polyline class="cls-15" points="547.91 187.89 544.46 185.89 541.02 187.89 544.48 189.88 547.91 187.89"/><polyline class="cls-15" points="554.87 191.91 551.42 189.91 547.99 191.91 551.44 193.9 554.87 191.91"/><polyline class="cls-15" points="561.84 195.93 558.39 193.93 554.95 195.93 558.41 197.92 561.84 195.93"/><polyline class="cls-15" points="568.8 199.95 565.35 197.96 561.92 199.95 565.37 201.94 568.8 199.95"/><polyline class="cls-15" points="575.77 203.97 572.31 201.98 568.88 203.97 572.34 205.97 575.77 203.97"/><polyline class="cls-15" points="582.73 207.99 579.28 206 575.85 207.99 579.3 209.99 582.73 207.99"/><polyline class="cls-15" points="589.7 212.01 586.24 210.02 582.81 212.01 586.27 214.01 589.7 212.01"/><polyline class="cls-15" points="596.66 216.03 593.21 214.04 589.78 216.03 593.23 218.03 596.66 216.03"/><polyline class="cls-15" points="603.63 220.05 600.18 218.06 596.74 220.06 600.2 222.05 603.63 220.05"/><polyline class="cls-15" points="610.59 224.08 607.14 222.08 603.71 224.08 607.16 226.07 610.59 224.08"/><polyline class="cls-15" points="617.56 228.1 614.1 226.1 610.67 228.1 614.13 230.09 617.56 228.1"/><polyline class="cls-15" points="624.52 232.12 621.07 230.12 617.64 232.12 621.09 234.11 624.52 232.12"/><polyline class="cls-15" points="631.49 236.14 628.03 234.15 624.6 236.14 628.06 238.13 631.49 236.14"/><polyline class="cls-15" points="606.58 234.48 603.12 232.49 599.69 234.48 603.15 236.47 606.58 234.48"/><polyline class="cls-15" points="613.54 238.5 610.09 236.51 606.66 238.5 610.11 240.49 613.54 238.5"/><polyline class="cls-15" points="620.51 242.52 617.05 240.53 613.62 242.52 617.08 244.52 620.51 242.52"/><polyline class="cls-15" points="609.53 248.9 606.07 246.91 602.64 248.9 606.1 250.9 609.53 248.9"/></g><g class="cls-12"><polyline class="cls-15" points="849.76 135.69 845.68 133.33 841.62 135.69 845.7 138.04 849.76 135.69"/><polyline class="cls-15" points="857.99 140.44 853.91 138.08 849.85 140.44 853.94 142.8 857.99 140.44"/><polyline class="cls-15" points="866.22 145.19 862.14 142.83 858.09 145.19 862.17 147.55 866.22 145.19"/><polyline class="cls-15" points="874.46 149.94 870.37 147.59 866.32 149.94 870.4 152.3 874.46 149.94"/><polyline class="cls-15" points="882.69 154.7 878.61 152.34 874.55 154.7 878.63 157.05 882.69 154.7"/><polyline class="cls-15" points="890.92 159.45 886.84 157.09 882.78 159.45 886.86 161.81 890.92 159.45"/><polyline class="cls-15" points="899.15 164.2 895.07 161.85 891.01 164.2 895.1 166.56 899.15 164.2"/><polyline class="cls-15" points="907.39 168.96 903.3 166.6 899.25 168.96 903.33 171.31 907.39 168.96"/><polyline class="cls-15" points="915.62 173.71 911.53 171.35 907.48 173.71 911.56 176.07 915.62 173.71"/><polyline class="cls-15" points="923.85 178.46 919.77 176.1 915.71 178.46 919.79 180.82 923.85 178.46"/><polyline class="cls-15" points="932.08 183.21 928 180.86 923.94 183.21 928.02 185.57 932.08 183.21"/><polyline class="cls-15" points="940.31 187.97 936.23 185.61 932.17 187.97 936.26 190.32 940.31 187.97"/><polyline class="cls-15" points="948.54 192.72 944.46 190.36 940.41 192.72 944.49 195.08 948.54 192.72"/><polyline class="cls-15" points="956.78 197.47 952.7 195.12 948.64 197.47 952.72 199.83 956.78 197.47"/><polyline class="cls-15" points="965.01 202.22 960.93 199.87 956.87 202.23 960.95 204.58 965.01 202.22"/><polyline class="cls-15" points="973.24 206.98 969.16 204.62 965.1 206.98 969.18 209.33 973.24 206.98"/><polyline class="cls-15" points="836.78 143.23 832.7 140.87 828.65 143.23 832.73 145.58 836.78 143.23"/><polyline class="cls-15" points="845.02 147.98 840.93 145.62 836.88 147.98 840.96 150.34 845.02 147.98"/><polyline class="cls-15" points="853.25 152.73 849.16 150.38 845.11 152.73 849.19 155.09 853.25 152.73"/><polyline class="cls-15" points="861.48 157.48 857.4 155.13 853.34 157.48 857.42 159.84 861.48 157.48"/><polyline class="cls-15" points="869.71 162.24 865.63 159.88 861.57 162.24 865.66 164.59 869.71 162.24"/><polyline class="cls-15" points="877.94 166.99 873.86 164.63 869.81 166.99 873.89 169.35 877.94 166.99"/><polyline class="cls-15" points="886.17 171.74 882.09 169.39 878.04 171.74 882.12 174.1 886.17 171.74"/><polyline class="cls-15" points="823.8 150.77 819.72 148.41 815.67 150.77 819.75 153.13 823.8 150.77"/><polyline class="cls-15" points="832.04 155.52 827.95 153.17 823.9 155.52 827.98 157.88 832.04 155.52"/><polyline class="cls-15" points="840.27 160.28 836.19 157.92 832.13 160.27 836.21 162.63 840.27 160.28"/><polyline class="cls-15" points="848.5 165.03 844.42 162.67 840.36 165.03 844.45 167.38 848.5 165.03"/><polyline class="cls-15" points="856.73 169.78 852.65 167.42 848.6 169.78 852.68 172.14 856.73 169.78"/><polyline class="cls-15" points="864.96 174.53 860.88 172.18 856.83 174.53 860.91 176.89 864.96 174.53"/><polyline class="cls-15" points="873.2 179.29 869.12 176.93 865.06 179.29 869.14 181.64 873.2 179.29"/><polyline class="cls-15" points="881.43 184.04 877.35 181.68 873.29 184.04 877.38 186.4 881.43 184.04"/><polyline class="cls-15" points="889.66 188.79 885.58 186.44 881.53 188.79 885.61 191.15 889.66 188.79"/><polyline class="cls-15" points="897.89 193.54 893.81 191.19 889.76 193.54 893.84 195.9 897.89 193.54"/><polyline class="cls-15" points="906.13 198.3 902.04 195.94 897.99 198.3 902.07 200.65 906.13 198.3"/><polyline class="cls-15" points="810.83 158.31 806.75 155.95 802.69 158.31 806.77 160.67 810.83 158.31"/><polyline class="cls-15" points="819.06 163.06 814.98 160.71 810.92 163.06 815 165.42 819.06 163.06"/><polyline class="cls-15" points="827.29 167.82 823.21 165.46 819.15 167.82 823.24 170.17 827.29 167.82"/><polyline class="cls-15" points="835.52 172.57 831.44 170.21 827.38 172.57 831.47 174.93 835.52 172.57"/><polyline class="cls-15" points="843.76 177.32 839.68 174.97 835.62 177.32 839.7 179.68 843.76 177.32"/><polyline class="cls-15" points="851.99 182.07 847.91 179.72 843.85 182.08 847.93 184.43 851.99 182.07"/><polyline class="cls-15" points="797.85 165.85 793.77 163.5 789.71 165.85 793.8 168.21 797.85 165.85"/><polyline class="cls-15" points="806.08 170.6 802 168.25 797.94 170.6 802.03 172.96 806.08 170.6"/><polyline class="cls-15" points="814.32 175.36 810.23 173 806.18 175.36 810.26 177.71 814.32 175.36"/><polyline class="cls-15" points="822.55 180.11 818.46 177.75 814.41 180.11 818.49 182.47 822.55 180.11"/><polyline class="cls-15" points="830.78 184.86 826.7 182.51 822.64 184.86 826.72 187.22 830.78 184.86"/><polyline class="cls-15" points="839.01 189.62 834.93 187.26 830.87 189.62 834.95 191.97 839.01 189.62"/><polyline class="cls-15" points="847.24 194.37 843.16 192.01 839.11 194.37 843.19 196.73 847.24 194.37"/><polyline class="cls-15" points="855.48 199.12 851.39 196.76 847.34 199.12 851.42 201.48 855.48 199.12"/><polyline class="cls-15" points="863.71 203.87 859.63 201.52 855.57 203.87 859.65 206.23 863.71 203.87"/><polyline class="cls-15" points="871.94 208.63 867.86 206.27 863.8 208.63 867.88 210.98 871.94 208.63"/><polyline class="cls-15" points="784.87 173.4 780.79 171.04 776.74 173.39 780.82 175.75 784.87 173.4"/><polyline class="cls-15" points="793.1 178.15 789.02 175.79 784.97 178.15 789.05 180.5 793.1 178.15"/><polyline class="cls-15" points="801.34 182.9 797.25 180.54 793.2 182.9 797.28 185.26 801.34 182.9"/><polyline class="cls-15" points="809.57 187.65 805.48 185.3 801.43 187.65 805.51 190.01 809.57 187.65"/><polyline class="cls-15" points="817.8 192.41 813.72 190.05 809.67 192.41 813.75 194.76 817.8 192.41"/><polyline class="cls-15" points="826.03 197.16 821.95 194.8 817.9 197.16 821.98 199.51 826.03 197.16"/><polyline class="cls-15" points="834.26 201.91 830.18 199.55 826.13 201.91 830.21 204.27 834.26 201.91"/><polyline class="cls-15" points="842.5 206.66 838.41 204.31 834.36 206.66 838.44 209.02 842.5 206.66"/><polyline class="cls-15" points="850.73 211.42 846.65 209.06 842.59 211.42 846.68 213.77 850.73 211.42"/><polyline class="cls-15" points="858.96 216.17 854.88 213.81 850.82 216.17 854.91 218.53 858.96 216.17"/><polyline class="cls-15" points="867.19 220.92 863.11 218.57 859.06 220.92 863.14 223.28 867.19 220.92"/><polyline class="cls-15" points="875.42 225.68 871.34 223.32 867.29 225.67 871.37 228.03 875.42 225.68"/><polyline class="cls-15" points="771.9 180.94 767.81 178.58 763.76 180.94 767.84 183.29 771.9 180.94"/><polyline class="cls-15" points="780.13 185.69 776.04 183.33 771.99 185.69 776.07 188.05 780.13 185.69"/><polyline class="cls-15" points="788.36 190.44 784.28 188.08 780.22 190.44 784.3 192.8 788.36 190.44"/><polyline class="cls-15" points="796.59 195.19 792.51 192.84 788.45 195.19 792.53 197.55 796.59 195.19"/><polyline class="cls-15" points="758.92 188.48 754.84 186.12 750.78 188.48 754.86 190.83 758.92 188.48"/><polyline class="cls-15" points="767.15 193.23 763.07 190.87 759.01 193.23 763.09 195.59 767.15 193.23"/><polyline class="cls-15" points="775.38 197.98 771.3 195.63 767.24 197.98 771.33 200.34 775.38 197.98"/><polyline class="cls-15" points="783.61 202.74 779.53 200.38 775.48 202.74 779.56 205.09 783.61 202.74"/><polyline class="cls-15" points="791.85 207.49 787.77 205.13 783.71 207.49 787.79 209.85 791.85 207.49"/><polyline class="cls-15" points="800.08 212.24 796 209.88 791.94 212.24 796.02 214.6 800.08 212.24"/><polyline class="cls-15" points="808.31 216.99 804.23 214.64 800.17 216.99 804.25 219.35 808.31 216.99"/><polyline class="cls-15" points="816.54 221.75 812.46 219.39 808.4 221.75 812.49 224.1 816.54 221.75"/><polyline class="cls-15" points="824.78 226.5 820.69 224.14 816.64 226.5 820.72 228.86 824.78 226.5"/><polyline class="cls-15" points="833.01 231.25 828.92 228.9 824.87 231.25 828.95 233.61 833.01 231.25"/><polyline class="cls-15" points="841.24 236.01 837.16 233.65 833.1 236.01 837.18 238.36 841.24 236.01"/><polyline class="cls-15" points="849.47 240.76 845.39 238.4 841.33 240.76 845.41 243.12 849.47 240.76"/><polyline class="cls-15" points="745.94 196.02 741.86 193.66 737.8 196.02 741.89 198.38 745.94 196.02"/><polyline class="cls-15" points="754.17 200.77 750.09 198.42 746.03 200.77 750.12 203.13 754.17 200.77"/><polyline class="cls-15" points="762.4 205.53 758.32 203.17 754.27 205.52 758.35 207.88 762.4 205.53"/><polyline class="cls-15" points="770.63 210.28 766.55 207.92 762.5 210.28 766.58 212.63 770.63 210.28"/><polyline class="cls-15" points="778.87 215.03 774.79 212.67 770.73 215.03 774.81 217.39 778.87 215.03"/><polyline class="cls-15" points="787.1 219.78 783.02 217.43 778.96 219.78 783.04 222.14 787.1 219.78"/><polyline class="cls-15" points="795.33 224.54 791.25 222.18 787.2 224.54 791.28 226.89 795.33 224.54"/><polyline class="cls-15" points="803.56 229.29 799.48 226.93 795.43 229.29 799.51 231.65 803.56 229.29"/><polyline class="cls-15" points="811.8 234.04 807.71 231.69 803.66 234.04 807.74 236.4 811.8 234.04"/><polyline class="cls-15" points="732.96 203.56 728.88 201.2 724.82 203.56 728.91 205.92 732.96 203.56"/><polyline class="cls-15" points="741.19 208.31 737.11 205.96 733.06 208.31 737.14 210.67 741.19 208.31"/><polyline class="cls-15" points="749.43 213.07 745.34 210.71 741.29 213.07 745.37 215.42 749.43 213.07"/><polyline class="cls-15" points="757.66 217.82 753.58 215.46 749.52 217.82 753.6 220.18 757.66 217.82"/><polyline class="cls-15" points="765.89 222.57 761.81 220.22 757.75 222.57 761.83 224.93 765.89 222.57"/></g><g class="cls-10"><polyline class="cls-17" points="157.23 395.73 154.08 393.91 150.95 395.73 154.1 397.55 157.23 395.73"/><polyline class="cls-17" points="163.59 399.4 160.44 397.58 157.31 399.4 160.46 401.22 163.59 399.4"/><polyline class="cls-17" points="169.95 403.07 166.79 401.25 163.66 403.07 166.82 404.89 169.95 403.07"/><polyline class="cls-17" points="176.3 406.74 173.15 404.92 170.02 406.74 173.17 408.56 176.3 406.74"/><polyline class="cls-17" points="182.66 410.41 179.51 408.59 176.38 410.41 179.53 412.23 182.66 410.41"/><polyline class="cls-17" points="189.02 414.08 185.87 412.26 182.73 414.08 185.89 415.9 189.02 414.08"/><polyline class="cls-17" points="195.37 417.75 192.22 415.93 189.09 417.75 192.24 419.57 195.37 417.75"/><polyline class="cls-17" points="201.73 421.42 198.58 419.6 195.45 421.42 198.6 423.24 201.73 421.42"/><polyline class="cls-17" points="208.09 425.09 204.94 423.27 201.8 425.09 204.96 426.91 208.09 425.09"/><polyline class="cls-17" points="214.45 428.76 211.29 426.94 208.16 428.76 211.31 430.58 214.45 428.76"/><polyline class="cls-17" points="220.8 432.43 217.65 430.61 214.52 432.43 217.67 434.25 220.8 432.43"/><polyline class="cls-17" points="227.16 436.1 224.01 434.28 220.87 436.1 224.03 437.92 227.16 436.1"/><polyline class="cls-17" points="233.52 439.77 230.36 437.95 227.23 439.77 230.38 441.59 233.52 439.77"/><polyline class="cls-17" points="239.87 443.44 236.72 441.62 233.59 443.44 236.74 445.26 239.87 443.44"/><polyline class="cls-17" points="246.23 447.11 243.08 445.29 239.95 447.11 243.1 448.93 246.23 447.11"/><polyline class="cls-17" points="252.59 450.78 249.44 448.96 246.3 450.78 249.45 452.6 252.59 450.78"/><polyline class="cls-17" points="147.21 401.55 144.06 399.73 140.93 401.55 144.08 403.37 147.21 401.55"/><polyline class="cls-17" points="153.57 405.22 150.42 403.4 147.28 405.22 150.44 407.04 153.57 405.22"/><polyline class="cls-17" points="159.93 408.89 156.77 407.07 153.64 408.89 156.79 410.71 159.93 408.89"/><polyline class="cls-17" points="166.28 412.56 163.13 410.74 160 412.56 163.15 414.38 166.28 412.56"/><polyline class="cls-17" points="172.64 416.23 169.49 414.41 166.36 416.23 169.51 418.05 172.64 416.23"/><polyline class="cls-17" points="179 419.9 175.85 418.08 172.71 419.9 175.86 421.72 179 419.9"/><polyline class="cls-17" points="185.35 423.57 182.2 421.75 179.07 423.57 182.22 425.39 185.35 423.57"/><polyline class="cls-17" points="137.19 407.37 134.04 405.55 130.91 407.37 134.06 409.19 137.19 407.37"/><polyline class="cls-17" points="143.55 411.04 140.39 409.22 137.26 411.04 140.42 412.86 143.55 411.04"/><polyline class="cls-17" points="149.9 414.71 146.75 412.89 143.62 414.71 146.77 416.53 149.9 414.71"/><polyline class="cls-17" points="156.26 418.38 153.11 416.56 149.98 418.38 153.13 420.2 156.26 418.38"/><polyline class="cls-17" points="162.62 422.05 159.47 420.24 156.34 422.05 159.49 423.87 162.62 422.05"/><polyline class="cls-17" points="168.97 425.72 165.82 423.91 162.69 425.72 165.84 427.54 168.97 425.72"/><polyline class="cls-17" points="175.33 429.39 172.18 427.58 169.05 429.39 172.2 431.21 175.33 429.39"/><polyline class="cls-17" points="181.69 433.07 178.54 431.25 175.41 433.06 178.56 434.89 181.69 433.07"/><polyline class="cls-17" points="188.05 436.74 184.89 434.92 181.76 436.73 184.92 438.56 188.05 436.74"/><polyline class="cls-17" points="194.4 440.41 191.25 438.59 188.12 440.4 191.27 442.23 194.4 440.41"/><polyline class="cls-17" points="200.76 444.08 197.61 442.26 194.48 444.07 197.63 445.9 200.76 444.08"/><polyline class="cls-17" points="127.17 413.2 124.02 411.38 120.88 413.2 124.04 415.02 127.17 413.2"/><polyline class="cls-17" points="133.53 416.87 130.37 415.05 127.24 416.87 130.39 418.69 133.53 416.87"/><polyline class="cls-17" points="139.88 420.54 136.73 418.72 133.6 420.54 136.75 422.36 139.88 420.54"/><polyline class="cls-17" points="146.24 424.21 143.09 422.39 139.95 424.21 143.11 426.03 146.24 424.21"/><polyline class="cls-17" points="152.6 427.88 149.45 426.06 146.31 427.88 149.46 429.7 152.6 427.88"/><polyline class="cls-17" points="158.95 431.55 155.8 429.73 152.67 431.55 155.82 433.37 158.95 431.55"/><polyline class="cls-17" points="117.15 419.02 114 417.2 110.86 419.02 114.02 420.84 117.15 419.02"/><polyline class="cls-17" points="123.51 422.69 120.35 420.87 117.22 422.69 120.37 424.51 123.51 422.69"/><polyline class="cls-17" points="129.86 426.36 126.71 424.54 123.58 426.36 126.73 428.18 129.86 426.36"/><polyline class="cls-17" points="136.22 430.03 133.07 428.21 129.93 430.03 133.09 431.85 136.22 430.03"/><polyline class="cls-17" points="142.58 433.7 139.42 431.88 136.29 433.7 139.44 435.52 142.58 433.7"/><polyline class="cls-17" points="148.93 437.37 145.78 435.55 142.65 437.37 145.8 439.19 148.93 437.37"/><polyline class="cls-17" points="155.29 441.04 152.14 439.22 149.01 441.04 152.16 442.86 155.29 441.04"/><polyline class="cls-17" points="161.65 444.71 158.49 442.89 155.36 444.71 158.52 446.53 161.65 444.71"/><polyline class="cls-17" points="168 448.38 164.85 446.56 161.72 448.38 164.87 450.2 168 448.38"/><polyline class="cls-17" points="174.36 452.05 171.21 450.23 168.08 452.05 171.23 453.87 174.36 452.05"/><polyline class="cls-17" points="107.13 424.85 103.97 423.03 100.84 424.84 104 426.67 107.13 424.85"/><polyline class="cls-17" points="113.48 428.52 110.33 426.7 107.2 428.51 110.35 430.34 113.48 428.52"/><polyline class="cls-17" points="119.84 432.19 116.69 430.37 113.56 432.18 116.71 434.01 119.84 432.19"/><polyline class="cls-17" points="126.2 435.86 123.04 434.04 119.91 435.86 123.07 437.68 126.2 435.86"/><polyline class="cls-17" points="132.55 439.53 129.4 437.71 126.27 439.53 129.42 441.35 132.55 439.53"/><polyline class="cls-17" points="138.91 443.2 135.76 441.38 132.63 443.2 135.78 445.02 138.91 443.2"/><polyline class="cls-17" points="145.27 446.87 142.12 445.05 138.98 446.87 142.14 448.69 145.27 446.87"/><polyline class="cls-17" points="151.62 450.54 148.47 448.72 145.34 450.54 148.49 452.36 151.62 450.54"/><polyline class="cls-17" points="157.98 454.21 154.83 452.39 151.7 454.21 154.85 456.03 157.98 454.21"/><polyline class="cls-17" points="164.34 457.88 161.19 456.06 158.06 457.88 161.21 459.7 164.34 457.88"/><polyline class="cls-17" points="170.7 461.55 167.54 459.73 164.41 461.55 167.56 463.37 170.7 461.55"/><polyline class="cls-17" points="177.05 465.22 173.9 463.4 170.77 465.22 173.92 467.04 177.05 465.22"/><polyline class="cls-17" points="97.11 430.67 93.95 428.85 90.82 430.67 93.97 432.49 97.11 430.67"/><polyline class="cls-17" points="103.46 434.34 100.31 432.52 97.18 434.34 100.33 436.16 103.46 434.34"/><polyline class="cls-17" points="109.82 438.01 106.67 436.19 103.53 438.01 106.69 439.83 109.82 438.01"/><polyline class="cls-17" points="116.18 441.68 113.02 439.86 109.89 441.68 113.04 443.5 116.18 441.68"/><polyline class="cls-17" points="87.08 436.49 83.93 434.67 80.8 436.49 83.95 438.31 87.08 436.49"/><polyline class="cls-17" points="93.44 440.16 90.29 438.34 87.16 440.16 90.31 441.98 93.44 440.16"/><polyline class="cls-17" points="99.8 443.83 96.64 442.01 93.51 443.83 96.67 445.65 99.8 443.83"/><polyline class="cls-17" points="106.15 447.5 103 445.68 99.87 447.5 103.02 449.32 106.15 447.5"/><polyline class="cls-17" points="112.51 451.17 109.36 449.35 106.23 451.17 109.38 452.99 112.51 451.17"/><polyline class="cls-17" points="118.87 454.84 115.72 453.02 112.58 454.84 115.74 456.66 118.87 454.84"/><polyline class="cls-17" points="125.22 458.51 122.07 456.69 118.94 458.51 122.09 460.33 125.22 458.51"/><polyline class="cls-17" points="131.58 462.18 128.43 460.36 125.3 462.18 128.45 464 131.58 462.18"/><polyline class="cls-17" points="137.94 465.85 134.79 464.03 131.65 465.85 134.81 467.67 137.94 465.85"/><polyline class="cls-17" points="144.3 469.52 141.14 467.7 138.01 469.52 141.16 471.34 144.3 469.52"/><polyline class="cls-17" points="150.65 473.19 147.5 471.37 144.37 473.19 147.52 475.01 150.65 473.19"/><polyline class="cls-17" points="157.01 476.86 153.86 475.04 150.72 476.86 153.88 478.68 157.01 476.86"/><polyline class="cls-17" points="77.06 442.32 73.91 440.5 70.78 442.32 73.93 444.14 77.06 442.32"/><polyline class="cls-17" points="83.42 445.99 80.27 444.17 77.13 445.99 80.29 447.81 83.42 445.99"/><polyline class="cls-17" points="89.77 449.66 86.62 447.84 83.49 449.66 86.64 451.48 89.77 449.66"/><polyline class="cls-17" points="96.13 453.33 92.98 451.51 89.85 453.33 93 455.15 96.13 453.33"/><polyline class="cls-17" points="102.49 457 99.34 455.18 96.21 457 99.36 458.82 102.49 457"/><polyline class="cls-17" points="108.85 460.67 105.69 458.85 102.56 460.67 105.71 462.49 108.85 460.67"/><polyline class="cls-17" points="115.2 464.34 112.05 462.52 108.92 464.34 112.07 466.16 115.2 464.34"/><polyline class="cls-17" points="121.56 468.01 118.41 466.19 115.28 468.01 118.43 469.83 121.56 468.01"/><polyline class="cls-17" points="127.92 471.68 124.76 469.86 121.63 471.68 124.79 473.5 127.92 471.68"/><polyline class="cls-17" points="67.04 448.14 63.89 446.32 60.76 448.14 63.91 449.96 67.04 448.14"/><polyline class="cls-17" points="73.4 451.81 70.24 449.99 67.11 451.81 70.27 453.63 73.4 451.81"/><polyline class="cls-17" points="79.75 455.48 76.6 453.66 73.47 455.48 76.62 457.3 79.75 455.48"/><polyline class="cls-17" points="86.11 459.15 82.96 457.33 79.83 459.15 82.98 460.97 86.11 459.15"/><polyline class="cls-17" points="92.47 462.82 89.32 461 86.18 462.82 89.34 464.64 92.47 462.82"/></g><g class="cls-20"><polyline class="cls-13" points="749.66 566.75 745.97 564.62 742.3 566.75 745.99 568.88 749.66 566.75"/><polyline class="cls-13" points="757.1 571.05 753.41 568.92 749.74 571.05 753.43 573.18 757.1 571.05"/><polyline class="cls-13" points="764.54 575.34 760.85 573.21 757.18 575.34 760.87 577.47 764.54 575.34"/><polyline class="cls-13" points="771.98 579.64 768.29 577.51 764.62 579.64 768.31 581.77 771.98 579.64"/><polyline class="cls-13" points="779.42 583.94 775.73 581.81 772.06 583.94 775.75 586.07 779.42 583.94"/><polyline class="cls-13" points="786.86 588.23 783.17 586.1 779.51 588.23 783.19 590.36 786.86 588.23"/><polyline class="cls-13" points="794.3 592.53 790.61 590.4 786.95 592.53 790.64 594.66 794.3 592.53"/><polyline class="cls-13" points="801.75 596.83 798.05 594.7 794.39 596.83 798.08 598.96 801.75 596.83"/><polyline class="cls-13" points="809.19 601.12 805.5 598.99 801.83 601.12 805.52 603.25 809.19 601.12"/><polyline class="cls-13" points="816.63 605.42 812.94 603.29 809.27 605.42 812.96 607.55 816.63 605.42"/><polyline class="cls-13" points="824.07 609.71 820.38 607.58 816.71 609.71 820.4 611.84 824.07 609.71"/><polyline class="cls-13" points="831.51 614.01 827.82 611.88 824.15 614.01 827.84 616.14 831.51 614.01"/><polyline class="cls-13" points="838.95 618.31 835.26 616.18 831.59 618.31 835.28 620.44 838.95 618.31"/><polyline class="cls-13" points="846.39 622.6 842.7 620.47 839.04 622.6 842.72 624.73 846.39 622.6"/><polyline class="cls-13" points="853.83 626.9 850.14 624.77 846.48 626.9 850.17 629.03 853.83 626.9"/><polyline class="cls-13" points="861.27 631.19 857.59 629.06 853.92 631.2 857.61 633.33 861.27 631.19"/><polyline class="cls-13" points="737.93 573.57 734.23 571.44 730.57 573.57 734.26 575.7 737.93 573.57"/><polyline class="cls-13" points="745.37 577.86 741.68 575.73 738.01 577.86 741.7 580 745.37 577.86"/><polyline class="cls-13" points="752.81 582.16 749.12 580.03 745.45 582.16 749.14 584.29 752.81 582.16"/><polyline class="cls-13" points="760.25 586.46 756.56 584.33 752.89 586.46 756.58 588.59 760.25 586.46"/><polyline class="cls-13" points="767.69 590.75 764 588.62 760.33 590.75 764.02 592.88 767.69 590.75"/><polyline class="cls-13" points="775.13 595.05 771.44 592.92 767.78 595.05 771.46 597.18 775.13 595.05"/><polyline class="cls-13" points="782.57 599.35 778.88 597.22 775.22 599.35 778.91 601.48 782.57 599.35"/><polyline class="cls-13" points="726.19 580.39 722.5 578.26 718.84 580.39 722.53 582.52 726.19 580.39"/><polyline class="cls-13" points="733.63 584.68 729.94 582.55 726.28 584.68 729.97 586.81 733.63 584.68"/><polyline class="cls-13" points="741.08 588.98 737.38 586.85 733.72 588.98 737.41 591.11 741.08 588.98"/><polyline class="cls-13" points="748.52 593.28 744.83 591.14 741.16 593.27 744.85 595.4 748.52 593.28"/><polyline class="cls-13" points="755.96 597.57 752.27 595.44 748.6 597.57 752.29 599.7 755.96 597.57"/><polyline class="cls-13" points="763.4 601.87 759.71 599.74 756.05 601.87 759.73 604 763.4 601.87"/><polyline class="cls-13" points="770.84 606.16 767.15 604.03 763.49 606.16 767.18 608.29 770.84 606.16"/><polyline class="cls-13" points="778.28 610.46 774.59 608.33 770.93 610.46 774.62 612.59 778.28 610.46"/><polyline class="cls-13" points="785.72 614.76 782.03 612.63 778.37 614.76 782.06 616.89 785.72 614.76"/><polyline class="cls-13" points="793.16 619.05 789.47 616.92 785.81 619.05 789.5 621.18 793.16 619.05"/><polyline class="cls-13" points="800.61 623.35 796.92 621.22 793.25 623.35 796.94 625.48 800.61 623.35"/><polyline class="cls-13" points="714.46 587.2 710.77 585.07 707.11 587.2 710.8 589.33 714.46 587.2"/><polyline class="cls-13" points="721.9 591.5 718.21 589.37 714.55 591.5 718.24 593.63 721.9 591.5"/><polyline class="cls-13" points="729.35 595.8 725.65 593.67 721.99 595.8 725.68 597.93 729.35 595.8"/><polyline class="cls-13" points="736.79 600.09 733.1 597.96 729.43 600.09 733.12 602.22 736.79 600.09"/><polyline class="cls-13" points="744.23 604.39 740.54 602.26 736.87 604.39 740.56 606.52 744.23 604.39"/><polyline class="cls-13" points="751.67 608.68 747.98 606.55 744.31 608.69 748 610.82 751.67 608.68"/><polyline class="cls-13" points="702.73 594.02 699.04 591.89 695.38 594.02 699.07 596.15 702.73 594.02"/><polyline class="cls-13" points="710.17 598.32 706.48 596.19 702.82 598.32 706.51 600.45 710.17 598.32"/><polyline class="cls-13" points="717.61 602.61 713.92 600.48 710.26 602.61 713.95 604.74 717.61 602.61"/><polyline class="cls-13" points="725.06 606.91 721.37 604.78 717.7 606.91 721.39 609.04 725.06 606.91"/><polyline class="cls-13" points="732.5 611.2 728.81 609.08 725.14 611.21 728.83 613.34 732.5 611.2"/><polyline class="cls-13" points="739.94 615.5 736.25 613.37 732.58 615.5 736.27 617.63 739.94 615.5"/><polyline class="cls-13" points="747.38 619.8 743.69 617.67 740.02 619.8 743.71 621.93 747.38 619.8"/><polyline class="cls-13" points="754.82 624.09 751.13 621.96 747.47 624.09 751.16 626.23 754.82 624.09"/><polyline class="cls-13" points="762.26 628.39 758.57 626.26 754.91 628.39 758.6 630.52 762.26 628.39"/><polyline class="cls-13" points="769.7 632.69 766.01 630.56 762.35 632.69 766.04 634.82 769.7 632.69"/><polyline class="cls-13" points="691 600.84 687.31 598.71 683.65 600.84 687.34 602.97 691 600.84"/><polyline class="cls-13" points="698.44 605.13 694.75 603 691.09 605.13 694.78 607.26 698.44 605.13"/><polyline class="cls-13" points="705.88 609.43 702.19 607.3 698.53 609.43 702.22 611.56 705.88 609.43"/><polyline class="cls-13" points="713.32 613.73 709.63 611.6 705.97 613.73 709.66 615.86 713.32 613.73"/><polyline class="cls-13" points="720.76 618.02 717.08 615.89 713.41 618.02 717.1 620.15 720.76 618.02"/><polyline class="cls-13" points="728.21 622.32 724.52 620.19 720.85 622.32 724.54 624.45 728.21 622.32"/><polyline class="cls-13" points="735.65 626.62 731.96 624.49 728.29 626.62 731.98 628.74 735.65 626.62"/><polyline class="cls-13" points="743.09 630.91 739.4 628.78 735.73 630.91 739.43 633.04 743.09 630.91"/><polyline class="cls-13" points="750.53 635.21 746.84 633.08 743.18 635.21 746.87 637.34 750.53 635.21"/><polyline class="cls-13" points="757.97 639.5 754.28 637.37 750.62 639.5 754.31 641.63 757.97 639.5"/><polyline class="cls-13" points="765.41 643.8 761.72 641.67 758.06 643.8 761.75 645.93 765.41 643.8"/><polyline class="cls-13" points="772.85 648.1 769.16 645.97 765.5 648.1 769.19 650.23 772.85 648.1"/><polyline class="cls-13" points="679.27 607.66 675.58 605.52 671.91 607.66 675.6 609.79 679.27 607.66"/><polyline class="cls-13" points="686.71 611.95 683.02 609.82 679.35 611.95 683.04 614.08 686.71 611.95"/><polyline class="cls-13" points="694.15 616.25 690.46 614.12 686.79 616.25 690.49 618.38 694.15 616.25"/><polyline class="cls-13" points="701.59 620.54 697.9 618.41 694.24 620.54 697.93 622.67 701.59 620.54"/><polyline class="cls-13" points="667.54 614.47 663.85 612.34 660.18 614.47 663.87 616.6 667.54 614.47"/><polyline class="cls-13" points="674.98 618.77 671.29 616.64 667.62 618.77 671.31 620.9 674.98 618.77"/><polyline class="cls-13" points="682.42 623.06 678.73 620.93 675.06 623.06 678.76 625.2 682.42 623.06"/><polyline class="cls-13" points="689.86 627.36 686.17 625.23 682.51 627.36 686.2 629.49 689.86 627.36"/><polyline class="cls-13" points="697.3 631.66 693.62 629.53 689.95 631.66 693.64 633.79 697.3 631.66"/><polyline class="cls-13" points="704.75 635.95 701.06 633.82 697.39 635.95 701.08 638.08 704.75 635.95"/><polyline class="cls-13" points="712.19 640.25 708.5 638.12 704.83 640.25 708.52 642.38 712.19 640.25"/><polyline class="cls-13" points="719.63 644.55 715.94 642.42 712.27 644.55 715.96 646.68 719.63 644.55"/><polyline class="cls-13" points="727.07 648.84 723.38 646.71 719.71 648.84 723.4 650.97 727.07 648.84"/><polyline class="cls-13" points="734.51 653.14 730.82 651.01 727.15 653.14 730.85 655.27 734.51 653.14"/><polyline class="cls-13" points="741.95 657.43 738.26 655.3 734.6 657.43 738.29 659.57 741.95 657.43"/><polyline class="cls-13" points="749.39 661.73 745.7 659.6 742.04 661.73 745.73 663.86 749.39 661.73"/><polyline class="cls-13" points="655.81 621.29 652.12 619.16 648.45 621.29 652.14 623.42 655.81 621.29"/><polyline class="cls-13" points="663.25 625.59 659.56 623.46 655.89 625.59 659.58 627.72 663.25 625.59"/><polyline class="cls-13" points="670.69 629.88 667 627.75 663.33 629.88 667.03 632.01 670.69 629.88"/><polyline class="cls-13" points="678.13 634.18 674.44 632.05 670.78 634.18 674.47 636.31 678.13 634.18"/><polyline class="cls-13" points="685.57 638.47 681.88 636.35 678.22 638.47 681.91 640.6 685.57 638.47"/><polyline class="cls-13" points="693.01 642.77 689.32 640.64 685.66 642.77 689.35 644.9 693.01 642.77"/><polyline class="cls-13" points="700.45 647.07 696.77 644.94 693.1 647.07 696.79 649.2 700.45 647.07"/><polyline class="cls-13" points="707.9 651.36 704.21 649.23 700.54 651.36 704.23 653.49 707.9 651.36"/><polyline class="cls-13" points="715.34 655.66 711.65 653.53 707.98 655.66 711.67 657.79 715.34 655.66"/><polyline class="cls-13" points="644.08 628.11 640.39 625.98 636.72 628.11 640.41 630.24 644.08 628.11"/><polyline class="cls-13" points="651.52 632.4 647.83 630.27 644.16 632.4 647.85 634.53 651.52 632.4"/><polyline class="cls-13" points="658.96 636.7 655.27 634.57 651.6 636.7 655.29 638.83 658.96 636.7"/><polyline class="cls-13" points="666.4 641 662.71 638.86 659.04 641 662.73 643.13 666.4 641"/><polyline class="cls-13" points="673.84 645.29 670.15 643.16 666.49 645.29 670.18 647.42 673.84 645.29"/></g><g class="cls-12"><polyline class="cls-17" points="471.66 101.98 467.68 99.67 463.71 101.98 467.7 104.28 471.66 101.98"/><polyline class="cls-17" points="479.71 106.62 475.72 104.32 471.76 106.62 475.74 108.92 479.71 106.62"/><polyline class="cls-17" points="487.75 111.26 483.76 108.96 479.8 111.26 483.79 113.57 487.75 111.26"/><polyline class="cls-17" points="495.79 115.91 491.8 113.6 487.84 115.91 491.83 118.21 495.79 115.91"/><polyline class="cls-17" points="503.83 120.55 499.85 118.25 495.88 120.55 499.87 122.85 503.83 120.55"/><polyline class="cls-17" points="511.87 125.19 507.89 122.89 503.92 125.19 507.91 127.49 511.87 125.19"/><polyline class="cls-17" points="519.91 129.83 515.93 127.53 511.97 129.84 515.95 132.14 519.91 129.83"/><polyline class="cls-17" points="527.96 134.48 523.97 132.18 520.01 134.48 524 136.78 527.96 134.48"/><polyline class="cls-17" points="536 139.12 532.01 136.82 528.05 139.12 532.04 141.42 536 139.12"/><polyline class="cls-17" points="426.82 90.77 422.83 88.47 418.87 90.77 422.86 93.07 426.82 90.77"/><polyline class="cls-17" points="434.86 95.41 430.87 93.11 426.91 95.42 430.9 97.72 434.86 95.41"/><polyline class="cls-17" points="442.9 100.06 438.92 97.76 434.95 100.06 438.94 102.36 442.9 100.06"/><polyline class="cls-17" points="450.95 104.7 446.96 102.4 443 104.7 446.98 107 450.95 104.7"/><polyline class="cls-17" points="458.99 109.34 455 107.04 451.04 109.34 455.03 111.65 458.99 109.34"/><polyline class="cls-17" points="467.03 113.99 463.04 111.68 459.08 113.99 463.07 116.29 467.03 113.99"/><polyline class="cls-17" points="475.07 118.63 471.08 116.33 467.12 118.63 471.11 120.93 475.07 118.63"/><polyline class="cls-17" points="483.11 123.27 479.12 120.97 475.16 123.27 479.15 125.58 483.11 123.27"/><polyline class="cls-17" points="491.15 127.92 487.17 125.61 483.21 127.92 487.19 130.22 491.15 127.92"/><polyline class="cls-17" points="499.2 132.56 495.21 130.26 491.25 132.56 495.23 134.86 499.2 132.56"/><polyline class="cls-17" points="507.24 137.2 503.25 134.9 499.29 137.2 503.27 139.5 507.24 137.2"/><polyline class="cls-17" points="515.28 141.85 511.29 139.54 507.33 141.85 511.32 144.15 515.28 141.85"/><polyline class="cls-17" points="523.32 146.49 519.33 144.19 515.37 146.49 519.36 148.79 523.32 146.49"/><polyline class="cls-17" points="494.56 144.57 490.57 142.27 486.61 144.57 490.6 146.87 494.56 144.57"/><polyline class="cls-17" points="502.6 149.21 498.61 146.91 494.65 149.21 498.64 151.52 502.6 149.21"/><polyline class="cls-17" points="510.64 153.86 506.66 151.55 502.7 153.86 506.68 156.16 510.64 153.86"/><polyline class="cls-17" points="433.63 124.08 429.64 121.78 425.68 124.08 429.67 126.38 433.63 124.08"/><polyline class="cls-17" points="441.67 128.72 437.68 126.42 433.72 128.72 437.71 131.03 441.67 128.72"/><polyline class="cls-17" points="449.72 133.37 445.73 131.06 441.76 133.37 445.75 135.67 449.72 133.37"/><polyline class="cls-17" points="457.76 138.01 453.77 135.71 449.81 138.01 453.79 140.31 457.76 138.01"/><polyline class="cls-17" points="465.8 142.65 461.81 140.35 457.85 142.65 461.84 144.95 465.8 142.65"/><polyline class="cls-17" points="473.84 147.29 469.85 144.99 465.89 147.3 469.88 149.6 473.84 147.29"/><polyline class="cls-17" points="481.88 151.94 477.9 149.64 473.93 151.94 477.92 154.24 481.88 151.94"/><polyline class="cls-17" points="489.93 156.58 485.94 154.28 481.97 156.58 485.96 158.88 489.93 156.58"/><polyline class="cls-17" points="497.97 161.22 493.98 158.92 490.02 161.22 494 163.53 497.97 161.22"/><polyline class="cls-17" points="388.79 112.87 384.8 110.57 380.84 112.88 384.82 115.18 388.79 112.87"/><polyline class="cls-17" points="396.83 117.52 392.84 115.22 388.88 117.52 392.87 119.82 396.83 117.52"/><polyline class="cls-17" points="404.87 122.16 400.88 119.86 396.92 122.16 400.91 124.46 404.87 122.16"/><polyline class="cls-17" points="412.91 126.8 408.92 124.5 404.96 126.8 408.95 129.11 412.91 126.8"/><polyline class="cls-17" points="420.95 131.45 416.97 129.14 413 131.45 416.99 133.75 420.95 131.45"/><polyline class="cls-17" points="429 136.09 425.01 133.79 421.05 136.09 425.03 138.39 429 136.09"/><polyline class="cls-17" points="437.04 140.73 433.05 138.43 429.09 140.73 433.08 143.04 437.04 140.73"/><polyline class="cls-17" points="445.08 145.38 441.09 143.07 437.13 145.38 441.12 147.68 445.08 145.38"/><polyline class="cls-17" points="453.12 150.02 449.14 147.72 445.17 150.02 449.16 152.32 453.12 150.02"/><polyline class="cls-17" points="461.16 154.66 457.18 152.36 453.21 154.66 457.2 156.96 461.16 154.66"/><polyline class="cls-17" points="469.2 159.3 465.22 157 461.26 159.31 465.24 161.61 469.2 159.3"/><polyline class="cls-17" points="477.25 163.95 473.26 161.65 469.3 163.95 473.29 166.25 477.25 163.95"/><polyline class="cls-17" points="485.29 168.59 481.3 166.29 477.34 168.59 481.33 170.89 485.29 168.59"/><polyline class="cls-17" points="456.53 166.67 452.54 164.37 448.58 166.67 452.57 168.97 456.53 166.67"/><polyline class="cls-17" points="464.57 171.32 460.58 169.01 456.62 171.31 460.61 173.62 464.57 171.32"/><polyline class="cls-17" points="472.61 175.96 468.62 173.66 464.66 175.96 468.65 178.26 472.61 175.96"/><polyline class="cls-17" points="459.93 183.33 455.95 181.02 451.98 183.33 455.97 185.63 459.93 183.33"/></g><g class="cls-12"><polyline class="cls-17" points="383.61 155.18 379.62 152.87 375.66 155.18 379.65 157.48 383.61 155.18"/><polyline class="cls-17" points="391.65 159.82 387.66 157.52 383.7 159.82 387.69 162.12 391.65 159.82"/><polyline class="cls-17" points="399.69 164.46 395.7 162.16 391.74 164.46 395.73 166.77 399.69 164.46"/><polyline class="cls-17" points="407.73 169.11 403.75 166.8 399.78 169.11 403.77 171.41 407.73 169.11"/><polyline class="cls-17" points="415.78 173.75 411.79 171.45 407.83 173.75 411.81 176.05 415.78 173.75"/><polyline class="cls-17" points="423.82 178.39 419.83 176.09 415.87 178.39 419.86 180.69 423.82 178.39"/><polyline class="cls-17" points="431.86 183.03 427.87 180.73 423.91 183.04 427.9 185.34 431.86 183.03"/><polyline class="cls-17" points="439.9 187.68 435.91 185.38 431.95 187.68 435.94 189.98 439.9 187.68"/><polyline class="cls-17" points="447.95 192.32 443.96 190.02 439.99 192.32 443.98 194.62 447.95 192.32"/><polyline class="cls-17" points="338.76 143.97 334.78 141.67 330.82 143.97 334.8 146.27 338.76 143.97"/><polyline class="cls-17" points="346.81 148.61 342.82 146.31 338.86 148.62 342.84 150.92 346.81 148.61"/><polyline class="cls-17" points="354.85 153.26 350.86 150.96 346.9 153.26 350.89 155.56 354.85 153.26"/><polyline class="cls-17" points="362.89 157.9 358.9 155.6 354.94 157.9 358.93 160.2 362.89 157.9"/><polyline class="cls-17" points="370.93 162.54 366.94 160.24 362.98 162.54 366.97 164.85 370.93 162.54"/><polyline class="cls-17" points="378.97 167.19 374.99 164.88 371.02 167.19 375.01 169.49 378.97 167.19"/><polyline class="cls-17" points="387.02 171.83 383.03 169.53 379.07 171.83 383.05 174.13 387.02 171.83"/><polyline class="cls-17" points="395.06 176.47 391.07 174.17 387.11 176.47 391.1 178.78 395.06 176.47"/><polyline class="cls-17" points="403.1 181.12 399.11 178.81 395.15 181.12 399.14 183.42 403.1 181.12"/><polyline class="cls-17" points="411.14 185.76 407.15 183.46 403.19 185.76 407.18 188.06 411.14 185.76"/><polyline class="cls-17" points="419.18 190.4 415.2 188.1 411.23 190.4 415.22 192.7 419.18 190.4"/><polyline class="cls-17" points="427.23 195.05 423.24 192.74 419.28 195.05 423.26 197.35 427.23 195.05"/><polyline class="cls-17" points="435.27 199.69 431.28 197.39 427.32 199.69 431.31 201.99 435.27 199.69"/><polyline class="cls-17" points="406.5 197.77 402.52 195.47 398.56 197.77 402.54 200.07 406.5 197.77"/><polyline class="cls-17" points="414.55 202.41 410.56 200.11 406.6 202.41 410.59 204.72 414.55 202.41"/><polyline class="cls-17" points="422.59 207.06 418.6 204.75 414.64 207.06 418.63 209.36 422.59 207.06"/><polyline class="cls-17" points="345.58 177.28 341.59 174.98 337.63 177.28 341.61 179.58 345.58 177.28"/><polyline class="cls-17" points="353.62 181.92 349.63 179.62 345.67 181.92 349.66 184.23 353.62 181.92"/><polyline class="cls-17" points="361.66 186.57 357.67 184.26 353.71 186.57 357.7 188.87 361.66 186.57"/><polyline class="cls-17" points="369.7 191.21 365.71 188.91 361.75 191.21 365.74 193.51 369.7 191.21"/><polyline class="cls-17" points="377.74 195.85 373.76 193.55 369.79 195.85 373.78 198.15 377.74 195.85"/><polyline class="cls-17" points="385.78 200.49 381.8 198.19 377.84 200.5 381.82 202.8 385.78 200.49"/><polyline class="cls-17" points="393.83 205.14 389.84 202.84 385.88 205.14 389.86 207.44 393.83 205.14"/><polyline class="cls-17" points="401.87 209.78 397.88 207.48 393.92 209.78 397.91 212.08 401.87 209.78"/><polyline class="cls-17" points="409.91 214.42 405.92 212.12 401.96 214.42 405.95 216.73 409.91 214.42"/><polyline class="cls-17" points="300.73 166.07 296.75 163.77 292.78 166.08 296.77 168.38 300.73 166.07"/><polyline class="cls-17" points="308.77 170.72 304.79 168.42 300.82 170.72 304.81 173.02 308.77 170.72"/><polyline class="cls-17" points="316.82 175.36 312.83 173.06 308.87 175.36 312.85 177.66 316.82 175.36"/><polyline class="cls-17" points="324.86 180 320.87 177.7 316.91 180 320.9 182.31 324.86 180"/><polyline class="cls-17" points="332.9 184.65 328.91 182.34 324.95 184.65 328.94 186.95 332.9 184.65"/><polyline class="cls-17" points="340.94 189.29 336.95 186.99 332.99 189.29 336.98 191.59 340.94 189.29"/><polyline class="cls-17" points="348.98 193.93 344.99 191.63 341.03 193.93 345.02 196.24 348.98 193.93"/><polyline class="cls-17" points="357.02 198.58 353.04 196.27 349.07 198.58 353.06 200.88 357.02 198.58"/><polyline class="cls-17" points="365.07 203.22 361.08 200.92 357.12 203.22 361.1 205.52 365.07 203.22"/><polyline class="cls-17" points="373.11 207.86 369.12 205.56 365.16 207.86 369.15 210.16 373.11 207.86"/><polyline class="cls-17" points="381.15 212.5 377.16 210.2 373.2 212.5 377.19 214.81 381.15 212.5"/><polyline class="cls-17" points="389.19 217.15 385.2 214.84 381.24 217.15 385.23 219.45 389.19 217.15"/><polyline class="cls-17" points="397.24 221.79 393.25 219.49 389.28 221.79 393.27 224.09 397.24 221.79"/><polyline class="cls-17" points="368.47 219.87 364.48 217.57 360.52 219.87 364.51 222.17 368.47 219.87"/><polyline class="cls-17" points="376.51 224.52 372.53 222.21 368.57 224.51 372.55 226.82 376.51 224.52"/><polyline class="cls-17" points="384.56 229.16 380.57 226.86 376.61 229.16 380.6 231.46 384.56 229.16"/><polyline class="cls-17" points="371.88 236.53 367.89 234.22 363.93 236.53 367.92 238.83 371.88 236.53"/></g><g class="cls-19"><polyline class="cls-16" points="466.6 574.04 462.53 571.69 458.49 574.04 462.56 576.39 466.6 574.04"/><polyline class="cls-16" points="474.79 578.77 470.73 576.42 466.69 578.77 470.75 581.12 474.79 578.77"/><polyline class="cls-16" points="482.99 583.5 478.92 581.16 474.88 583.5 478.95 585.85 482.99 583.5"/><polyline class="cls-16" points="491.18 588.23 487.12 585.89 483.08 588.23 487.15 590.58 491.18 588.23"/><polyline class="cls-16" points="499.38 592.97 495.32 590.62 491.28 592.97 495.34 595.31 499.38 592.97"/><polyline class="cls-16" points="507.58 597.7 503.51 595.35 499.47 597.7 503.54 600.05 507.58 597.7"/><polyline class="cls-16" points="515.77 602.43 511.71 600.08 507.67 602.43 511.73 604.78 515.77 602.43"/><polyline class="cls-16" points="523.97 607.16 519.91 604.82 515.87 607.16 519.93 609.51 523.97 607.16"/><polyline class="cls-16" points="532.17 611.9 528.1 609.55 524.06 611.9 528.13 614.24 532.17 611.9"/><polyline class="cls-16" points="540.36 616.63 536.3 614.28 532.26 616.63 536.32 618.97 540.36 616.63"/><polyline class="cls-16" points="548.56 621.36 544.49 619.01 540.45 621.36 544.52 623.71 548.56 621.36"/><polyline class="cls-16" points="556.75 626.09 552.69 623.74 548.65 626.09 552.72 628.44 556.75 626.09"/><polyline class="cls-16" points="564.95 630.82 560.88 628.48 556.85 630.82 560.91 633.17 564.95 630.82"/><polyline class="cls-16" points="573.15 635.55 569.08 633.21 565.04 635.56 569.11 637.9 573.15 635.55"/><polyline class="cls-16" points="581.34 640.29 577.28 637.94 573.24 640.29 577.3 642.63 581.34 640.29"/><polyline class="cls-16" points="589.54 645.02 585.48 642.67 581.44 645.02 585.5 647.37 589.54 645.02"/><polyline class="cls-16" points="453.68 581.55 449.61 579.2 445.57 581.55 449.64 583.89 453.68 581.55"/><polyline class="cls-16" points="461.87 586.28 457.81 583.93 453.77 586.28 457.83 588.63 461.87 586.28"/><polyline class="cls-16" points="470.07 591.01 466 588.66 461.96 591.01 466.03 593.36 470.07 591.01"/><polyline class="cls-16" points="478.26 595.74 474.2 593.4 470.16 595.74 474.22 598.09 478.26 595.74"/><polyline class="cls-16" points="486.46 600.47 482.4 598.13 478.36 600.48 482.42 602.82 486.46 600.47"/><polyline class="cls-16" points="494.66 605.21 490.59 602.86 486.55 605.21 490.62 607.55 494.66 605.21"/><polyline class="cls-16" points="502.85 609.94 498.79 607.59 494.75 609.94 498.81 612.29 502.85 609.94"/><polyline class="cls-16" points="440.75 589.06 436.69 586.71 432.65 589.06 436.72 591.4 440.75 589.06"/><polyline class="cls-16" points="448.95 593.79 444.88 591.44 440.85 593.79 444.91 596.13 448.95 593.79"/><polyline class="cls-16" points="457.14 598.52 453.08 596.17 449.04 598.52 453.11 600.87 457.14 598.52"/><polyline class="cls-16" points="465.34 603.25 461.28 600.91 457.24 603.25 461.3 605.6 465.34 603.25"/><polyline class="cls-16" points="473.54 607.98 469.47 605.64 465.44 607.98 469.5 610.33 473.54 607.98"/><polyline class="cls-16" points="481.73 612.72 477.67 610.37 473.63 612.72 477.7 615.06 481.73 612.72"/><polyline class="cls-16" points="489.93 617.45 485.87 615.1 481.83 617.45 485.89 619.79 489.93 617.45"/><polyline class="cls-16" points="498.13 622.18 494.06 619.83 490.03 622.18 494.09 624.53 498.13 622.18"/><polyline class="cls-16" points="506.32 626.91 502.26 624.57 498.22 626.91 502.29 629.26 506.32 626.91"/><polyline class="cls-16" points="514.52 631.65 510.45 629.3 506.42 631.64 510.48 633.99 514.52 631.65"/><polyline class="cls-16" points="522.71 636.38 518.65 634.03 514.61 636.38 518.68 638.72 522.71 636.38"/><polyline class="cls-16" points="427.83 596.56 423.77 594.22 419.73 596.57 423.79 598.91 427.83 596.56"/><polyline class="cls-16" points="436.03 601.3 431.96 598.95 427.92 601.3 431.99 603.64 436.03 601.3"/><polyline class="cls-16" points="444.22 606.03 440.16 603.68 436.12 606.03 440.19 608.38 444.22 606.03"/><polyline class="cls-16" points="452.42 610.76 448.36 608.41 444.32 610.76 448.38 613.11 452.42 610.76"/><polyline class="cls-16" points="460.62 615.49 456.55 613.15 452.52 615.49 456.58 617.84 460.62 615.49"/><polyline class="cls-16" points="468.81 620.22 464.75 617.88 460.71 620.23 464.77 622.57 468.81 620.22"/><polyline class="cls-16" points="414.91 604.07 410.85 601.73 406.81 604.07 410.87 606.42 414.91 604.07"/><polyline class="cls-16" points="423.11 608.81 419.04 606.46 415 608.81 419.07 611.15 423.11 608.81"/><polyline class="cls-16" points="431.3 613.54 427.24 611.19 423.2 613.54 427.27 615.88 431.3 613.54"/><polyline class="cls-16" points="439.5 618.27 435.44 615.92 431.4 618.27 435.46 620.62 439.5 618.27"/><polyline class="cls-16" points="447.7 623 443.63 620.66 439.59 623 443.66 625.35 447.7 623"/><polyline class="cls-16" points="455.89 627.73 451.83 625.39 447.79 627.73 451.85 630.08 455.89 627.73"/><polyline class="cls-16" points="464.09 632.47 460.03 630.12 455.99 632.47 460.05 634.81 464.09 632.47"/><polyline class="cls-16" points="472.29 637.2 468.22 634.85 464.18 637.2 468.25 639.55 472.29 637.2"/><polyline class="cls-16" points="480.48 641.93 476.42 639.58 472.38 641.93 476.44 644.28 480.48 641.93"/><polyline class="cls-16" points="488.68 646.66 484.61 644.32 480.57 646.66 484.64 649.01 488.68 646.66"/><polyline class="cls-16" points="401.99 611.58 397.92 609.24 393.89 611.58 397.95 613.93 401.99 611.58"/><polyline class="cls-16" points="410.19 616.32 406.12 613.97 402.08 616.31 406.15 618.66 410.19 616.32"/><polyline class="cls-16" points="418.38 621.05 414.32 618.7 410.28 621.05 414.35 623.39 418.38 621.05"/><polyline class="cls-16" points="426.58 625.78 422.51 623.43 418.48 625.78 422.54 628.12 426.58 625.78"/><polyline class="cls-16" points="434.77 630.51 430.71 628.17 426.67 630.51 430.74 632.86 434.77 630.51"/><polyline class="cls-16" points="442.97 635.24 438.91 632.9 434.87 635.24 438.93 637.59 442.97 635.24"/><polyline class="cls-16" points="451.17 639.98 447.1 637.63 443.07 639.98 447.13 642.32 451.17 639.98"/><polyline class="cls-16" points="459.36 644.71 455.3 642.36 451.26 644.71 455.33 647.05 459.36 644.71"/><polyline class="cls-16" points="467.56 649.44 463.49 647.09 459.46 649.44 463.52 651.79 467.56 649.44"/><polyline class="cls-16" points="475.76 654.17 471.69 651.83 467.65 654.17 471.72 656.52 475.76 654.17"/><polyline class="cls-16" points="483.95 658.9 479.89 656.56 475.85 658.9 479.92 661.25 483.95 658.9"/><polyline class="cls-16" points="492.15 663.64 488.08 661.29 484.05 663.63 488.11 665.98 492.15 663.64"/><polyline class="cls-16" points="389.07 619.09 385 616.74 380.97 619.09 385.03 621.44 389.07 619.09"/><polyline class="cls-16" points="397.27 623.82 393.2 621.48 389.16 623.82 393.23 626.17 397.27 623.82"/><polyline class="cls-16" points="405.46 628.56 401.4 626.21 397.36 628.56 401.42 630.9 405.46 628.56"/><polyline class="cls-16" points="413.66 633.29 409.59 630.94 405.55 633.29 409.62 635.63 413.66 633.29"/><polyline class="cls-16" points="376.15 626.6 372.08 624.25 368.05 626.6 372.11 628.95 376.15 626.6"/><polyline class="cls-16" points="384.35 631.33 380.28 628.99 376.24 631.33 380.31 633.68 384.35 631.33"/><polyline class="cls-16" points="392.54 636.06 388.48 633.72 384.44 636.06 388.5 638.41 392.54 636.06"/><polyline class="cls-16" points="400.74 640.8 396.67 638.45 392.63 640.8 396.7 643.14 400.74 640.8"/><polyline class="cls-16" points="408.93 645.53 404.87 643.18 400.83 645.53 404.89 647.87 408.93 645.53"/><polyline class="cls-16" points="417.13 650.26 413.07 647.91 409.03 650.26 413.09 652.61 417.13 650.26"/><polyline class="cls-16" points="425.32 654.99 421.26 652.65 417.22 654.99 421.29 657.34 425.32 654.99"/><polyline class="cls-16" points="433.52 659.73 429.46 657.38 425.42 659.73 429.48 662.07 433.52 659.73"/><polyline class="cls-16" points="441.72 664.46 437.65 662.11 433.62 664.46 437.68 666.8 441.72 664.46"/><polyline class="cls-16" points="449.92 669.19 445.85 666.84 441.81 669.19 445.88 671.54 449.92 669.19"/><polyline class="cls-16" points="458.11 673.92 454.05 671.57 450.01 673.92 454.07 676.27 458.11 673.92"/><polyline class="cls-16" points="466.31 678.65 462.24 676.31 458.2 678.65 462.27 681 466.31 678.65"/><polyline class="cls-16" points="363.23 634.11 359.16 631.76 355.13 634.11 359.19 636.46 363.23 634.11"/><polyline class="cls-16" points="371.42 638.84 367.36 636.5 363.32 638.84 367.39 641.19 371.42 638.84"/><polyline class="cls-16" points="379.62 643.57 375.55 641.23 371.52 643.57 375.58 645.92 379.62 643.57"/><polyline class="cls-16" points="387.81 648.31 383.75 645.96 379.71 648.3 383.78 650.65 387.81 648.31"/><polyline class="cls-16" points="396.01 653.04 391.95 650.69 387.91 653.04 391.97 655.38 396.01 653.04"/><polyline class="cls-16" points="404.21 657.77 400.14 655.42 396.11 657.77 400.17 660.12 404.21 657.77"/><polyline class="cls-16" points="412.4 662.5 408.34 660.16 404.3 662.5 408.37 664.85 412.4 662.5"/><polyline class="cls-16" points="420.6 667.24 416.54 664.89 412.5 667.23 416.56 669.58 420.6 667.24"/><polyline class="cls-16" points="428.8 671.97 424.73 669.62 420.7 671.97 424.76 674.31 428.8 671.97"/><polyline class="cls-16" points="350.31 641.62 346.24 639.27 342.2 641.62 346.27 643.97 350.31 641.62"/><polyline class="cls-16" points="358.5 646.35 354.44 644 350.4 646.35 354.46 648.7 358.5 646.35"/><polyline class="cls-16" points="366.7 651.08 362.63 648.74 358.59 651.08 362.66 653.43 366.7 651.08"/><polyline class="cls-16" points="374.89 655.81 370.83 653.47 366.79 655.81 370.86 658.16 374.89 655.81"/><polyline class="cls-16" points="383.09 660.55 379.03 658.2 374.99 660.55 379.05 662.89 383.09 660.55"/></g></g></g><g class="cls-18"><polygon class="cls-7" points="641.7 251.03 586.88 282.89 531.7 251.03 586.52 219.17 641.7 251.03"/></g><g class="cls-18"><polygon class="cls-7" points="263.7 267.03 208.88 298.89 153.7 267.03 208.52 235.17 263.7 267.03"/></g><g class="cls-18"><polygon class="cls-7" points="437.7 369.53 382.88 401.39 327.7 369.53 382.52 337.67 437.7 369.53"/></g><g class="cls-18"><polygon class="cls-7" points="222.7 492.03 167.88 523.89 112.7 492.03 167.52 460.17 222.7 492.03"/></g><g class="cls-18"><polygon class="cls-7" points="664.7 500.03 609.88 531.89 554.7 500.03 609.52 468.17 664.7 500.03"/></g><g class="cls-18"><polygon class="cls-7" points="991.7 542.03 936.88 573.89 881.7 542.03 936.52 510.17 991.7 542.03"/></g><g class="cls-18"><polygon class="cls-7" points="865.7 384.03 810.88 415.89 755.7 384.03 810.52 352.17 865.7 384.03"/></g></g></g></svg>