<?xml version="1.0" encoding="UTF-8"?>
<svg width="476px" height="230px" viewBox="0 0 476 230" version="1.1" xmlns="http://www.w3.org/2000/svg" xmlns:xlink="http://www.w3.org/1999/xlink">
    <!-- Generator: Sketch 56.3 (81716) - https://sketch.com -->
    <title>编组 73</title>
    <desc>Created with Sketch.</desc>
    <defs>
        <linearGradient x1="0%" y1="50%" x2="100%" y2="67.3584759%" id="linearGradient-1">
            <stop stop-color="#D8E3FF" offset="0%"></stop>
            <stop stop-color="#6C92FA" offset="100%"></stop>
        </linearGradient>
        <filter x="0.0%" y="0.0%" width="100.0%" height="100.0%" filterUnits="objectBoundingBox" id="filter-2">
            <feGaussianBlur stdDeviation="0" in="SourceGraphic"></feGaussianBlur>
        </filter>
        <filter x="-33.5%" y="-30.5%" width="167.1%" height="161.1%" filterUnits="objectBoundingBox" id="filter-3">
            <feOffset dx="-6" dy="10" in="SourceAlpha" result="shadowOffsetOuter1"></feOffset>
            <feGaussianBlur stdDeviation="10" in="shadowOffsetOuter1" result="shadowBlurOuter1"></feGaussianBlur>
            <feColorMatrix values="0 0 0 0 0.3567   0 0 0 0 0.494061972   0 0 0 0 0.87  0 0 0 0.3 0" type="matrix" in="shadowBlurOuter1" result="shadowMatrixOuter1"></feColorMatrix>
            <feMerge>
                <feMergeNode in="shadowMatrixOuter1"></feMergeNode>
                <feMergeNode in="SourceGraphic"></feMergeNode>
            </feMerge>
        </filter>
        <linearGradient x1="-65.4025721%" y1="38.0399942%" x2="111.403694%" y2="52.6573254%" id="linearGradient-4">
            <stop stop-color="#6C92FA" stop-opacity="0.7" offset="0%"></stop>
            <stop stop-color="#5B7EDE" offset="100%"></stop>
        </linearGradient>
        <linearGradient x1="100%" y1="50%" x2="0%" y2="50%" id="linearGradient-5">
            <stop stop-color="#CEDBFF" offset="0%"></stop>
            <stop stop-color="#5B7EDE" offset="100%"></stop>
        </linearGradient>
        <filter x="-71.6%" y="-79.5%" width="243.2%" height="258.9%" filterUnits="objectBoundingBox" id="filter-6">
            <feOffset dx="-6" dy="10" in="SourceAlpha" result="shadowOffsetOuter1"></feOffset>
            <feGaussianBlur stdDeviation="10" in="shadowOffsetOuter1" result="shadowBlurOuter1"></feGaussianBlur>
            <feColorMatrix values="0 0 0 0 0.3567   0 0 0 0 0.494061972   0 0 0 0 0.87  0 0 0 0.3 0" type="matrix" in="shadowBlurOuter1" result="shadowMatrixOuter1"></feColorMatrix>
            <feMerge>
                <feMergeNode in="shadowMatrixOuter1"></feMergeNode>
                <feMergeNode in="SourceGraphic"></feMergeNode>
            </feMerge>
        </filter>
        <linearGradient x1="-133.271425%" y1="26.4514742%" x2="114.350788%" y2="26.4514742%" id="linearGradient-7">
            <stop stop-color="#C4D4FF" offset="0%"></stop>
            <stop stop-color="#5B7EDE" offset="100%"></stop>
        </linearGradient>
        <linearGradient x1="110.398911%" y1="50%" x2="0%" y2="47.6895989%" id="linearGradient-8">
            <stop stop-color="#6C92FA" stop-opacity="0.3" offset="0%"></stop>
            <stop stop-color="#6C92FA" offset="100%"></stop>
        </linearGradient>
    </defs>
    <g id="Explore-530New" stroke="none" stroke-width="1" fill="none" fill-rule="evenodd">
        <g id="编组-73" transform="translate(26.000000, 10.000000)">
            <path d="M170,32 C293.333333,92 355,122 355,122 C355,122 355,135.333333 355,162 L170,159.5 L170,32 Z" id="路径-21备份" fill="url(#linearGradient-1)" opacity="0.5" filter="url(#filter-2)"></path>
            <g id="编组-8备份" filter="url(#filter-3)">
                <ellipse id="椭圆形" fill="url(#linearGradient-4)" cx="86.5" cy="30.5" rx="86.5" ry="30.5"></ellipse>
                <path d="M0.072509563,160.522353 L0,160.522353 L0,28 L0.0802884424,28 C0.0269443862,28.4423446 0,28.8871149 0,29.3341176 C0,46.2808128 38.7273691,60.0188235 86.5,60.0188235 C134.272631,60.0188235 173,46.2808128 173,29.3341176 C173,28.8871149 172.973056,28.4423446 172.919712,28 L173,28 L173,160.522353 L172.92749,160.522353 C171.0531,176.914946 133.075324,190 86.5,190 C39.9246764,190 1.94690033,176.914946 0.0725107633,160.522363 Z" id="形状结合" fill="url(#linearGradient-5)"></path>
            </g>
            <g id="编组-9备份" transform="translate(355.000000, 104.000000)">
                <g id="编组-6" filter="url(#filter-6)">
                    <ellipse id="椭圆形备份-91" fill="url(#linearGradient-7)" cx="40.5" cy="16.5" rx="40.5" ry="16"></ellipse>
                    <path d="M80.98176,57 C80.3329462,65.8813911 62.4569861,73 40.5,73 C18.5430139,73 0.667053827,65.8813911 0.018240008,57 L0,57 L0,16 C0,25.0574699 18.1324676,32.4 40.5,32.4 C62.8675324,32.4 81,25.0574699 81,16 L81,57 L80.98176,57 Z" id="形状结合备份-5" fill="url(#linearGradient-8)"></path>
                </g>
            </g>
        </g>
    </g>
</svg>