<?xml version="1.0" encoding="UTF-8"?>
<svg width="58px" height="67px" viewBox="0 0 58 67" version="1.1" xmlns="http://www.w3.org/2000/svg" xmlns:xlink="http://www.w3.org/1999/xlink">
    <title>资源 48</title>
    <defs>
        <linearGradient x1="50.1009151%" y1="-0.755555556%" x2="50.1009151%" y2="97.2444444%" id="linearGradient-1">
            <stop stop-color="#90BEF8" offset="0%"></stop>
            <stop stop-color="#6A90F2" stop-opacity="0.1" offset="100%"></stop>
        </linearGradient>
        <linearGradient x1="102.194898%" y1="70.8678268%" x2="57.1948982%" y2="42.702847%" id="linearGradient-2">
            <stop stop-color="#5F89EB" offset="0%"></stop>
            <stop stop-color="#919EB9" stop-opacity="0" offset="100%"></stop>
        </linearGradient>
        <linearGradient x1="99.3325129%" y1="49.8173077%" x2="10.3325129%" y2="49.8173077%" id="linearGradient-3">
            <stop stop-color="#5A84F4" offset="0%"></stop>
            <stop stop-color="#A4BBF7" stop-opacity="0.05" offset="100%"></stop>
        </linearGradient>
        <linearGradient x1="51.87352%" y1="41.8653846%" x2="48.8633279%" y2="35.8653846%" id="linearGradient-4">
            <stop stop-color="#9FBDFD" stop-opacity="0.05" offset="0%"></stop>
            <stop stop-color="#4D86FC" offset="100%"></stop>
        </linearGradient>
        <radialGradient cx="27.4132653%" cy="32.425%" fx="27.4132653%" fy="32.425%" r="80.1149244%" gradientTransform="translate(0.274133,0.324250),scale(1.000000,0.959670),rotate(10.491686),translate(-0.274133,-0.324250)" id="radialGradient-5">
            <stop stop-color="#8DCEFF" offset="0%"></stop>
            <stop stop-color="#4A77F5" offset="80%"></stop>
            <stop stop-color="#568AFE" offset="92%"></stop>
            <stop stop-color="#4D86FC" offset="100%"></stop>
        </radialGradient>
        <linearGradient x1="-19%" y1="50%" x2="120%" y2="50%" id="linearGradient-6">
            <stop stop-color="#2EB6E6" offset="0%"></stop>
            <stop stop-color="#3388FF" offset="100%"></stop>
        </linearGradient>
        <linearGradient x1="50.0948767%" y1="-20%" x2="50.0948767%" y2="119%" id="linearGradient-7">
            <stop stop-color="#2EB6E6" offset="0%"></stop>
            <stop stop-color="#3388FF" offset="100%"></stop>
        </linearGradient>
        <linearGradient x1="49.9908676%" y1="35%" x2="49.9908676%" y2="64%" id="linearGradient-8">
            <stop stop-color="#2EB6E6" offset="0%"></stop>
            <stop stop-color="#3388FF" offset="100%"></stop>
        </linearGradient>
        <linearGradient x1="50%" y1="-20%" x2="50%" y2="119%" id="linearGradient-9">
            <stop stop-color="#2EB6E6" offset="0%"></stop>
            <stop stop-color="#3388FF" offset="100%"></stop>
        </linearGradient>
        <linearGradient x1="9075%" y1="-1672.55831%" x2="9075%" y2="-1672.02988%" id="linearGradient-10">
            <stop stop-color="#2EB6E6" offset="0%"></stop>
            <stop stop-color="#3388FF" offset="100%"></stop>
        </linearGradient>
        <linearGradient x1="6087%" y1="-19863.8776%" x2="6087%" y2="-19835.5102%" id="linearGradient-11">
            <stop stop-color="#2EB6E6" offset="0%"></stop>
            <stop stop-color="#3388FF" offset="100%"></stop>
        </linearGradient>
        <linearGradient x1="50%" y1="-1.27877238%" x2="50%" y2="101.278772%" id="linearGradient-12">
            <stop stop-color="#2EB6E6" offset="0%"></stop>
            <stop stop-color="#3388FF" offset="100%"></stop>
        </linearGradient>
        <linearGradient x1="50.0007272%" y1="-0.369876694%" x2="50.0007272%" y2="100.415022%" id="linearGradient-13">
            <stop stop-color="#2EB6E6" offset="0%"></stop>
            <stop stop-color="#3388FF" offset="100%"></stop>
        </linearGradient>
        <linearGradient x1="49.8525%" y1="-0.472193963%" x2="49.8525%" y2="100.530975%" id="linearGradient-14">
            <stop stop-color="#2EB6E6" offset="0%"></stop>
            <stop stop-color="#3388FF" offset="100%"></stop>
        </linearGradient>
        <linearGradient x1="-0.0806165835%" y1="49.995476%" x2="99.8033303%" y2="49.995476%" id="linearGradient-15">
            <stop stop-color="#2EB6E6" offset="0%"></stop>
            <stop stop-color="#3388FF" offset="100%"></stop>
        </linearGradient>
        <linearGradient x1="0.0353187066%" y1="49.9598193%" x2="99.9953902%" y2="49.9598193%" id="linearGradient-16">
            <stop stop-color="#2EB6E6" offset="0%"></stop>
            <stop stop-color="#3388FF" offset="100%"></stop>
        </linearGradient>
        <linearGradient x1="-0.346043827%" y1="49.9665833%" x2="100.036841%" y2="49.9665833%" id="linearGradient-17">
            <stop stop-color="#2EB6E6" offset="0%"></stop>
            <stop stop-color="#3388FF" offset="100%"></stop>
        </linearGradient>
        <linearGradient x1="5.71220229e-14%" y1="49.9708078%" x2="100.007773%" y2="49.9708078%" id="linearGradient-18">
            <stop stop-color="#2EB6E6" offset="0%"></stop>
            <stop stop-color="#3388FF" offset="100%"></stop>
        </linearGradient>
        <linearGradient x1="0.39893617%" y1="50%" x2="100%" y2="50%" id="linearGradient-19">
            <stop stop-color="#2EB6E6" offset="0%"></stop>
            <stop stop-color="#3388FF" offset="100%"></stop>
        </linearGradient>
        <linearGradient x1="4.31224627e-14%" y1="49.9131209%" x2="100.016248%" y2="49.9131209%" id="linearGradient-20">
            <stop stop-color="#2EB6E6" offset="0%"></stop>
            <stop stop-color="#3388FF" offset="100%"></stop>
        </linearGradient>
        <linearGradient x1="0%" y1="49.9637022%" x2="99.896079%" y2="49.9637022%" id="linearGradient-21">
            <stop stop-color="#2EB6E6" offset="0%"></stop>
            <stop stop-color="#3388FF" offset="100%"></stop>
        </linearGradient>
        <linearGradient x1="-0.0322328086%" y1="50.0457496%" x2="100.007832%" y2="50.0457496%" id="linearGradient-22">
            <stop stop-color="#2EB6E6" offset="0%"></stop>
            <stop stop-color="#3388FF" offset="100%"></stop>
        </linearGradient>
        <linearGradient x1="0%" y1="50%" x2="100%" y2="50%" id="linearGradient-23">
            <stop stop-color="#2EB6E6" offset="0%"></stop>
            <stop stop-color="#3388FF" offset="100%"></stop>
        </linearGradient>
    </defs>
    <g id="实时侦测（1220-新）" stroke="none" stroke-width="1" fill="none" fill-rule="evenodd">
        <g id="实时侦测策略_创建实时侦测策略_诱饵关" transform="translate(-45.000000, -364.000000)">
            <g id="资源-48" transform="translate(46.000000, 366.000000)">
                <g id="编组-22备份-2">
                    <polygon id="路径" fill="url(#linearGradient-1)" opacity="0.3" points="27.3239498 4.18691589 50.0499787 17.6448598 50.0499787 44.5607477 27.3239498 58.0186916 4.60377803 44.5607477 4.60377803 17.6448598"></polygon>
                    <polygon id="Combined-Shape" fill="url(#linearGradient-2)" opacity="0.2" points="53.482312 15.6351402 56.358209 17.3457944 56.358209 48.4485981 30.1822751 64 4.00634119 48.4485981 4.00634119 48.3828037 27.3063781 62.2235514 53.482312 46.6721495"></polygon>
                    <polyline id="Path" stroke="url(#linearGradient-3)" stroke-linecap="round" stroke-linejoin="round" points="27.3239498 0 53.4998837 15.5514019 53.4998837 46.6542056 27.3239498 62.2056075"></polyline>
                    <polyline id="Path-2" stroke="url(#linearGradient-4)" stroke-width="4" opacity="0.4" stroke-linecap="round" stroke-linejoin="round" points="27.3239498 62.2056075 1.1480159 46.6542056 1.1480159 15.5514019 27.3239498 0"></polyline>
                    <ellipse id="Oval-Copy-5" fill="url(#radialGradient-5)" fill-rule="nonzero" cx="1.1480159" cy="15.5514019" rx="1.1480159" ry="1.19626168"></ellipse>
                </g>
                <g id="编组" opacity="0.4" transform="translate(8.346544, 11.448224)">
                    <line x1="18.9774056" y1="3.61271028" x2="18.9774056" y2="0" id="路径" stroke="url(#linearGradient-6)" stroke-width="1.39"></line>
                    <line x1="34.8680542" y1="19.9297196" x2="37.9548113" y2="19.9297196" id="路径" stroke="url(#linearGradient-7)" stroke-width="1.39"></line>
                    <line x1="2.79975305" y1="19.9297196" x2="34.8680542" y2="19.9297196" id="路径" stroke="url(#linearGradient-8)" stroke-width="0.29"></line>
                    <line x1="0" y1="19.9297196" x2="2.79975305" y2="19.9297196" id="路径" stroke="url(#linearGradient-9)" stroke-width="1.39"></line>
                    <line x1="18.9774056" y1="36.3783178" x2="18.9774056" y2="3.5528972" id="路径" stroke="url(#linearGradient-10)" stroke-width="0.29"></line>
                    <line x1="18.9774056" y1="39.3091589" x2="18.9774056" y2="36.3783178" id="路径" stroke="url(#linearGradient-11)" stroke-width="1.39"></line>
                    <ellipse id="椭圆形" stroke="url(#linearGradient-12)" stroke-width="1.39" cx="18.830975" cy="19.9297196" rx="16.031222" ry="16.3708411"></ellipse>
                    <path d="M18.830975,33.6149533 C13.4077417,33.6149533 8.51862519,30.2785478 6.44379125,25.161757 C4.36895731,20.0449663 5.51709315,14.1556616 9.35273595,10.2404724 C13.1883787,6.32528328 18.9560088,5.1553979 23.9657427,7.27642256 C28.9754766,9.39744723 32.2405299,14.3915964 32.238162,19.9297196 C32.2284739,27.4860992 26.2305982,33.6083632 18.830975,33.6149533 L18.830975,33.6149533 Z" id="路径" stroke="url(#linearGradient-13)" stroke-width="0.37"></path>
                    <path d="M18.830975,30.0620561 C13.3509743,30.0455474 8.92044423,25.4979695 8.93226774,19.9018645 C8.94413866,14.3057595 13.3938821,9.77778655 18.8739015,9.78546447 C24.3539209,9.79316194 28.791465,14.3336025 28.7882575,19.9297196 C28.768895,25.5314547 24.3165342,30.0620561 18.830975,30.0620561 Z" id="路径" stroke="url(#linearGradient-14)" stroke-width="0.35"></path>
                </g>
                <path d="M34.862197,20.1749533 L34.862197,23.8594393 C34.8612184,24.1462323 34.968156,24.4224518 35.1609154,24.631028 C35.2571131,24.7380359 35.3724124,24.8253273 35.5006344,24.8882243 C35.59435,24.9360748 35.8696395,25.0317757 36.0863568,25.1454206 C36.4973396,25.368009 36.8630885,25.6684307 37.164086,26.0306542 C37.7690892,26.7628618 38.0715509,27.7066292 38.0075263,28.6624299 C37.8556181,30.6453946 36.211968,32.1610089 34.2647602,32.1136449 C32.3095774,32.0492121 30.7557183,30.4148314 30.7504258,28.4171963 L31.7402966,28.4171963 C31.7422501,29.114771 32.0064365,29.7849464 32.4783069,30.2893458 C33.4650102,31.3361018 35.0888517,31.3891655 36.1390718,30.408972 C36.64332,29.9463028 36.9554973,29.3044423 37.0117982,28.6145794 C37.0686765,27.9211278 36.8585563,27.2323532 36.4260758,26.6945794 C36.2044331,26.4330062 35.938591,26.2142063 35.6412078,26.0485981 C35.4830628,25.9588785 35.3717755,25.9349533 35.1023432,25.8033645 C34.8696171,25.6872108 34.6592994,25.5291701 34.4814775,25.3368224 C34.1110029,24.9445025 33.901453,24.4223688 33.8957551,23.8773832 L33.8957551,20.1749533 L34.862197,20.1749533 Z" id="路径" fill="url(#linearGradient-15)" fill-rule="nonzero"></path>
                <g id="编组" opacity="0.6" transform="translate(16.201103, 18.343103)" fill-rule="nonzero">
                    <path d="M16.429492,7.63970064 C16.5165265,7.56535576 16.5471997,7.44247316 16.505636,7.33465391 C15.8273758,5.59779376 14.5589255,4.16869242 12.9327293,3.30923335 C10.150548,1.89166326 7.39179547,1.47297167 4.73261579,3.30923335 C2.17069296,5.05162042 0.464332311,7.83310146 0.04683662,10.9473642 C-0.240167354,13.7645605 0.755560719,16.8748408 4.04146336,18.3223175 C4.04146336,18.3223175 7.32150878,28.669981 15.381049,28.4905418 C13.7862632,28.3016714 12.2881907,27.6120034 11.093561,26.51671 C9.07281874,24.6804483 8.71552808,22.2939062 9.5999689,21.1335324 C10.4844097,19.9731586 11.146276,19.0819436 13.9928869,18.3462427 C13.9928869,18.3462427 7.33908045,18.2625044 5.38276765,16.4920371 C5.38276765,16.4920371 3.561171,14.0995137 4.94933308,11.7488595 C6.33749515,9.39820531 9.08453319,9.80493428 9.08453319,9.80493428 C8.14830562,9.06827365 7.62170392,7.91242935 7.67294222,6.70661653 C7.67294222,6.70661653 8.15323458,9.87072868 10.203263,9.9604483 C12.4849245,9.97952355 14.6963524,9.15524192 16.429492,7.63970064 L16.429492,7.63970064 Z" id="路径" fill="url(#linearGradient-16)"></path>
                    <path d="M8.00094676,9.96642961 C8.00094676,9.96642961 9.03181818,9.90661653 9.23096379,10.3073642 C9.43010941,10.7081119 9.50625332,11.7907287 8.31723685,12.8554016 C7.75312658,13.4090114 7.09910377,13.8583112 6.38435295,14.183252 C6.20129943,13.5612367 6.15529439,12.9055642 6.24963679,12.263252 C6.43121074,11.3600745 6.67135692,10.2296072 8.00094676,9.96642961 Z" id="路径" fill="url(#linearGradient-17)"></path>
                    <path d="M8.15323458,1.76007447 C8.1767976,1.77923198 8.1870881,1.81077255 8.1794854,1.84053365 C8.17188269,1.87029476 8.14781575,1.89268264 8.11809124,1.89764456 C6.76427242,2.02337629 5.46605982,2.50789112 4.35189623,3.30325204 C2.86559693,4.39877342 1.67643157,5.86217731 0.896134094,7.55596232 C1.1656249,6.83017989 1.47659232,6.12117294 1.8274327,5.43259784 C2.15543725,4.90624269 3.2683098,3.18362587 2.8524469,2.07110251 C2.50691447,1.26135343 1.81561609,0.659095439 0.97813523,0.438205312 C0.965321507,0.432500374 0.957037016,0.419582857 0.957037016,0.405308115 C0.957037016,0.391033374 0.965321507,0.378115857 0.97813523,0.372410919 C1.59314375,0.115214658 4.46904071,-0.805906838 8.15323458,1.76007447 Z" id="路径" fill="url(#linearGradient-18)"></path>
                </g>
                <path d="M30.1939895,36.6833645 C29.0199736,36.9139811 27.913688,37.4174442 26.9608019,38.1547664 L25.7893571,36.3125234 C27.2486367,36.5291123 28.7196777,36.6529643 30.1939895,36.6833645 Z" id="路径" fill="url(#linearGradient-19)" fill-rule="nonzero"></path>
                <path d="M32.6305947,25.9828037 C30.8966159,27.496185 28.6852758,28.3183095 26.4043656,28.2975701 C24.3543372,28.2078505 23.8740449,25.0497196 23.8740449,25.0497196 C23.8217372,26.2540683 24.3487528,27.408588 25.2856358,28.1420561 C23.8957563,27.9699516 22.5085348,28.4828619 21.548727,29.5237383 L18.2452526,24.2661682 C18.9839241,23.2389753 19.8916013,22.3505215 20.9278612,21.6403738 C23.5928981,19.8459813 26.3516506,20.2347664 29.1279748,21.6403738 C30.754171,22.4998329 32.0226212,23.9289342 32.7008814,25.6657944 C32.7457097,25.7759882 32.7175322,25.9030757 32.6305947,25.9828037 L32.6305947,25.9828037 Z" id="路径" fill="url(#linearGradient-20)" fill-rule="nonzero"></path>
                <path d="M24.5183395,31.1985047 C24.1138491,31.5672611 23.6787822,31.8994733 23.2180358,32.1914019 L22.4097389,30.8934579 C22.4172245,30.7989188 22.4309222,30.7050001 22.4507394,30.6123364 C22.6323134,29.7031776 22.8724596,28.5786916 24.2079066,28.3095327 C24.2079066,28.3095327 25.238778,28.2497196 25.4379237,28.6504673 C25.6370693,29.051215 25.707356,30.1338318 24.5183395,31.1985047 Z" id="路径" fill="url(#linearGradient-21)" fill-rule="nonzero"></path>
                <path d="M24.3191939,20.2407477 C22.964353,20.3700402 21.6651123,20.8541858 20.5471417,21.6463551 C19.6414664,22.3482662 18.830118,23.1687589 18.1339654,24.086729 L17.9875348,23.8474766 L18.0285354,23.7757009 C18.3565399,23.2553271 19.4694124,21.526729 19.0476923,20.4142056 C18.7036163,19.6033557 18.0116967,19.0005564 17.1733807,18.7813084 C17.1605669,18.7756035 17.1522824,18.762686 17.1522824,18.7484112 C17.1522824,18.7341365 17.1605669,18.721219 17.1733807,18.715514 C17.8001036,18.4642991 20.687715,17.5192523 24.3543372,20.1031776 C24.3779002,20.1223351 24.3881908,20.1538756 24.380588,20.1836368 C24.3729853,20.2133979 24.3489184,20.2357857 24.3191939,20.2407477 L24.3191939,20.2407477 Z" id="路径" fill="url(#linearGradient-22)" fill-rule="nonzero"></path>
                <ellipse id="椭圆形" fill="#FFFFFF" fill-rule="nonzero" cx="28.8233991" cy="24.3558879" rx="1" ry="1"></ellipse>
                <path d="M24.3191939,20.2407477 C22.964353,20.3700402 21.6651123,20.8541858 20.5471417,21.6463551 C19.6414664,22.3482662 18.830118,23.1687589 18.1339654,24.086729 L17.9875348,23.8474766 L18.0285354,23.7757009 C18.3565399,23.2553271 19.4694124,21.526729 19.0476923,20.4142056 C18.7036163,19.6033557 18.0116967,19.0005564 17.1733807,18.7813084 C17.1605669,18.7756035 17.1522824,18.762686 17.1522824,18.7484112 C17.1522824,18.7341365 17.1605669,18.721219 17.1733807,18.715514 C17.8001036,18.4642991 20.687715,17.5192523 24.3543372,20.1031776 C24.3779002,20.1223351 24.3881908,20.1538756 24.380588,20.1836368 C24.3729853,20.2133979 24.3489184,20.2357857 24.3191939,20.2407477 L24.3191939,20.2407477 Z" id="路径" fill="url(#linearGradient-22)" fill-rule="nonzero"></path>
                <path d="M24.5183395,31.1985047 C24.1138491,31.5672611 23.6787822,31.8994733 23.2180358,32.1914019 L22.4097389,30.8934579 C22.4172245,30.7989188 22.4309222,30.7050001 22.4507394,30.6123364 C22.6323134,29.7031776 22.8724596,28.5786916 24.2079066,28.3095327 C24.2079066,28.3095327 25.238778,28.2497196 25.4379237,28.6504673 C25.6370693,29.051215 25.707356,30.1338318 24.5183395,31.1985047 Z" id="路径" fill="url(#linearGradient-21)" fill-rule="nonzero"></path>
                <path d="M25.8069288,36.3125234 C27.2603978,36.5283738 28.725548,36.6522239 30.1939895,36.6833645 C29.0199736,36.9139811 27.913688,37.4174442 26.9608019,38.1547664 L25.8069288,36.3125234 Z" id="路径" fill="url(#linearGradient-23)" fill-rule="nonzero"></path>
                <path d="M32.6305947,25.9828037 C30.8966159,27.496185 28.6852758,28.3183095 26.4043656,28.2975701 C24.3543372,28.2078505 23.8740449,25.0497196 23.8740449,25.0497196 C23.8217372,26.2540683 24.3487528,27.408588 25.2856358,28.1420561 C23.8957563,27.9699516 22.5085348,28.4828619 21.548727,29.5237383 L18.2452526,24.2661682 C18.9839241,23.2389753 19.8916013,22.3505215 20.9278612,21.6403738 C23.5928981,19.8459813 26.3516506,20.2347664 29.1279748,21.6403738 C30.754171,22.4998329 32.0226212,23.9289342 32.7008814,25.6657944 C32.7457097,25.7759882 32.7175322,25.9030757 32.6305947,25.9828037 L32.6305947,25.9828037 Z" id="路径" fill="url(#linearGradient-20)" fill-rule="nonzero"></path>
                <ellipse id="椭圆形" fill="#FFFFFF" fill-rule="nonzero" cx="28.8233991" cy="24.3558879" rx="1" ry="1"></ellipse>
            </g>
        </g>
    </g>
</svg>
