<?xml version="1.0" encoding="UTF-8"?>
<svg width="90px" height="80px" viewBox="0 0 90 80" version="1.1" xmlns="http://www.w3.org/2000/svg" xmlns:xlink="http://www.w3.org/1999/xlink">
    <title>形状结合</title>
    <g id="数据备份（改智能侦测）" stroke="none" stroke-width="1" fill="none" fill-rule="evenodd">
        <path d="M45,0 C69.8528137,0 90,20.1471863 90,45 C90,59.1368379 83.4811974,71.7511279 73.285574,80.0008882 L16.714426,80.0008882 C6.51880257,71.7511279 0,59.1368379 0,45 C0,20.1471863 20.1471863,0 45,0 Z M23.3309248,45.9579993 L11.5027742,45.9573689 C12.000622,63.7040227 26.2959773,77.999378 44.0426311,78.4972258 L44.0420007,66.6690752 C32.8251481,66.1815684 23.8184316,57.1748519 23.3309248,45.9579993 Z M78.4972258,45.9573689 L66.6690752,45.9579993 C66.1815684,57.1748519 57.1748519,66.1815684 45.9579993,66.6690752 L45.9573689,78.4972258 C63.7040227,77.999378 77.999378,63.7040227 78.4972258,45.9573689 Z M59.6624432,45.9572464 L50.6652319,45.9575701 C50.2616131,48.3630604 48.3630604,50.2616131 45.9575701,50.6652319 L45.9572464,59.6624432 C53.3094141,59.1896469 59.1896469,53.3094141 59.6624432,45.9572464 Z M39.3347681,45.9575701 L30.3375568,45.9572464 C30.8103531,53.3094141 36.6905859,59.1896469 44.0427536,59.6624432 L44.0424299,50.6652319 C41.6369396,50.2616131 39.7383869,48.3630604 39.3347681,45.9575701 Z M44.0426311,11.5027742 C26.2959773,12.000622 12.000622,26.2959773 11.5027742,44.0426311 L23.3309248,44.0420007 C23.8184316,32.8251481 32.8251481,23.8184316 44.0420007,23.3309248 L44.0426311,11.5027742 Z M44.0427536,30.3375568 C36.6905859,30.8103531 30.8103531,36.6905859 30.3375568,44.0427536 L39.3347681,44.0424299 C39.7383869,41.6369396 41.6369396,39.7383869 44.0424299,39.3347681 L44.0427536,30.3375568 Z M45.9573689,11.5027742 L45.9579311,23.3309883 C48.6959769,23.4503232 51.3538167,24.0805199 53.8207834,25.1798048 L50.9729683,31.5707463 C49.3970941,30.8685339 47.706548,30.4495585 45.9573638,30.3374495 L45.9575701,39.3347681 C46.432706,39.4144915 46.8880638,39.5525393 47.3160298,39.7412977 L51.0614141,36.1479961 C51.6588672,35.5746729 52.607969,35.5942341 53.1812922,36.1916873 C53.7546155,36.7891404 53.7350543,37.7382422 53.1376011,38.3115654 L49.6640435,41.645454 C50.1668874,42.3433616 50.5169476,43.1586843 50.6652319,44.0424299 L59.6625072,44.0420934 C59.5344847,42.0461682 59.0069676,40.1273642 58.1170308,38.3707798 L64.3584557,35.208692 C65.7418364,37.9392508 66.5336784,40.9378385 66.669003,44.0419427 L78.4972258,44.0426311 C78.2574512,35.4954493 74.8172081,27.7488304 69.3323442,21.9586221 L66.1444765,25.0179549 C65.5470233,25.5912781 64.5979215,25.5717169 64.0245983,24.9742637 C63.4512751,24.3768106 63.4708363,23.4277088 64.0682895,22.8543855 L67.1736401,19.8739291 C61.4878035,14.8523729 54.0844899,11.7307648 45.9573689,11.5027742 Z" id="形状结合" fill="#B2C5F9"></path>
    </g>
</svg>