<?xml version="1.0" encoding="UTF-8"?>
<svg width="495px" height="107px" viewBox="0 0 495 107" version="1.1" xmlns="http://www.w3.org/2000/svg" xmlns:xlink="http://www.w3.org/1999/xlink">
    <title>bg</title>
    <defs>
        <path d="M8,0 L487,0 C491.418278,-1.69980292e-15 495,3.581722 495,8 L495,107 L495,107 L0,107 L0,8 C-5.41083001e-16,3.581722 3.581722,8.11624501e-16 8,0 Z" id="path-1"></path>
        <path d="M64.2887313,167.015267 L438,167.015267 C442.418278,167.015267 446,170.596989 446,175.015267 L446,302.770992 L446,302.770992 L56.2887313,302.770992 L56.2887313,175.015267 C56.2887313,170.596989 59.8704533,167.015267 64.2887313,167.015267 Z" id="path-3"></path>
    </defs>
    <g id="页面-1" stroke="none" stroke-width="1" fill="none" fill-rule="evenodd">
        <g id="恢复演练总览_卡片视图" transform="translate(-336.000000, -548.000000)">
            <g id="bg" transform="translate(336.000000, 548.000000)">
                <mask id="mask-2" fill="white">
                    <use xlink:href="#path-1"></use>
                </mask>
                <use id="蒙版" fill="#181a20" xlink:href="#path-1"></use>
                <g mask="url(#mask-2)">
                    <g transform="translate(-35.000000, -161.000000)">
                        <mask id="mask-4" fill="white">
                            <use xlink:href="#path-3"></use>
                        </mask>
                        <use id="蒙版" stroke="none" fill="#181a20" fill-rule="evenodd" xlink:href="#path-3"></use>
                    </g>
                </g>
                <g id="Group-85" opacity="0.149999991" mask="url(#mask-2)" stroke="#2673E5">
                    <g transform="translate(248.000000, -4.000000)">
                        <path d="M175.3662,133.5 C175.3662,145.96801 164.0092,156.07574 150.0002,156.07574 C135.9912,156.07574 124.6342,145.96801 124.6342,133.5 C124.6342,121.03199 135.9912,110.92426 150.0002,110.92426 C164.0092,110.92426 175.3662,121.03199 175.3662,133.5 Z" id="Stroke-13"></path>
                        <path d="M178.9268,133.5 C178.9268,147.71864 165.9758,159.24503 149.9998,159.24503 C134.0248,159.24503 121.0728,147.71864 121.0728,133.5 C121.0728,119.28136 134.0248,107.75497 149.9998,107.75497 C165.9758,107.75497 178.9268,119.28136 178.9268,133.5 Z" id="Stroke-15"></path>
                        <path d="M182.4883,133.5 C182.4883,149.46838 167.9423,162.41432 150.0003,162.41432 C132.0573,162.41432 117.5113,149.46838 117.5113,133.5 C117.5113,117.53162 132.0573,104.58568 150.0003,104.58568 C167.9423,104.58568 182.4883,117.53162 182.4883,133.5 Z" id="Stroke-17"></path>
                        <path d="M186.0488,133.5 C186.0488,151.21901 169.9088,165.58361 149.9998,165.58361 C130.0908,165.58361 113.9508,151.21901 113.9508,133.5 C113.9508,115.78099 130.0908,101.41639 149.9998,101.41639 C169.9088,101.41639 186.0488,115.78099 186.0488,133.5 Z" id="Stroke-19"></path>
                        <path d="M189.6094,133.5 C189.6094,152.96964 171.8764,168.75201 150.0004,168.75201 C128.1244,168.75201 110.3904,152.96964 110.3904,133.5 C110.3904,114.03036 128.1244,98.24799 150.0004,98.24799 C171.8764,98.24799 189.6094,114.03036 189.6094,133.5 Z" id="Stroke-21"></path>
                        <path d="M193.1709,133.5 C193.1709,154.72027 173.8429,171.92219 149.9999,171.92219 C126.1569,171.92219 106.8289,154.72027 106.8289,133.5 C106.8289,112.27973 126.1569,95.07781 149.9999,95.07781 C173.8429,95.07781 193.1709,112.27973 193.1709,133.5 Z" id="Stroke-23"></path>
                        <path d="M196.7314,133.5 C196.7314,156.4709 175.8094,175.09059 150.0004,175.09059 C124.1904,175.09059 103.2684,156.4709 103.2684,133.5 C103.2684,110.5291 124.1904,91.90941 150.0004,91.90941 C175.8094,91.90941 196.7314,110.5291 196.7314,133.5 Z" id="Stroke-25"></path>
                        <path d="M200.293,133.5 C200.293,158.22064 177.776,178.26077 150,178.26077 C122.224,178.26077 99.707,158.22064 99.707,133.5 C99.707,108.77936 122.224,88.73923 150,88.73923 C177.776,88.73923 200.293,108.77936 200.293,133.5 Z" id="Stroke-27"></path>
                        <path d="M203.8535,133.5 C203.8535,159.97038 179.7425,181.43006 149.9995,181.43006 C120.2575,181.43006 96.1465,159.97038 96.1465,133.5 C96.1465,107.02962 120.2575,85.56994 149.9995,85.56994 C179.7425,85.56994 203.8535,107.02962 203.8535,133.5 Z" id="Stroke-29"></path>
                        <path d="M207.415,133.5 C207.415,161.72101 181.709,184.59935 150,184.59935 C118.291,184.59935 92.585,161.72101 92.585,133.5 C92.585,105.27899 118.291,82.40065 150,82.40065 C181.709,82.40065 207.415,105.27899 207.415,133.5 Z" id="Stroke-31"></path>
                        <path d="M210.9756,133.5 C210.9756,163.47164 183.6756,187.76864 149.9996,187.76864 C116.3246,187.76864 89.0246,163.47164 89.0246,133.5 C89.0246,103.52836 116.3246,79.23136 149.9996,79.23136 C183.6756,79.23136 210.9756,103.52836 210.9756,133.5 Z" id="Stroke-33"></path>
                        <path d="M214.5361,133.5 C214.5361,165.22227 185.6421,190.93704 150.0001,190.93704 C114.3571,190.93704 85.4641,165.22227 85.4641,133.5 C85.4641,101.77773 114.3571,76.06296 150.0001,76.06296 C185.6421,76.06296 214.5361,101.77773 214.5361,133.5 Z" id="Stroke-35"></path>
                        <path d="M218.0977,133.5 C218.0977,166.97201 187.6097,194.10722 149.9997,194.10722 C112.3907,194.10722 81.9027,166.97201 81.9027,133.5 C81.9027,100.02799 112.3907,72.89278 149.9997,72.89278 C187.6097,72.89278 218.0977,100.02799 218.0977,133.5 Z" id="Stroke-37"></path>
                        <path d="M221.6582,133.5 C221.6582,168.72264 189.5762,197.27562 150.0002,197.27562 C110.4242,197.27562 78.3422,168.72264 78.3422,133.5 C78.3422,98.27736 110.4242,69.72438 150.0002,69.72438 C189.5762,69.72438 221.6582,98.27736 221.6582,133.5 Z" id="Stroke-39"></path>
                        <path d="M225.2197,133.5 C225.2197,170.47327 191.5427,200.4458 149.9997,200.4458 C108.4567,200.4458 74.7807,170.47327 74.7807,133.5 C74.7807,96.52673 108.4567,66.5542 149.9997,66.5542 C191.5427,66.5542 225.2197,96.52673 225.2197,133.5 Z" id="Stroke-41"></path>
                        <path d="M228.7803,133.5 C228.7803,172.22301 193.5093,203.6142 150.0003,203.6142 C106.4913,203.6142 71.2193,172.22301 71.2193,133.5 C71.2193,94.77699 106.4913,63.3858 150.0003,63.3858 C193.5093,63.3858 228.7803,94.77699 228.7803,133.5 Z" id="Stroke-43"></path>
                        <path d="M232.3418,133.5 C232.3418,173.97364 195.4758,206.78438 149.9998,206.78438 C104.5248,206.78438 67.6578,173.97364 67.6578,133.5 C67.6578,93.02636 104.5248,60.21562 149.9998,60.21562 C195.4758,60.21562 232.3418,93.02636 232.3418,133.5 Z" id="Stroke-45"></path>
                        <path d="M235.9023,133.5 C235.9023,175.72338 197.4423,209.95278 150.0003,209.95278 C102.5573,209.95278 64.0973,175.72338 64.0973,133.5 C64.0973,91.27662 102.5573,57.04722 150.0003,57.04722 C197.4423,57.04722 235.9023,91.27662 235.9023,133.5 Z" id="Stroke-47" opacity="0.949999988"></path>
                        <path d="M239.4639,133.5 C239.4639,177.47401 199.4089,213.12296 149.9999,213.12296 C100.5909,213.12296 60.5359,177.47401 60.5359,133.5 C60.5359,89.52599 100.5909,53.87704 149.9999,53.87704 C199.4089,53.87704 239.4639,89.52599 239.4639,133.5 Z" id="Stroke-49" opacity="0.900000036"></path>
                        <path d="M243.0244,133.5 C243.0244,179.22464 201.3764,216.29136 150.0004,216.29136 C98.6244,216.29136 56.9754,179.22464 56.9754,133.5 C56.9754,87.77536 98.6244,50.70864 150.0004,50.70864 C201.3764,50.70864 243.0244,87.77536 243.0244,133.5 Z" id="Stroke-51" opacity="0.849999964"></path>
                        <path d="M246.585,133.5 C246.585,180.97527 203.343,219.46065 150,219.46065 C96.657,219.46065 53.415,180.97527 53.415,133.5 C53.415,86.02473 96.657,47.53935 150,47.53935 C203.343,47.53935 246.585,86.02473 246.585,133.5 Z" id="Stroke-53" opacity="0.800000012"></path>
                        <path d="M250.1465,133.5 C250.1465,182.7259 205.3095,222.62994 150.0005,222.62994 C94.6905,222.62994 49.8535,182.7259 49.8535,133.5 C49.8535,84.2741 94.6905,44.37006 150.0005,44.37006 C205.3095,44.37006 250.1465,84.2741 250.1465,133.5 Z" id="Stroke-55" opacity="0.75"></path>
                        <path d="M253.707,133.5 C253.707,184.47564 207.276,225.79923 150,225.79923 C92.724,225.79923 46.293,184.47564 46.293,133.5 C46.293,82.52436 92.724,41.20077 150,41.20077 C207.276,41.20077 253.707,82.52436 253.707,133.5 Z" id="Stroke-57" opacity="0.699999988"></path>
                        <path d="M257.2686,133.5 C257.2686,186.22538 209.2426,228.96941 149.9996,228.96941 C90.7576,228.96941 42.7316,186.22538 42.7316,133.5 C42.7316,80.77462 90.7576,38.03059 149.9996,38.03059 C209.2426,38.03059 257.2686,80.77462 257.2686,133.5 Z" id="Stroke-59" opacity="0.649999976"></path>
                        <path d="M260.8291,133.5 C260.8291,187.97601 211.2091,232.13781 150.0001,232.13781 C88.7911,232.13781 39.1711,187.97601 39.1711,133.5 C39.1711,79.02399 88.7911,34.86219 150.0001,34.86219 C211.2091,34.86219 260.8291,79.02399 260.8291,133.5 Z" id="Stroke-61" opacity="0.600000024"></path>
                        <path d="M264.3906,133.5 C264.3906,189.72664 213.1756,235.30799 149.9996,235.30799 C86.8246,235.30799 35.6096,189.72664 35.6096,133.5 C35.6096,77.27336 86.8246,31.69201 149.9996,31.69201 C213.1756,31.69201 264.3906,77.27336 264.3906,133.5 Z" id="Stroke-63" opacity="0.550000012"></path>
                        <path d="M267.9512,133.5 C267.9512,191.47727 215.1422,238.47639 150.0002,238.47639 C84.8572,238.47639 32.0492,191.47727 32.0492,133.5 C32.0492,75.52273 84.8572,28.52361 150.0002,28.52361 C215.1422,28.52361 267.9512,75.52273 267.9512,133.5 Z" id="Stroke-65" opacity="0.5"></path>
                        <path d="M271.5117,133.5 C271.5117,193.22701 217.1097,241.64568 149.9997,241.64568 C82.8907,241.64568 28.4887,193.22701 28.4887,133.5 C28.4887,73.77299 82.8907,25.35432 149.9997,25.35432 C217.1097,25.35432 271.5117,73.77299 271.5117,133.5 Z" id="Stroke-67" opacity="0.449999988"></path>
                        <path d="M275.0732,133.5 C275.0732,194.97764 219.0762,244.81497 150.0002,244.81497 C80.9242,244.81497 24.9272,194.97764 24.9272,133.5 C24.9272,72.02236 80.9242,22.18503 150.0002,22.18503 C219.0762,22.18503 275.0732,72.02236 275.0732,133.5 Z" id="Stroke-69" opacity="0.400000006"></path>
                        <path d="M278.6338,133.5 C278.6338,196.72827 221.0428,247.98426 149.9998,247.98426 C78.9568,247.98426 21.3658,196.72827 21.3658,133.5 C21.3658,70.27173 78.9568,19.01574 149.9998,19.01574 C221.0428,19.01574 278.6338,70.27173 278.6338,133.5 Z" id="Stroke-71" opacity="0.349999994"></path>
                        <path d="M282.1953,133.5 C282.1953,198.4789 223.0093,251.15355 150.0003,251.15355 C76.9903,251.15355 17.8043,198.4789 17.8043,133.5 C17.8043,68.5211 76.9903,15.84645 150.0003,15.84645 C223.0093,15.84645 282.1953,68.5211 282.1953,133.5 Z" id="Stroke-73" opacity="0.300000012"></path>
                        <path d="M285.7559,133.5 C285.7559,200.22864 224.9759,254.32284 149.9999,254.32284 C75.0249,254.32284 14.2439,200.22864 14.2439,133.5 C14.2439,66.77136 75.0249,12.67716 149.9999,12.67716 C224.9759,12.67716 285.7559,66.77136 285.7559,133.5 Z" id="Stroke-75" opacity="0.25"></path>
                        <path d="M289.3174,133.5 C289.3174,201.97838 226.9424,257.49213 150.0004,257.49213 C73.0574,257.49213 10.6824,201.97838 10.6824,133.5 C10.6824,65.02162 73.0574,9.50787 150.0004,9.50787 C226.9424,9.50787 289.3174,65.02162 289.3174,133.5 Z" id="Stroke-77" opacity="0.200000003"></path>
                        <path d="M292.8779,133.5 C292.8779,203.72901 228.9089,260.66142 149.9999,260.66142 C71.0909,260.66142 7.1219,203.72901 7.1219,133.5 C7.1219,63.27099 71.0909,6.33858 149.9999,6.33858 C228.9089,6.33858 292.8779,63.27099 292.8779,133.5 Z" id="Stroke-79" opacity="0.149999991"></path>
                        <path d="M296.4395,133.5 C296.4395,205.47964 230.8765,263.83071 150.0005,263.83071 C69.1245,263.83071 3.5605,205.47964 3.5605,133.5 C3.5605,61.52036 69.1245,3.16929 150.0005,3.16929 C230.8765,3.16929 296.4395,61.52036 296.4395,133.5 Z" id="Stroke-81" opacity="0.100000001"></path>
                        <path d="M300,133.5 C300,207.23027 232.843,267 150,267 C67.157,267 0,207.23027 0,133.5 C0,59.76973 67.157,0 150,0 C232.843,0 300,59.76973 300,133.5 Z" id="Stroke-83" opacity="0.049999997"></path>
                    </g>
                </g>
                <g id="Group-85备份" opacity="0.149999991" mask="url(#mask-2)" stroke="#2673E5">
                    <g transform="translate(93.000000, -122.000000)">
                        <path d="M213,185 C213,187.76125 210.537375,190 207.5,190 C204.462625,190 202,187.76125 202,185 C202,182.23875 204.462625,180 207.5,180 C210.537375,180 213,182.23875 213,185 Z" id="Stroke-1"></path>
                        <path d="M218,184.5 C218,189.746925 213.298922,194 207.499306,194 C201.701078,194 197,189.746925 197,184.5 C197,179.253075 201.701078,175 207.499306,175 C213.298922,175 218,179.253075 218,184.5 Z" id="Stroke-3"></path>
                        <path d="M223,184.5 C223,191.956438 216.061095,198 207.5,198 C198.938905,198 192,191.956438 192,184.5 C192,177.043562 198.938905,171 207.5,171 C216.061095,171 223,177.043562 223,184.5 Z" id="Stroke-5"></path>
                        <path d="M228,185 C228,194.940884 218.822646,203 207.499302,203 C196.177354,203 187,194.940884 187,185 C187,175.059116 196.177354,167 207.499302,167 C218.822646,167 228,175.059116 228,185 Z" id="Stroke-7"></path>
                        <path d="M232,184.5 C232,196.926551 220.807279,207 207,207 C193.192721,207 182,196.926551 182,184.5 C182,172.073449 193.192721,162 207,162 C220.807279,162 232,172.073449 232,184.5 Z" id="Stroke-9"></path>
                        <path d="M237,185 C237,199.912222 223.568828,212 206.999312,212 C190.429797,212 177,199.912222 177,185 C177,170.087778 190.429797,158 206.999312,158 C223.568828,158 237,170.087778 237,185 Z" id="Stroke-11"></path>
                        <path d="M242,185 C242,202.120516 226.329614,216 207,216 C187.670386,216 172,202.120516 172,185 C172,167.879484 187.670386,154 207,154 C226.329614,154 242,167.879484 242,185 Z" id="Stroke-13"></path>
                        <path d="M247,184.5 C247,204.106181 229.091472,220 207,220 C184.909911,220 167,204.106181 167,184.5 C167,164.893819 184.909911,149 207,149 C229.091472,149 247,164.893819 247,184.5 Z" id="Stroke-15"></path>
                        <path d="M252,185 C252,207.090618 231.852255,225 207.000693,225 C182.147745,225 162,207.090618 162,185 C162,162.909382 182.147745,145 207.000693,145 C231.852255,145 252,162.909382 252,185 Z" id="Stroke-17"></path>
                        <path d="M257,184.5 C257,209.076285 234.613803,229 207,229 C179.386197,229 157,209.076285 157,184.5 C157,159.923715 179.386197,140 207,140 C234.613803,140 257,159.923715 257,184.5 Z" id="Stroke-19"></path>
                        <path d="M262,184.5 C262,211.286488 237.600588,233 207.500688,233 C177.400788,233 153,211.286488 153,184.5 C153,157.713512 177.400788,136 207.500688,136 C237.600588,136 262,157.713512 262,184.5 Z" id="Stroke-21"></path>
                        <path d="M267,185 C267,214.271479 240.361377,238 207.5,238 C174.638623,238 148,214.271479 148,185 C148,155.728521 174.638623,132 207.5,132 C240.361377,132 267,155.728521 267,185 Z" id="Stroke-23"></path>
                        <path d="M272,184.5 C272,216.257827 243.122926,242 207.50069,242 C171.877074,242 143,216.257827 143,184.5 C143,152.742173 171.877074,127 207.50069,127 C243.122926,127 272,152.742173 272,184.5 Z" id="Stroke-25"></path>
                        <path d="M277,185 C277,219.241584 245.883711,247 207.5,247 C169.116289,247 138,219.241584 138,185 C138,150.758416 169.116289,123 207.5,123 C245.883711,123 277,150.758416 277,185 Z" id="Stroke-27"></path>
                        <path d="M282,185 C282,221.449883 248.64526,251 207.499308,251 C166.35474,251 133,221.449883 133,185 C133,148.550117 166.35474,119 207.499308,119 C248.64526,119 282,148.550117 282,185 Z" id="Stroke-29"></path>
                        <path d="M287,184.5 C287,223.435548 251.406044,255 207.5,255 C163.593956,255 128,223.435548 128,184.5 C128,145.564452 163.593956,114 207.5,114 C251.406044,114 287,145.564452 287,184.5 Z" id="Stroke-31"></path>
                        <path d="M292,185 C292,226.421215 254.167592,260 207.499307,260 C160.832408,260 123,226.421215 123,185 C123,143.578785 160.832408,110 207.499307,110 C254.167592,110 292,143.578785 292,185 Z" id="Stroke-33"></path>
                        <path d="M296,184.5 C296,228.407563 256.153,264 207,264 C157.845621,264 118,228.407563 118,184.5 C118,140.592437 157.845621,105 207,105 C256.153,105 296,140.592437 296,184.5 Z" id="Stroke-35"></path>
                        <path d="M301,185 C301,231.391318 258.915166,269 206.99931,269 C155.084834,269 113,231.391318 113,185 C113,138.608682 155.084834,101 206.99931,101 C258.915166,101 301,138.608682 301,185 Z" id="Stroke-37"></path>
                        <path d="M306,185 C306,233.601524 261.676714,273 207,273 C152.323286,273 108,233.601524 108,185 C108,136.398476 152.323286,97 207,97 C261.676714,97 306,136.398476 306,185 Z" id="Stroke-39"></path>
                        <path d="M311,184.5 C311,235.586513 264.4375,277 206.999309,277 C149.561118,277 103,235.586513 103,184.5 C103,133.413487 149.561118,92 206.999309,92 C264.4375,92 311,133.413487 311,184.5 Z" id="Stroke-41"></path>
                        <path d="M316,185 C316,238.57163 267.199358,282 207.000692,282 C146.802026,282 98,238.57163 98,185 C98,131.42837 146.802026,88 207.000692,88 C267.199358,88 316,131.42837 316,185 Z" id="Stroke-43"></path>
                        <path d="M321,184.5 C321,240.556618 269.960142,286 207,286 C144.041243,286 93,240.556618 93,184.5 C93,128.443382 144.041243,83 207,83 C269.960142,83 321,128.443382 321,184.5 Z" id="Stroke-45"></path>
                        <path d="M326,184.5 C326,242.765593 272.945549,290 207.50069,290 C142.054451,290 89,242.765593 89,184.5 C89,126.234407 142.054451,79 207.50069,79 C272.945549,79 326,126.234407 326,184.5 Z" id="Stroke-47" opacity="0.949999988"></path>
                        <path d="M331,185 C331,245.750581 275.706334,295 207.5,295 C139.293666,295 84,245.750581 84,185 C84,124.249419 139.293666,75 207.5,75 C275.706334,75 331,124.249419 331,185 Z" id="Stroke-49" opacity="0.900000036"></path>
                        <path d="M336,184.5 C336,247.736928 278.469263,299 207.500691,299 C136.532118,299 79,247.736928 79,184.5 C79,121.263072 136.532118,70 207.500691,70 C278.469263,70 336,121.263072 336,184.5 Z" id="Stroke-51" opacity="0.849999964"></path>
                        <path d="M341,185 C341,250.722597 281.230812,304 207.5,304 C133.769188,304 74,250.722597 74,185 C74,119.277403 133.769188,66 207.5,66 C281.230812,66 341,119.277403 341,185 Z" id="Stroke-53" opacity="0.800000012"></path>
                        <path d="M346,185 C346,252.932119 283.991597,308 207.500691,308 C131.008403,308 69,252.932119 69,185 C69,117.067881 131.008403,62 207.500691,62 C283.991597,62 346,117.067881 346,185 Z" id="Stroke-55" opacity="0.75"></path>
                        <path d="M351,184.5 C351,254.916558 286.753146,312 207.5,312 C128.246854,312 64,254.916558 64,184.5 C64,114.083442 128.246854,57 207.5,57 C286.753146,57 351,114.083442 351,184.5 Z" id="Stroke-57" opacity="0.699999988"></path>
                        <path d="M355,185 C355,257.900316 288.737789,317 206.99931,317 C125.262211,317 59,257.900316 59,185 C59,112.099684 125.262211,53 206.99931,53 C288.737789,53 355,112.099684 355,185 Z" id="Stroke-59" opacity="0.649999976"></path>
                        <path d="M360,184.5 C360,259.886663 291.499337,321 207,321 C122.500663,321 54,259.886663 54,184.5 C54,109.113337 122.500663,48 207,48 C291.499337,48 360,109.113337 360,184.5 Z" id="Stroke-61" opacity="0.600000024"></path>
                        <path d="M365,184.5 C365,262.09551 294.260122,325 206.999309,325 C119.739878,325 49,262.09551 49,184.5 C49,106.90449 119.739878,44 206.999309,44 C294.260122,44 365,106.90449 365,184.5 Z" id="Stroke-63" opacity="0.550000012"></path>
                        <path d="M370,185 C370,265.081856 297.02167,330 207,330 C116.976948,330 44,265.081856 44,185 C44,104.918144 116.976948,40 207,40 C297.02167,40 370,104.918144 370,185 Z" id="Stroke-65" opacity="0.5"></path>
                        <path d="M375,184.5 C375,267.066294 299.784601,334 206.999309,334 C114.215399,334 39,267.066294 39,184.5 C39,101.933706 114.215399,35 206.999309,35 C299.784601,35 375,101.933706 375,184.5 Z" id="Stroke-67" opacity="0.449999988"></path>
                        <path d="M380,185 C380,270.051962 302.545385,339 207,339 C111.454615,339 34,270.051962 34,185 C34,99.9480383 111.454615,31 207,31 C302.545385,31 380,99.9480383 380,185 Z" id="Stroke-69" opacity="0.400000006"></path>
                        <path d="M385,185 C385,272.261486 305.307244,343 207,343 C108.692756,343 29,272.261486 29,185 C29,97.7385139 108.692756,27 207,27 C305.307244,27 385,97.7385139 385,185 Z" id="Stroke-71" opacity="0.349999994"></path>
                        <path d="M390,184.5 C390,274.247154 308.291886,347 207.50069,347 C106.708114,347 25,274.247154 25,184.5 C25,94.7528462 106.708114,22 207.50069,22 C308.291886,22 390,94.7528462 390,184.5 Z" id="Stroke-73" opacity="0.300000012"></path>
                        <path d="M395,185 C395,277.231592 311.053434,352 207.5,352 C103.947947,352 20,277.231592 20,185 C20,92.768408 103.947947,18 207.5,18 C311.053434,18 395,92.768408 395,185 Z" id="Stroke-75" opacity="0.25"></path>
                        <path d="M400,184.5 C400,279.216029 313.814219,356 207.500691,356 C101.185781,356 15,279.216029 15,184.5 C15,89.7839711 101.185781,13 207.500691,13 C313.814219,13 400,89.7839711 400,184.5 Z" id="Stroke-77" opacity="0.200000003"></path>
                        <path d="M405,184.5 C405,281.425555 316.575767,360 207.5,360 C98.4242326,360 10,281.425555 10,184.5 C10,87.5744446 98.4242326,9 207.5,9 C316.575767,9 405,87.5744446 405,184.5 Z" id="Stroke-79" opacity="0.149999991"></path>
                        <path d="M410,185 C410,284.411222 319.337935,365 207.500691,365 C95.663448,365 5,284.411222 5,185 C5,85.5887776 95.663448,5 207.500691,5 C319.337935,5 410,85.5887776 410,185 Z" id="Stroke-81" opacity="0.100000001"></path>
                        <path d="M415,184.5 C415,286.39689 322.099483,369 207.5,369 C92.9005167,369 0,286.39689 0,184.5 C0,82.60311 92.9005167,0 207.5,0 C322.099483,0 415,82.60311 415,184.5 Z" id="Stroke-83" opacity="0.049999997"></path>
                    </g>
                </g>
            </g>
        </g>
    </g>
</svg>