<?xml version="1.0" encoding="UTF-8"?>
<svg width="73px" height="82px" viewBox="0 0 73 82" version="1.1" xmlns="http://www.w3.org/2000/svg" xmlns:xlink="http://www.w3.org/1999/xlink">
    <title>编组 3</title>
    <defs>
        <linearGradient x1="50.0654724%" y1="-0.1%" x2="50.0654724%" y2="97.9%" id="linearGradient-1">
            <stop stop-color="#90BEF8" offset="0%"></stop>
            <stop stop-color="#6A90F2" stop-opacity="0.1" offset="100%"></stop>
        </linearGradient>
        <linearGradient x1="102.023719%" y1="69.9729286%" x2="57.023719%" y2="42.9644132%" id="linearGradient-2">
            <stop stop-color="#5F89EB" offset="0%"></stop>
            <stop stop-color="#919EB9" stop-opacity="0" offset="100%"></stop>
        </linearGradient>
        <linearGradient x1="99.2586708%" y1="49.8846154%" x2="10.2586708%" y2="49.8846154%" id="linearGradient-3">
            <stop stop-color="#5A84F4" offset="0%"></stop>
            <stop stop-color="#A4BBF7" stop-opacity="0.05" offset="100%"></stop>
        </linearGradient>
        <linearGradient x1="51.9537414%" y1="41.8653846%" x2="48.8146572%" y2="35.8653846%" id="linearGradient-4">
            <stop stop-color="#9FBDFD" stop-opacity="0.05" offset="0%"></stop>
            <stop stop-color="#4D86FC" offset="100%"></stop>
        </linearGradient>
        <radialGradient cx="27.4132653%" cy="32.425%" fx="27.4132653%" fy="32.425%" r="80.0603687%" gradientTransform="translate(0.274133,0.324250),scale(1.000000,0.980000),rotate(10.278720),translate(-0.274133,-0.324250)" id="radialGradient-5">
            <stop stop-color="#8DCEFF" offset="0%"></stop>
            <stop stop-color="#4A77F5" offset="80%"></stop>
            <stop stop-color="#568AFE" offset="92%"></stop>
            <stop stop-color="#4D86FC" offset="100%"></stop>
        </radialGradient>
        <linearGradient x1="0%" y1="50.0125666%" x2="100%" y2="50.0125666%" id="linearGradient-6">
            <stop stop-color="#2EB6E6" offset="0%"></stop>
            <stop stop-color="#3388FF" offset="100%"></stop>
        </linearGradient>
        <linearGradient x1="-0.0202136546%" y1="49.9622838%" x2="100.020235%" y2="49.9622838%" id="linearGradient-7">
            <stop stop-color="#2EB6E6" offset="0%"></stop>
            <stop stop-color="#3388FF" offset="100%"></stop>
        </linearGradient>
        <linearGradient x1="3.93323992%" y1="29.6362867%" x2="100%" y2="75.8820421%" id="linearGradient-8">
            <stop stop-color="#2EB6E6" offset="0%"></stop>
            <stop stop-color="#3388FF" offset="100%"></stop>
        </linearGradient>
        <linearGradient x1="0.000244144526%" y1="49.9778663%" x2="100%" y2="49.9778663%" id="linearGradient-9">
            <stop stop-color="#2EB6E6" offset="0%"></stop>
            <stop stop-color="#3388FF" offset="100%"></stop>
        </linearGradient>
        <linearGradient x1="14.7171587%" y1="85.3726551%" x2="85.3615041%" y2="14.7283097%" id="linearGradient-10">
            <stop stop-color="#2EB6E6" offset="0%"></stop>
            <stop stop-color="#3388FF" offset="100%"></stop>
        </linearGradient>
        <linearGradient x1="0.117518225%" y1="100.009629%" x2="100.126645%" y2="0.000502204274%" id="linearGradient-11">
            <stop stop-color="#2EB6E6" offset="0%"></stop>
            <stop stop-color="#3388FF" offset="100%"></stop>
        </linearGradient>
    </defs>
    <g id="品牌化" stroke="none" stroke-width="1" fill="none" fill-rule="evenodd">
        <g id="文件拦截_首页_文件系统0103" transform="translate(-346.000000, -134.000000)">
            <g id="编组-3" transform="translate(347.000000, 136.000000)">
                <g id="编组-22备份-2">
                    <polygon id="路径" fill="url(#linearGradient-1)" opacity="0.3" points="34.8785047 5.23364486 63.8878505 22.0560748 63.8878505 55.7009346 34.8785047 72.5233645 5.87663551 55.7009346 5.87663551 22.0560748"></polygon>
                    <polygon id="Combined-Shape" fill="url(#linearGradient-2)" opacity="0.2" points="68.2691589 19.5439252 71.9401869 21.682243 71.9401869 60.5607477 38.5271028 80 5.11401869 60.5607477 5.11401869 60.4785047 34.8560748 77.7794393 68.2691589 58.3401869"></polygon>
                    <polyline id="Path" stroke="url(#linearGradient-3)" stroke-linecap="round" stroke-linejoin="round" points="34.8785047 0 68.2915888 19.4392523 68.2915888 58.317757 34.8785047 77.7570093"></polyline>
                    <polyline id="Path-2" stroke="url(#linearGradient-4)" stroke-width="4" opacity="0.4" stroke-linecap="round" stroke-linejoin="round" points="34.8785047 77.7570093 1.46542056 58.317757 1.46542056 19.4392523 34.8785047 0"></polyline>
                    <ellipse id="Oval-Copy-5" fill="url(#radialGradient-5)" fill-rule="nonzero" cx="1.46542056" cy="19.4392523" rx="1.46542056" ry="1.4953271"></ellipse>
                </g>
                <g id="编组-60" transform="translate(16.086542, 23.925234)" fill-rule="nonzero">
                    <g id="编组-13">
                        <path d="M33.361365,29.3761766 L3.60435562,29.3761766 C1.99920538,29.3761766 0.000616572228,28.2808578 0.000616572228,25.6365271 L0.000616572228,1.86983146 C0.000616572228,0.837156092 0.807341607,0 1.80248646,0 L14.1314584,0 C14.5871996,-0.000300416808 15.0258319,0.180104188 15.3576267,0.504316721 L19.6483238,5.46829631 C19.9828724,5.78703232 20.4203282,5.96418505 20.8744921,5.96484713 L35.1632341,5.80060762 C36.158379,5.80060762 36.9651033,6.63775641 36.9651033,7.67043178 L36.9651033,25.6365271 C36.9651033,26.6283435 36.5854248,27.5795376 35.9095928,28.2808578 C35.2337607,28.9821779 34.3171358,29.3761766 33.361365,29.3761766 Z" id="路径" fill="url(#linearGradient-6)" opacity="0.5"></path>
                        <path d="M33.3464195,29.3761753 L3.59688677,29.3761753 C2.64111531,29.3743474 1.72527689,29.0222234 1.05084655,28.3972672 C0.376416212,27.7723109 -0.00135989638,26.9257158 0.000571859362,26.0437241 L0.000571859362,4.33356383 C0.00880285061,3.42331454 0.808599294,2.68833272 1.79501761,2.68458551 L13.376326,2.68458551 C13.8320672,2.68431326 14.2706995,2.84474141 14.6024942,3.13305343 L18.1165129,7.31852168 C18.4510615,7.6019636 18.8885173,7.75949995 19.3426812,7.76008872 L35.140812,7.76008872 C36.1400861,7.76008872 36.9501578,8.50762785 36.9501578,9.4297641 L36.9501578,26.0437241 C36.9501578,27.881495 35.337918,29.3723704 33.3464195,29.3761753 Z" id="路径" fill="url(#linearGradient-7)" opacity="0.5"></path>
                        <path d="M13.376326,2.68458655 C13.8320672,2.68458655 14.2706995,2.84474141 14.6024942,3.13305343 L18.1165129,7.31852168 C18.4510615,7.6019636 18.8885173,7.75949995 19.3426812,7.76008872 L35.140812,7.76008872 C36.1400861,7.76008872 36.9501578,8.50762785 36.9501578,9.4297641 L36.9501578,26.0437241 C36.9501578,27.5987991 35.7867949,28.9016989 34.2250579,29.2692131 L0,4.43843565 L0.000617305915,4.33356383 C0.0088028506,3.42331454 0.808599294,2.68833272 1.79501761,2.68458655 L13.376326,2.68458655 Z" id="路径" fill="url(#linearGradient-8)"></path>
                    </g>
                </g>
                <g id="编组" transform="translate(27.432628, 33.969918)" fill-rule="nonzero" stroke="#FFFFFF">
                    <path d="M14.272932,2.80373832 L14.272932,7.40186916 C14.264492,11.7993765 11.3560244,15.6641362 7.13274513,16.8897196 C5.66904957,16.4543399 4.3257148,15.6867201 3.20751148,14.646729 C1.1579725,12.7843071 -0.00734566771,10.1412894 0,7.37196262 L0,2.80373832 L7.14022176,0 L14.272932,2.80373832 Z" id="路径" stroke-opacity="0.85" fill="url(#linearGradient-9)" stroke-linecap="round" stroke-linejoin="round"></path>
                    <g id="编组-2" opacity="0.85" transform="translate(3.155175, 4.456075)">
                        <circle id="椭圆形" fill="url(#linearGradient-10)" cx="3.98504673" cy="3.98504673" r="3.98504673"></circle>
                        <line x1="1.16635514" y1="6.80373832" x2="6.79626168" y2="1.17383178" id="路径" fill="url(#linearGradient-11)"></line>
                    </g>
                </g>
            </g>
        </g>
    </g>
</svg>
