<?xml version="1.0" encoding="UTF-8"?>
<svg width="24px" height="24px" viewBox="0 0 24 24" version="1.1" xmlns="http://www.w3.org/2000/svg" xmlns:xlink="http://www.w3.org/1999/xlink">
    <title>编组 2</title>
    <defs>
        <linearGradient x1="50%" y1="0%" x2="50%" y2="100%" id="linearGradient-1">
            <stop stop-color="#A3F2DD" offset="0%"></stop>
            <stop stop-color="#40ACFF" offset="100%"></stop>
        </linearGradient>
        <linearGradient x1="50%" y1="0%" x2="50%" y2="100%" id="linearGradient-2">
            <stop stop-color="#4348BF" offset="0%"></stop>
            <stop stop-color="#3F9FF7" offset="100%"></stop>
        </linearGradient>
        <linearGradient x1="50%" y1="0%" x2="50%" y2="100%" id="linearGradient-3">
            <stop stop-color="#6AE0B9" offset="0%"></stop>
            <stop stop-color="#40ACFF" offset="100%"></stop>
        </linearGradient>
    </defs>
    <g id="基础设施-DWS备份" stroke="none" stroke-width="1" fill="none" fill-rule="evenodd">
        <g id="HA管理_添加HA成员_1" transform="translate(-48.000000, -120.000000)">
            <g id="编组-2" transform="translate(48.000000, 120.000000)">
                <g id="编组-5" transform="translate(5.142857, 1.714286)">
                    <path d="M8.32231405,0 C8.89232472,0.826536188 9.62928152,1.73728655 10.5331844,2.73225108 C11.4370874,3.72721561 12.5290549,4.56154912 13.8090871,5.2352516 L13.8090871,15.705182 C13.3654921,16.1652346 12.9098423,16.5505295 12.4421377,16.8610668 L12.4417076,6.93753701 C11.0069006,6.18237398 9.78289811,5.24715727 8.76970002,4.13188688 C7.95875508,3.23924515 7.21556429,2.15719089 6.54012765,0.88572407 L6.75167429,0.779646491 C7.34590734,0.480366816 7.86945392,0.220484652 8.32231405,0 Z" id="形状结合" fill="url(#linearGradient-1)"></path>
                    <g id="编组-4" transform="translate(0.000000, 0.476229)">
                        <path d="M0,0 C0,0 0,3.8149123 0,11.4447369 C0.376176452,12.814019 1.12108015,14.3206627 2.23471109,15.9646681 C3.34834204,17.6086735 4.57754302,19.0163155 5.92231405,20.187594 C7.36458901,19.9137914 8.46495637,19.6000442 9.22341613,19.2463525 C9.98187589,18.8926608 10.7104329,18.3535276 11.4090871,17.6289531 L11.4090871,7.15902261 C10.1290549,6.48532013 9.03708735,5.65098663 8.13318443,4.65602209 C7.22928152,3.66105756 6.41973456,2.40231285 5.70454356,0.879787969 C4.56968737,1.26904077 3.68710865,1.46366717 3.05680742,1.46366717 C1.0553724,1.46366717 0,0 0,0 Z" id="路径-8" fill="url(#linearGradient-2)"></path>
                        <path d="M5.92231405,20.187594 C7.36458901,19.9137914 8.46495637,19.6000442 9.22341613,19.2463525 C9.98187589,18.8926608 10.7104329,18.3535276 11.4090871,17.6289531 L11.4090871,7.15902261 C10.1290549,6.48532013 9.03708735,5.65098663 8.13318443,4.65602209 C7.22928152,3.66105756 6.41973456,2.40231285 5.70454356,0.879787969 L5.92231405,20.187594 Z" id="路径-8" fill="url(#linearGradient-3)"></path>
                    </g>
                </g>
                <rect id="矩形" x="0" y="0" width="24" height="24"></rect>
            </g>
        </g>
    </g>
</svg>