<svg width="24.000000" height="24.000000" viewBox="0 0 24 24" fill="none" xmlns="http://www.w3.org/2000/svg" xmlns:xlink="http://www.w3.org/1999/xlink">
<desc>
			Created with Pixso.
	</desc>
	<defs>
		<clipPath id="clip158_68588">
			<rect id="画板 375" width="24.000000" height="24.000000" fill="white" fill-opacity="0"/>
		</clipPath>
		<linearGradient x1="10.163707" y1="22.000000" x2="10.163707" y2="2.000000" id="paint_linear_158_68590_0" gradientUnits="userSpaceOnUse">
			<stop stop-color="#40ACFF"/>
			<stop offset="1.000000" stop-color="#3737B7"/>
		</linearGradient>
		<linearGradient x1="5.629059" y1="2.534811" x2="5.629059" y2="21.234789" id="paint_linear_158_68591_0" gradientUnits="userSpaceOnUse">
			<stop stop-color="#6AE0B9"/>
			<stop offset="1.000000" stop-color="#40ACFF"/>
		</linearGradient>
	</defs>
	<g clip-path="url(#clip158_68588)">
		<path id="形状结合" d="M18.92 5.84C20.02 5.84 20.92 6.74 20.92 7.84L20.92 20C20.92 21.1 20.02 22 18.92 22L9.84 22C8.74 22 7.84 21.1 7.84 20L7.84 7.84C7.84 6.74 8.74 5.84 9.84 5.84L18.92 5.84ZM17.96 10.65L17.04 10.65C16.63 10.65 16.29 10.98 16.29 11.4L16.3 11.5C16.35 11.86 16.66 12.15 17.04 12.15L17.5 12.15L17.5 16.36L15.64 16.36L15.64 15.82C15.64 15.74 15.61 15.66 15.56 15.6C15.44 15.49 15.25 15.49 15.13 15.6L13.84 16.9C13.72 17.01 13.72 17.2 13.84 17.32L15.13 18.62C15.19 18.67 15.26 18.7 15.34 18.7C15.51 18.7 15.64 18.57 15.64 18.4L15.64 17.86L17.96 17.86C18.56 17.86 19 17.35 19 16.77L19 11.73C19 11.16 18.56 10.65 17.96 10.65ZM15.07 2C16.18 2 17.07 2.89 17.07 4L17.07 4.3L8.6 4.3C7.54 4.3 6.68 5.12 6.6 6.15L6.6 6.3L6.6 18.15L6 18.15C4.89 18.15 4 17.25 4 16.15L4 4C4 2.89 4.89 2 6 2L15.07 2ZM13.5 9.92C13.34 9.92 13.2 10.05 13.2 10.22L13.2 10.76L10.9 10.76C10.3 10.76 9.87 11.27 9.87 11.85L9.87 16.89C9.87 17.46 10.3 17.97 10.9 17.97L11.82 17.97C12.23 17.97 12.57 17.64 12.57 17.22L12.56 17.12C12.51 16.76 12.2 16.47 11.82 16.47L11.37 16.47L11.37 12.26L13.2 12.26L13.2 12.8C13.2 12.88 13.24 12.96 13.29 13.02C13.41 13.13 13.6 13.13 13.72 13.02L15.01 11.72C15.12 11.61 15.12 11.42 15.01 11.3L13.72 10C13.66 9.95 13.58 9.92 13.5 9.92Z" fill="url(#paint_linear_158_68590_0)" fill-opacity="1.000000" fill-rule="evenodd"/>
		<path id="形状结合" d="M20.92 7.84L20.92 20C20.92 21.1 20.02 22 18.92 22L9.84 22C8.74 22 7.84 21.1 7.84 20L7.84 7.84C7.84 6.74 8.74 5.84 9.84 5.84L18.92 5.84C20.02 5.84 20.92 6.74 20.92 7.84ZM17.04 10.65C16.63 10.65 16.29 10.98 16.29 11.4L16.3 11.5C16.35 11.86 16.66 12.15 17.04 12.15L17.5 12.15L17.5 16.36L15.64 16.36L15.64 15.82C15.64 15.74 15.61 15.66 15.56 15.6C15.44 15.49 15.25 15.49 15.13 15.6L13.84 16.9C13.72 17.01 13.72 17.2 13.84 17.32L15.13 18.62C15.19 18.67 15.26 18.7 15.34 18.7C15.51 18.7 15.64 18.57 15.64 18.4L15.64 17.86L17.96 17.86C18.56 17.86 19 17.35 19 16.77L19 11.73C19 11.16 18.56 10.65 17.96 10.65L17.04 10.65ZM17.07 4L17.07 4.3L8.6 4.3C7.54 4.3 6.68 5.12 6.6 6.15L6.6 6.3L6.6 18.15L6 18.15C4.89 18.15 4 17.25 4 16.15L4 4C4 2.89 4.89 2 6 2L15.07 2C16.18 2 17.07 2.89 17.07 4ZM13.2 10.22L13.2 10.76L10.9 10.76C10.3 10.76 9.87 11.27 9.87 11.85L9.87 16.89C9.87 17.46 10.3 17.97 10.9 17.97L11.82 17.97C12.23 17.97 12.57 17.64 12.57 17.22L12.56 17.12C12.51 16.76 12.2 16.47 11.82 16.47L11.37 16.47L11.37 12.26L13.2 12.26L13.2 12.8C13.2 12.88 13.24 12.96 13.29 13.02C13.41 13.13 13.6 13.13 13.72 13.02L15.01 11.72C15.12 11.61 15.12 11.42 15.01 11.3L13.72 10C13.66 9.95 13.58 9.92 13.5 9.92C13.34 9.92 13.2 10.05 13.2 10.22Z" stroke="#000000" stroke-opacity="0" stroke-width="1.000000"/>
		<path id="形状结合" d="M18.92 5.84C20.02 5.84 20.92 6.74 20.92 7.84L20.92 20C20.92 20.72 20.53 21.35 19.96 21.71L16.84 17.86L17.96 17.86C18.52 17.86 18.94 17.42 18.99 16.89L19 16.77L19 11.73C19 11.16 18.56 10.65 17.96 10.65L17.04 10.65C16.63 10.65 16.29 10.98 16.29 11.4L16.3 11.5C16.35 11.86 16.66 12.15 17.04 12.15L17.5 12.15L17.5 16.36L15.64 16.36L15.64 15.82C15.64 15.74 15.61 15.66 15.56 15.6C15.44 15.49 15.25 15.49 15.13 15.6L12.31 12.26L13.2 12.26L13.2 12.8C13.2 12.88 13.24 12.96 13.29 13.02C13.41 13.13 13.6 13.13 13.72 13.02L15.01 11.72C15.12 11.61 15.12 11.42 15.01 11.3L13.72 10C13.66 9.95 13.58 9.92 13.5 9.92C13.34 9.92 13.2 10.05 13.2 10.22L13.2 10.76L11.09 10.76L8.03 6.98C8.36 6.31 9.04 5.84 9.84 5.84L18.92 5.84ZM15.07 2C16.18 2 17.07 2.89 17.07 4L17.07 4.3L8.6 4.3C7.8 4.3 7.11 4.77 6.79 5.44L4.52 2.64C4.89 2.25 5.41 2 6 2L15.07 2Z" fill="url(#paint_linear_158_68591_0)" fill-opacity="1.000000" fill-rule="evenodd"/>
		<path id="形状结合" d="M20.92 7.84L20.92 20C20.92 20.72 20.53 21.35 19.96 21.71L16.84 17.86L17.96 17.86C18.52 17.86 18.94 17.42 18.99 16.89L19 16.77L19 11.73C19 11.16 18.56 10.65 17.96 10.65L17.04 10.65C16.63 10.65 16.29 10.98 16.29 11.4L16.3 11.5C16.35 11.86 16.66 12.15 17.04 12.15L17.5 12.15L17.5 16.36L15.64 16.36L15.64 15.82C15.64 15.74 15.61 15.66 15.56 15.6C15.44 15.49 15.25 15.49 15.13 15.6L12.31 12.26L13.2 12.26L13.2 12.8C13.2 12.88 13.24 12.96 13.29 13.02C13.41 13.13 13.6 13.13 13.72 13.02L15.01 11.72C15.12 11.61 15.12 11.42 15.01 11.3L13.72 10C13.66 9.95 13.58 9.92 13.5 9.92C13.34 9.92 13.2 10.05 13.2 10.22L13.2 10.76L11.09 10.76L8.03 6.98C8.36 6.31 9.04 5.84 9.84 5.84L18.92 5.84C20.02 5.84 20.92 6.74 20.92 7.84ZM17.07 4L17.07 4.3L8.6 4.3C7.8 4.3 7.11 4.77 6.79 5.44L4.52 2.64C4.89 2.25 5.41 2 6 2L15.07 2C16.18 2 17.07 2.89 17.07 4Z" stroke="#000000" stroke-opacity="0" stroke-width="1.000000"/>
	</g>
</svg>
