<svg width="16.000000" height="16.000000" viewBox="0 0 16 16" fill="none" xmlns="http://www.w3.org/2000/svg" xmlns:xlink="http://www.w3.org/1999/xlink">
<desc>
			Created with Pixso.
	</desc>
	<defs>
		<clipPath id="clip241_78154">
			<rect id="画板 279" width="16.000000" height="16.000000" fill="white" fill-opacity="0"/>
		</clipPath>
	</defs>
	<g clip-path="url(#clip241_78154)">
		<mask id="mask_241_78157" fill="white">
			<path id="形状" d="M8 2C4.7002 2 2 4.7002 2 8C2 11.2998 4.7002 14 8 14C11.2998 14 14 11.2998 14 8C14 4.7002 11.2998 2 8 2ZM7.36377 8.29004L5.86377 9.4624C5.72705 9.56006 5.5 9.4624 5.5 9.21826L5.5 6.77539C5.5 6.58008 5.68164 6.43359 5.86377 6.53125L7.36377 7.75244C7.54541 7.89893 7.54541 8.19238 7.36377 8.29004ZM8.87012 9.4624L10.396 8.24121C10.5347 8.14355 10.5347 7.8501 10.396 7.75244L8.87012 6.53125C8.68506 6.43359 8.5 6.58008 8.5 6.77539L8.5 9.21826C8.5 9.4624 8.73145 9.56006 8.87012 9.4624Z" clip-rule="evenodd" fill="" fill-opacity="1.000000" fill-rule="evenodd"/>
		</mask>
		<path id="形状" d="M8 2C4.7002 2 2 4.7002 2 8C2 11.2998 4.7002 14 8 14C11.2998 14 14 11.2998 14 8C14 4.7002 11.2998 2 8 2ZM7.36377 8.29004L5.86377 9.4624C5.72705 9.56006 5.5 9.4624 5.5 9.21826L5.5 6.77539C5.5 6.58008 5.68164 6.43359 5.86377 6.53125L7.36377 7.75244C7.54541 7.89893 7.54541 8.19238 7.36377 8.29004ZM8.87012 9.4624L10.396 8.24121C10.5347 8.14355 10.5347 7.8501 10.396 7.75244L8.87012 6.53125C8.68506 6.43359 8.5 6.58008 8.5 6.77539L8.5 9.21826C8.5 9.4624 8.73145 9.56006 8.87012 9.4624Z" clip-rule="evenodd" fill="#8ACBFF" fill-opacity="1.000000" fill-rule="evenodd" mask="url(#mask_241_78157)"/>
		<path id="形状" d="" clip-rule="evenodd" fill="#979797" fill-opacity="0.000000" fill-rule="evenodd"/>
	</g>
</svg>
