<svg width="24.000000" height="24.000000" viewBox="0 0 24 24" fill="none" xmlns="http://www.w3.org/2000/svg" xmlns:xlink="http://www.w3.org/1999/xlink">
<desc>
			Created with Pixso.
	</desc>
	<defs>
		<clipPath id="clip158_68561">
			<rect id="画板 376" width="24.000000" height="24.000000" fill="white" fill-opacity="0"/>
		</clipPath>
		<linearGradient x1="10.163707" y1="22.000000" x2="10.163707" y2="2.000000" id="paint_linear_158_68563_0" gradientUnits="userSpaceOnUse">
			<stop stop-color="#40ACFF"/>
			<stop offset="1.000000" stop-color="#3737B7"/>
		</linearGradient>
		<linearGradient x1="5.542533" y1="2.536703" x2="5.542533" y2="21.302855" id="paint_linear_158_68564_0" gradientUnits="userSpaceOnUse">
			<stop stop-color="#6AE0B9"/>
			<stop offset="1.000000" stop-color="#40ACFF"/>
		</linearGradient>
	</defs>
	<g clip-path="url(#clip158_68561)">
		<path id="形状结合" d="M18.92 5.84C20.02 5.84 20.92 6.74 20.92 7.84L20.92 20C20.92 21.1 20.02 22 18.92 22L9.84 22C8.74 22 7.84 21.1 7.84 20L7.84 7.84C7.84 6.74 8.74 5.84 9.84 5.84L18.92 5.84ZM14.47 9.47C13.33 9.47 12.26 9.86 11.4 10.57L10.9 10.06C10.84 10.01 10.76 9.97 10.69 9.97C10.52 9.97 10.39 10.11 10.39 10.27L10.38 12.33C10.38 12.49 10.52 12.63 10.68 12.63L12.74 12.62C12.82 12.62 12.89 12.59 12.95 12.54C13.06 12.42 13.06 12.23 12.95 12.11L12.47 11.63C13.04 11.21 13.74 10.97 14.47 10.97C16.32 10.97 17.81 12.46 17.81 14.31C17.81 16.15 16.32 17.64 14.47 17.64C12.76 17.64 11.32 16.34 11.15 14.65C11.11 14.24 10.74 13.94 10.33 13.98C9.92 14.02 9.62 14.39 9.66 14.8C9.91 17.26 11.98 19.14 14.47 19.14C17.14 19.14 19.31 16.98 19.31 14.31C19.31 11.63 17.14 9.47 14.47 9.47ZM15.07 2C16.18 2 17.07 2.89 17.07 4L17.07 4.3L8.6 4.3C7.54 4.3 6.68 5.12 6.6 6.15L6.6 6.3L6.6 18.15L6 18.15C4.89 18.15 4 17.25 4 16.15L4 4C4 2.89 4.89 2 6 2L15.07 2ZM14.21 12.36C13.8 12.36 13.46 12.7 13.46 13.11L13.46 14.75C13.46 15.01 13.6 15.25 13.82 15.39L15.28 16.27C15.63 16.49 16.1 16.38 16.31 16.02C16.46 15.68 16.38 15.19 16.06 14.99L14.96 14.32L14.96 13.11C14.96 12.7 14.63 12.36 14.21 12.36Z" fill="url(#paint_linear_158_68563_0)" fill-opacity="1.000000" fill-rule="evenodd"/>
		<path id="形状结合" d="M20.92 7.84L20.92 20C20.92 21.1 20.02 22 18.92 22L9.84 22C8.74 22 7.84 21.1 7.84 20L7.84 7.84C7.84 6.74 8.74 5.84 9.84 5.84L18.92 5.84C20.02 5.84 20.92 6.74 20.92 7.84ZM11.4 10.57L10.9 10.06C10.84 10.01 10.76 9.97 10.69 9.97C10.52 9.97 10.39 10.11 10.39 10.27L10.38 12.33C10.38 12.49 10.52 12.63 10.68 12.63L12.74 12.62C12.82 12.62 12.89 12.59 12.95 12.54C13.06 12.42 13.06 12.23 12.95 12.11L12.47 11.63C13.04 11.21 13.74 10.97 14.47 10.97C16.32 10.97 17.81 12.46 17.81 14.31C17.81 16.15 16.32 17.64 14.47 17.64C12.76 17.64 11.32 16.34 11.15 14.65C11.11 14.24 10.74 13.94 10.33 13.98C9.92 14.02 9.62 14.39 9.66 14.8C9.91 17.26 11.98 19.14 14.47 19.14C17.14 19.14 19.31 16.98 19.31 14.31C19.31 11.63 17.14 9.47 14.47 9.47C13.33 9.47 12.26 9.86 11.4 10.57ZM17.07 4L17.07 4.3L8.6 4.3C7.54 4.3 6.68 5.12 6.6 6.15L6.6 6.3L6.6 18.15L6 18.15C4.89 18.15 4 17.25 4 16.15L4 4C4 2.89 4.89 2 6 2L15.07 2C16.18 2 17.07 2.89 17.07 4ZM13.46 13.11L13.46 14.75C13.46 15.01 13.6 15.25 13.82 15.39L15.28 16.27C15.63 16.49 16.1 16.38 16.31 16.02C16.46 15.68 16.38 15.19 16.06 14.99L14.96 14.32L14.96 13.11C14.96 12.7 14.63 12.36 14.21 12.36C13.8 12.36 13.46 12.7 13.46 13.11Z" stroke="#000000" stroke-opacity="0" stroke-width="1.000000"/>
		<path id="形状结合" d="M18.92 5.84C20.02 5.84 20.92 6.74 20.92 7.84L20.92 20C20.92 20.77 20.48 21.44 19.83 21.77L17.08 18.38C18.42 17.52 19.31 16.02 19.31 14.31C19.31 11.63 17.14 9.47 14.47 9.47C13.33 9.47 12.26 9.86 11.4 10.57L10.9 10.06C10.84 10.01 10.77 9.97 10.69 9.97C10.57 9.97 10.46 10.04 10.41 10.15L7.97 7.13C8.26 6.38 8.99 5.84 9.84 5.84L18.92 5.84ZM14.47 10.97C16.32 10.97 17.81 12.46 17.81 14.31C17.81 15.55 17.13 16.63 16.13 17.2L15.43 16.35C15.76 16.45 16.13 16.33 16.31 16.02C16.46 15.68 16.38 15.19 16.06 14.99L14.96 14.32L14.96 13.11C14.96 12.7 14.63 12.36 14.21 12.36C13.8 12.36 13.46 12.7 13.46 13.11L13.46 13.91L12.42 12.62L12.74 12.62C12.82 12.62 12.89 12.59 12.95 12.54C13.07 12.42 13.06 12.23 12.95 12.11L12.47 11.63C13.04 11.21 13.74 10.97 14.47 10.97ZM15.07 2C16.18 2 17.07 2.89 17.07 4L17.07 4.3L8.6 4.3C7.74 4.3 7.01 4.84 6.73 5.59L4.43 2.75C4.79 2.29 5.36 2 6 2L15.07 2Z" fill="url(#paint_linear_158_68564_0)" fill-opacity="1.000000" fill-rule="evenodd"/>
		<path id="形状结合" d="M20.92 7.84L20.92 20C20.92 20.77 20.48 21.44 19.83 21.77L17.08 18.38C18.42 17.52 19.31 16.02 19.31 14.31C19.31 11.63 17.14 9.47 14.47 9.47C13.33 9.47 12.26 9.86 11.4 10.57L10.9 10.06C10.84 10.01 10.77 9.97 10.69 9.97C10.57 9.97 10.46 10.04 10.41 10.15L7.97 7.13C8.26 6.38 8.99 5.84 9.84 5.84L18.92 5.84C20.02 5.84 20.92 6.74 20.92 7.84ZM17.81 14.31C17.81 15.55 17.13 16.63 16.13 17.2L15.43 16.35C15.76 16.45 16.13 16.33 16.31 16.02C16.46 15.68 16.38 15.19 16.06 14.99L14.96 14.32L14.96 13.11C14.96 12.7 14.63 12.36 14.21 12.36C13.8 12.36 13.46 12.7 13.46 13.11L13.46 13.91L12.42 12.62L12.74 12.62C12.82 12.62 12.89 12.59 12.95 12.54C13.07 12.42 13.06 12.23 12.95 12.11L12.47 11.63C13.04 11.21 13.74 10.97 14.47 10.97C16.32 10.97 17.81 12.46 17.81 14.31ZM17.07 4L17.07 4.3L8.6 4.3C7.74 4.3 7.01 4.84 6.73 5.59L4.43 2.75C4.79 2.29 5.36 2 6 2L15.07 2C16.18 2 17.07 2.89 17.07 4Z" stroke="#000000" stroke-opacity="0" stroke-width="1.000000"/>
	</g>
</svg>
