<svg width="16.000000" height="16.000000" viewBox="0 0 16 16" fill="none" xmlns="http://www.w3.org/2000/svg" xmlns:xlink="http://www.w3.org/1999/xlink">
<desc>
			Created with Pixso.
	</desc>
	<defs>
		<clipPath id="clip241_78166">
			<rect id="画板 280" width="16.000000" height="16.000000" fill="white" fill-opacity="0"/>
		</clipPath>
	</defs>
	<g clip-path="url(#clip241_78166)">
		<path id="路径" d="M14 8C14 11.29 11.29 14 8 14C4.7 14 2 11.29 2 8C2 4.7 4.7 2 8 2C11.29 2 14 4.7 14 8Z" fill="#DCDEE9" fill-opacity="1.000000" fill-rule="evenodd"/>
		<path id="形状" d="M5.3999 5C5.2002 5 5 5.20703 5 5.41357C5 5.65527 5.2002 5.8623 5.3999 5.82764L5.6665 5.82764L5.6665 6C5.6665 6.82764 6.06689 7.55176 6.6665 8C6.06689 8.44824 5.6665 9.17236 5.6665 10L5.6665 10.1724L5.3999 10.1724C5.2002 10.1724 5 10.3794 5 10.5864C5 10.793 5.1665 11 5.3999 11L10.6001 11C10.7998 11 11 10.793 11 10.5864C11 10.3794 10.8335 10.1724 10.6001 10.1724L10.3335 10.1724L10.3335 10.0347C10.3335 9.20703 9.93311 8.48291 9.3335 8.03467C9.93311 7.58643 10.3335 6.8623 10.3335 6.03467L10.3335 5.82764L10.5669 5.82764C10.7666 5.82764 10.9668 5.65527 10.9668 5.41357C10.9668 5.20703 10.7998 5 10.5669 5L5.3999 5ZM7 6L10 6L10 6.2002C10 7.2002 9.3335 8 8.5 8C7.6665 8 7 7.2002 7 6.2002L7 6ZM8.5 8C9.3335 8 10 8.7998 10 9.7998L10 10L7 10L7 9.7998C7 8.7998 7.6665 8 8.5 8Z" clip-rule="evenodd" fill="#4E5C93" fill-opacity="1.000000" fill-rule="evenodd"/>
	</g>
</svg>
