<svg width="40.000000" height="40.000000" viewBox="0 0 40 40" fill="none" xmlns="http://www.w3.org/2000/svg" xmlns:xlink="http://www.w3.org/1999/xlink">
<desc>
			Created with Pixso.
	</desc>
	<defs>
		<linearGradient x1="20.000000" y1="5.000000" x2="20.000000" y2="35.000000" id="paint_linear_241_78134_0" gradientUnits="userSpaceOnUse">
			<stop stop-color="#3F4044"/>
			<stop offset="1.000000" stop-color="#767880"/>
		</linearGradient>
		<linearGradient x1="27.500000" y1="5.000000" x2="27.500000" y2="35.000000" id="paint_linear_241_78139_0" gradientUnits="userSpaceOnUse">
			<stop stop-color="#A1A4AC"/>
			<stop offset="1.000000" stop-color="#62656F"/>
		</linearGradient>
	</defs>
	<rect id="矩形" width="40.000000" height="40.000000" fill="#D8D8D8" fill-opacity="0"/>
	<rect id="矩形" x="0.500000" y="0.500000" width="39.000000" height="39.000000" stroke="#979797" stroke-opacity="0" stroke-width="1.000000"/>
	<mask id="mask_241_78134" fill="white">
		<path id="形状结合" d="M6 5L34 5C34.5522 5 35 5.44775 35 6L35 34C35 34.5522 34.5522 35 34 35L6 35C5.44775 35 5 34.5522 5 34L5 6C5 5.44775 5.44775 5 6 5ZM27 16C27 14.3433 25.6567 13 24 13L16 13C14.3433 13 13 14.3433 13 16L13 24C13 25.6567 14.3433 27 16 27L24 27C25.6567 27 27 25.6567 27 24L27 16ZM24 15L16 15C15.4478 15 15 15.4478 15 16L15 24C15 24.5522 15.4478 25 16 25L24 25C24.5522 25 25 24.5522 25 24L25 16C25 15.4478 24.5522 15 24 15Z" clip-rule="evenodd" fill="" fill-opacity="1.000000" fill-rule="evenodd"/>
	</mask>
	<path id="形状结合" d="M6 5L34 5C34.5522 5 35 5.44775 35 6L35 34C35 34.5522 34.5522 35 34 35L6 35C5.44775 35 5 34.5522 5 34L5 6C5 5.44775 5.44775 5 6 5ZM27 16C27 14.3433 25.6567 13 24 13L16 13C14.3433 13 13 14.3433 13 16L13 24C13 25.6567 14.3433 27 16 27L24 27C25.6567 27 27 25.6567 27 24L27 16ZM24 15L16 15C15.4478 15 15 15.4478 15 16L15 24C15 24.5522 15.4478 25 16 25L24 25C24.5522 25 25 24.5522 25 24L25 16C25 15.4478 24.5522 15 24 15Z" clip-rule="evenodd" fill="url(#paint_linear_241_78134_0)" fill-opacity="1.000000" fill-rule="evenodd" mask="url(#mask_241_78134)"/>
	<path id="形状结合" d="" clip-rule="evenodd" fill="#4D4D4D" fill-opacity="0.000000" fill-rule="evenodd"/>
	<mask id="mask_241_78139" fill="white">
		<path id="形状结合" d="M20 27L20 35L34 35C34.5522 35 35 34.5522 35 34L35 6C35 5.44775 34.5522 5 34 5L20 5L20 13L24 13C25.6567 13 27 14.3433 27 16L27 24C27 25.6567 25.6567 27 24 27L20 27ZM20 25L24 25C24.5522 25 25 24.5522 25 24L25 16C25 15.4478 24.5522 15 24 15L20 15L20 25Z" clip-rule="evenodd" fill="" fill-opacity="1.000000" fill-rule="evenodd"/>
	</mask>
	<path id="形状结合" d="M20 27L20 35L34 35C34.5522 35 35 34.5522 35 34L35 6C35 5.44775 34.5522 5 34 5L20 5L20 13L24 13C25.6567 13 27 14.3433 27 16L27 24C27 25.6567 25.6567 27 24 27L20 27ZM20 25L24 25C24.5522 25 25 24.5522 25 24L25 16C25 15.4478 24.5522 15 24 15L20 15L20 25Z" clip-rule="evenodd" fill="url(#paint_linear_241_78139_0)" fill-opacity="1.000000" fill-rule="evenodd" mask="url(#mask_241_78139)"/>
	<path id="形状结合" d="" clip-rule="evenodd" fill="#4D4D4D" fill-opacity="0.000000" fill-rule="evenodd"/>
</svg>
