<svg width="24.000000" height="24.000000" viewBox="0 0 24 24" fill="none" xmlns="http://www.w3.org/2000/svg" xmlns:xlink="http://www.w3.org/1999/xlink">
<desc>
			Created with Pixso.
	</desc>
	<defs>
		<clipPath id="clip158_68613">
			<rect id="画板 1111" width="24.000000" height="24.000000" fill="white" fill-opacity="0"/>
		</clipPath>
		<linearGradient x1="9.988609" y1="21.999023" x2="9.988609" y2="1.999023" id="paint_linear_158_68615_0" gradientUnits="userSpaceOnUse">
			<stop stop-color="#40ACFF"/>
			<stop offset="1.000000" stop-color="#3737B7"/>
		</linearGradient>
		<linearGradient x1="8.756594" y1="1.999030" x2="16.000244" y2="13.999998" id="paint_linear_158_68616_0" gradientUnits="userSpaceOnUse">
			<stop offset="0.004735" stop-color="#6AE0B9"/>
			<stop offset="1.000000" stop-color="#40ACFF"/>
		</linearGradient>
		<linearGradient x1="20.888674" y1="21.999506" x2="3.110900" y2="14.000490" id="paint_linear_158_68617_0" gradientUnits="userSpaceOnUse">
			<stop stop-color="#40ACFF"/>
			<stop offset="1.000000" stop-color="#3737B7"/>
		</linearGradient>
		<linearGradient x1="13.756875" y1="11.632812" x2="20.889023" y2="22.003084" id="paint_linear_158_68618_0" gradientUnits="userSpaceOnUse">
			<stop stop-color="#6AE0B9"/>
			<stop offset="1.000000" stop-color="#40ACFF"/>
		</linearGradient>
	</defs>
	<g clip-path="url(#clip158_68613)">
		<path id="形状结合" d="M17.4 1.99C18.51 1.99 19.4 2.89 19.4 3.99L19.4 21.99L4.59 21.99L4.59 3.99C4.59 2.89 5.48 1.99 6.59 1.99L17.4 1.99ZM15.88 7.17L8.11 7.17C7.69 7.17 7.36 7.51 7.36 7.92C7.36 8.33 7.69 8.67 8.11 8.67L15.88 8.67C16.3 8.67 16.63 8.33 16.63 7.92C16.63 7.51 16.3 7.17 15.88 7.17ZM15.88 4.21L8.11 4.21C7.69 4.21 7.36 4.54 7.36 4.96C7.36 5.37 7.69 5.71 8.11 5.71L15.88 5.71C16.3 5.71 16.63 5.37 16.63 4.96C16.63 4.54 16.3 4.21 15.88 4.21Z" fill="url(#paint_linear_158_68615_0)" fill-opacity="1.000000" fill-rule="evenodd"/>
		<path id="形状结合" d="M19.4 3.99L19.4 21.99L4.59 21.99L4.59 3.99C4.59 2.89 5.48 1.99 6.59 1.99L17.4 1.99C18.51 1.99 19.4 2.89 19.4 3.99ZM8.11 7.17C7.69 7.17 7.36 7.51 7.36 7.92C7.36 8.33 7.69 8.67 8.11 8.67L15.88 8.67C16.3 8.67 16.63 8.33 16.63 7.92C16.63 7.51 16.3 7.17 15.88 7.17L8.11 7.17ZM8.11 4.21C7.69 4.21 7.36 4.54 7.36 4.96C7.36 5.37 7.69 5.71 8.11 5.71L15.88 5.71C16.3 5.71 16.63 5.37 16.63 4.96C16.63 4.54 16.3 4.21 15.88 4.21L8.11 4.21Z" stroke="#000000" stroke-opacity="0" stroke-width="1.000000"/>
		<path id="形状结合" d="M17.4 1.99C18.51 1.99 19.4 2.89 19.4 3.99L19.4 21.99L16.86 21.99L9.17 8.67L15.88 8.67C16.3 8.67 16.63 8.33 16.63 7.92C16.63 7.51 16.3 7.17 15.88 7.17L8.3 7.17L5.5 2.32C5.81 2.11 6.19 1.99 6.59 1.99L17.4 1.99ZM15.88 4.21L8.11 4.21C7.69 4.21 7.36 4.54 7.36 4.96C7.36 5.37 7.69 5.71 8.11 5.71L15.88 5.71C16.3 5.71 16.63 5.37 16.63 4.96C16.63 4.54 16.3 4.21 15.88 4.21Z" fill="url(#paint_linear_158_68616_0)" fill-opacity="1.000000" fill-rule="evenodd"/>
		<path id="形状结合" d="M19.4 3.99L19.4 21.99L16.86 21.99L9.17 8.67L15.88 8.67C16.3 8.67 16.63 8.33 16.63 7.92C16.63 7.51 16.3 7.17 15.88 7.17L8.3 7.17L5.5 2.32C5.81 2.11 6.19 1.99 6.59 1.99L17.4 1.99C18.51 1.99 19.4 2.89 19.4 3.99ZM8.11 4.21C7.69 4.21 7.36 4.54 7.36 4.96C7.36 5.37 7.69 5.71 8.11 5.71L15.88 5.71C16.3 5.71 16.63 5.37 16.63 4.96C16.63 4.54 16.3 4.21 15.88 4.21L8.11 4.21Z" stroke="#000000" stroke-opacity="0" stroke-width="1.000000"/>
		<path id="矩形" d="M19.88 11.62L14.94 11.62C14.47 11.62 14.01 11.79 13.65 12.1L11.04 14.3C10.68 14.61 10.22 14.77 9.75 14.77L4.11 14.77C3.55 14.77 3.11 15.22 3.11 15.77L3.11 21C3.11 21.55 3.55 22 4.11 22L19.88 22C20.44 22 20.88 21.55 20.88 21L20.88 12.62C20.88 12.07 20.44 11.62 19.88 11.62Z" fill="url(#paint_linear_158_68617_0)" fill-opacity="1.000000" fill-rule="evenodd"/>
		<path id="矩形" d="M14.94 11.62C14.47 11.62 14.01 11.79 13.65 12.1L11.04 14.3C10.68 14.61 10.22 14.77 9.75 14.77L4.11 14.77C3.55 14.77 3.11 15.22 3.11 15.77L3.11 21C3.11 21.55 3.55 22 4.11 22L19.88 22C20.44 22 20.88 21.55 20.88 21L20.88 12.62C20.88 12.07 20.44 11.62 19.88 11.62L14.94 11.62Z" stroke="#000000" stroke-opacity="0" stroke-width="1.000000"/>
		<mask id="mask_158_68618" fill="white">
			<path id="交集" d="M14.5386 22.0034L10.3228 14.7012C10.5874 14.623 10.8354 14.4902 11.0493 14.3091L13.6514 12.1064C14.0127 11.8008 14.4702 11.6328 14.9434 11.6328L19.8892 11.6328C20.4414 11.6328 20.8892 12.0806 20.8892 12.6328L20.8892 21.0034C20.8892 21.5557 20.4414 22.0034 19.8892 22.0034L14.5386 22.0034Z" clip-rule="evenodd" fill="" fill-opacity="1.000000" fill-rule="evenodd"/>
		</mask>
		<path id="交集" d="M14.5386 22.0034L10.3228 14.7012C10.5874 14.623 10.8354 14.4902 11.0493 14.3091L13.6514 12.1064C14.0127 11.8008 14.4702 11.6328 14.9434 11.6328L19.8892 11.6328C20.4414 11.6328 20.8892 12.0806 20.8892 12.6328L20.8892 21.0034C20.8892 21.5557 20.4414 22.0034 19.8892 22.0034L14.5386 22.0034Z" clip-rule="evenodd" fill="url(#paint_linear_158_68618_0)" fill-opacity="1.000000" fill-rule="evenodd" mask="url(#mask_158_68618)"/>
		<path id="交集" d="" fill="#000000" fill-opacity="0.000000" fill-rule="nonzero"/>
	</g>
</svg>
