<svg width="40.000000" height="40.000000" viewBox="0 0 40 40" fill="none" xmlns="http://www.w3.org/2000/svg" xmlns:xlink="http://www.w3.org/1999/xlink">
<desc>
			Created with Pixso.
	</desc>
	<defs>
		<linearGradient x1="20.000000" y1="5.000000" x2="20.000000" y2="35.000000" id="paint_linear_241_78115_0" gradientUnits="userSpaceOnUse">
			<stop stop-color="#910000"/>
			<stop offset="1.000000" stop-color="#B33333"/>
		</linearGradient>
		<linearGradient x1="27.500000" y1="5.000000" x2="27.500000" y2="35.000000" id="paint_linear_241_78120_0" gradientUnits="userSpaceOnUse">
			<stop stop-color="#FF7F7F"/>
			<stop offset="1.000000" stop-color="#CA4A4A"/>
		</linearGradient>
	</defs>
	<rect id="矩形" width="40.000000" height="40.000000" fill="#D8D8D8" fill-opacity="0"/>
	<rect id="矩形" x="0.500000" y="0.500000" width="39.000000" height="39.000000" stroke="#979797" stroke-opacity="0" stroke-width="1.000000"/>
	<mask id="mask_241_78115" fill="white">
		<path id="形状结合" d="M5 20C5 11.7158 11.7158 5 20 5C28.2842 5 35 11.7158 35 20C35 28.2842 28.2842 35 20 35C11.7158 35 5 28.2842 5 20ZM20.5 10C19.6714 10 19 10.6714 19 11.5L19 23.5C19 24.3286 19.6714 25 20.5 25C21.3286 25 22 24.3286 22 23.5L22 11.5C22 10.6714 21.3286 10 20.5 10ZM21.5498 28.4502C22.1499 29.0498 22.1499 29.9502 21.5498 30.5498C20.9502 31.1499 20.0498 31.1499 19.4502 30.5498C18.8501 29.9502 18.8501 29.0498 19.4502 28.4502C20.0498 27.8501 20.9502 27.8501 21.5498 28.4502Z" clip-rule="evenodd" fill="" fill-opacity="1.000000" fill-rule="evenodd"/>
	</mask>
	<path id="形状结合" d="M5 20C5 11.7158 11.7158 5 20 5C28.2842 5 35 11.7158 35 20C35 28.2842 28.2842 35 20 35C11.7158 35 5 28.2842 5 20ZM20.5 10C19.6714 10 19 10.6714 19 11.5L19 23.5C19 24.3286 19.6714 25 20.5 25C21.3286 25 22 24.3286 22 23.5L22 11.5C22 10.6714 21.3286 10 20.5 10ZM21.5498 28.4502C22.1499 29.0498 22.1499 29.9502 21.5498 30.5498C20.9502 31.1499 20.0498 31.1499 19.4502 30.5498C18.8501 29.9502 18.8501 29.0498 19.4502 28.4502C20.0498 27.8501 20.9502 27.8501 21.5498 28.4502Z" clip-rule="evenodd" fill="url(#paint_linear_241_78115_0)" fill-opacity="1.000000" fill-rule="evenodd" mask="url(#mask_241_78115)"/>
	<path id="形状结合" d="" clip-rule="evenodd" fill="#979797" fill-opacity="0.000000" fill-rule="evenodd"/>
	<mask id="mask_241_78120" fill="white">
		<path id="形状结合" d="M35 20C35 28.2842 28.2842 35 20 35L20 30.9087C20.522 31.1045 21.1147 30.9854 21.5498 30.5498C22.1499 29.9502 22.1499 29.0498 21.5498 28.4502C21.1147 28.0146 20.522 27.8955 20 28.0913L20 24.9146C20.1562 24.9697 20.3247 25 20.5 25C21.3286 25 22 24.3286 22 23.5L22 11.5C22 10.6714 21.3286 10 20.5 10C20.3247 10 20.1562 10.0303 20 10.0854L20 5C28.2842 5 35 11.7158 35 20Z" clip-rule="evenodd" fill="" fill-opacity="1.000000" fill-rule="evenodd"/>
	</mask>
	<path id="形状结合" d="M35 20C35 28.2842 28.2842 35 20 35L20 30.9087C20.522 31.1045 21.1147 30.9854 21.5498 30.5498C22.1499 29.9502 22.1499 29.0498 21.5498 28.4502C21.1147 28.0146 20.522 27.8955 20 28.0913L20 24.9146C20.1562 24.9697 20.3247 25 20.5 25C21.3286 25 22 24.3286 22 23.5L22 11.5C22 10.6714 21.3286 10 20.5 10C20.3247 10 20.1562 10.0303 20 10.0854L20 5C28.2842 5 35 11.7158 35 20Z" clip-rule="evenodd" fill="url(#paint_linear_241_78120_0)" fill-opacity="1.000000" fill-rule="evenodd" mask="url(#mask_241_78120)"/>
	<path id="形状结合" d="" clip-rule="evenodd" fill="#979797" fill-opacity="0.000000" fill-rule="evenodd"/>
</svg>
