<?xml version="1.0" encoding="UTF-8"?>
<svg width="36px" height="37px" viewBox="0 0 36 37" version="1.1" xmlns="http://www.w3.org/2000/svg" xmlns:xlink="http://www.w3.org/1999/xlink">
    <title>编组 15</title>
    <defs>
        <radialGradient cx="61.8619465%" cy="11.8784791%" fx="61.8619465%" fy="11.8784791%" r="97.2056789%" gradientTransform="translate(0.618619,0.118785),scale(0.753409,1.000000),translate(-0.618619,-0.118785)" id="radialGradient-1">
            <stop stop-color="#F7BFA4" offset="0%"></stop>
            <stop stop-color="#E60012" offset="43%"></stop>
            <stop stop-color="#A00000" offset="100%"></stop>
        </radialGradient>
    </defs>
    <g id="主页面" stroke="none" stroke-width="1" fill="none" fill-rule="evenodd">
        <g id="编组-15" fill-rule="nonzero">
            <g id="编组" transform="translate(0.000000, 29.920673)" fill="#FFFFFF">
                <polygon id="路径" points="3.96865385 2.41875 1.25913462 2.41875 1.25913462 0.03375 0.0597115385 0.03375 0.0597115385 5.94692308 1.25913462 5.94692308 1.25913462 3.54548077 3.96865385 3.54548077 3.96865385 5.94692308 5.16807692 5.94692308 5.16807692 0.03375 3.96865385 0.03375"></polygon>
                <path d="M10.7273077,3.41826923 C10.7273077,4.37971154 10.2496154,4.89288462 9.38336538,4.89288462 C8.51105769,4.89288462 8.03163462,4.365 8.03163462,3.37673077 L8.03163462,0.0363461538 L6.83221154,0.0363461538 L6.83221154,3.41740385 C6.83221154,5.08067308 7.75644231,6.03519231 9.36778846,6.03519231 C10.9947115,6.03519231 11.9275962,5.06336538 11.9275962,3.36894231 L11.9275962,0.0328846154 L10.7281731,0.0328846154 L10.7281731,3.41826923 L10.7273077,3.41826923 Z" id="路径"></path>
                <polygon id="路径" points="24.5942308 4.09932692 23.2520192 0.0328846154 22.2724038 0.0328846154 20.9301923 4.09932692 19.6234615 0.0363461538 18.3470192 0.0363461538 20.4075 5.94692308 21.4009615 5.94692308 22.7457692 2.06394231 24.0905769 5.94692308 25.0918269 5.94692308 27.1479808 0.0363461538 25.9035577 0.0363461538"></polygon>
                <polygon id="路径" points="29.2984615 3.40182692 31.4809615 3.40182692 31.4809615 2.32528846 29.2984615 2.32528846 29.2984615 1.11461538 32.4666346 1.11461538 32.4666346 0.0372115385 28.1154808 0.0372115385 28.1154808 5.94346154 32.5808654 5.94346154 32.5808654 4.86605769 29.2984615 4.86605769"></polygon>
                <rect id="矩形" x="34.0113462" y="0.0328846154" width="1.18384615" height="5.90538462"></rect>
                <path d="M17.0048077,4.71288462 L17.5361538,5.94346154 L18.7935577,5.94346154 L16.1991346,0.03375 L15.1407692,0.03375 L12.5359615,5.94346154 L13.7604808,5.94346154 L14.29875,4.71288462 L17.0048077,4.71288462 Z M15.64875,1.53 L16.5591346,3.64673077 L14.7452885,3.64673077 L15.64875,1.53 Z" id="形状"></path>
            </g>
            <path d="M32.6509615,10.4988462 C32.8456731,7.47086538 29.7986538,4.66961538 29.7986538,4.66961538 C29.7986538,4.66961538 24.1476923,11.5139423 20.0293269,20.5035577 C20.0076923,20.5502885 19.9999038,20.6299038 20.0483654,20.6705769 C20.0821154,20.6991346 20.1435577,20.7173077 20.2067308,20.6861538 C21.7505769,19.9202885 28.1674038,16.6145192 30.8708654,14.0365385 C30.8708654,14.0365385 32.5618269,12.67875 32.6509615,10.4988462 Z M25.4475,3.66836538 C25.4475,3.66836538 24.7404808,1.03067308 21.8743269,0.333173077 C21.8743269,0.333173077 21.04875,0.12375 20.17125,0 C20.17125,0 16.9675962,4.12528846 18.5244231,19.6900962 C18.5322115,19.7714423 18.5763462,19.8008654 18.6135577,19.8103846 C18.6715385,19.8259615 18.7277885,19.8051923 18.7667308,19.7498077 C19.7939423,18.2656731 24.4782692,11.3209615 25.4301923,7.09701923 C25.4301923,7.09701923 25.9459615,5.05298077 25.4475,3.66836538 Z M21.0548077,22.8859615 C21.0375,22.9197115 21.0227885,23.0045192 21.0876923,23.05125 C22.1218269,23.79375 25.2597115,25.9875 26.7715385,26.4132692 C26.7715385,26.4132692 29.5667308,27.3660577 31.995,23.1949038 C31.995,23.1949038 23.8707692,22.9119231 21.1690385,22.8175962 C21.1318269,22.8158654 21.0764423,22.8426923 21.0548077,22.8859615 Z M34.8732692,13.6332692 C34.8732692,13.6332692 25.6811538,18.5694231 20.9301923,21.7704808 C20.8955769,21.7938462 20.8514423,21.8405769 20.8748077,21.92625 C20.8869231,21.97125 20.9301923,22.0119231 20.9873077,22.0119231 C22.6886538,22.0145192 29.1297115,22.0223077 29.2915385,21.9920192 C29.2915385,21.9920192 30.1240385,21.9591346 31.1538462,21.5636538 C31.1538462,21.5636538 33.4445192,20.835 34.6344231,18.2336538 C34.6335577,18.2345192 35.6945192,16.1125962 34.8732692,13.6332692 Z M14.2572115,21.7713462 C9.50538462,18.5694231 0.314134615,13.6341346 0.314134615,13.6341346 C-0.507115385,16.1125962 0.553846154,18.2353846 0.553846154,18.2353846 C1.74375,20.8367308 4.03442308,21.5653846 4.03442308,21.5653846 C5.06336538,21.9608654 5.89673077,21.99375 5.89673077,21.99375 C6.05855769,22.0240385 12.4996154,22.01625 14.2009615,22.0136538 C14.2580769,22.0136538 14.3004808,21.9729808 14.3134615,21.9279808 C14.3368269,21.8414423 14.2918269,21.7947115 14.2572115,21.7713462 Z M14.0183654,22.8175962 C11.3175,22.9119231 3.19240385,23.1949038 3.19240385,23.1949038 C5.62067308,27.3660577 8.41586538,26.4132692 8.41586538,26.4132692 C9.92769231,25.9875 13.0655769,23.7928846 14.0997115,23.05125 C14.1654808,23.0045192 14.1499038,22.9205769 14.1325962,22.8859615 C14.1100962,22.8426923 14.0555769,22.8158654 14.0183654,22.8175962 Z M13.3130769,0.332307692 C10.4469231,1.02980769 9.73990385,3.6675 9.73990385,3.6675 C9.24144231,5.05211538 9.75721154,7.09701923 9.75721154,7.09701923 C10.7082692,11.3200962 15.3934615,18.2648077 16.4206731,19.7498077 C16.45875,19.8043269 16.515,19.8259615 16.5738462,19.8103846 C16.6110577,19.8008654 16.6551923,19.7714423 16.6629808,19.6900962 C18.2206731,4.12528846 15.0161538,2.84217094e-14 15.0161538,2.84217094e-14 C14.1386538,0.12375 13.3130769,0.332307692 13.3130769,0.332307692 Z M5.38875,4.66961538 C5.38875,4.66961538 2.34086538,7.47173077 2.53644231,10.4988462 C2.62557692,12.67875 4.31653846,14.0365385 4.31653846,14.0365385 C7.02,16.6145192 13.4376923,19.9202885 14.9806731,20.6861538 C15.0438462,20.7173077 15.1052885,20.6982692 15.1390385,20.6705769 C15.1875,20.6290385 15.1797115,20.5502885 15.1580769,20.5035577 C11.0397115,11.5139423 5.38875,4.66961538 5.38875,4.66961538 Z" id="形状" fill="url(#radialGradient-1)"></path>
        </g>
    </g>
</svg>