<?xml version="1.0" encoding="UTF-8"?>
<svg width="70px" height="70px" viewBox="0 0 70 70" version="1.1" xmlns="http://www.w3.org/2000/svg" xmlns:xlink="http://www.w3.org/1999/xlink">
    <title>编组 26</title>
    <defs>
        <linearGradient x1="50.0079507%" y1="99.982815%" x2="50.0079507%" y2="0%" id="linearGradient-1">
            <stop stop-color="#313B4E" offset="0%"></stop>
            <stop stop-color="#5E6676" stop-opacity="0" offset="100%"></stop>
        </linearGradient>
        <linearGradient x1="-867.948552%" y1="66.778747%" x2="-866.358411%" y2="33.2246979%" id="linearGradient-2">
            <stop stop-color="#313B4E" offset="0%"></stop>
            <stop stop-color="#5E6676" stop-opacity="0" offset="100%"></stop>
        </linearGradient>
        <linearGradient x1="-0.0286697248%" y1="50.0091003%" x2="100%" y2="50.0091003%" id="linearGradient-3">
            <stop stop-color="#3C4658" offset="0%"></stop>
            <stop stop-color="#5E6676" offset="100%"></stop>
        </linearGradient>
        <linearGradient x1="-0.0286697248%" y1="50.0091003%" x2="99.9713303%" y2="50.0091003%" id="linearGradient-4">
            <stop stop-color="#3C4658" offset="0%"></stop>
            <stop stop-color="#5E6676" offset="100%"></stop>
        </linearGradient>
        <linearGradient x1="-0.0458295142%" y1="50.0242507%" x2="99.9541705%" y2="50.0242507%" id="linearGradient-5">
            <stop stop-color="#7BD6EA" offset="0%"></stop>
            <stop stop-color="#65A5E7" offset="53%"></stop>
            <stop stop-color="#557FE5" offset="100%"></stop>
        </linearGradient>
        <linearGradient x1="31.154745%" y1="1.95573539%" x2="73.7252935%" y2="89.0135491%" id="linearGradient-6">
            <stop stop-color="#FFFFFF" stop-opacity="0" offset="0%"></stop>
            <stop stop-color="#FFFFFF" stop-opacity="0.6" offset="55%"></stop>
            <stop stop-color="#FFFFFF" stop-opacity="0" offset="100%"></stop>
        </linearGradient>
        <linearGradient x1="1.03000532e-12%" y1="50.1094092%" x2="99.9320498%" y2="50.1094092%" id="linearGradient-7">
            <stop stop-color="#0090FF" offset="0%"></stop>
            <stop stop-color="#00AAFC" offset="19%"></stop>
            <stop stop-color="#00D8F7" offset="56%"></stop>
            <stop stop-color="#00F4F5" offset="84%"></stop>
            <stop stop-color="#00FFF4" offset="100%"></stop>
        </linearGradient>
        <linearGradient x1="-1.19156737%" y1="50.0242507%" x2="101.099908%" y2="50.0242507%" id="linearGradient-8">
            <stop stop-color="#FFFFFF" stop-opacity="0.2" offset="0%"></stop>
            <stop stop-color="#FFFFFF" stop-opacity="0" offset="100%"></stop>
        </linearGradient>
        <filter x="-12.5%" y="-75.0%" width="125.0%" height="250.0%" filterUnits="objectBoundingBox" id="filter-9">
            <feGaussianBlur stdDeviation="1" in="SourceGraphic"></feGaussianBlur>
        </filter>
    </defs>
    <g id="页面-1" stroke="none" stroke-width="1" fill="none" fill-rule="evenodd">
        <g id="首页_License和空页面" transform="translate(-551.000000, -897.000000)">
            <g id="编组-26" transform="translate(551.000000, 897.000000)">
                <g id="编组-25" transform="translate(4.000000, 3.000000)">
                    <g id="编组" opacity="0.4" transform="translate(0.000000, 25.000000)" fill="url(#linearGradient-1)" fill-rule="nonzero">
                        <path d="M62.2687557,17.35 C63.0887557,17.82 63.0987557,18.6 62.2687557,19.07 L33.0287557,36.07 C32.2087557,36.55 30.8787557,36.54 30.0587557,36.07 L0.618755682,19.08 C-0.201244318,18.6 -0.211244318,17.83 0.618755682,17.36 L29.8587557,0.36 C30.6787557,-0.12 32.0087557,-0.12 32.8287557,0.36 L62.2687557,17.35 Z" id="路径"></path>
                    </g>
                    <g id="编组" opacity="0.2" transform="translate(0.000000, 28.000000)" fill="url(#linearGradient-2)" fill-rule="nonzero">
                        <path d="M62.2687557,17.35 C63.0887557,17.82 63.0987557,18.6 62.2687557,19.07 L33.0287557,36.07 C32.2087557,36.55 30.8787557,36.54 30.0587557,36.07 L0.618755682,19.08 C-0.201244318,18.6 -0.211244318,17.83 0.618755682,17.36 L29.8587557,0.36 C30.6787557,-0.12 32.0087557,-0.12 32.8287557,0.36 L62.2687557,17.35 Z" id="路径"></path>
                    </g>
                    <g id="编组-24" transform="translate(13.000000, 0.000000)">
                        <path d="M34.87,7.0375 L34.87,7.0375 C34.87,6.2275 34.22,5.5675 33.41,5.5575 L31.83,5.5375 L31.83,5.5375 C29.54,5.4075 27.28,4.9175 25.15,4.0875 C21.58,2.6475 19.3,0.9975 19.28,0.9775 L18.31,0.2775 C17.79,-0.0925 17.09,-0.0925 16.57,0.2775 L15.62,0.9675 C15.53,1.0375 13.31,2.6375 9.74,4.0875 C7.61,4.9375 5.34,5.4275 3.05,5.5375 L1.46,5.5575 C0.65,5.5675 0,6.2275 0,7.0375 L0,23.1275 C0,27.1575 2.31,31.6775 6.34,35.5275 C8.08,37.1875 10.01,38.5975 11.94,39.6075 C13.94,40.6575 15.84,41.2075 17.44,41.2075 C19.04,41.2075 20.95,40.6475 22.98,39.5775 C25.01,38.4875 26.88,37.1175 28.54,35.5175 C30.31,33.8575 31.81,31.9375 32.99,29.8275 C34.25,27.5275 34.88,25.2775 34.88,23.1175 L34.88,7.0375 L34.88,7.0375 L34.87,7.0375 Z" id="路径" fill="url(#linearGradient-3)" fill-rule="nonzero" opacity="0.4"></path>
                        <path d="M36.73,9.8175 L36.73,9.8175 C36.73,9.0075 36.08,8.3475 35.27,8.3375 L33.69,8.3175 L33.69,8.3175 C31.4,8.1875 29.14,7.6975 27.01,6.8675 C23.44,5.4275 21.16,3.7775 21.14,3.7575 L20.17,3.0575 C19.65,2.6875 18.95,2.6875 18.43,3.0575 L17.48,3.7475 C17.39,3.8175 15.17,5.4175 11.6,6.8675 C9.47,7.7175 7.2,8.2075 4.91,8.3175 L3.32,8.3375 C2.51,8.3475 1.86,9.0075 1.86,9.8175 L1.86,25.9075 C1.86,29.9375 4.17,34.4575 8.2,38.3075 C9.94,39.9675 11.87,41.3775 13.8,42.3875 C15.8,43.4375 17.7,43.9875 19.3,43.9875 C20.9,43.9875 22.81,43.4275 24.84,42.3575 C26.87,41.2675 28.74,39.8975 30.4,38.2975 C32.17,36.6375 33.67,34.7175 34.85,32.6075 C36.11,30.3075 36.74,28.0575 36.74,25.8975 L36.74,9.8175 L36.74,9.8175 L36.73,9.8175 Z" id="路径" fill="url(#linearGradient-4)" fill-rule="nonzero"></path>
                        <path d="M30.2,14.8975 L30.2,14.8975 C30.2,14.3875 29.79,13.9775 29.29,13.9675 L28.3,13.9675 C26.87,13.8775 25.46,13.5675 24.12,13.0475 C21.89,12.1475 20.46,11.1175 20.45,11.1075 L19.84,10.6675 C19.52,10.4375 19.08,10.4375 18.75,10.6675 L18.16,11.0975 C18.1,11.1375 16.71,12.1375 14.48,13.0475 C13.14,13.5775 11.73,13.8875 10.29,13.9575 L9.3,13.9575 C8.79,13.9775 8.39,14.3875 8.39,14.8975 L8.39,24.9575 C8.39,27.4775 9.83,30.3075 12.36,32.7175 C13.45,33.7575 14.66,34.6375 15.86,35.2675 C17.11,35.9275 18.3,36.2675 19.3,36.2675 C20.3,36.2675 21.49,35.9175 22.76,35.2475 C24.03,34.5675 25.2,33.7075 26.24,32.7075 C27.34,31.6675 28.28,30.4675 29.03,29.1475 C29.82,27.7075 30.21,26.2975 30.21,24.9475 L30.21,14.8875 L30.21,14.8875 L30.2,14.8975 Z" id="路径" fill="url(#linearGradient-5)" fill-rule="nonzero" opacity="0.2"></path>
                        <path d="M36.54,9.9675 L36.54,9.9675 C36.54,9.1675 35.9,8.5175 35.1,8.4975 L33.54,8.4775 L33.54,8.4775 C31.27,8.3575 29.04,7.8675 26.93,7.0375 C23.4,5.6075 21.14,3.9775 21.13,3.9675 L20.17,3.2775 C19.66,2.9075 18.96,2.9075 18.45,3.2775 L17.51,3.9575 C17.42,4.0275 15.22,5.6075 11.7,7.0375 C9.59,7.8775 7.35,8.3675 5.08,8.4775 L3.51,8.4975 C2.71,8.5075 2.07,9.1575 2.07,9.9675 L2.07,25.8775 C2.07,29.8675 4.35,34.3375 8.35,38.1475 C10.07,39.7875 11.98,41.1875 13.89,42.1875 C15.87,43.2275 17.75,43.7775 19.34,43.7775 C20.93,43.7775 22.81,43.2175 24.82,42.1675 C26.83,41.0875 28.68,39.7375 30.32,38.1475 C32.07,36.5075 33.55,34.6075 34.73,32.5175 C35.97,30.2475 36.6,28.0175 36.6,25.8775 L36.6,9.9675 L36.6,9.9675 L36.54,9.9675 Z" id="路径" stroke="url(#linearGradient-6)" opacity="0.5"></path>
                        <path d="M24.8,20.4575 C24.47,20.1275 23.94,20.1275 23.61,20.4575 L17.88,26.1875 L15.44,23.7475 C15.11,23.4175 14.58,23.4175 14.25,23.7475 C13.93,24.0775 13.93,24.6075 14.25,24.9375 L17.28,27.9675 C17.61,28.2875 18.14,28.2875 18.47,27.9675 L24.8,21.6375 C25.13,21.3075 25.13,20.7775 24.8,20.4475 L24.8,20.4475 L24.8,20.4575 Z" id="路径" fill="url(#linearGradient-7)" fill-rule="nonzero"></path>
                        <path d="M30.2,14.8975 L30.2,14.8975 C30.2,14.3875 29.79,13.9775 29.29,13.9675 L28.3,13.9675 C26.87,13.8775 25.46,13.5675 24.12,13.0475 C21.89,12.1475 20.46,11.1175 20.45,11.1075 L19.84,10.6675 C19.52,10.4375 19.08,10.4375 18.75,10.6675 L18.16,11.0975 C18.1,11.1375 16.71,12.1375 14.48,13.0475 C13.14,13.5775 11.73,13.8875 10.29,13.9575 L9.3,13.9575 C8.79,13.9775 8.39,14.3875 8.39,14.8975 L8.39,24.9575 C8.39,27.4775 9.83,30.3075 12.36,32.7175 C13.45,33.7575 14.66,34.6375 15.86,35.2675 C17.11,35.9275 18.3,36.2675 19.3,36.2675 C20.3,36.2675 21.49,35.9175 22.76,35.2475 C24.03,34.5675 25.2,33.7075 26.24,32.7075 C27.34,31.6675 28.28,30.4675 29.03,29.1475 C29.82,27.7075 30.21,26.2975 30.21,24.9475 L30.21,14.8875 L30.21,14.8875 L30.2,14.8975 Z" id="路径" stroke="url(#linearGradient-8)" stroke-width="0.5" opacity="0.5"></path>
                    </g>
                    <rect id="矩形" fill="#191919" opacity="0.340511504" filter="url(#filter-9)" x="19" y="45" width="24" height="4"></rect>
                </g>
                <rect id="矩形" x="0" y="0" width="70" height="70"></rect>
            </g>
        </g>
    </g>
</svg>