<?xml version="1.0" encoding="UTF-8"?>
<svg width="110px" height="115px" viewBox="0 0 110 115" version="1.1" xmlns="http://www.w3.org/2000/svg" xmlns:xlink="http://www.w3.org/1999/xlink">
    <title>编组 22</title>
    <defs>
        <filter x="-9.6%" y="-52.3%" width="119.1%" height="204.5%" filterUnits="objectBoundingBox" id="filter-1">
            <feGaussianBlur stdDeviation="2" in="SourceGraphic"></feGaussianBlur>
        </filter>
        <linearGradient x1="0.0159235669%" y1="49.9491353%" x2="100%" y2="49.9491353%" id="linearGradient-2">
            <stop stop-color="#1B2431" offset="0%"></stop>
            <stop stop-color="#515A74" offset="40%"></stop>
            <stop stop-color="#646F8E" offset="52%"></stop>
            <stop stop-color="#505974" offset="64%"></stop>
            <stop stop-color="#1B2431" offset="100%"></stop>
        </linearGradient>
        <linearGradient x1="0.0159235669%" y1="50%" x2="100%" y2="50%" id="linearGradient-3">
            <stop stop-color="#313B48" offset="0%"></stop>
            <stop stop-color="#5F6676" offset="60%"></stop>
            <stop stop-color="#787E8A" offset="100%"></stop>
        </linearGradient>
        <linearGradient x1="0.0159235669%" y1="50%" x2="100%" y2="50%" id="linearGradient-4">
            <stop stop-color="#00DFFF" offset="0%"></stop>
            <stop stop-color="#02DCED" stop-opacity="0.87" offset="4%"></stop>
            <stop stop-color="#07D7CE" stop-opacity="0.64" offset="12%"></stop>
            <stop stop-color="#0CD3B2" stop-opacity="0.45" offset="20%"></stop>
            <stop stop-color="#0FD09C" stop-opacity="0.29" offset="28%"></stop>
            <stop stop-color="#12CD8B" stop-opacity="0.16" offset="36%"></stop>
            <stop stop-color="#14CB7E" stop-opacity="0.07" offset="43%"></stop>
            <stop stop-color="#15CA77" stop-opacity="0.02" offset="50%"></stop>
            <stop stop-color="#16CA75" stop-opacity="0" offset="56%"></stop>
            <stop stop-color="#15C976" stop-opacity="0.02" offset="62%"></stop>
            <stop stop-color="#14C87B" stop-opacity="0.07" offset="68%"></stop>
            <stop stop-color="#12C684" stop-opacity="0.15" offset="74%"></stop>
            <stop stop-color="#10C391" stop-opacity="0.27" offset="80%"></stop>
            <stop stop-color="#0CC0A0" stop-opacity="0.43" offset="86%"></stop>
            <stop stop-color="#08BBB4" stop-opacity="0.62" offset="91%"></stop>
            <stop stop-color="#03B6CA" stop-opacity="0.83" offset="96%"></stop>
            <stop stop-color="#00B3DC" offset="100%"></stop>
        </linearGradient>
        <linearGradient x1="50%" y1="99.9873705%" x2="50%" y2="0%" id="linearGradient-5">
            <stop stop-color="#FFFFFF" stop-opacity="0.1" offset="0%"></stop>
            <stop stop-color="#FFFFFF" stop-opacity="0.15" offset="2%"></stop>
            <stop stop-color="#FFFFFF" stop-opacity="0.31" offset="10%"></stop>
            <stop stop-color="#FFFFFF" stop-opacity="0.44" offset="17%"></stop>
            <stop stop-color="#FFFFFF" stop-opacity="0.53" offset="24%"></stop>
            <stop stop-color="#FFFFFF" stop-opacity="0.58" offset="31%"></stop>
            <stop stop-color="#FFFFFF" stop-opacity="0.6" offset="37%"></stop>
            <stop stop-color="#FFFFFF" stop-opacity="0.55" offset="41%"></stop>
            <stop stop-color="#FFFFFF" stop-opacity="0.39" offset="54%"></stop>
            <stop stop-color="#FFFFFF" stop-opacity="0.26" offset="66%"></stop>
            <stop stop-color="#FFFFFF" stop-opacity="0.17" offset="79%"></stop>
            <stop stop-color="#FFFFFF" stop-opacity="0.12" offset="90%"></stop>
            <stop stop-color="#FFFFFF" stop-opacity="0.1" offset="100%"></stop>
        </linearGradient>
        <linearGradient x1="49.8360656%" y1="100%" x2="49.8360656%" y2="0%" id="linearGradient-6">
            <stop stop-color="#FFFFFF" stop-opacity="0.1" offset="0%"></stop>
            <stop stop-color="#FFFFFF" stop-opacity="0.15" offset="2%"></stop>
            <stop stop-color="#FFFFFF" stop-opacity="0.31" offset="10%"></stop>
            <stop stop-color="#FFFFFF" stop-opacity="0.44" offset="17%"></stop>
            <stop stop-color="#FFFFFF" stop-opacity="0.53" offset="24%"></stop>
            <stop stop-color="#FFFFFF" stop-opacity="0.58" offset="31%"></stop>
            <stop stop-color="#FFFFFF" stop-opacity="0.6" offset="37%"></stop>
            <stop stop-color="#FFFFFF" stop-opacity="0.55" offset="41%"></stop>
            <stop stop-color="#FFFFFF" stop-opacity="0.39" offset="54%"></stop>
            <stop stop-color="#FFFFFF" stop-opacity="0.26" offset="66%"></stop>
            <stop stop-color="#FFFFFF" stop-opacity="0.17" offset="79%"></stop>
            <stop stop-color="#FFFFFF" stop-opacity="0.12" offset="90%"></stop>
            <stop stop-color="#FFFFFF" stop-opacity="0.1" offset="100%"></stop>
        </linearGradient>
        <linearGradient x1="50.2463054%" y1="100%" x2="50.2463054%" y2="-0.011786893%" id="linearGradient-7">
            <stop stop-color="#FFFFFF" stop-opacity="0.1" offset="0%"></stop>
            <stop stop-color="#FFFFFF" stop-opacity="0.15" offset="2%"></stop>
            <stop stop-color="#FFFFFF" stop-opacity="0.31" offset="10%"></stop>
            <stop stop-color="#FFFFFF" stop-opacity="0.44" offset="17%"></stop>
            <stop stop-color="#FFFFFF" stop-opacity="0.53" offset="24%"></stop>
            <stop stop-color="#FFFFFF" stop-opacity="0.58" offset="31%"></stop>
            <stop stop-color="#FFFFFF" stop-opacity="0.6" offset="37%"></stop>
            <stop stop-color="#FFFFFF" stop-opacity="0.55" offset="41%"></stop>
            <stop stop-color="#FFFFFF" stop-opacity="0.39" offset="54%"></stop>
            <stop stop-color="#FFFFFF" stop-opacity="0.26" offset="66%"></stop>
            <stop stop-color="#FFFFFF" stop-opacity="0.17" offset="79%"></stop>
            <stop stop-color="#FFFFFF" stop-opacity="0.12" offset="90%"></stop>
            <stop stop-color="#FFFFFF" stop-opacity="0.1" offset="100%"></stop>
        </linearGradient>
        <linearGradient x1="50%" y1="100%" x2="50%" y2="0%" id="linearGradient-8">
            <stop stop-color="#FFFFFF" stop-opacity="0.1" offset="0%"></stop>
            <stop stop-color="#FFFFFF" stop-opacity="0.15" offset="2%"></stop>
            <stop stop-color="#FFFFFF" stop-opacity="0.31" offset="10%"></stop>
            <stop stop-color="#FFFFFF" stop-opacity="0.44" offset="17%"></stop>
            <stop stop-color="#FFFFFF" stop-opacity="0.53" offset="24%"></stop>
            <stop stop-color="#FFFFFF" stop-opacity="0.58" offset="31%"></stop>
            <stop stop-color="#FFFFFF" stop-opacity="0.6" offset="37%"></stop>
            <stop stop-color="#FFFFFF" stop-opacity="0.55" offset="41%"></stop>
            <stop stop-color="#FFFFFF" stop-opacity="0.39" offset="54%"></stop>
            <stop stop-color="#FFFFFF" stop-opacity="0.26" offset="66%"></stop>
            <stop stop-color="#FFFFFF" stop-opacity="0.17" offset="79%"></stop>
            <stop stop-color="#FFFFFF" stop-opacity="0.12" offset="90%"></stop>
            <stop stop-color="#FFFFFF" stop-opacity="0.1" offset="100%"></stop>
        </linearGradient>
        <linearGradient x1="0%" y1="49.9882959%" x2="99.9481597%" y2="49.9882959%" id="linearGradient-9">
            <stop stop-color="#4A88FC" stop-opacity="0" offset="0%"></stop>
            <stop stop-color="#4C8CF9" stop-opacity="0.03" offset="1%"></stop>
            <stop stop-color="#5297F1" stop-opacity="0.13" offset="3%"></stop>
            <stop stop-color="#5CA9E4" stop-opacity="0.28" offset="5%"></stop>
            <stop stop-color="#6AC2D2" stop-opacity="0.49" offset="8%"></stop>
            <stop stop-color="#7CE2BC" stop-opacity="0.76" offset="11%"></stop>
            <stop stop-color="#8CFFA8" offset="14%"></stop>
            <stop stop-color="#75D5C5" stop-opacity="0.65" offset="40%"></stop>
            <stop stop-color="#5EACE2" stop-opacity="0.3" offset="68%"></stop>
            <stop stop-color="#4F92F4" stop-opacity="0.08" offset="88%"></stop>
            <stop stop-color="#4A88FC" stop-opacity="0" offset="98%"></stop>
        </linearGradient>
        <linearGradient x1="0.0159235669%" y1="50%" x2="100%" y2="50%" id="linearGradient-10">
            <stop stop-color="#51D04F" offset="0%"></stop>
            <stop stop-color="#35C77A" stop-opacity="0.97" offset="10%"></stop>
            <stop stop-color="#1EC09F" stop-opacity="0.94" offset="20%"></stop>
            <stop stop-color="#0DBBBB" stop-opacity="0.92" offset="30%"></stop>
            <stop stop-color="#03B8CB" stop-opacity="0.9" offset="39%"></stop>
            <stop stop-color="#00B7D1" stop-opacity="0.9" offset="47%"></stop>
            <stop stop-color="#02B7CC" stop-opacity="0.9" offset="58%"></stop>
            <stop stop-color="#0ABABF" stop-opacity="0.91" offset="68%"></stop>
            <stop stop-color="#18BEA9" stop-opacity="0.93" offset="78%"></stop>
            <stop stop-color="#2CC489" stop-opacity="0.95" offset="87%"></stop>
            <stop stop-color="#45CC61" stop-opacity="0.99" offset="96%"></stop>
            <stop stop-color="#51D04F" offset="100%"></stop>
        </linearGradient>
        <linearGradient x1="0%" y1="50%" x2="100%" y2="50%" id="linearGradient-11">
            <stop stop-color="#00AFDD" offset="0%"></stop>
            <stop stop-color="#7FCE56" offset="100%"></stop>
        </linearGradient>
        <linearGradient x1="100.017864%" y1="50.1650165%" x2="-60.1822079%" y2="50.1650165%" id="linearGradient-12">
            <stop stop-color="#FFFFFF" stop-opacity="0.2" offset="0%"></stop>
            <stop stop-color="#D1ECFF" stop-opacity="0.34" offset="13%"></stop>
            <stop stop-color="#5FBDFF" stop-opacity="0.7" offset="42%"></stop>
            <stop stop-color="#0096FF" offset="65%"></stop>
            <stop stop-color="#5BBBFF" stop-opacity="0.64" offset="76%"></stop>
            <stop stop-color="#B2DFFF" stop-opacity="0.3" offset="88%"></stop>
            <stop stop-color="#E9F6FF" stop-opacity="0.08" offset="96%"></stop>
            <stop stop-color="#FFFFFF" stop-opacity="0" offset="100%"></stop>
        </linearGradient>
        <linearGradient x1="0%" y1="50%" x2="100%" y2="50%" id="linearGradient-13">
            <stop stop-color="#00AFDD" offset="0%"></stop>
            <stop stop-color="#00B1D3" offset="18%"></stop>
            <stop stop-color="#00B8B8" offset="49%"></stop>
            <stop stop-color="#00C48E" offset="89%"></stop>
            <stop stop-color="#00C881" offset="100%"></stop>
        </linearGradient>
        <linearGradient x1="0.0159235669%" y1="49.9491353%" x2="100%" y2="49.9491353%" id="linearGradient-14">
            <stop stop-color="#27313E" offset="0%"></stop>
            <stop stop-color="#2A3542" offset="12%"></stop>
            <stop stop-color="#36414F" offset="26%"></stop>
            <stop stop-color="#495466" offset="41%"></stop>
            <stop stop-color="#586477" offset="49%"></stop>
            <stop stop-color="#444E5D" offset="72%"></stop>
            <stop stop-color="#505867" offset="100%"></stop>
        </linearGradient>
        <linearGradient x1="100%" y1="50%" x2="0.0159235669%" y2="50%" id="linearGradient-15">
            <stop stop-color="#434A5F" offset="0%"></stop>
            <stop stop-color="#1B2431" offset="100%"></stop>
        </linearGradient>
        <linearGradient x1="100%" y1="50.0866551%" x2="0.0313381385%" y2="50.0866551%" id="linearGradient-16">
            <stop stop-color="#FFFFFF" stop-opacity="0.2" offset="0%"></stop>
            <stop stop-color="#FFFFFF" stop-opacity="0.06" offset="72%"></stop>
            <stop stop-color="#FFFFFF" stop-opacity="0" offset="100%"></stop>
        </linearGradient>
        <linearGradient x1="0.0159235669%" y1="50%" x2="100%" y2="50%" id="linearGradient-17">
            <stop stop-color="#515E7D" stop-opacity="0" offset="0%"></stop>
            <stop stop-color="#96A1BB" stop-opacity="0.6" offset="100%"></stop>
        </linearGradient>
        <linearGradient x1="-0.0542031972%" y1="50.0068726%" x2="100.008296%" y2="50.0068726%" id="linearGradient-18">
            <stop stop-color="#00AFDD" offset="0%"></stop>
            <stop stop-color="#7FCE56" offset="100%"></stop>
        </linearGradient>
        <linearGradient x1="50%" y1="18.1982737%" x2="67.0795668%" y2="-12.1541809%" id="linearGradient-19">
            <stop stop-color="#FFFFFF" stop-opacity="0" offset="0%"></stop>
            <stop stop-color="#FFFFFF" offset="100%"></stop>
        </linearGradient>
    </defs>
    <g id="页面-1" stroke="none" stroke-width="1" fill="none" fill-rule="evenodd">
        <g id="首页_License和空页面" transform="translate(-1597.000000, -860.000000)">
            <g id="编组-22" transform="translate(1597.000000, 860.000000)">
                <g id="编组-21" transform="translate(23.000000, 1.000000)" fill-rule="nonzero">
                    <ellipse id="椭圆形备份" fill="#111317" opacity="0.698486" filter="url(#filter-1)" cx="31.5" cy="102.259235" rx="31.4" ry="5.74076462"></ellipse>
                    <ellipse id="椭圆形" fill="#0071C1" cx="31.5" cy="97.6526946" rx="31.4" ry="5.74076462"></ellipse>
                    <path d="M62.9,97.6526946 C62.9,100.826532 48.84,103.393459 31.5,103.393459 C14.16,103.393459 0.1,100.826532 0.1,97.6526946 L0.1,93.6132658 L62.9,93.6132658 L62.9,97.6526946 L62.9,97.6526946 Z" id="路径" fill="url(#linearGradient-2)"></path>
                    <ellipse id="椭圆形" fill="url(#linearGradient-3)" cx="31.5" cy="93.6132658" rx="31.4" ry="5.74076462"></ellipse>
                    <path d="M62.9,9.79014279 C62.9,12.9639797 48.84,15.5309074 31.5,15.5309074 C14.16,15.5309074 0.1,12.9639797 0.1,9.79014279 L0.1,93.9813911 L0.17,93.9813911 C1.19,96.9860894 14.82,99.3540304 31.5,99.3540304 C48.84,99.3540304 62.9,96.7871027 62.9,93.6132658 L62.9,93.6132658 L62.9,9.79014279 L62.9,9.79014279 Z" id="路径" fill="url(#linearGradient-4)" opacity="0.26"></path>
                    <rect id="矩形" fill="url(#linearGradient-5)" opacity="0.2" x="46.91" y="17.2819899" width="1.02" height="78.7788116"></rect>
                    <rect id="矩形" fill="url(#linearGradient-6)" opacity="0.2" x="5.29" y="23.3411331" width="3.05" height="61.6062644"></rect>
                    <path d="M57.06,96.946292 C57.8,96.7572547 58.48,96.5582681 59.09,96.3592814 L59.09,12.5361585 C58.48,12.7450944 57.8,12.9341317 57.06,13.123169 L57.06,96.946292 Z" id="路径" fill="url(#linearGradient-7)" opacity="0.2"></path>
                    <path d="M0.21,92.9068632 C0.42,92.7277752 0.61,92.5387379 0.79,92.3397513 L0.79,12.2277292 C0.62,12.4267158 0.42,12.6157531 0.21,12.7948411 L0.21,92.9068632 Z" id="路径" fill="url(#linearGradient-8)" opacity="0.2"></path>
                    <path d="M12.4,98.1700599 C17.69,98.9162598 24.32,99.3540304 31.51,99.3540304 C31.57,99.3540304 31.63,99.3540304 31.69,99.3540304 L31.69,15.5309074 C31.63,15.5309074 31.57,15.5309074 31.51,15.5309074 C24.32,15.5309074 17.7,15.0831875 12.4,14.3469369 L12.4,98.1700599 Z" id="路径" fill="url(#linearGradient-9)" opacity="0.19"></path>
                    <ellipse id="椭圆形" fill="url(#linearGradient-10)" opacity="0.26" cx="31.5" cy="93.6132658" rx="31.4" ry="5.74076462"></ellipse>
                    <ellipse id="椭圆形" fill="url(#linearGradient-11)" opacity="0.25" cx="31.35" cy="13.5509903" rx="28" ry="5.1139567"></ellipse>
                    <path d="M59.34,13.6106863 C59.16,16.4064486 46.7,18.664947 31.35,18.664947 C16,18.664947 3.54,16.4064486 3.36,13.6106863 L3.36,13.6106863 L3.36,14.5757715 L3.36,14.5757715 C3.54,17.3814832 16,19.6300322 31.35,19.6300322 C46.7,19.6300322 59.16,17.3715339 59.34,14.5757715 L59.34,14.5757715 L59.34,13.600737 L59.34,13.600737 L59.34,13.6106863 Z" id="路径" fill="url(#linearGradient-12)" opacity="0.52"></path>
                    <path d="M59.5,13.6405343 C59.5,16.4661446 46.96,18.754491 31.5,18.754491 C16.04,18.754491 3.5,16.4661446 3.5,13.6405343 L3.5,91.702994 L3.56,91.702994 C4.47,94.3793643 16.63,96.4985721 31.5,96.4985721 C46.96,96.4985721 59.5,94.2102257 59.5,91.3846154 L59.5,91.3846154 L59.5,13.6504836 L59.5,13.6405343 Z" id="路径" fill="url(#linearGradient-13)" opacity="0.3"></path>
                    <ellipse id="椭圆形" fill="#0071C1" cx="31.5" cy="5.75071396" rx="31.4" ry="5.74076462"></ellipse>
                    <path d="M62.9,9.79014279 C62.9,12.9639797 48.84,15.5309074 31.5,15.5309074 C14.16,15.5309074 0.1,12.9639797 0.1,9.79014279 L0.1,5.75071396 L62.9,5.75071396 L62.9,9.79014279 L62.9,9.79014279 Z" id="路径" fill="url(#linearGradient-14)"></path>
                    <ellipse id="椭圆形" fill="url(#linearGradient-15)" cx="31.5" cy="5.75071396" rx="31.4" ry="5.74076462"></ellipse>
                    <ellipse id="椭圆形" fill="url(#linearGradient-15)" cx="31.5" cy="5.75071396" rx="31.4" ry="5.74076462"></ellipse>
                    <path d="M31.5,0.00994933211 C31.33,0.00994933211 31.16,0.00994933211 30.99,0.00994933211 C48.1,0.0596959926 61.88,2.60672501 61.88,5.74076462 C61.88,8.87480424 48.09,11.4218333 30.99,11.4815292 C31.16,11.4815292 31.33,11.4815292 31.5,11.4815292 C48.84,11.4815292 62.9,8.91460157 62.9,5.74076462 C62.9,2.56692768 48.84,0 31.5,0 L31.5,0.00994933211 Z" id="路径" fill="url(#linearGradient-16)"></path>
                    <ellipse id="椭圆形" fill="url(#linearGradient-15)" cx="31.5" cy="5.75071396" rx="31.4" ry="5.74076462"></ellipse>
                    <ellipse id="椭圆形" fill="url(#linearGradient-17)" cx="31.5" cy="5.75071396" rx="31.4" ry="5.74076462"></ellipse>
                    <g id="编组" opacity="0.8" transform="translate(15.329641, 18.873883)" fill="#7EE4DE">
                        <g transform="translate(0.000000, 36.410939)" id="路径">
                            <g transform="translate(1.440359, 8.380954)">
                                <path d="M18.26,25.7090742 C18.26,26.4154767 17.69,26.9825887 16.98,26.9825887 C16.27,26.9825887 15.7,26.4154767 15.7,25.7090742 C15.7,25.0026716 16.27,24.4256103 16.98,24.4256103 C17.69,24.4256103 18.26,24.9927222 18.26,25.7090742 Z" opacity="0.9"></path>
                                <path d="M1.58,15.5806541 C1.58,16.0184247 1.23,16.3666513 0.79,16.3666513 C0.35,16.3666513 0,16.0084754 0,15.5806541 C0,15.1528328 0.35,14.7946568 0.79,14.7946568 C1.23,14.7946568 1.58,15.1428835 1.58,15.5806541 Z" opacity="0.3"></path>
                                <path d="M7.13,6.64615385 C7.13,7.09387379 6.77,7.45204975 6.32,7.45204975 C5.87,7.45204975 5.51,7.09387379 5.51,6.64615385 C5.51,6.1984339 5.87,5.84025795 6.32,5.84025795 C6.77,5.84025795 7.13,6.20838323 7.13,6.64615385 Z" opacity="0.2"></path>
                                <path d="M30.54,3.72105021 C30.54,3.99963151 30.32,4.22846614 30.03,4.22846614 C29.74,4.22846614 29.51,4.00958084 29.51,3.72105021 C29.51,3.43251958 29.74,3.21363427 30.03,3.21363427 C30.32,3.21363427 30.54,3.44246891 30.54,3.72105021 Z" opacity="0.2"></path>
                                <path d="M29.22,1.06457854 C29.22,1.65158913 28.75,2.12915707 28.15,2.12915707 C27.55,2.12915707 27.08,1.65158913 27.08,1.06457854 C27.08,0.477567941 27.56,0 28.15,0 C28.74,0 29.22,0.477567941 29.22,1.06457854 Z" opacity="0.2"></path>
                                <path d="M4.65,5.04431138 C4.65,5.32289268 4.41,5.55172731 4.13,5.55172731 C3.85,5.55172731 3.61,5.32289268 3.61,5.04431138 C3.61,4.76573008 3.84,4.52694611 4.13,4.52694611 C4.42,4.52694611 4.65,4.75578075 4.65,5.04431138 Z" opacity="0.2"></path>
                                <path d="M4.02,29.9972363 C4.02,30.4350069 3.66,30.7832335 3.23,30.7832335 C2.8,30.7832335 2.44,30.4350069 2.44,29.9972363 C2.44,29.5594657 2.79,29.2112391 3.23,29.2112391 C3.67,29.2112391 4.02,29.5594657 4.02,29.9972363 Z" opacity="0.3"></path>
                                <path d="M9.56,21.0627361 C9.56,21.510456 9.2,21.868632 8.75,21.868632 C8.3,21.868632 7.94,21.510456 7.94,21.0627361 C7.94,20.6150161 8.31,20.2568402 8.75,20.2568402 C9.19,20.2568402 9.56,20.6249655 9.56,21.0627361 Z" opacity="0.2"></path>
                                <path d="M7.08,19.4509443 C7.08,19.7394749 6.85,19.9683095 6.57,19.9683095 C6.29,19.9683095 6.05,19.7394749 6.05,19.4509443 C6.05,19.1624136 6.28,18.9435283 6.57,18.9435283 C6.86,18.9435283 7.08,19.172363 7.08,19.4509443 Z" opacity="0.2"></path>
                            </g>
                            <g>
                                <path d="M15.4903591,21.3648324 C15.6503591,21.9717417 16.2703591,22.3299176 16.8703591,22.1806777 C17.4803591,22.0214884 17.8403591,21.4145791 17.6903591,20.7977205 C17.5303591,20.1908112 16.9203591,19.8326353 16.3103591,19.9818753 C15.7003591,20.1410646 15.3303591,20.7479738 15.4903591,21.3548831 L15.4903591,21.3648324 Z" opacity="0.9"></path>
                                <path d="M27.6103591,9.00776196 C27.7003591,9.37588725 28.0903591,9.60472189 28.4603591,9.5151779 C28.8403591,9.41568458 29.0703591,9.03760996 28.9703591,8.65953534 C28.8803591,8.29141005 28.4903591,8.06257541 28.1103591,8.1521194 C27.7403591,8.24166339 27.5103591,8.62968734 27.6103591,9.00776196 Z" opacity="0.3"></path>
                                <path d="M20.8503591,2.53074676 C20.9503591,2.90882138 21.3503591,3.13765602 21.7303591,3.04811203 C22.1103591,2.93866938 22.3403591,2.56059476 22.2503591,2.1725708 C22.1503591,1.79449618 21.7503591,1.56566155 21.3703591,1.66515487 C20.9903591,1.75469886 20.7603591,2.14272281 20.8503591,2.53074676 Z" opacity="0.2"></path>
                                <path d="M0.0703591003,5.13747177 C0.1303591,5.37625574 0.3803591,5.52549572 0.6103591,5.46579973 C0.8503591,5.39615441 1.0103591,5.15737044 0.9403591,4.90863713 C0.8703591,4.66985316 0.6303591,4.53056251 0.3803591,4.59025851 C0.1403591,4.6499545 -0.0096408997,4.8986878 0.0603591003,5.13747177 L0.0703591003,5.13747177 Z" opacity="0.2"></path>
                                <path d="M0.6203591,2.56059476 C0.7503591,3.06801069 1.2703591,3.37643999 1.7803591,3.23714934 C2.2903591,3.10780802 2.6003591,2.59044275 2.4603591,2.08302682 C2.3303591,1.57561088 1.8103591,1.27713092 1.3003591,1.40647223 C0.7903591,1.53581355 0.4903591,2.05317882 0.6103591,2.56059476 L0.6203591,2.56059476 Z" opacity="0.2"></path>
                                <path d="M22.6503591,0.610525664 C22.7103591,0.849309635 22.9603591,1.00849895 23.2103591,0.938853624 C23.4603591,0.869208299 23.6003591,0.630424328 23.5403591,0.381691026 C23.4703591,0.132957723 23.2203591,-0.00633292642 22.9803591,0.0533630662 C22.7303591,0.113059059 22.5803591,0.371741694 22.6503591,0.610525664 Z" opacity="0.2"></path>
                                <path d="M28.1703591,38.8657076 C27.9503591,39.0547449 27.6303591,39.0248969 27.4503591,38.8060116 C27.2703591,38.5970756 27.2903591,38.2687477 27.5103591,38.0896597 C27.7203591,37.9105717 28.0403591,37.9304704 28.2303591,38.159305 C28.4103591,38.368241 28.3903591,38.6866196 28.1703591,38.8657076 L28.1703591,38.8657076 Z" opacity="0.2"></path>
                                <path d="M29.3503591,36.1495399 C28.9003591,36.5276146 28.2203591,36.4778679 27.8403591,36.030148 C27.4603591,35.5724787 27.5103591,34.9058734 27.9703591,34.5178495 C28.4203591,34.1397749 29.0903591,34.1994709 29.4703591,34.6471908 C29.8603591,35.0949107 29.8003591,35.7714653 29.3503591,36.1495399 L29.3503591,36.1495399 Z" opacity="0.2"></path>
                                <path d="M27.7103591,33.5328656 C27.4903591,33.8512442 27.5603591,34.2890148 27.8803591,34.5079001 C28.2003591,34.7367348 28.6403591,34.6571401 28.8603591,34.3387615 C29.0903591,34.0303322 29.0203591,33.5925616 28.6903591,33.363727 C28.3803591,33.1448416 27.9303591,33.214487 27.7103591,33.5328656 Z" opacity="0.3"></path>
                                <path d="M28.3003591,24.2302401 C28.0703591,24.5486187 28.1403591,24.9963387 28.4703591,25.2351226 C28.7903591,25.4540079 29.2403591,25.3843626 29.4803591,25.0560346 C29.7003591,24.737656 29.6303591,24.2899361 29.3003591,24.0611014 C28.9803591,23.8322668 28.5303591,23.9019121 28.3003591,24.2302401 Z" opacity="0.2"></path>
                                <path d="M30.9303591,24.3496321 C30.7803591,24.558568 30.8303591,24.8371493 31.0403591,24.9863893 C31.2403591,25.1356293 31.5303591,25.0858826 31.6903591,24.8769467 C31.8303591,24.6680107 31.7803591,24.3894294 31.5803591,24.2401894 C31.3703591,24.0909494 31.0803591,24.1406961 30.9303591,24.3496321 Z" opacity="0.2"></path>
                            </g>
                        </g>
                        <g transform="translate(0.000000, 21.893505)" id="路径">
                            <g transform="translate(1.440359, 8.382312)">
                                <path d="M18.26,25.7090742 C18.26,26.4154767 17.69,26.9825887 16.98,26.9825887 C16.27,26.9825887 15.7,26.4154767 15.7,25.7090742 C15.7,25.0026716 16.27,24.4256103 16.98,24.4256103 C17.69,24.4256103 18.26,25.0026716 18.26,25.7090742 Z" opacity="0.9"></path>
                                <path d="M1.58,15.5806541 C1.58,16.0184247 1.23,16.3666513 0.79,16.3666513 C0.35,16.3666513 0,16.0084754 0,15.5806541 C0,15.1528328 0.35,14.7946568 0.79,14.7946568 C1.23,14.7946568 1.58,15.1528328 1.58,15.5806541 Z" opacity="0.3"></path>
                                <path d="M7.13,6.65610318 C7.13,7.09387379 6.77,7.46199908 6.32,7.46199908 C5.87,7.46199908 5.51,7.10382312 5.51,6.65610318 C5.51,6.20838323 5.87,5.85020728 6.32,5.85020728 C6.77,5.85020728 7.13,6.20838323 7.13,6.65610318 Z" opacity="0.2"></path>
                                <path d="M30.54,3.72105021 C30.54,3.99963151 30.32,4.23841548 30.03,4.23841548 C29.74,4.23841548 29.51,4.00958084 29.51,3.72105021 C29.51,3.43251958 29.74,3.21363427 30.03,3.21363427 C30.32,3.21363427 30.54,3.44246891 30.54,3.72105021 Z" opacity="0.2"></path>
                                <path d="M29.22,1.06457854 C29.22,1.65158913 28.75,2.12915707 28.15,2.12915707 C27.55,2.12915707 27.08,1.65158913 27.08,1.06457854 C27.08,0.477567941 27.56,0 28.15,0 C28.74,0 29.22,0.477567941 29.22,1.06457854 Z" opacity="0.2"></path>
                                <path d="M4.65,5.04431138 C4.65,5.33284201 4.41,5.56167665 4.13,5.56167665 C3.85,5.56167665 3.61,5.33284201 3.61,5.04431138 C3.61,4.75578075 3.84,4.52694611 4.13,4.52694611 C4.42,4.52694611 4.65,4.75578075 4.65,5.04431138 Z" opacity="0.2"></path>
                                <path d="M4.02,29.9972363 C4.02,30.4350069 3.66,30.7832335 3.23,30.7832335 C2.8,30.7832335 2.44,30.4250576 2.44,29.9972363 C2.44,29.569415 2.79,29.2112391 3.23,29.2112391 C3.67,29.2112391 4.02,29.569415 4.02,29.9972363 Z" opacity="0.3"></path>
                                <path d="M9.56,21.0726854 C9.56,21.510456 9.2,21.8785813 8.75,21.8785813 C8.3,21.8785813 7.94,21.5204053 7.94,21.0726854 C7.94,20.6249655 8.31,20.2667895 8.75,20.2667895 C9.19,20.2667895 9.56,20.6249655 9.56,21.0726854 Z" opacity="0.2"></path>
                                <path d="M7.08,19.4608936 C7.08,19.7494242 6.85,19.9782589 6.57,19.9782589 C6.29,19.9782589 6.05,19.7494242 6.05,19.4608936 C6.05,19.172363 6.28,18.9435283 6.57,18.9435283 C6.86,18.9435283 7.08,19.172363 7.08,19.4608936 Z" opacity="0.2"></path>
                            </g>
                            <g>
                                <path d="M15.4903591,21.3661907 C15.6503591,21.9731 16.2703591,22.3511746 16.8703591,22.1919853 C17.4803591,22.0327959 17.8403591,21.4159374 17.6903591,20.8090281 C17.5303591,20.2021188 16.9203591,19.8439429 16.3103591,19.9931829 C15.7003591,20.1523722 15.3303591,20.7692308 15.4903591,21.3661907 Z" opacity="0.9"></path>
                                <path d="M27.6103591,9.00912022 C27.7003591,9.38719484 28.0903591,9.61602948 28.4603591,9.51653616 C28.8403591,9.42699217 29.0703591,9.03896822 28.9703591,8.6608936 C28.8803591,8.29276831 28.4903591,8.05398434 28.1103591,8.15347766 C27.7403591,8.25297098 27.5103591,8.6310456 27.6103591,9.00912022 Z" opacity="0.3"></path>
                                <path d="M20.8503591,2.54205435 C20.9503591,2.92012897 21.3503591,3.14896361 21.7303591,3.04947029 C22.1103591,2.9599263 22.3403591,2.57190235 22.2503591,2.1838784 C22.1503591,1.80580378 21.7503591,1.56701981 21.3703591,1.66651313 C20.9903591,1.76600645 20.7603591,2.1540304 20.8503591,2.54205435 Z" opacity="0.2"></path>
                                <path d="M0.0703591003,5.13883003 C0.1303591,5.377614 0.3803591,5.52685398 0.6103591,5.46715799 C0.8503591,5.407462 1.0103591,5.1587287 0.9403591,4.91994473 C0.8703591,4.68116076 0.6303591,4.52197144 0.3803591,4.59161677 C0.1403591,4.66126209 -0.0096408997,4.90004606 0.0603591003,5.14877936 L0.0703591003,5.13883003 Z" opacity="0.2"></path>
                                <path d="M0.6203591,2.56195302 C0.7503591,3.06936895 1.2703591,3.36784892 1.7803591,3.2385076 C2.2903591,3.10916628 2.6003591,2.59180101 2.4603591,2.09433441 C2.3303591,1.57696914 1.8103591,1.27848918 1.3003591,1.40783049 C0.7903591,1.53717181 0.4903591,2.05453708 0.6103591,2.56195302 L0.6203591,2.56195302 Z" opacity="0.2"></path>
                                <path d="M22.6503591,0.611883924 C22.7103591,0.850667895 22.9603591,0.999907877 23.2103591,0.940211884 C23.4603591,0.880515891 23.6003591,0.621833257 23.5403591,0.383049286 C23.4703591,0.144265316 23.2203591,-0.00497466605 22.9803591,0.0547213266 C22.7303591,0.124366651 22.5803591,0.373099954 22.6503591,0.611883924 Z" opacity="0.2"></path>
                                <path d="M28.1703591,38.8770152 C27.9503591,39.0561032 27.6303591,39.0362045 27.4503591,38.8173192 C27.2703591,38.5984339 27.2903591,38.2900046 27.5103591,38.1009673 C27.7203591,37.9218793 28.0403591,37.941778 28.2303591,38.1606633 C28.4103591,38.3795486 28.3903591,38.6979272 28.1703591,38.8770152 Z" opacity="0.2"></path>
                                <path d="M29.3503591,36.1608475 C28.9003591,36.5389222 28.2203591,36.4792262 27.8403591,36.0315062 C27.4603591,35.5837863 27.5103591,34.9072317 27.9703591,34.5291571 C28.4203591,34.1510825 29.0903591,34.2008291 29.4703591,34.6485491 C29.8603591,35.096269 29.8003591,35.7628743 29.3503591,36.1508982 L29.3503591,36.1608475 Z" opacity="0.2"></path>
                                <path d="M27.7103591,33.5441732 C27.4903591,33.8625518 27.5603591,34.3003224 27.8803591,34.5291571 C28.2003591,34.7480424 28.6403591,34.6783971 28.8603591,34.3600184 C29.0903591,34.0416398 29.0203591,33.6038692 28.6903591,33.3750345 C28.3803591,33.1561492 27.9303591,33.2257946 27.7103591,33.5441732 Z" opacity="0.3"></path>
                                <path d="M28.3003591,24.2415477 C28.0703591,24.5599263 28.1403591,25.0076462 28.4703591,25.2364809 C28.7903591,25.4653155 29.2403591,25.3956702 29.4803591,25.0673422 C29.7003591,24.7489636 29.6303591,24.3012437 29.3003591,24.072409 C28.9803591,23.8435744 28.5303591,23.9132197 28.3003591,24.2415477 Z" opacity="0.2"></path>
                                <path d="M30.9303591,24.3509903 C30.7803591,24.5599263 30.8303591,24.8385076 31.0403591,24.9877476 C31.2403591,25.1270382 31.5303591,25.0872409 31.6903591,24.8783049 C31.8303591,24.669369 31.7803591,24.3808383 31.5803591,24.2315983 C31.3703591,24.0823584 31.0803591,24.1420544 30.9303591,24.341041 L30.9303591,24.3509903 Z" opacity="0.2"></path>
                                <g opacity="0.9" transform="translate(12.360234, 39.903197)">
                                    <path d="M0.0301247625,7.13227084 C0.190124762,7.7391801 0.810124762,8.10730539 1.42012476,7.94811608 C2.03012476,7.78892676 2.40012476,7.17206817 2.24012476,6.56515891 C2.08012476,5.95824966 1.46012476,5.6000737 0.860124762,5.74931368 C0.250124762,5.908503 -0.109875238,6.51541225 0.0301247625,7.12232151 L0.0301247625,7.13227084 Z"></path>
                                    <path d="M3.33012476,0.993532936 C3.44012476,1.42135422 3.87012476,1.68998618 4.31012476,1.5705942 C4.73012476,1.46115154 5.00012476,1.02338093 4.89012476,0.605508984 C4.78012476,0.177687703 4.34012476,-0.0909442635 3.91012476,0.0284477218 C3.48012476,0.137890375 3.22012476,0.575660988 3.33012476,0.993532936 Z"></path>
                                </g>
                            </g>
                        </g>
                        <g transform="translate(0.000000, 7.379081)" id="路径">
                            <g transform="translate(1.440359, 8.390610)">
                                <path d="M18.26,25.6991248 C18.26,26.4055274 17.69,26.9825887 16.98,26.9825887 C16.27,26.9825887 15.7,26.4154767 15.7,25.6991248 C15.7,24.9827729 16.27,24.4256103 16.98,24.4256103 C17.69,24.4256103 18.26,24.9927222 18.26,25.6991248 Z" opacity="0.9"></path>
                                <path d="M1.58,15.5707047 C1.58,16.0084754 1.23,16.356702 0.79,16.356702 C0.35,16.356702 0,15.998526 0,15.5707047 C0,15.1428835 0.35,14.7747582 0.79,14.7747582 C1.23,14.7747582 1.58,15.1329341 1.58,15.5707047 Z" opacity="0.3"></path>
                                <path d="M7.13,6.64615385 C7.13,7.08392446 6.77,7.45204975 6.32,7.45204975 C5.87,7.45204975 5.51,7.08392446 5.51,6.64615385 C5.51,6.20838323 5.87,5.84025795 6.32,5.84025795 C6.77,5.84025795 7.13,6.1984339 7.13,6.64615385 Z" opacity="0.2"></path>
                                <path d="M30.54,3.72105021 C30.54,3.99963151 30.32,4.22846614 30.03,4.22846614 C29.74,4.22846614 29.51,3.99963151 29.51,3.72105021 C29.51,3.44246891 29.74,3.21363427 30.03,3.21363427 C30.32,3.21363427 30.54,3.44246891 30.54,3.72105021 Z" opacity="0.2"></path>
                                <path d="M29.22,1.06457854 C29.22,1.65158913 28.75,2.12915707 28.15,2.12915707 C27.55,2.12915707 27.08,1.65158913 27.08,1.06457854 C27.08,0.477567941 27.56,0 28.15,0 C28.74,0 29.22,0.477567941 29.22,1.06457854 Z" opacity="0.2"></path>
                                <path d="M4.65,5.04431138 C4.65,5.32289268 4.41,5.55172731 4.13,5.55172731 C3.85,5.55172731 3.61,5.32289268 3.61,5.04431138 C3.61,4.76573008 3.84,4.52694611 4.13,4.52694611 C4.42,4.52694611 4.65,4.75578075 4.65,5.04431138 Z" opacity="0.2"></path>
                                <path d="M4.02,29.9972363 C4.02,30.4350069 3.66,30.7832335 3.23,30.7832335 C2.8,30.7832335 2.44,30.4250576 2.44,29.9972363 C2.44,29.569415 2.79,29.2112391 3.23,29.2112391 C3.67,29.2112391 4.02,29.569415 4.02,29.9972363 Z" opacity="0.3"></path>
                                <path d="M9.56,21.0627361 C9.56,21.510456 9.2,21.8785813 8.75,21.8785813 C8.3,21.8785813 7.94,21.510456 7.94,21.0627361 C7.94,20.6150161 8.31,20.2667895 8.75,20.2667895 C9.19,20.2667895 9.56,20.6249655 9.56,21.0627361 Z" opacity="0.2"></path>
                                <path d="M7.08,19.4608936 C7.08,19.7394749 6.85,19.9683095 6.57,19.9683095 C6.29,19.9683095 6.05,19.7394749 6.05,19.4608936 C6.05,19.1823123 6.28,18.9435283 6.57,18.9435283 C6.86,18.9435283 7.08,19.172363 7.08,19.4608936 Z" opacity="0.2"></path>
                            </g>
                            <g>
                                <path d="M15.4903591,21.364539 C15.6503591,21.9813976 16.2703591,22.3395735 16.8703591,22.1803842 C17.4803591,22.0211949 17.8403591,21.4142856 17.6903591,20.797427 C17.5303591,20.1905178 16.9203591,19.8223925 16.3103591,19.9815818 C15.7003591,20.1407711 15.3303591,20.7476804 15.4903591,21.3545896 L15.4903591,21.364539 Z" opacity="0.9"></path>
                                <path d="M27.6103591,9.0074685 C27.7003591,9.38554312 28.0903591,9.60442843 28.4603591,9.51488444 C28.8403591,9.42534045 29.0703591,9.0373165 28.9703591,8.66919121 C28.8803591,8.29111659 28.4903591,8.06228195 28.1103591,8.16177527 C27.7403591,8.25131926 27.5103591,8.63934322 27.6103591,9.01741784 L27.6103591,9.0074685 Z" opacity="0.3"></path>
                                <path d="M20.8503591,2.54040264 C20.9503591,2.92842659 21.3503591,3.15726123 21.7303591,3.0577679 C22.1103591,2.96822392 22.3403591,2.57025063 22.2503591,2.19217601 C22.1503591,1.80415206 21.7503591,1.57531742 21.3703591,1.67481074 C20.9903591,1.77430406 20.7603591,2.16232802 20.8503591,2.54040264 Z" opacity="0.2"></path>
                                <path d="M0.0703591003,5.13717831 C0.1303591,5.37596229 0.3803591,5.52520227 0.6103591,5.46550627 C0.8503591,5.39586095 1.0103591,5.15707698 0.9403591,4.91829301 C0.8703591,4.67950904 0.6303591,4.52031972 0.3803591,4.58996505 C0.1403591,4.64966104 -0.0096408997,4.89839434 0.0603591003,5.13717831 L0.0703591003,5.13717831 Z" opacity="0.2"></path>
                                <path d="M0.6203591,2.57025063 C0.7503591,3.07766657 1.2703591,3.38609586 1.7803591,3.25675455 C2.2903591,3.12741323 2.6003591,2.60009863 2.4603591,2.10263202 C2.3303591,1.59521609 1.8103591,1.29673612 1.3003591,1.42607744 C0.7903591,1.55541876 0.4903591,2.07278403 0.6103591,2.58019996 L0.6203591,2.57025063 Z" opacity="0.2"></path>
                                <path d="M22.6503591,0.610232207 C22.7103591,0.849016177 22.9603591,1.00820549 23.2103591,0.938560166 C23.4603591,0.878864174 23.6003591,0.630130871 23.5403591,0.381397568 C23.4703591,0.142613598 23.2203591,-0.00662638364 22.9803591,0.053069609 C22.7303591,0.112765602 22.5803591,0.361498904 22.6503591,0.610232207 Z" opacity="0.2"></path>
                                <path d="M28.1703591,38.8753635 C27.9503591,39.0544515 27.6303591,39.0345528 27.4503591,38.8156675 C27.2703591,38.5967822 27.2903591,38.2784036 27.5103591,38.0993156 C27.7203591,37.9202276 28.0403591,37.9401263 28.2303591,38.1590116 C28.4103591,38.3778969 28.3903591,38.6962755 28.1703591,38.8753635 Z" opacity="0.2"></path>
                                <path d="M29.3503591,36.1492465 C28.9003591,36.5273211 28.2203591,36.4775744 27.8403591,36.0298545 C27.4603591,35.5821346 27.5103591,34.9155293 27.9703591,34.5275054 C28.4203591,34.1494307 29.0903591,34.2091267 29.4703591,34.6568467 C29.8603591,35.1045666 29.8003591,35.7711719 29.3503591,36.1591958 L29.3503591,36.1492465 Z" opacity="0.2"></path>
                                <path d="M27.7103591,33.5524708 C27.4903591,33.8708494 27.5603591,34.30862 27.8803591,34.5275054 C28.2003591,34.7463907 28.6403591,34.6767453 28.8603591,34.3583667 C29.0903591,34.0399881 29.0203591,33.6022175 28.6903591,33.3733828 C28.3803591,33.1544975 27.9303591,33.2340922 27.7103591,33.5425215 L27.7103591,33.5524708 Z" opacity="0.3"></path>
                                <path d="M28.3003591,24.2498453 C28.0703591,24.5682239 28.1403591,25.0159439 28.4703591,25.2447785 C28.7903591,25.4736131 29.2403591,25.3940185 29.4803591,25.0756399 C29.7003591,24.7473119 29.6303591,24.3095413 29.3003591,24.0707573 C28.9803591,23.8419227 28.5303591,23.9215173 28.3003591,24.2498453 Z" opacity="0.2"></path>
                                <path d="M30.9303591,24.3493386 C30.7803591,24.5582746 30.8303591,24.8468052 31.0403591,24.9960452 C31.2403591,25.1452852 31.5303591,25.0855892 31.6903591,24.8866025 C31.8303591,24.6876159 31.7803591,24.3990853 31.5803591,24.2498453 C31.3703591,24.1006053 31.0803591,24.150352 30.9303591,24.3592879 L30.9303591,24.3493386 Z" opacity="0.2"></path>
                                <g opacity="0.9" transform="translate(12.360234, 39.901545)">
                                    <path d="M0.0301247625,7.13227084 C0.190124762,7.74912944 0.810124762,8.11725472 1.42012476,7.94811608 C2.03012476,7.7988761 2.40012476,7.18201751 2.24012476,6.56515891 C2.08012476,5.95824966 1.46012476,5.59012437 0.860124762,5.74931368 C0.250124762,5.908503 -0.109875238,6.52536159 0.0301247625,7.12232151 L0.0301247625,7.13227084 Z"></path>
                                    <path d="M3.33012476,1.00348227 C3.44012476,1.43130355 3.87012476,1.68998618 4.31012476,1.58054353 C4.73012476,1.47110088 5.00012476,1.03333026 4.89012476,0.605508984 C4.78012476,0.177687703 4.34012476,-0.0909442635 3.91012476,0.0284477218 C3.48012476,0.137890375 3.22012476,0.575660988 3.33012476,1.00348227 Z"></path>
                                </g>
                            </g>
                        </g>
                        <g transform="translate(1.440359, 0.000000)" id="路径">
                            <g>
                                <path d="M18.26,10.9144173 C18.26,11.6208199 17.69,12.1879318 16.98,12.1879318 C16.27,12.1879318 15.7,11.6108706 15.7,10.9144173 C15.7,10.2179641 16.27,9.63095348 16.98,9.63095348 C17.69,9.63095348 18.26,10.2080147 18.26,10.9144173 Z" opacity="0.9"></path>
                                <path d="M1.58,0.785997236 C1.58,1.22376785 1.23,1.57199447 0.79,1.57199447 C0.35,1.57199447 0,1.22376785 0,0.785997236 C0,0.348226624 0.35,0 0.79,0 C1.23,0 1.58,0.348226624 1.58,0.785997236 Z" opacity="0.3"></path>
                                <path d="M4.02,15.2025795 C4.02,15.6304007 3.66,15.9885767 3.23,15.9885767 C2.8,15.9885767 2.44,15.6304007 2.44,15.2025795 C2.44,14.7747582 2.79,14.4066329 3.23,14.4066329 C3.67,14.4066329 4.02,14.7648088 4.02,15.2025795 Z" opacity="0.3"></path>
                                <path d="M9.56,6.27802856 C9.56,6.7257485 9.2,7.08392446 8.75,7.08392446 C8.3,7.08392446 7.94,6.7257485 7.94,6.27802856 C7.94,5.83030861 8.31,5.47213266 8.75,5.47213266 C9.19,5.47213266 9.56,5.84025795 9.56,6.27802856 Z" opacity="0.2"></path>
                                <path d="M7.08,4.66623676 C7.08,4.94481806 6.85,5.18360203 6.57,5.18360203 C6.29,5.18360203 6.05,4.95476739 6.05,4.66623676 C6.05,4.37770613 6.28,4.14887149 6.57,4.14887149 C6.86,4.14887149 7.08,4.37770613 7.08,4.66623676 Z" opacity="0.2"></path>
                            </g>
                            <g transform="translate(10.919875, 0.754356)">
                                <path d="M15.8101248,14.9456905 C15.5901248,15.1247785 15.2701248,15.1048799 15.0901248,14.8859946 C14.9101248,14.6671092 14.9301248,14.3586799 15.1501248,14.1696426 C15.3601248,13.9905547 15.6801248,14.0104533 15.8701248,14.2293386 C16.0501248,14.4382746 16.0301248,14.7566532 15.8101248,14.9456905 Z" opacity="0.2"></path>
                                <path d="M16.9901248,12.2195735 C16.5401248,12.5976482 15.8601248,12.5479015 15.4801248,12.1001816 C15.1001248,11.6524616 15.1501248,10.975907 15.6101248,10.5978324 C16.0601248,10.2197578 16.7301248,10.2695045 17.1101248,10.7172244 C17.5001248,11.1649443 17.4401248,11.8414989 16.9901248,12.2195735 L16.9901248,12.2195735 Z" opacity="0.2"></path>
                                <path d="M15.3501248,9.61284854 C15.1301248,9.93122716 15.2001248,10.3689978 15.5201248,10.5878831 C15.8401248,10.8067684 16.2801248,10.7371231 16.5001248,10.4187444 C16.7301248,10.1003658 16.6601248,9.6625952 16.3301248,9.44370989 C16.0201248,9.21487525 15.5701248,9.29446991 15.3501248,9.61284854 Z" opacity="0.3"></path>
                                <path d="M15.9401248,0.310223017 C15.7101248,0.628601644 15.7801248,1.07632159 16.1101248,1.30515623 C16.4301248,1.53399087 16.8801248,1.46434554 17.1201248,1.13601758 C17.3401248,0.807689622 17.2701248,0.359969677 16.9401248,0.131135039 C16.6201248,-0.0976995994 16.1701248,-0.0181049426 15.9401248,0.300273685 L15.9401248,0.310223017 Z" opacity="0.2"></path>
                                <path d="M18.5701248,0.41966567 C18.4201248,0.618652312 18.4701248,0.907182943 18.6801248,1.05642292 C18.8801248,1.19571357 19.1701248,1.15591625 19.3301248,0.946980272 C19.4701248,0.738044297 19.4201248,0.449513666 19.2201248,0.310223017 C19.0101248,0.160983035 18.7201248,0.210729696 18.5701248,0.41966567 Z" opacity="0.2"></path>
                                <g opacity="0.9" transform="translate(0.000000, 15.965271)">
                                    <path d="M0.0301247625,7.13887168 C0.190124762,7.74578094 0.810124762,8.1039569 1.42012476,7.95471692 C2.03012476,7.7955276 2.40012476,7.17866901 2.24012476,6.58170909 C2.08012476,5.97479983 1.46012476,5.61662387 0.860124762,5.76586385 C0.250124762,5.92505317 -0.109875238,6.53196243 0.0301247625,7.13887168 Z"></path>
                                    <path d="M3.33012476,1.00013378 C3.44012476,1.42795506 3.87012476,1.69658702 4.31012476,1.57719504 C4.73012476,1.46775238 5.00012476,1.02998177 4.89012476,0.602160491 C4.78012476,0.174339211 4.34012476,-0.0843434239 3.91012476,0.0250992292 C3.48012476,0.134541882 3.22012476,0.572312495 3.33012476,0.990184443 L3.33012476,1.00013378 Z"></path>
                                </g>
                            </g>
                        </g>
                    </g>
                    <path d="M27.43,56.830585 L21.27,56.830585 C20.47,56.830585 19.91,56.0246891 20.2,55.2784892 L26.33,39.2799632 C26.5,38.8322432 26.93,38.5437126 27.4,38.5437126 L37.74,38.5437126 C38.56,38.5437126 39.11,39.3695071 38.8,40.115707 L35.23,48.8213726 L41.94,48.8213726 C42.93,48.8213726 43.45,49.9754952 42.8,50.7216951 L26.34,69.3866421 C25.54,70.2920313 24.06,69.5060341 24.37,68.3419622 L27.43,56.830585 L27.43,56.830585 L27.43,56.830585 Z" id="路径" fill="url(#linearGradient-18)"></path>
                    <path d="M27.43,56.830585 L21.27,56.830585 C20.47,56.830585 19.91,56.0246891 20.2,55.2784892 L26.33,39.2799632 C26.5,38.8322432 26.93,38.5437126 27.4,38.5437126 L37.74,38.5437126 C38.56,38.5437126 39.11,39.3695071 38.8,40.115707 L35.23,48.8213726 L41.94,48.8213726 C42.93,48.8213726 43.45,49.9754952 42.8,50.7216951 L26.34,69.3866421 C25.54,70.2920313 24.06,69.5060341 24.37,68.3419622 L27.43,56.830585 L27.43,56.830585 L27.43,56.830585 Z" id="路径" fill="url(#linearGradient-19)"></path>
                </g>
                <rect id="矩形" x="0" y="0" width="110" height="110"></rect>
            </g>
        </g>
    </g>
</svg>