<svg width="12.916992" height="13.318359" viewBox="0 0 12.917 13.3184" fill="none" xmlns="http://www.w3.org/2000/svg" xmlns:xlink="http://www.w3.org/1999/xlink">
<desc>
			Created with Pixso.
	</desc>
	<defs/>
	<path id="Path" d="M6.81 12.65C9.16 12.65 11.2 11.37 12.24 9.49L12.8 9.79L12.83 9.78C13.01 9.46 12.89 9.07 12.57 8.89C12.35 8.77 12.1 8.78 11.9 8.91L7.16 1.22C7.35 1.1 7.47 0.9 7.47 0.65C7.47 0.29 7.18 0 6.81 0L6.79 0.01L6.79 0.65C3.4 0.66 0.65 3.35 0.65 6.65C0.65 9.97 3.41 12.65 6.81 12.65Z" fill="#D8D8D8" fill-opacity="0" fill-rule="evenodd"/>
	<path id="Path" d="M12.25 9.47C11.22 11.36 9.17 12.65 6.81 12.65C3.41 12.65 0.65 9.97 0.65 6.65C0.65 3.34 3.41 0.65 6.81 0.65" stroke="#808080" stroke-opacity="1.000000" stroke-width="1.319269" stroke-linecap="round"/>
</svg>
