<svg width=" 16px" height=" 16px" fill="#808080" viewBox="0 0 16 16" version="1.1" xmlns="http://www.w3.org/2000/svg">
<path d="M13,2.5c0.3,0,0.5,0.2,0.5,0.5l0,0v3.3l0,0.1c0,0.2-0.2,0.4-0.5,0.4l0,0H9.7l-0.1,0c-0.2,0-0.4-0.2-0.4-0.5l0,0l0-0.1c0-0.2,0.2-0.4,0.5-0.4l0,0l2.3,0C11.2,4.4,9.7,3.5,8,3.5c-2.5,0-4.5,2-4.5,4.5s2,4.5,4.5,4.5c1.8,0,3.4-1,4.1-2.6c0.1-0.3,0.4-0.4,0.7-0.2s0.4,0.4,0.2,0.7c-0.9,1.9-2.8,3.2-5,3.2C5,13.5,2.5,11,2.5,8S5,2.5,8,2.5c1.8,0,3.5,0.9,4.5,2.3l0-1.8l0-0.1C12.6,2.7,12.8,2.5,13,2.5z"></path>
  
</svg>