<?xml version="1.0" encoding="UTF-8"?>
<svg width="73px" height="82px" viewBox="0 0 73 82" version="1.1" xmlns="http://www.w3.org/2000/svg" xmlns:xlink="http://www.w3.org/1999/xlink">
    <title>编组 14</title>
    <defs>
        <linearGradient x1="50.0233277%" y1="-0.344444444%" x2="50.0233277%" y2="97.6555556%" id="linearGradient-1">
            <stop stop-color="#98BCF3" offset="0%"></stop>
            <stop stop-color="#728EEB" stop-opacity="0.1" offset="100%"></stop>
        </linearGradient>
        <linearGradient x1="103.92571%" y1="66.1119087%" x2="58.9257104%" y2="43.1955926%" id="linearGradient-2">
            <stop stop-color="#6887E4" offset="0%"></stop>
            <stop stop-color="#929DB6" stop-opacity="0" offset="100%"></stop>
        </linearGradient>
        <linearGradient x1="99.0194674%" y1="50.4038462%" x2="10.0194674%" y2="50.4038462%" id="linearGradient-3">
            <stop stop-color="#6382EC" offset="0%"></stop>
            <stop stop-color="#A7B9F2" stop-opacity="0.05" offset="100%"></stop>
        </linearGradient>
        <linearGradient x1="52.1992554%" y1="41.8653846%" x2="49.0601713%" y2="35.8653846%" id="linearGradient-4">
            <stop stop-color="#9FBDFD" stop-opacity="0.05" offset="0%"></stop>
            <stop stop-color="#4D86FC" offset="100%"></stop>
        </linearGradient>
        <radialGradient cx="-101.290816%" cy="31.735%" fx="-101.290816%" fy="31.735%" r="80.0603687%" gradientTransform="translate(-1.012908,0.317350),scale(1.000000,0.980000),rotate(10.278720),translate(1.012908,-0.317350)" id="radialGradient-5">
            <stop stop-color="#A3C9F5" offset="0%"></stop>
            <stop stop-color="#5B75E5" offset="80%"></stop>
            <stop stop-color="#6986EE" offset="92%"></stop>
            <stop stop-color="#6382EC" offset="100%"></stop>
        </radialGradient>
        <linearGradient x1="6.06027955e-05%" y1="50.0142595%" x2="100%" y2="50.0142595%" id="linearGradient-6">
            <stop stop-color="#2EB6E6" offset="0%"></stop>
            <stop stop-color="#3388FF" offset="100%"></stop>
        </linearGradient>
        <linearGradient x1="100.028503%" y1="50.0142817%" x2="7.10339353e-14%" y2="50.0142817%" id="linearGradient-7">
            <stop stop-color="#2EB6E6" offset="0%"></stop>
            <stop stop-color="#3388FF" offset="100%"></stop>
        </linearGradient>
        <linearGradient x1="0%" y1="50.0246913%" x2="99.9998948%" y2="50.0246913%" id="linearGradient-8">
            <stop stop-color="#2EB6E6" offset="0%"></stop>
            <stop stop-color="#3388FF" offset="100%"></stop>
        </linearGradient>
        <linearGradient x1="0%" y1="49.9613003%" x2="100%" y2="49.9613003%" id="linearGradient-9">
            <stop stop-color="#2EB6E6" offset="0%"></stop>
            <stop stop-color="#3388FF" offset="100%"></stop>
        </linearGradient>
        <radialGradient cx="27.4132653%" cy="32.425%" fx="27.4132653%" fy="32.425%" r="80.0603687%" gradientTransform="translate(0.274133,0.324250),scale(1.000000,0.980000),rotate(10.278720),translate(-0.274133,-0.324250)" id="radialGradient-10">
            <stop stop-color="#8DCEFF" offset="0%"></stop>
            <stop stop-color="#4A77F5" offset="80%"></stop>
            <stop stop-color="#568AFE" offset="92%"></stop>
            <stop stop-color="#4D86FC" offset="100%"></stop>
        </radialGradient>
    </defs>
    <g id="品牌化" stroke="none" stroke-width="1" fill="none" fill-rule="evenodd">
        <g id="侦测模型_首页" transform="translate(-346.000000, -133.000000)">
            <g id="编组-14" transform="translate(347.000000, 135.000000)">
                <g id="资源-61" transform="translate(0.000000, 0.000000)">
                    <polygon id="路径" fill="url(#linearGradient-1)" opacity="0.3" points="34.8785047 5.23364486 63.8878505 22.0560748 63.8878505 55.7009346 34.8785047 72.5233645 5.87663551 55.7009346 5.87663551 22.0560748"></polygon>
                    <polygon id="Combined-Shape" fill="url(#linearGradient-2)" opacity="0.2" points="68.2691589 19.5439252 71.9401869 21.682243 71.9401869 60.5607477 38.5271028 80 5.11401869 60.5607477 5.11401869 60.4785047 34.8560748 77.7794393 68.2691589 58.3401869"></polygon>
                    <polyline id="Path" stroke="url(#linearGradient-3)" stroke-linecap="round" stroke-linejoin="round" points="34.8785047 0 68.2915888 19.4392523 68.2915888 58.317757 34.8785047 77.7570093"></polyline>
                    <polyline id="Path-2" stroke="url(#linearGradient-4)" stroke-width="4" opacity="0.4" stroke-linecap="round" stroke-linejoin="round" points="34.8785047 77.7570093 1.46542056 58.317757 1.46542056 19.4392523 34.8785047 0"></polyline>
                    <ellipse id="Oval-Copy-5" fill="url(#radialGradient-5)" fill-rule="nonzero" cx="1.46542056" cy="19.4392523" rx="1.46542056" ry="1.4953271"></ellipse>
                    <g id="编组" opacity="0.6" transform="translate(20.089720, 19.536433)" fill-rule="nonzero">
                        <path d="M32.8224299,25.8766514 L32.8224299,14.2803897 C32.8224299,13.3017618 32.0290952,12.5084271 31.0504673,12.5084271 L19.4542056,12.5084271 C18.4743609,12.5084271 17.6788833,13.3005536 17.6747664,14.2803897 L17.6747664,24.0000159 C17.6751283,25.0907642 17.2421227,26.1369705 16.471028,26.9084271 L16.471028,26.9084271 C15.7022107,27.6843673 14.6549367,28.1205072 13.5626168,28.119642 L8.42616822,28.119642 C7.95492043,28.1176536 7.50229167,28.3034638 7.1683654,28.6359871 C6.83443914,28.9685103 6.64671311,29.4203527 6.64671311,29.8916046 L6.64671311,36.8897355 C6.64473086,37.3622818 6.83156525,37.816051 7.16570897,38.1501947 C7.49985268,38.4843385 7.95362188,38.6711729 8.42616822,38.6691906 L15.4242991,38.6691906 C15.8955511,38.6691906 16.3473935,38.4814646 16.6799167,38.1475383 C17.0124399,37.813612 17.1982501,37.3609833 17.1962617,36.8897355 L17.1962617,31.7682402 C17.1958997,30.6774918 17.6289054,29.6312855 18.4,28.8598289 L18.4,28.8598289 C19.175139,28.0896788 20.2231981,27.6570185 21.3158879,27.6560906 L31.035514,27.6560906 C31.5087447,27.658079 31.9632752,27.4714811 32.2986036,27.1375557 C32.633932,26.8036304 32.8224299,26.3498863 32.8224299,25.8766514 L32.8224299,25.8766514 Z" id="路径" fill="url(#linearGradient-6)"></path>
                        <path d="M0,12.8074925 L0,24.4037542 C0,24.8750062 0.187710166,25.3268486 0.52163643,25.6593718 C0.855562694,25.991895 1.30819146,26.1777052 1.77943925,26.1757326 L13.3682243,26.1757326 C13.8394721,26.1777052 14.2921009,25.991895 14.6260271,25.6593718 C14.9599534,25.3268486 15.1476677,24.8750062 15.1476636,24.4037542 L15.1476636,14.684128 C15.1473016,13.5933796 15.5803072,12.5471734 16.3514019,11.7757168 L16.3514019,11.7757168 C17.1239303,11.0007441 18.17304,10.5649601 19.2672897,10.5645018 L24.4037383,10.5645018 C25.3823662,10.5645018 26.1757167,9.77116716 26.1757167,8.79253923 L26.1757167,1.77945512 C26.1776893,1.30820732 25.9918791,0.855578557 25.6593559,0.521652293 C25.3268327,0.187726029 24.8749903,0 24.4037383,0 L17.4056075,0 C16.9330611,-0.00198224541 16.4792919,0.184852146 16.1451482,0.518995857 C15.8110045,0.853139568 15.6241701,1.30690877 15.6261682,1.77945512 L15.6261682,6.91590371 C15.6265302,8.00665209 15.1935245,9.05285837 14.4224299,9.82431493 L14.4224299,9.82431493 C13.6509733,10.5954096 12.6047671,11.0284152 11.5140187,11.0280532 L1.79439252,11.0280532 C1.31987036,11.0240655 0.863412025,11.2097797 0.526461316,11.5439225 C0.189510607,11.8780653 0,12.3329536 0,12.8074925 Z" id="路径" fill="url(#linearGradient-7)"></path>
                    </g>
                    <path d="M52.9122702,33.8392523 L52.9122702,45.435514 C52.9141477,45.9060774 52.7281011,46.357945 52.3953595,46.6906866 C52.0626179,47.0234282 51.6107503,47.2094748 51.1401869,47.2075831 L43.5813084,47.2075831 L37.7719626,41.3981308 L37.764486,33.8168224 C37.764486,32.8381945 38.5466965,32.0448297 39.5253244,32.0448297 L51.1902166,32.0448297 C51.66078,32.0428616 52.0626179,32.238087 52.3953595,32.5708286 C52.7281011,32.9035702 52.9141477,33.3686889 52.9122702,33.8392523 Z" id="路径" fill="url(#linearGradient-8)" fill-rule="nonzero"></path>
                    <path d="M46.2728972,21.3308411 L46.2728972,28.3364486 C46.2687802,29.3162847 45.4733027,30.1084199 44.4934579,30.1084112 L39.3570093,30.1084112 C38.2653517,30.1108522 37.2192958,30.5464848 36.4485981,31.3196262 C35.6730903,32.0856695 35.236847,33.130499 35.2373832,34.2205607 L35.2373832,38.8785047 L26.958816,30.564486 L31.6037383,30.564486 C32.6955671,30.5684781 33.7300992,30.148003 34.5021439,29.3759583 C35.2741886,28.6039136 35.71988,27.5665952 35.7158879,26.4747664 L35.7158879,21.3308411 C35.7200048,20.351005 36.4953651,19.5364486 37.4752098,19.5364486 L44.4934579,19.5364486 C45.4733027,19.5364486 46.2687802,20.351005 46.2728972,21.3308411 Z" id="路径" fill="url(#linearGradient-9)" fill-rule="nonzero"></path>
                </g>
                <ellipse id="Oval-Copy-5" fill="url(#radialGradient-10)" fill-rule="nonzero" cx="1.46542056" cy="19.4392523" rx="1.46542056" ry="1.4953271"></ellipse>
            </g>
        </g>
    </g>
</svg>
