<?xml version="1.0" encoding="UTF-8"?>
<svg width="40px" height="40px" viewBox="0 0 40 40" version="1.1" xmlns="http://www.w3.org/2000/svg" xmlns:xlink="http://www.w3.org/1999/xlink">
    <title>编组 23</title>
    <defs>
        <linearGradient x1="50%" y1="0%" x2="50%" y2="79.956823%" id="linearGradient-1">
            <stop stop-color="#A5C4FD" offset="0%"></stop>
            <stop stop-color="#4C7BFB" offset="100%"></stop>
        </linearGradient>
        <linearGradient x1="19.8092638%" y1="29.1499289%" x2="78.4039519%" y2="92.8031842%" id="linearGradient-2">
            <stop stop-color="#599AFC" stop-opacity="0" offset="0%"></stop>
            <stop stop-color="#FFFFFF" offset="100%"></stop>
        </linearGradient>
        <linearGradient x1="50%" y1="0%" x2="50%" y2="79.956823%" id="linearGradient-3">
            <stop stop-color="#A5C4FD" offset="0%"></stop>
            <stop stop-color="#4C7BFB" offset="100%"></stop>
        </linearGradient>
    </defs>
    <g id="最终" stroke="none" stroke-width="1" fill="none" fill-rule="evenodd">
        <g id="首页（无业务分组）备份-3" transform="translate(-88.000000, -880.000000)">
            <g id="编组-23" transform="translate(88.000000, 880.000000)">
                <rect id="矩形备份-28" x="0" y="0" width="40" height="40"></rect>
                <g id="编组-21" transform="translate(3.750000, 3.750000)">
                    <path d="M15.8641787,0.334936491 L27.9783574,7.32906082 C28.7518601,7.7756428 29.2283574,8.60096035 29.2283574,9.49412433 L29.2287744,12.6045729 C27.2458662,11.1185344 24.7828233,10.2382487 22.1141787,10.2382487 C15.5557973,10.2382487 10.2391787,15.5548672 10.2391787,22.1132487 C10.2391787,26.530852 12.6513914,30.3850528 16.2304927,32.4305271 L15.8641787,32.6415608 C15.090676,33.0881428 14.1376814,33.0881428 13.3641787,32.6415608 L1.25,25.6474365 C0.476497308,25.2008545 5.26245714e-13,24.375537 5.21804822e-13,23.482373 L5.20028465e-13,9.49412433 C5.20472554e-13,8.60096035 0.476497308,7.7756428 1.25,7.32906082 L13.3641787,0.334936491 C14.1376814,-0.111645497 15.090676,-0.111645497 15.8641787,0.334936491 Z M22.1141787,12.1132487 C24.8979869,12.1132487 27.4161158,13.2507565 29.2291177,15.0863243 L29.2283574,23.482373 C29.2283574,24.375537 28.7518601,25.2008545 27.9783574,25.6474365 L18.1758508,31.3078591 C14.6111353,29.7789828 12.1141787,26.2377135 12.1141787,22.1132487 C12.1141787,16.5904012 16.5913312,12.1132487 22.1141787,12.1132487 Z" id="形状结合" fill="url(#linearGradient-1)"></path>
                    <path d="M15.8641787,0.334936491 L20.232,2.856 L0.276035272,24.6243006 C0.0975542101,24.276748 5.23814206e-13,23.8865057 5.21804822e-13,23.482373 L5.20028465e-13,9.49412433 C5.20472554e-13,8.60096035 0.476497308,7.7756428 1.25,7.32906082 L13.3641787,0.334936491 C14.1376814,-0.111645497 15.090676,-0.111645497 15.8641787,0.334936491 Z M29.2291177,15.0863243 L29.2283574,23.482373 C29.2283574,23.8176816 29.161201,24.1434281 29.0363851,24.4431633 L29.1469337,15.0040732 C29.1744865,15.0313317 29.2018817,15.0587492 29.2291177,15.0863243 Z M29.2283574,9.49412433 L29.2287744,12.6045729 L29.175,12.565 L29.2156482,9.24205215 C29.2240699,9.32528884 29.2283574,9.40940134 29.2283574,9.49412433 Z" id="形状结合" fill="url(#linearGradient-2)"></path>
                    <rect id="矩形备份-10" fill="url(#linearGradient-3)" x="12.1141787" y="12.1132487" width="20" height="20" rx="10"></rect>
                    <g id="扳手备份" transform="translate(16.489179, 15.863249)" fill="#FFFFFF" fill-rule="nonzero">
                        <path d="M12.4208884,3.95796504 C12.3423839,3.53565115 11.8026652,3.3785111 11.4984602,3.68296995 L8.91762382,6.25613828 C8.55454037,6.61952465 7.95594334,6.61952465 7.58304683,6.25613828 L6.2582829,4.9302691 C5.88538639,4.55706148 5.88538639,3.96778629 6.2582829,3.60439992 L8.85874542,1.01158908 C9.16295047,0.70713023 9.01575448,0.166961304 8.59379264,0.0883912787 C7.07276739,-0.206246317 5.44379842,0.235710077 4.26623049,1.41426046 C2.9610927,2.70084463 2.55875699,4.55706148 3.05922336,6.20703202 C3.13772788,6.47220585 3.08866255,6.76684345 2.89240123,6.96326851 L0.272312584,9.57572186 C-0.0907708614,9.93910823 -0.0907708614,10.5382047 0.272312584,10.901591 L1.60688957,12.2274602 C1.96997302,12.5908466 2.56857005,12.5908466 2.94146656,12.2274602 L5.58118134,9.59536437 C5.77744267,9.3989393 6.06202158,9.34001179 6.33678743,9.41858181 C7.97556947,9.89982322 9.81061283,9.49715184 11.1059376,8.20074642 C12.2540663,7.05165979 12.6956543,5.45079552 12.4208884,3.95796504 Z" id="路径"></path>
                    </g>
                    <line x1="4.61417869" y1="10.2382487" x2="4.61417869" y2="16.4882487" id="路径-29" stroke="#FFFFFF" stroke-width="1.97056519" opacity="0.420860654" stroke-linecap="round" stroke-linejoin="round"></line>
                </g>
            </g>
        </g>
    </g>
</svg>