<?xml version="1.0" encoding="UTF-8"?>
<svg width="40px" height="40px" viewBox="0 0 40 40" version="1.1" xmlns="http://www.w3.org/2000/svg" xmlns:xlink="http://www.w3.org/1999/xlink">
    <title>编组 27备份 3</title>
    <defs>
        <linearGradient x1="50%" y1="0%" x2="50%" y2="79.956823%" id="linearGradient-1">
            <stop stop-color="#A5C4FD" offset="0%"></stop>
            <stop stop-color="#4C7BFB" offset="100%"></stop>
        </linearGradient>
        <linearGradient x1="36.2477401%" y1="39.9584746%" x2="52.9968078%" y2="53.5593334%" id="linearGradient-2">
            <stop stop-color="#3F8AFC" stop-opacity="0" offset="0%"></stop>
            <stop stop-color="#FFFFFF" offset="100%"></stop>
        </linearGradient>
        <linearGradient x1="46.5130483%" y1="44.4020806%" x2="60.9518561%" y2="56.0719965%" id="linearGradient-3">
            <stop stop-color="#599AFC" stop-opacity="0" offset="0%"></stop>
            <stop stop-color="#FFFFFF" offset="100%"></stop>
        </linearGradient>
        <linearGradient x1="50%" y1="0%" x2="50%" y2="79.956823%" id="linearGradient-4">
            <stop stop-color="#A5C4FD" offset="0%"></stop>
            <stop stop-color="#4C7BFB" offset="100%"></stop>
        </linearGradient>
    </defs>
    <g id="最终" stroke="none" stroke-width="1" fill="none" fill-rule="evenodd">
        <g id="首页（无业务分组）备份-3" transform="translate(-541.000000, -880.000000)">
            <g id="编组-27备份-3" transform="translate(541.000000, 880.000000)">
                <rect id="矩形备份-27" x="0" y="0" width="40" height="40"></rect>
                <g id="编组-5" transform="translate(2.500000, 4.375000)">
                    <rect id="矩形" fill="url(#linearGradient-1)" fill-rule="nonzero" x="0" y="0" width="28.75" height="13.75" rx="2.5"></rect>
                    <rect id="矩形备份-6" fill="url(#linearGradient-1)" fill-rule="nonzero" x="0" y="17.5" width="28.75" height="13.75" rx="2.5"></rect>
                    <path d="M25,17.5 C25.5457617,17.5 26.0506778,17.6748807 26.4617676,17.9716613 L1.0392153,29.5290479 C0.409740758,29.07507 1.02305162e-16,28.335385 0,27.5 L0,20 C-1.69088438e-16,18.6192881 1.11928813,17.5 2.5,17.5 L25,17.5 Z" id="形状结合" fill="url(#linearGradient-2)" opacity="0.161891392"></path>
                    <path d="M26.25,0 C26.787934,-1.0543797e-15 27.2861858,0.169900179 27.6940215,0.458966836 L1.05696778,12.041734 C0.417455373,11.5889235 1.03263773e-16,10.8432127 0,10 L0,2.5 C-1.69088438e-16,1.11928813 1.11928813,2.53632657e-16 2.5,0 L26.25,0 Z" id="形状结合备份-5" fill="url(#linearGradient-3)" opacity="0.392012823"></path>
                    <circle id="椭圆形" fill="#FFFFFF" cx="6.25" cy="6.875" r="2.5"></circle>
                    <circle id="椭圆形备份" fill="#FFFFFF" cx="6.25" cy="24.375" r="2.5"></circle>
                    <g id="编组-8" transform="translate(16.250000, 12.500000)">
                        <rect id="矩形" stroke="#7BA4FE" stroke-width="1.25" fill="#FFFFFF" x="0.625" y="0.625" width="17.5" height="17.5" rx="8.75"></rect>
                        <path d="M10.0961538,3.515625 L10.095805,5.33894144 C12.613719,5.56837887 14.6033654,7.70133878 14.6033654,10.2764423 C14.6033654,13.0033053 12.3722957,15.234375 9.6454327,15.234375 C6.91856971,15.234375 4.6875,13.0033053 4.6875,10.2764423 C4.6875,9.63191108 4.836238,9.03695915 5.0345553,8.49158655 L6.72025241,9.83022838 C6.67067309,9.97896636 6.67067309,10.1277043 6.67067309,10.2764423 C6.67067309,11.9125601 8.00931492,13.2512019 9.6454327,13.2512019 C11.2815505,13.2512019 12.6201923,11.9125601 12.6201923,10.2764423 C12.6201923,8.79349448 11.5204599,7.55493161 10.0962667,7.33602527 L10.0961538,8.92427885 L5.58894231,6.21995192 L10.0961538,3.515625 Z" id="形状结合备份-4" fill="url(#linearGradient-4)" fill-rule="nonzero"></path>
                    </g>
                </g>
            </g>
        </g>
    </g>
</svg>