<?xml version="1.0" encoding="UTF-8"?>
<svg width="40px" height="40px" viewBox="0 0 40 40" version="1.1" xmlns="http://www.w3.org/2000/svg" xmlns:xlink="http://www.w3.org/1999/xlink">
    <title>编组 26备份</title>
    <defs>
        <linearGradient x1="50%" y1="0%" x2="50%" y2="79.956823%" id="linearGradient-1">
            <stop stop-color="#A5C4FD" offset="0%"></stop>
            <stop stop-color="#4C7BFB" offset="100%"></stop>
        </linearGradient>
        <linearGradient x1="36.2477401%" y1="41.8837569%" x2="52.9968078%" y2="52.8768951%" id="linearGradient-2">
            <stop stop-color="#3F8AFC" stop-opacity="0" offset="0%"></stop>
            <stop stop-color="#FFFFFF" offset="100%"></stop>
        </linearGradient>
        <linearGradient x1="50%" y1="0%" x2="50%" y2="79.956823%" id="linearGradient-3">
            <stop stop-color="#A5C4FD" offset="0%"></stop>
            <stop stop-color="#4C7BFB" offset="100%"></stop>
        </linearGradient>
    </defs>
    <g id="最终" stroke="none" stroke-width="1" fill="none" fill-rule="evenodd">
        <g id="首页（无业务分组）备份-3" transform="translate(-1447.000000, -880.000000)">
            <g id="编组-26备份" transform="translate(1447.000000, 880.000000)">
                <rect id="矩形备份-28" x="0" y="0" width="40" height="40"></rect>
                <g id="编组-25" transform="translate(3.750000, 5.000000)">
                    <g id="编组-24">
                        <path d="M4.75,13.75 C4.19771525,13.75 3.75,13.3022847 3.75,12.75 L3.75,5.75 C3.75,4.6454305 4.6454305,3.75 5.75,3.75 L26.75,3.75 C27.8545695,3.75 28.75,4.6454305 28.75,5.75 L28.75,12.75 C28.75,13.3022847 28.3022847,13.75 27.75,13.75 L21.5625,13.75 C21.5625,16.6840127 19.1840127,19.0625 16.25,19.0625 C13.3159873,19.0625 10.9375,16.6840127 10.9375,13.75 L4.75,13.75 Z" id="形状结合" fill="url(#linearGradient-1)" fill-rule="nonzero"></path>
                        <path d="M26.75,3.75 C27.3612443,3.75 27.9084445,4.024205 28.2753023,4.45631657 L5.556,13.75 L4.75,13.75 C4.19771525,13.75 3.75,13.3022847 3.75,12.75 L3.75,5.75 C3.75,4.6454305 4.6454305,3.75 5.75,3.75 L26.75,3.75 Z" id="形状结合" fill="url(#linearGradient-2)" opacity="0.161891392"></path>
                        <path d="M30.5,15 C31.6045695,15 32.5,15.8954305 32.5,17 L32.5,28 C32.5,29.1045695 31.6045695,30 30.5,30 L2,30 C0.8954305,30 1.3527075e-16,29.1045695 0,28 L0,17 C-1.3527075e-16,15.8954305 0.8954305,15 2,15 L9.80644574,15.0002155 C10.3901928,18.0266328 13.05315,20.3125 16.25,20.3125 C19.44685,20.3125 22.1098072,18.0266328 22.6935543,15.0002155 L30.5,15 Z" id="形状结合" fill="url(#linearGradient-3)" fill-rule="nonzero"></path>
                        <path d="M7.5,0 L25,0 C25.6903559,-1.26816328e-16 26.25,0.559644063 26.25,1.25 C26.25,1.94035594 25.6903559,2.5 25,2.5 L7.5,2.5 C6.80964406,2.5 6.25,1.94035594 6.25,1.25 C6.25,0.559644063 6.80964406,1.26816328e-16 7.5,0 Z" id="路径备份-4" fill="#8FB4FF" fill-rule="nonzero"></path>
                        <g id="编组-22" transform="translate(13.125000, 6.875000)" fill="#FFFFFF">
                            <rect id="矩形" stroke="#FFFFFF" x="2.6875" y="0.5" width="1" height="5.25"></rect>
                            <polygon id="三角形" transform="translate(3.125000, 6.875000) scale(1, -1) translate(-3.125000, -6.875000) " points="3.125 5 6.25 8.75 0 8.75"></polygon>
                        </g>
                    </g>
                    <line x1="11.25" y1="25.5078125" x2="21.40625" y2="25.5078125" id="路径-29" stroke="#FFFFFF" stroke-width="1.5" opacity="0.420860654" stroke-linecap="round" stroke-linejoin="round"></line>
                </g>
            </g>
        </g>
    </g>
</svg>