<?xml version="1.0" encoding="UTF-8"?>
<svg width="224px" height="148px" viewBox="0 0 224 148" version="1.1" xmlns="http://www.w3.org/2000/svg" xmlns:xlink="http://www.w3.org/1999/xlink">
    <title>6.没有访问权限</title>
    <defs>
        <path d="M49.9993334,121 C29.7675503,110.94613 0,91.7451234 0,79.3365977 L0,16.812376 C-2.67610064e-17,16.0230218 0.51405761,15.3256739 1.26807947,15.0921552 L49.4672519,0.164990772 C49.8142865,0.0575149966 50.1857135,0.0575149966 50.5327481,0.164990772 L98.7319205,15.0921552 C99.4859424,15.3256739 100,16.0230218 100,16.812376 L100,79.3365977 L100,79.3365977 C100,91.7305533 70.2311166,110.938198 49.9993334,121 Z" id="path-1"></path>
        <path d="M16.3333333,0 C25.8912287,0 33.6666667,7.7758003 33.6666667,16.6956522 C33.6666667,25.5141494 27.968351,32.3845892 20.3333333,34.7826087 L20.3333333,34.7826087 L20.33266,43.0238088 C20.7250433,42.7966744 21.1806725,42.6666667 21.6666667,42.6666667 L25.6666667,42.6666667 C27.139426,42.6666667 28.3333333,43.860574 28.3333333,45.3333333 C28.3333333,46.8060927 27.139426,48 25.6666667,48 L21.6666667,48 C21.1806725,48 20.7250433,47.8699923 20.33266,47.6428578 L20.3333333,59.826087 C20.3333436,62.2089233 18.5422586,64 16.3333333,64 C14.1244081,64 12.3333231,62.2090561 12.3333333,59.826087 L12.3333333,59.826087 L12.3333333,34.7826087 C4.69844836,32.3845892 -1,25.5141494 -1,16.6956522 C-1,7.77580017 6.7751723,0 16.3333333,0 Z M16.3333333,8 C21.4798935,8 25.6666667,12.186906 25.6666667,18.0512821 C25.6666667,22.4797607 21.4797607,26.6666667 16.3333333,26.6666667 C11.186906,26.6666667 7,22.4797607 7,18.0512821 C7,12.186906 11.186906,8 16.3333333,8 Z" id="path-3"></path>
    </defs>
    <g id="设置-邮件服务/告警通知（找回密码）" stroke="none" stroke-width="1" fill="none" fill-rule="evenodd">
        <g id="填写备份" transform="translate(-848.000000, -336.000000)">
            <g id="编组" transform="translate(840.000000, 286.000000)">
                <rect id="Rectangle" x="0" y="0" width="240" height="240"></rect>
                <path d="M211.859718,174.207157 C205.729007,178.485025 198.630288,181.800372 191.2089,184.046253 C186.691534,185.43656 182.066611,186.292133 177.441688,186.71992 C168.729624,187.575493 160.125116,186.71992 152.488616,183.832359 C126.567537,173.886317 97.8499927,196.131228 71.9289136,197.842375 C71.6062445,197.842375 71.1760191,197.842375 70.7457938,197.949322 C64.0773004,198.270162 57.6239197,197.093749 51.493208,193.671455 C46.6531725,190.997787 41.9206933,187.468547 37.2957705,183.190679 C12.8804801,160.517981 -4.4360914,125.332521 19.3338608,91.0026335 C47.5136232,50.3628919 60.1741814,56.9935865 75.5858293,62.340921 C90.9974771,67.6882554 98.1188836,70.565372 125.545752,69.175065 C152.97262,67.7847581 155.437172,65.4423749 183.939604,56.9935865 C212.442035,48.5447982 223.368247,95.7082878 231.219861,132.818789 C234.76922,149.930259 225.842043,164.475009 211.859718,174.207157 Z" id="Path" fill="#EDF2FF"></path>
                <g transform="translate(43.000000, 129.000000)" fill="#D4DFFF">
                    <polygon id="三角形" points="31 10 48 31 14 31"></polygon>
                    <polygon id="三角形复制" points="17 0 34 31 0 31"></polygon>
                </g>
                <g id="编组复制" transform="translate(161.000000, 131.000000)" fill="#D4DFFF">
                    <polygon id="三角形" points="29.5 7 42 25 17 25"></polygon>
                    <polygon id="三角形复制-2" points="8.5 11 17 25 0 25"></polygon>
                    <polygon id="三角形复制" points="19.5 0 32 25 7 25"></polygon>
                </g>
                <g id="编组-2" transform="translate(70.000000, 50.000000)">
                    <g id="Group-3">
                        <mask id="mask-2" fill="white">
                            <use xlink:href="#path-1"></use>
                        </mask>
                        <use id="Path" fill="#DFE8FF" xlink:href="#path-1"></use>
                        <rect id="Rectangle" fill="#BACCFF" mask="url(#mask-2)" x="50" y="-12" width="51" height="135"></rect>
                    </g>
                    <g id="Group" transform="translate(33.666667, 25.666667)">
                        <mask id="mask-4" fill="white">
                            <use xlink:href="#path-3"></use>
                        </mask>
                        <use id="Shape" fill="#EDF2FF" xlink:href="#path-3"></use>
                        <rect id="Rectangle" fill="#DFE8FF" mask="url(#mask-4)" x="16.3333333" y="-26.6666667" width="52" height="133.333333"></rect>
                    </g>
                </g>
            </g>
        </g>
    </g>
</svg>