<svg width="24.000000" height="24.000000" viewBox="0 0 24 24" fill="none" xmlns="http://www.w3.org/2000/svg" xmlns:xlink="http://www.w3.org/1999/xlink">
	<desc>
			Created with Pixso.
	</desc>
	<defs>
		<clipPath id="clip125_26278">
			<rect id="画板 372" width="24.000000" height="24.000000" fill="white" fill-opacity="0"/>
		</clipPath>
		<linearGradient x1="4.734863" y1="17.087049" x2="11.144730" y2="17.087049" id="paint_linear_125_26269_0" gradientUnits="userSpaceOnUse">
			<stop stop-color="#6AFFDB"/>
			<stop offset="1.000000" stop-color="#5DC8F5"/>
		</linearGradient>
		<linearGradient x1="8.716851" y1="7.507703" x2="19.008251" y2="7.507703" id="paint_linear_125_26271_0" gradientUnits="userSpaceOnUse">
			<stop stop-color="#2B45F4"/>
			<stop offset="1.000000" stop-color="#449CF5"/>
		</linearGradient>
		<linearGradient x1="4.393066" y1="7.512820" x2="10.803324" y2="7.512820" id="paint_linear_125_26272_0" gradientUnits="userSpaceOnUse">
			<stop stop-color="#2B45F4"/>
			<stop offset="1.000000" stop-color="#44A1F5"/>
		</linearGradient>
		<linearGradient x1="4.521729" y1="11.035002" x2="13.810825" y2="11.035002" id="paint_linear_125_26273_0" gradientUnits="userSpaceOnUse">
			<stop stop-color="#2B45F4"/>
			<stop offset="1.000000" stop-color="#44A1F5"/>
		</linearGradient>
		<linearGradient x1="9.179443" y1="10.803345" x2="19.606785" y2="10.803345" id="paint_linear_125_26274_0" gradientUnits="userSpaceOnUse">
			<stop stop-color="#6AFFDB"/>
			<stop offset="1.000000" stop-color="#5DC8F5"/>
		</linearGradient>
	</defs>
	<g clip-path="url(#clip125_26278)">
		<path id="蒙版" d="M6.69 12.17C7.5 12.71 8.47 13.02 9.52 13.02L11.14 13.02C10.44 13.95 10.03 15.1 10.03 16.35L10.03 22L4.73 22L4.73 16.44C4.73 14.76 5.47 13.25 6.63 12.21L6.69 12.17Z" fill="url(#paint_linear_125_26269_0)" fill-opacity="1.000000" fill-rule="evenodd"/>
		<path id="蒙版" d="M9.52 13.02L11.14 13.02C10.44 13.95 10.03 15.1 10.03 16.35L10.03 22L4.73 22L4.73 16.44C4.73 14.76 5.47 13.25 6.63 12.21L6.69 12.17C7.5 12.71 8.47 13.02 9.52 13.02Z" stroke="#000000" stroke-opacity="0" stroke-width="1.000000"/>
		<path id="路径备份-15" d="M13.49 2C16.54 2 19 4.46 19 7.51C19 10.45 16.7 12.85 13.8 13.01C13.42 12.46 12.95 11.98 12.4 11.6C13.52 10.59 14.22 9.13 14.22 7.51C14.22 4.46 11.75 2 8.7 2L13.49 2Z" fill="url(#paint_linear_125_26271_0)" fill-opacity="1.000000" fill-rule="evenodd"/>
		<path id="路径备份-15" d="M19 7.51C19 10.45 16.7 12.85 13.8 13.01C13.42 12.46 12.95 11.98 12.4 11.6C13.52 10.59 14.22 9.13 14.22 7.51C14.22 4.46 11.75 2 8.7 2L13.49 2C16.54 2 19 4.46 19 7.51Z" stroke="#000000" stroke-opacity="0" stroke-width="1.000000"/>
		<path id="路径备份-16" d="M9.69 2L9.69 7.64C9.69 8.86 10.1 9.99 10.8 10.88L10.8 13.02L9.52 13.02C6.68 13.02 4.39 10.72 4.39 7.89L4.39 2L9.69 2Z" fill="url(#paint_linear_125_26272_0)" fill-opacity="1.000000" fill-rule="evenodd"/>
		<path id="路径备份-16" d="M9.69 7.64C9.69 8.86 10.1 9.99 10.8 10.88L10.8 13.02L9.52 13.02C6.68 13.02 4.39 10.72 4.39 7.89L4.39 2L9.69 2L9.69 7.64Z" stroke="#000000" stroke-opacity="0" stroke-width="1.000000"/>
		<path id="蒙版" d="M4.52 9.04L4.55 9.06L4.6 9.09C5.86 9.88 7.27 10.42 8.74 10.66L8.76 10.66C9.35 10.75 9.95 10.8 10.54 10.8L10.79 10.8C12.03 11.18 13.09 11.98 13.81 13.02L9.52 13.02C7.08 13.02 5.04 11.32 4.52 9.04Z" fill="url(#paint_linear_125_26273_0)" fill-opacity="1.000000" fill-rule="evenodd"/>
		<path id="蒙版" d="M4.55 9.06L4.6 9.09C5.86 9.88 7.27 10.42 8.74 10.66L8.76 10.66C9.35 10.75 9.95 10.8 10.54 10.8L10.79 10.8C12.03 11.18 13.09 11.98 13.81 13.02L9.52 13.02C7.08 13.02 5.04 11.32 4.52 9.04L4.55 9.06Z" stroke="#000000" stroke-opacity="0" stroke-width="1.000000"/>
		<path id="路径备份-17" d="M14 10.8C17.1 10.8 19.6 13.3 19.6 16.4C19.6 19.49 17.1 22 14 22L9.17 22L9.18 21.99C12.3 21.94 14.82 19.4 14.82 16.27C14.82 13.7 13.12 11.52 10.79 10.8L14 10.8Z" fill="url(#paint_linear_125_26274_0)" fill-opacity="1.000000" fill-rule="evenodd"/>
		<path id="路径备份-17" d="M19.6 16.4C19.6 19.49 17.1 22 14 22L9.17 22L9.18 21.99C12.3 21.94 14.82 19.4 14.82 16.27C14.82 13.7 13.12 11.52 10.79 10.8L14 10.8C17.1 10.8 19.6 13.3 19.6 16.4Z" stroke="#000000" stroke-opacity="0" stroke-width="1.000000"/>
	</g>
</svg>
