<?xml version="1.0" encoding="UTF-8"?>
<svg width="32px" height="32px" viewBox="0 0 32 32" version="1.1" xmlns="http://www.w3.org/2000/svg" xmlns:xlink="http://www.w3.org/1999/xlink">
    <title>编组 6</title>
    <g id="初始化修改-2" stroke="none" stroke-width="1" fill="none" fill-rule="evenodd">
        <g id="1.3_初始化_已上传" transform="translate(-104.000000, -1672.000000)">
            <g id="编组-9" transform="translate(88.000000, 1655.000000)">
                <g id="编组-6" transform="translate(16.000000, 17.000000)">
                    <path d="M18.0384615,17 L13.9615385,17 C13.4230769,17 13,17.44 13,18 C13,18.56 13.4230769,19 13.9615385,19 L18.0384615,19 C18.5769231,19 19,18.56 19,18 C19,17.44 18.5769231,17 18.0384615,17 Z" id="路径" fill="#6C7280" fill-rule="nonzero"></path>
                    <path d="M24.7942857,8.11428572 L22.5142857,8.11428572 L21.1942857,5.32 C20.9028571,4.49714286 20.1657143,4 19.2914286,4 L12.7085714,4 C11.8514286,4 11.08,4.53142857 10.8228571,5.25142858 L9.46857143,8.11428572 L7.20571428,8.11428572 C5.44000001,8.11428572 4,9.53714285 4,11.3028572 L4,24.7942857 C4,26.56 5.44000001,28 7.20571428,28 L24.7942857,28 C26.56,28 28,26.56 28,24.7942857 L28,11.3028572 C28,9.53714288 26.56,8.11428575 24.7942857,8.11428572 Z M26.2857143,24.7942857 C26.2857143,25.6171429 25.6171429,26.2857143 24.7942857,26.2857143 L7.20571428,26.2857143 C6.81016284,26.2857143 6.43081215,26.1285821 6.15111504,25.848885 C5.87141793,25.5691879 5.71428573,25.1898372 5.71428573,24.7942857 L5.71428573,11.3028572 C5.71428573,10.48 6.38285715,9.82857145 7.20571428,9.82857145 L10.0171429,9.82857145 C10.3428571,9.82857145 10.6514286,9.64000002 10.7885714,9.33142858 L12.4,5.92 C12.4514286,5.78285715 12.6057143,5.71428573 12.7085714,5.71428573 L19.2742857,5.71428573 C19.4285714,5.71428573 19.5314286,5.78285715 19.6171429,5.98857142 L21.1942857,9.33142858 C21.3314285,9.62285714 21.64,9.82857145 21.9657143,9.82857145 L24.7771428,9.82857145 C25.6171429,9.82857145 26.2857143,10.48 26.2857143,11.3028572 L26.2857143,24.7942857 Z" id="形状" fill="#6C7280" fill-rule="nonzero"></path>
                    <path d="M21.1562079,13 L9.86030453,13 C8.83797501,13 8,13.9024768 8,15.0092879 L8,21.9907121 C8,23.0975232 8.83797501,24 9.86030453,24 L21.1394483,24 C22.1617779,24 22.9997529,23.0975232 22.9997529,21.9907121 L22.9997529,15.0092879 C23.0165124,13.9024768 22.1785374,13 21.1562079,13 L21.1562079,13 Z M21.3405624,22.00774 C21.3405624,22.1950465 21.2232458,22.3142415 21.1562079,22.3142415 L9.86030453,22.3142415 C9.79326654,22.3142415 9.67595003,22.1950464 9.67595003,22.00774 L9.67595003,15.0263158 C9.67595003,14.8390093 9.79326654,14.7198142 9.86030453,14.7198142 L21.1394483,14.7198142 C21.2064863,14.7198142 21.3238028,14.8390093 21.3238028,15.0263158 L21.3238028,22.00774 L21.3405624,22.00774 L21.3405624,22.00774 Z" id="形状" fill="#6C7280" fill-rule="nonzero"></path>
                    <rect id="矩形" x="0" y="0" width="32" height="32"></rect>
                </g>
            </g>
        </g>
    </g>
</svg>