<?xml version="1.0" encoding="UTF-8"?>
<svg width="16px" height="15px" viewBox="0 0 16 15" version="1.1" xmlns="http://www.w3.org/2000/svg" xmlns:xlink="http://www.w3.org/1999/xlink">
    <title>ICON/16/poweroff</title>
    <g id="诱饵侦测" stroke="none" stroke-width="1" fill="none" fill-rule="evenodd">
        <g id="ICON/16/poweroff" transform="translate(0.000000, 0.300476)" fill="#F0C442">
            <path d="M15.8803655,12.9498201 L8.57823318,0.347661722 C8.50733869,0.20763774 8.4364442,0.137625749 8.29465522,0.0676137576 C8.01107726,-0.0724102248 7.58571033,-0.00239823361 7.37302686,0.347661722 L0.0708944891,12.9498201 C0,13.0898441 0,13.1598561 0,13.2998801 C0,13.719952 0.283577956,14 0.708944891,14 L15.3132096,14 C15.4549986,14 15.5258931,14 15.6676821,13.929988 C16.0221545,13.719952 16.093049,13.2998801 15.8803655,12.9498201 Z M7.65660482,4.26833323 C7.86928829,4.12830925 8.15286624,4.12830925 8.36554971,4.33834522 C8.64912767,4.54838119 8.72002215,4.82842916 8.72002215,5.10847712 L8.57823318,9.09916062 C8.57823318,9.30919659 8.50733869,9.58924456 8.29465522,9.72926854 C8.08197175,9.86929252 7.94018277,9.86929252 7.72749931,9.72926854 C7.58571033,9.58924456 7.44392135,9.37920858 7.44392135,9.09916062 L7.30213237,5.03846513 C7.30213237,4.75841717 7.44392135,4.4783692 7.65660482,4.26833323 Z M8.64912767,11.5495803 C8.50733869,11.7596163 8.22376073,11.8996403 8.01107726,11.8996403 C7.58571033,11.8996403 7.30213237,11.5495803 7.30213237,11.1995204 C7.30213237,10.8494604 7.65660482,10.4994004 8.01107726,10.4994004 C8.29465522,10.4994004 8.50733869,10.6394244 8.64912767,10.8494604 C8.79091664,11.0594964 8.72002215,11.3395443 8.64912767,11.5495803 Z" id="ICON"></path>
        </g>
    </g>
</svg>