<svg width="174.000000" height="130.000000" viewBox="0 0 174 130" fill="none" xmlns="http://www.w3.org/2000/svg" xmlns:xlink="http://www.w3.org/1999/xlink">
<desc>
			Created with Pixso.
	</desc>
	<defs>
		<linearGradient x1="-14.750347" y1="70.265953" x2="225.585678" y2="70.265953" id="paint_linear_639_75893_0" gradientUnits="userSpaceOnUse">
			<stop stop-color="#3388FF" stop-opacity="0.600000"/>
			<stop offset="1.000000" stop-color="#70FFEB" stop-opacity="0.901961"/>
		</linearGradient>
		<linearGradient x1="0.000000" y1="70.779305" x2="174.000015" y2="70.779305" id="paint_linear_639_75893_1" gradientUnits="userSpaceOnUse">
			<stop stop-color="#2A73FF" stop-opacity="0.498039"/>
			<stop offset="1.000000" stop-color="#0D3FFF" stop-opacity="0.411765"/>
		</linearGradient>
		<linearGradient x1="5.287419" y1="64.803833" x2="85.371788" y2="64.803833" id="paint_linear_639_75908_0" gradientUnits="userSpaceOnUse">
			<stop stop-color="#3388FF" stop-opacity="0.627451"/>
			<stop offset="1.000000" stop-color="#90D45F"/>
		</linearGradient>
		<linearGradient x1="14.606201" y1="69.155045" x2="23.222240" y2="69.155045" id="paint_linear_639_75908_1" gradientUnits="userSpaceOnUse">
			<stop stop-color="#2A73FF" stop-opacity="0.498039"/>
			<stop offset="1.000000" stop-color="#0D3FFF" stop-opacity="0.411765"/>
		</linearGradient>
		<linearGradient x1="21.796894" y1="64.379486" x2="85.864685" y2="64.379486" id="paint_linear_639_75911_0" gradientUnits="userSpaceOnUse">
			<stop stop-color="#3388FF" stop-opacity="0.627451"/>
			<stop offset="1.000000" stop-color="#90D45F"/>
		</linearGradient>
		<linearGradient x1="29.251953" y1="68.212624" x2="36.144817" y2="68.212624" id="paint_linear_639_75911_1" gradientUnits="userSpaceOnUse">
			<stop stop-color="#2A73FF" stop-opacity="0.498039"/>
			<stop offset="1.000000" stop-color="#0D3FFF" stop-opacity="0.411765"/>
		</linearGradient>
		<linearGradient x1="36.512794" y1="64.180084" x2="92.581894" y2="64.180084" id="paint_linear_639_75914_0" gradientUnits="userSpaceOnUse">
			<stop stop-color="#3388FF" stop-opacity="0.627451"/>
			<stop offset="1.000000" stop-color="#90D45F"/>
		</linearGradient>
		<linearGradient x1="43.037109" y1="67.674866" x2="49.069420" y2="67.674866" id="paint_linear_639_75914_1" gradientUnits="userSpaceOnUse">
			<stop stop-color="#2A73FF" stop-opacity="0.498039"/>
			<stop offset="1.000000" stop-color="#0D3FFF" stop-opacity="0.411765"/>
		</linearGradient>
		<linearGradient x1="55.749714" y1="64.180084" x2="79.775566" y2="64.180084" id="paint_linear_639_75917_0" gradientUnits="userSpaceOnUse">
			<stop stop-color="#3388FF" stop-opacity="0.627451"/>
			<stop offset="1.000000" stop-color="#90D45F"/>
		</linearGradient>
		<linearGradient x1="58.545410" y1="66.497467" x2="61.130280" y2="66.497467" id="paint_linear_639_75917_1" gradientUnits="userSpaceOnUse">
			<stop stop-color="#2A73FF" stop-opacity="0.498039"/>
			<stop offset="1.000000" stop-color="#0D3FFF" stop-opacity="0.411765"/>
		</linearGradient>
		<linearGradient x1="69.646568" y1="64.275070" x2="92.716690" y2="64.275070" id="paint_linear_639_75920_0" gradientUnits="userSpaceOnUse">
			<stop stop-color="#3388FF" stop-opacity="0.627451"/>
			<stop offset="1.000000" stop-color="#90D45F"/>
		</linearGradient>
		<linearGradient x1="72.331055" y1="66.430534" x2="74.813103" y2="66.430534" id="paint_linear_639_75920_1" gradientUnits="userSpaceOnUse">
			<stop stop-color="#2A73FF" stop-opacity="0.498039"/>
			<stop offset="1.000000" stop-color="#0D3FFF" stop-opacity="0.411765"/>
		</linearGradient>
		<linearGradient x1="83.390388" y1="64.181061" x2="99.409386" y2="64.181061" id="paint_linear_639_75923_0" gradientUnits="userSpaceOnUse">
			<stop stop-color="#3388FF" stop-opacity="0.627451"/>
			<stop offset="1.000000" stop-color="#90D45F"/>
		</linearGradient>
		<linearGradient x1="85.254395" y1="65.940529" x2="86.977829" y2="65.940529" id="paint_linear_639_75923_1" gradientUnits="userSpaceOnUse">
			<stop stop-color="#2A73FF" stop-opacity="0.498039"/>
			<stop offset="1.000000" stop-color="#0D3FFF" stop-opacity="0.411765"/>
		</linearGradient>
	</defs>
	<mask id="mask_639_75893" fill="white">
		<path id="形状结合" d="M11.6313 0C5.20752 0 0 29.1016 0 65C0 100.898 5.20752 130 11.6313 130C14.561 130 17.2378 123.947 19.283 113.957C21.0156 120.573 23.1143 124.444 25.3755 124.444C28.2966 124.444 30.9463 117.983 32.8862 107.493C34.595 115.398 36.7798 120.141 39.1609 120.141C41.9207 120.141 44.4167 113.769 46.2134 103.487C47.7935 111.188 49.8433 115.836 52.0835 115.836C55.4148 115.836 58.3257 105.554 59.8958 90.2449C61.3601 103.071 63.8745 111.532 66.7302 111.532C69.6768 111.532 72.2598 102.525 73.7012 89.0103C75.0303 99.781 77.2014 106.797 79.6538 106.797C82.4775 106.797 84.928 97.4983 86.1501 83.8765C87.2749 95.2776 89.3464 102.924 91.7158 102.924C95.2847 102.924 98.1777 85.5784 98.1777 64.1819C98.1777 42.7854 95.2847 25.4402 91.7158 25.4402C89.3464 25.4402 87.2749 33.0857 86.1501 44.4863C84.928 30.864 82.4775 21.5649 79.6538 21.5649C77.2014 21.5649 75.0303 28.5806 73.7012 39.3513C72.2598 25.8369 69.6768 16.8298 66.7302 16.8298C63.8745 16.8298 61.3601 25.2913 59.8958 38.1167C58.3257 22.8074 55.4148 12.5251 52.0835 12.5251C49.8433 12.5251 47.7935 17.1743 46.2134 24.8745C44.4167 14.593 41.9207 8.2207 39.1609 8.2207C36.7397 8.2207 34.5217 13.1245 32.8008 21.2693C30.8687 11.0491 28.2539 4.77563 25.3755 4.77563C23.075 4.77563 20.9431 8.78271 19.1934 15.6094C17.1599 5.87793 14.5186 0 11.6313 0ZM105.501 29.7449C102.408 29.7449 99.9009 45.1628 99.9009 64.1819C99.9009 83.2009 102.408 98.6189 105.501 98.6189C108.594 98.6189 111.102 83.2009 111.102 64.1819C111.102 45.1628 108.594 29.7449 105.501 29.7449ZM118.858 34.0493C116.479 34.0493 114.55 47.5403 114.55 64.1819C114.55 80.8235 116.479 94.3142 118.858 94.3142C121.237 94.3142 123.166 80.8235 123.166 64.1819C123.166 47.5403 121.237 34.0493 118.858 34.0493ZM131.781 38.353C129.877 38.353 128.334 49.9165 128.334 64.1809C128.334 78.4453 129.877 90.0088 131.781 90.0088C133.684 90.0088 135.227 78.4453 135.227 64.1809C135.227 49.9165 133.684 38.353 131.781 38.353ZM145.566 43.5193C144.138 43.5193 142.981 52.9629 142.981 64.6121C142.981 76.2612 144.138 85.7046 145.566 85.7046C146.993 85.7046 148.151 76.2612 148.151 64.6121C148.151 52.9629 146.993 43.5193 145.566 43.5193ZM159.351 47.8242C158.399 47.8242 157.628 55.1477 157.628 64.1819C157.628 73.2158 158.399 80.5396 159.351 80.5396C160.303 80.5396 161.074 73.2158 161.074 64.1819C161.074 55.1477 160.303 47.8242 159.351 47.8242ZM173.138 52.9885C172.663 52.9885 172.277 58.1921 172.277 64.6108C172.277 71.0298 172.663 76.2334 173.138 76.2334C173.614 76.2334 174 71.0298 174 64.6108C174 58.1921 173.614 52.9885 173.138 52.9885Z" clip-rule="evenodd" fill="" fill-opacity="1.000000" fill-rule="evenodd"/>
	</mask>
	<path id="形状结合" d="M11.6313 0C5.20752 0 0 29.1016 0 65C0 100.898 5.20752 130 11.6313 130C14.561 130 17.2378 123.947 19.283 113.957C21.0156 120.573 23.1143 124.444 25.3755 124.444C28.2966 124.444 30.9463 117.983 32.8862 107.493C34.595 115.398 36.7798 120.141 39.1609 120.141C41.9207 120.141 44.4167 113.769 46.2134 103.487C47.7935 111.188 49.8433 115.836 52.0835 115.836C55.4148 115.836 58.3257 105.554 59.8958 90.2449C61.3601 103.071 63.8745 111.532 66.7302 111.532C69.6768 111.532 72.2598 102.525 73.7012 89.0103C75.0303 99.781 77.2014 106.797 79.6538 106.797C82.4775 106.797 84.928 97.4983 86.1501 83.8765C87.2749 95.2776 89.3464 102.924 91.7158 102.924C95.2847 102.924 98.1777 85.5784 98.1777 64.1819C98.1777 42.7854 95.2847 25.4402 91.7158 25.4402C89.3464 25.4402 87.2749 33.0857 86.1501 44.4863C84.928 30.864 82.4775 21.5649 79.6538 21.5649C77.2014 21.5649 75.0303 28.5806 73.7012 39.3513C72.2598 25.8369 69.6768 16.8298 66.7302 16.8298C63.8745 16.8298 61.3601 25.2913 59.8958 38.1167C58.3257 22.8074 55.4148 12.5251 52.0835 12.5251C49.8433 12.5251 47.7935 17.1743 46.2134 24.8745C44.4167 14.593 41.9207 8.2207 39.1609 8.2207C36.7397 8.2207 34.5217 13.1245 32.8008 21.2693C30.8687 11.0491 28.2539 4.77563 25.3755 4.77563C23.075 4.77563 20.9431 8.78271 19.1934 15.6094C17.1599 5.87793 14.5186 0 11.6313 0ZM105.501 29.7449C102.408 29.7449 99.9009 45.1628 99.9009 64.1819C99.9009 83.2009 102.408 98.6189 105.501 98.6189C108.594 98.6189 111.102 83.2009 111.102 64.1819C111.102 45.1628 108.594 29.7449 105.501 29.7449ZM118.858 34.0493C116.479 34.0493 114.55 47.5403 114.55 64.1819C114.55 80.8235 116.479 94.3142 118.858 94.3142C121.237 94.3142 123.166 80.8235 123.166 64.1819C123.166 47.5403 121.237 34.0493 118.858 34.0493ZM131.781 38.353C129.877 38.353 128.334 49.9165 128.334 64.1809C128.334 78.4453 129.877 90.0088 131.781 90.0088C133.684 90.0088 135.227 78.4453 135.227 64.1809C135.227 49.9165 133.684 38.353 131.781 38.353ZM145.566 43.5193C144.138 43.5193 142.981 52.9629 142.981 64.6121C142.981 76.2612 144.138 85.7046 145.566 85.7046C146.993 85.7046 148.151 76.2612 148.151 64.6121C148.151 52.9629 146.993 43.5193 145.566 43.5193ZM159.351 47.8242C158.399 47.8242 157.628 55.1477 157.628 64.1819C157.628 73.2158 158.399 80.5396 159.351 80.5396C160.303 80.5396 161.074 73.2158 161.074 64.1819C161.074 55.1477 160.303 47.8242 159.351 47.8242ZM173.138 52.9885C172.663 52.9885 172.277 58.1921 172.277 64.6108C172.277 71.0298 172.663 76.2334 173.138 76.2334C173.614 76.2334 174 71.0298 174 64.6108C174 58.1921 173.614 52.9885 173.138 52.9885Z" clip-rule="evenodd" fill="url(#paint_linear_639_75893_0)" fill-opacity="1.000000" fill-rule="evenodd" mask="url(#mask_639_75893)"/>
	<path id="形状结合" d="" clip-rule="evenodd" fill="url(#paint_linear_639_75893_1)" fill-opacity="0.000000" fill-rule="evenodd"/>
	<mask id="mask_639_75908" fill="white">
		<path id="形状结合" d="M19.2283 113.743C21.6755 101.906 23.2222 84.4766 23.2222 65.0417C23.2222 45.345 21.6335 27.708 19.1287 15.8645C16.3911 26.7136 14.6062 44.5032 14.6062 64.6089C14.6062 84.9573 16.4346 102.933 19.2283 113.743Z" clip-rule="evenodd" fill="" fill-opacity="1.000000" fill-rule="evenodd"/>
	</mask>
	<path id="形状结合" d="M19.2283 113.743C21.6755 101.906 23.2222 84.4766 23.2222 65.0417C23.2222 45.345 21.6335 27.708 19.1287 15.8645C16.3911 26.7136 14.6062 44.5032 14.6062 64.6089C14.6062 84.9573 16.4346 102.933 19.2283 113.743Z" clip-rule="evenodd" fill="url(#paint_linear_639_75908_0)" fill-opacity="1.000000" fill-rule="evenodd" mask="url(#mask_639_75908)"/>
	<path id="形状结合" d="" clip-rule="evenodd" fill="url(#paint_linear_639_75908_1)" fill-opacity="0.000000" fill-rule="evenodd"/>
	<mask id="mask_639_75911" fill="white">
		<path id="形状结合" d="M32.8855 107.491C34.896 96.6211 36.1448 81.4246 36.1448 64.6072C36.1448 47.5537 34.8606 32.1667 32.8003 21.2676C30.6313 31.533 29.252 46.9468 29.252 64.1802C29.252 81.6379 30.6675 97.2288 32.8855 107.491Z" clip-rule="evenodd" fill="" fill-opacity="1.000000" fill-rule="evenodd"/>
	</mask>
	<path id="形状结合" d="M32.8855 107.491C34.896 96.6211 36.1448 81.4246 36.1448 64.6072C36.1448 47.5537 34.8606 32.1667 32.8003 21.2676C30.6313 31.533 29.252 46.9468 29.252 64.1802C29.252 81.6379 30.6675 97.2288 32.8855 107.491Z" clip-rule="evenodd" fill="url(#paint_linear_639_75911_0)" fill-opacity="1.000000" fill-rule="evenodd" mask="url(#mask_639_75911)"/>
	<path id="形状结合" d="" clip-rule="evenodd" fill="url(#paint_linear_639_75911_1)" fill-opacity="0.000000" fill-rule="evenodd"/>
	<mask id="mask_639_75914" fill="white">
		<path id="形状结合" d="M46.2136 103.486C47.9795 93.3811 49.0693 79.4995 49.0693 64.1802C49.0693 48.8606 47.9795 34.979 46.2136 24.8738C44.2698 34.3484 43.0371 48.4424 43.0371 64.1802C43.0371 79.918 44.2698 94.0117 46.2136 103.486Z" clip-rule="evenodd" fill="" fill-opacity="1.000000" fill-rule="evenodd"/>
	</mask>
	<path id="形状结合" d="M46.2136 103.486C47.9795 93.3811 49.0693 79.4995 49.0693 64.1802C49.0693 48.8606 47.9795 34.979 46.2136 24.8738C44.2698 34.3484 43.0371 48.4424 43.0371 64.1802C43.0371 79.918 44.2698 94.0117 46.2136 103.486Z" clip-rule="evenodd" fill="url(#paint_linear_639_75914_0)" fill-opacity="1.000000" fill-rule="evenodd" mask="url(#mask_639_75914)"/>
	<path id="形状结合" d="" clip-rule="evenodd" fill="url(#paint_linear_639_75914_1)" fill-opacity="0.000000" fill-rule="evenodd"/>
	<mask id="mask_639_75917" fill="white">
		<path id="形状结合" d="M59.896 90.2441C60.6804 82.593 61.1304 73.6865 61.1304 64.1802C61.1304 54.6736 60.6804 45.7671 59.896 38.116C59.0422 45.5918 58.5454 54.55 58.5454 64.1799C58.5454 73.8101 59.0422 82.7683 59.896 90.2441Z" clip-rule="evenodd" fill="" fill-opacity="1.000000" fill-rule="evenodd"/>
	</mask>
	<path id="形状结合" d="M59.896 90.2441C60.6804 82.593 61.1304 73.6865 61.1304 64.1802C61.1304 54.6736 60.6804 45.7671 59.896 38.116C59.0422 45.5918 58.5454 54.55 58.5454 64.1799C58.5454 73.8101 59.0422 82.7683 59.896 90.2441Z" clip-rule="evenodd" fill="url(#paint_linear_639_75917_0)" fill-opacity="1.000000" fill-rule="evenodd" mask="url(#mask_639_75917)"/>
	<path id="形状结合" d="" clip-rule="evenodd" fill="url(#paint_linear_639_75917_1)" fill-opacity="0.000000" fill-rule="evenodd"/>
	<mask id="mask_639_75920" fill="white">
		<path id="形状结合" d="M73.6719 88.5178C74.397 81.4512 74.813 73.2002 74.813 64.3867C74.813 55.4802 74.3879 47.1482 73.6489 40.0322C72.8184 46.8733 72.3311 55.1992 72.3311 64.1807C72.3311 73.2449 72.8274 81.6414 73.6719 88.5178Z" clip-rule="evenodd" fill="" fill-opacity="1.000000" fill-rule="evenodd"/>
	</mask>
	<path id="形状结合" d="M73.6719 88.5178C74.397 81.4512 74.813 73.2002 74.813 64.3867C74.813 55.4802 74.3879 47.1482 73.6489 40.0322C72.8184 46.8733 72.3311 55.1992 72.3311 64.1807C72.3311 73.2449 72.8274 81.6414 73.6719 88.5178Z" clip-rule="evenodd" fill="url(#paint_linear_639_75920_0)" fill-opacity="1.000000" fill-rule="evenodd" mask="url(#mask_639_75920)"/>
	<path id="形状结合" d="" clip-rule="evenodd" fill="url(#paint_linear_639_75920_1)" fill-opacity="0.000000" fill-rule="evenodd"/>
	<mask id="mask_639_75923" fill="white">
		<path id="形状结合" d="M86.1597 83.97C86.6826 78.0452 86.9778 71.3157 86.9778 64.1804C86.9778 57.0459 86.6826 50.3167 86.1599 44.3921C85.5847 50.1841 85.2544 56.9514 85.2544 64.1814C85.2544 71.4111 85.5847 78.1782 86.1597 83.97Z" clip-rule="evenodd" fill="" fill-opacity="1.000000" fill-rule="evenodd"/>
	</mask>
	<path id="形状结合" d="M86.1597 83.97C86.6826 78.0452 86.9778 71.3157 86.9778 64.1804C86.9778 57.0459 86.6826 50.3167 86.1599 44.3921C85.5847 50.1841 85.2544 56.9514 85.2544 64.1814C85.2544 71.4111 85.5847 78.1782 86.1597 83.97Z" clip-rule="evenodd" fill="url(#paint_linear_639_75923_0)" fill-opacity="1.000000" fill-rule="evenodd" mask="url(#mask_639_75923)"/>
	<path id="形状结合" d="" clip-rule="evenodd" fill="url(#paint_linear_639_75923_1)" fill-opacity="0.000000" fill-rule="evenodd"/>
</svg>
