<?xml version="1.0" encoding="UTF-8"?>
<svg width="48px" height="48px" viewBox="0 0 48 48" version="1.1" xmlns="http://www.w3.org/2000/svg" xmlns:xlink="http://www.w3.org/1999/xlink">
    <title>编组 9备份 2</title>
    <defs>
        <circle id="path-1" cx="24" cy="24" r="24"></circle>
        <linearGradient x1="50.0013878%" y1="0.00122539841%" x2="50%" y2="74.6910796%" id="linearGradient-3">
            <stop stop-color="#B9DDFC" offset="0%"></stop>
            <stop stop-color="#6E9DFF" offset="100%"></stop>
        </linearGradient>
        <linearGradient x1="57.7970606%" y1="70.6095238%" x2="11.8982432%" y2="15.6095238%" id="linearGradient-4">
            <stop stop-color="#B6D4FF" offset="0%"></stop>
            <stop stop-color="#5595F5" offset="100%"></stop>
        </linearGradient>
        <linearGradient x1="50%" y1="0%" x2="50%" y2="97.3282274%" id="linearGradient-5">
            <stop stop-color="#C1DEFF" offset="0%"></stop>
            <stop stop-color="#689AFF" stop-opacity="0.1" offset="100%"></stop>
        </linearGradient>
        <linearGradient x1="57.4215936%" y1="60.6908665%" x2="94.7175552%" y2="111.470673%" id="linearGradient-6">
            <stop stop-color="#9FBDFD" stop-opacity="0.05" offset="0%"></stop>
            <stop stop-color="#4D80FC" offset="100%"></stop>
        </linearGradient>
    </defs>
    <g id="报告修改（0802）" stroke="none" stroke-width="1" fill="none" fill-rule="evenodd">
        <g id="数据安全_报告-new" transform="translate(-363.000000, -241.000000)">
            <g id="编组-9备份-2" transform="translate(363.000000, 241.000000)">
                <g id="编组-9备份">
                    <mask id="mask-2" fill="white">
                        <use xlink:href="#path-1"></use>
                    </mask>
                    <g id="蒙版" fill-rule="nonzero"></g>
                    <g mask="url(#mask-2)">
                        <g transform="translate(4.000000, 11.000000)">
                            <rect id="矩形" x="0" y="0" width="40" height="40"></rect>
                            <g id="编组-8" transform="translate(4.166667, 3.333313)" fill-rule="nonzero">
                                <g id="_组-2">
                                    <path d="M29.7085877,8.33969626 C29.543895,8.50636282 29.3675027,8.66041678 29.1794111,8.80095723 C29.0561165,8.89735356 28.9265222,8.9856418 28.7915282,9.06402013 C28.6565342,9.14690296 28.5179403,9.22167768 28.3748466,9.29014611 C28.162456,9.39555145 27.9410658,9.48383968 27.7142758,9.553209 C27.2435966,9.69825396 26.7540182,9.77302869 26.2617399,9.77302869 L25.35368,9.77302869 L25.35368,41.3333741 C25.35368,42.4379436 24.4582495,43.3333741 23.35368,43.3333741 L2,43.3333741 C0.8954305,43.3333741 1.3527075e-16,42.4379436 0,41.3333741 L0,4.37393301 L0,4.37393301 C0.00449980123,3.21537518 0.465279447,2.10546598 1.28334331,1.28564668 C2.10140717,0.466728275 3.20925824,0.00456640559 4.36660711,0 L26.2491405,0 C26.8584136,-0.00173989672 27.4631869,0.111773545 28.0301618,0.335196827 C28.1876549,0.396458049 28.3406481,0.466728275 28.4900415,0.545106604 C28.5647382,0.582944418 28.636735,0.623484932 28.7087318,0.667629049 C28.7681292,0.70006146 28.8257267,0.736097474 28.8806243,0.773935288 C29.1767112,0.961322556 29.4502991,1.18114224 29.6977882,1.42888983 C30.0298735,1.76222295 30.312461,2.14060109 30.5365511,2.55411434 C30.6886444,2.83249254 30.8119389,3.12528515 30.9055348,3.42888856 L30.9712319,3.66402355 C31.0117301,3.8207802 31.0441287,3.98023956 31.0684276,4.14059982 C31.1107257,4.38654561 31.1332247,4.6342932 31.1377246,4.88384259 C31.1377246,5.37663507 31.0639278,5.86762575 30.9190342,6.33879663 C30.6850445,7.0955529 30.2692629,7.78203896 29.7085877,8.33969626 Z" id="_径-2" fill="url(#linearGradient-3)"></path>
                                    <path d="M31.1367878,4.97000562 C31.1367878,5.46572846 31.0616001,5.95783947 30.9139423,6.43189137 C30.8161078,6.73528458 30.690191,7.02964824 30.5380039,7.31046755 C30.3070056,7.72492435 30.0189371,8.10597178 29.6810454,8.44096845 C29.5134584,8.60891827 29.3331891,8.76332374 29.1429552,8.90418488 C29.0152267,8.99899526 28.8847806,9.08387312 28.7479933,9.16875099 C28.6112061,9.25182294 28.4698895,9.32767124 28.3240434,9.39539294 C28.1066333,9.50013583 27.8819761,9.58862552 27.6518836,9.65995905 C27.1726753,9.80623792 26.6744436,9.88028031 26.1734943,9.88028031 L25.249501,9.88028031 L25.249501,4.45622366 C25.2513127,3.58848295 25.512205,2.74151023 25.9995662,2.02004839 C26.4860215,1.29858655 27.1781106,0.735142013 27.9870577,0.399242383 C28.1464918,0.462449303 28.3059259,0.531976914 28.4553954,0.610534086 C28.531489,0.648458237 28.6048649,0.689091257 28.6782409,0.733336101 C28.7389346,0.765842516 28.7969106,0.801960756 28.8530749,0.840787864 C29.1538257,1.02860271 29.4328354,1.24982693 29.6846689,1.49904278 C30.0225606,1.83403946 30.3097232,2.21418393 30.5389098,2.62954369 C30.6920028,2.910363 30.8179195,3.20472665 30.9148482,3.50811987 L30.981883,3.74469434 C31.0235533,3.90271164 31.0561648,4.06253485 31.0806235,4.22326101 C31.1195762,4.47067095 31.1385995,4.71988681 31.1377246,4.97000562 L31.1377246,4.97000562 L31.1367878,4.97000562 Z" id="_径-3" fill="url(#linearGradient-4)"></path>
                                    <path d="M20.3677067,24.8503402 L4.18319151,24.8503402 C3.91215464,24.8503402 3.69261477,25.0286502 3.69261477,25.2495418 C3.69261477,25.4704333 3.91215464,25.6487434 4.18319151,25.6487434 L20.3677067,25.6487434 C20.6387436,25.6487434 20.8582834,25.4704333 20.8582834,25.2495418 C20.8582834,25.0286502 20.6387436,24.8503402 20.3677067,24.8503402 L20.3677067,24.8503402 Z" id="_径-4" fill="#FFFFFF"></path>
                                    <path d="M20.3677067,19.8603202 L4.18319151,19.8603202 C3.91215464,19.8603202 3.69261477,20.0386303 3.69261477,20.2595218 C3.69261477,20.4804134 3.91215464,20.6587234 4.18319151,20.6587234 L20.3677067,20.6587234 C20.6387436,20.6587234 20.8582834,20.4804134 20.8582834,20.2595218 C20.8582834,20.0386303 20.6387436,19.8603202 20.3677067,19.8603202 L20.3677067,19.8603202 Z" id="_径-5" fill="#FFFFFF"></path>
                                    <path d="M20.3688813,14.8703003 L9.97044007,14.8703003 C9.70045623,14.8703003 9.48103792,15.0486103 9.48103792,15.2695019 C9.48103792,15.4903934 9.70045623,15.6687035 9.97044007,15.6687035 L20.3688813,15.6687035 C20.6388651,15.6687035 20.8582834,15.4903934 20.8582834,15.2695019 C20.8582834,15.0486103 20.6388651,14.8703003 20.3688813,14.8703003 L20.3688813,14.8703003 Z" id="_径-6" fill="#FFFFFF"></path>
                                    <path d="M13.3049217,9.78047991 L4.06034777,9.78047991 C3.85715056,9.78047991 3.69261477,9.91783007 3.69261477,10.087967 L3.69261477,10.271396 C3.69261477,10.4406468 3.85715056,10.5788831 4.06034777,10.5788831 L13.3049217,10.5788831 C13.5081189,10.5788831 13.6726547,10.4415329 13.6726547,10.271396 L13.6726547,10.087967 C13.6726547,9.9187162 13.5081189,9.78047991 13.3049217,9.78047991 L13.3049217,9.78047991 Z" id="_径-7" fill="#FFFFFF"></path>
                                    <path d="M7.42325177,14.8703003 L4.15359453,14.8703003 C3.8994761,14.8703003 3.69261477,15.0486103 3.69261477,15.2695019 C3.69261477,15.4903934 3.89858445,15.6687035 4.15359453,15.6687035 L7.42325177,15.6687035 C7.67737021,15.6687035 7.88423154,15.4903934 7.88423154,15.2695019 C7.88423154,15.0486103 7.67826186,14.8703003 7.42325177,14.8703003 L7.42325177,14.8703003 Z" id="_径-8" fill="#FFFFFF"></path>
                                </g>
                            </g>
                        </g>
                    </g>
                </g>
                <g id="编组-19">
                    <rect id="矩形" fill="url(#linearGradient-5)" opacity="0.300000012" x="0" y="0" width="48" height="48" rx="24"></rect>
                    <rect id="矩形" stroke="url(#linearGradient-6)" x="0.5" y="0.5" width="47" height="47" rx="23.5"></rect>
                </g>
            </g>
        </g>
    </g>
</svg>