<?xml version="1.0" encoding="UTF-8"?>
<svg width="1200px" height="388px" viewBox="0 0 1200 388" version="1.1" xmlns="http://www.w3.org/2000/svg" xmlns:xlink="http://www.w3.org/1999/xlink">
    <title>编组 7</title>
    <defs>
        <linearGradient x1="100%" y1="44.7727778%" x2="22.0277077%" y2="54.4524738%" id="linearGradient-1">
            <stop stop-color="#C0E6FF" offset="0.000597546984%"></stop>
            <stop stop-color="#E7EEFF" offset="100%"></stop>
        </linearGradient>
        <linearGradient x1="0%" y1="50%" x2="97.500461%" y2="50%" id="linearGradient-2">
            <stop stop-color="#FFFFFF" stop-opacity="0.1" offset="0%"></stop>
            <stop stop-color="#FFFFFF" stop-opacity="0.4" offset="100%"></stop>
        </linearGradient>
        <linearGradient x1="0%" y1="50%" x2="95.7939026%" y2="50%" id="linearGradient-3">
            <stop stop-color="#FFFFFF" stop-opacity="0.1" offset="0%"></stop>
            <stop stop-color="#FFFFFF" stop-opacity="0.5" offset="100%"></stop>
        </linearGradient>
        <linearGradient x1="100.004823%" y1="49.9859274%" x2="0%" y2="49.9859274%" id="linearGradient-4">
            <stop stop-color="#B0CFFF" offset="0%"></stop>
            <stop stop-color="#D1E1FF" offset="100%"></stop>
        </linearGradient>
        <linearGradient x1="0%" y1="50.0063379%" x2="100%" y2="50.0063379%" id="linearGradient-5">
            <stop stop-color="#FFFFFF" stop-opacity="0.5" offset="0%"></stop>
            <stop stop-color="#E7EEFF" offset="100%"></stop>
        </linearGradient>
        <linearGradient x1="0%" y1="49.9949955%" x2="100.024845%" y2="49.9949955%" id="linearGradient-6">
            <stop stop-color="#FFFFFF" stop-opacity="0.5" offset="0%"></stop>
            <stop stop-color="#E7EEFF" offset="100%"></stop>
        </linearGradient>
        <linearGradient x1="102.272196%" y1="32.4012296%" x2="-1.88691331%" y2="32.4012296%" id="linearGradient-7">
            <stop stop-color="#FFFFFF" stop-opacity="0" offset="0%"></stop>
            <stop stop-color="#FFFFFF" stop-opacity="0.977307262" offset="18.1925202%"></stop>
            <stop stop-color="#FFFFFF" offset="31.2369151%"></stop>
            <stop stop-color="#FFFFFF" offset="79.7136217%"></stop>
            <stop stop-color="#FFFFFF" stop-opacity="0" offset="100%"></stop>
            <stop stop-color="#EEEEEE" offset="100%"></stop>
        </linearGradient>
        <rect id="path-8" x="0" y="0" width="143.338671" height="42.8429237"></rect>
        <linearGradient x1="50%" y1="3.63551853%" x2="50%" y2="50%" id="linearGradient-10">
            <stop stop-color="#A1E5FF" offset="0%"></stop>
            <stop stop-color="#FFFFFF" stop-opacity="0.049243847" offset="100%"></stop>
        </linearGradient>
        <linearGradient x1="102.272196%" y1="32.4012296%" x2="-1.88691331%" y2="32.4012296%" id="linearGradient-11">
            <stop stop-color="#FFFFFF" stop-opacity="0" offset="0%"></stop>
            <stop stop-color="#FFFFFF" stop-opacity="0.977307262" offset="18.1925202%"></stop>
            <stop stop-color="#FFFFFF" offset="31.2369151%"></stop>
            <stop stop-color="#FFFFFF" offset="79.7136217%"></stop>
            <stop stop-color="#FFFFFF" stop-opacity="0" offset="100%"></stop>
            <stop stop-color="#EEEEEE" offset="100%"></stop>
        </linearGradient>
        <rect id="path-12" x="0" y="0" width="143.338671" height="16.3966745"></rect>
        <linearGradient x1="50%" y1="0%" x2="50%" y2="50%" id="linearGradient-14">
            <stop stop-color="#91D5FF" offset="0%"></stop>
            <stop stop-color="#FFFFFF" stop-opacity="0.049243847" offset="100%"></stop>
        </linearGradient>
        <filter x="0.0%" y="-0.0%" width="100.0%" height="100.0%" filterUnits="objectBoundingBox" id="filter-15">
            <feGaussianBlur stdDeviation="0" in="SourceGraphic"></feGaussianBlur>
        </filter>
        <linearGradient x1="0%" y1="50%" x2="100%" y2="50%" id="linearGradient-16">
            <stop stop-color="#BCD8FF" offset="69%"></stop>
            <stop stop-color="#BCD8FF" offset="100%"></stop>
        </linearGradient>
        <linearGradient x1="50%" y1="0%" x2="50%" y2="88.9927577%" id="linearGradient-17">
            <stop stop-color="#98C1FF" offset="0%"></stop>
            <stop stop-color="#98C1FF" stop-opacity="0" offset="100%"></stop>
        </linearGradient>
        <linearGradient x1="94.3554491%" y1="50%" x2="0%" y2="50.7710134%" id="linearGradient-18">
            <stop stop-color="#C8DEFF" offset="0%"></stop>
            <stop stop-color="#418CFF" offset="66.8661905%"></stop>
            <stop stop-color="#B7D2FB" offset="100%"></stop>
        </linearGradient>
        <linearGradient x1="0%" y1="50%" x2="97.500461%" y2="50%" id="linearGradient-19">
            <stop stop-color="#FFFFFF" stop-opacity="0.1" offset="0%"></stop>
            <stop stop-color="#FFFFFF" stop-opacity="0.4" offset="100%"></stop>
        </linearGradient>
        <linearGradient x1="0%" y1="50%" x2="95.7939026%" y2="50%" id="linearGradient-20">
            <stop stop-color="#FFFFFF" stop-opacity="0.1" offset="0%"></stop>
            <stop stop-color="#FFFFFF" stop-opacity="0.5" offset="100%"></stop>
        </linearGradient>
        <linearGradient x1="100.004823%" y1="49.9859274%" x2="0%" y2="49.9859274%" id="linearGradient-21">
            <stop stop-color="#B0CFFF" offset="0%"></stop>
            <stop stop-color="#D1E1FF" offset="100%"></stop>
        </linearGradient>
        <linearGradient x1="0%" y1="50.0063379%" x2="100%" y2="50.0063379%" id="linearGradient-22">
            <stop stop-color="#FFFFFF" stop-opacity="0.5" offset="0%"></stop>
            <stop stop-color="#E7EEFF" offset="100%"></stop>
        </linearGradient>
        <linearGradient x1="0%" y1="49.9949955%" x2="100.024845%" y2="49.9949955%" id="linearGradient-23">
            <stop stop-color="#FFFFFF" stop-opacity="0.5" offset="0%"></stop>
            <stop stop-color="#E7EEFF" offset="100%"></stop>
        </linearGradient>
        <linearGradient x1="102.272196%" y1="32.4012296%" x2="-1.88691331%" y2="32.4012296%" id="linearGradient-24">
            <stop stop-color="#FFFFFF" stop-opacity="0" offset="0%"></stop>
            <stop stop-color="#FFFFFF" stop-opacity="0.977307262" offset="18.1925202%"></stop>
            <stop stop-color="#FFFFFF" offset="31.2369151%"></stop>
            <stop stop-color="#FFFFFF" offset="79.7136217%"></stop>
            <stop stop-color="#FFFFFF" stop-opacity="0" offset="100%"></stop>
            <stop stop-color="#EEEEEE" offset="100%"></stop>
        </linearGradient>
        <rect id="path-25" x="0" y="0" width="196" height="70"></rect>
        <linearGradient x1="50%" y1="4.51479468%" x2="49.9999989%" y2="26.8051446%" id="linearGradient-27">
            <stop stop-color="#FFFFFF" offset="0%"></stop>
            <stop stop-color="#FFFFFF" offset="50.892278%"></stop>
            <stop stop-color="#FFFFFF" stop-opacity="0.049243847" offset="100%"></stop>
        </linearGradient>
        <linearGradient x1="50%" y1="6.31460723%" x2="50%" y2="59.7504765%" id="linearGradient-28">
            <stop stop-color="#93DCFF" offset="0%"></stop>
            <stop stop-color="#93DCFF" stop-opacity="0.810016232" offset="12.9330508%"></stop>
            <stop stop-color="#FFFFFF" stop-opacity="0.049243847" offset="100%"></stop>
        </linearGradient>
        <linearGradient x1="102.272196%" y1="32.4012296%" x2="-1.88691331%" y2="32.4012296%" id="linearGradient-29">
            <stop stop-color="#FFFFFF" stop-opacity="0" offset="0%"></stop>
            <stop stop-color="#FFFFFF" stop-opacity="0.977307262" offset="18.1925202%"></stop>
            <stop stop-color="#FFFFFF" offset="31.2369151%"></stop>
            <stop stop-color="#FFFFFF" offset="79.7136217%"></stop>
            <stop stop-color="#FFFFFF" stop-opacity="0" offset="100%"></stop>
            <stop stop-color="#EEEEEE" offset="100%"></stop>
        </linearGradient>
        <rect id="path-30" x="0" y="0" width="195.86559" height="22.4052889"></rect>
        <linearGradient x1="50%" y1="0%" x2="50%" y2="50%" id="linearGradient-32">
            <stop stop-color="#7BCDFF" offset="0%"></stop>
            <stop stop-color="#FFFFFF" stop-opacity="0" offset="100%"></stop>
        </linearGradient>
        <filter x="0.0%" y="0.0%" width="100.0%" height="100.0%" filterUnits="objectBoundingBox" id="filter-33">
            <feGaussianBlur stdDeviation="0" in="SourceGraphic"></feGaussianBlur>
        </filter>
        <linearGradient x1="0%" y1="50%" x2="100%" y2="50%" id="linearGradient-34">
            <stop stop-color="#BCD8FF" offset="69%"></stop>
            <stop stop-color="#BCD8FF" offset="100%"></stop>
        </linearGradient>
        <linearGradient x1="0%" y1="50%" x2="100%" y2="50%" id="linearGradient-35">
            <stop stop-color="#BCD8FF" offset="69%"></stop>
            <stop stop-color="#BCD8FF" offset="100%"></stop>
        </linearGradient>
        <linearGradient x1="-1.3335709%" y1="41.5435971%" x2="102.828533%" y2="40.786997%" id="linearGradient-36">
            <stop stop-color="#DDECFF" offset="0%"></stop>
            <stop stop-color="#DEEAFF" offset="32.5042223%"></stop>
            <stop stop-color="#E9F6FF" offset="48.6985875%"></stop>
            <stop stop-color="#CFE6FF" offset="49.8361826%"></stop>
            <stop stop-color="#E0E5FF" offset="100%"></stop>
        </linearGradient>
        <linearGradient x1="50%" y1="0%" x2="50%" y2="85.5661228%" id="linearGradient-37">
            <stop stop-color="#F0F8FF" offset="0%"></stop>
            <stop stop-color="#FAFDFF" offset="100%"></stop>
        </linearGradient>
        <linearGradient x1="50%" y1="8.2267544%" x2="50%" y2="91.3850181%" id="linearGradient-38">
            <stop stop-color="#ECF8FF" offset="0%"></stop>
            <stop stop-color="#D6EAFF" offset="100%"></stop>
        </linearGradient>
        <linearGradient x1="50.0026877%" y1="0.00122539841%" x2="50.0026877%" y2="100.003539%" id="linearGradient-39">
            <stop stop-color="#B9DDFC" offset="0%"></stop>
            <stop stop-color="#6EA7FF" offset="100%"></stop>
        </linearGradient>
        <linearGradient x1="50%" y1="0%" x2="50%" y2="110.326794%" id="linearGradient-40">
            <stop stop-color="#FFFFFF" stop-opacity="0.648835296" offset="0%"></stop>
            <stop stop-color="#FFFFFF" stop-opacity="0.164473954" offset="100%"></stop>
        </linearGradient>
        <linearGradient x1="81.9159804%" y1="42.0262754%" x2="5.43539521%" y2="46.2254866%" id="linearGradient-41">
            <stop stop-color="#FFFFFF" offset="0%"></stop>
            <stop stop-color="#DCEBFF" offset="100%"></stop>
        </linearGradient>
        <linearGradient x1="50.9644522%" y1="36.7255725%" x2="46.9480541%" y2="63.2763027%" id="linearGradient-42">
            <stop stop-color="#FFFFFF" stop-opacity="0" offset="14%"></stop>
            <stop stop-color="#FFFFFF" stop-opacity="0.85" offset="100%"></stop>
        </linearGradient>
        <circle id="path-43" cx="259.373475" cy="208.454624" r="4.577481"></circle>
        <filter x="-76.5%" y="-54.6%" width="252.9%" height="252.9%" filterUnits="objectBoundingBox" id="filter-44">
            <feOffset dx="0" dy="2" in="SourceAlpha" result="shadowOffsetOuter1"></feOffset>
            <feGaussianBlur stdDeviation="2" in="shadowOffsetOuter1" result="shadowBlurOuter1"></feGaussianBlur>
            <feColorMatrix values="0 0 0 0 1   0 0 0 0 1   0 0 0 0 1  0 0 0 0.5 0" type="matrix" in="shadowBlurOuter1"></feColorMatrix>
        </filter>
        <linearGradient x1="9.26068875%" y1="38.5003979%" x2="138.836602%" y2="67.8325343%" id="linearGradient-45">
            <stop stop-color="#CEECFF" offset="0%"></stop>
            <stop stop-color="#72AFFF" offset="100%"></stop>
        </linearGradient>
        <linearGradient x1="50%" y1="0%" x2="50%" y2="88.9927577%" id="linearGradient-46">
            <stop stop-color="#98C1FF" offset="0%"></stop>
            <stop stop-color="#98C1FF" stop-opacity="0" offset="100%"></stop>
        </linearGradient>
        <linearGradient x1="94.3554491%" y1="50%" x2="0%" y2="50.7710134%" id="linearGradient-47">
            <stop stop-color="#C8DEFF" offset="0%"></stop>
            <stop stop-color="#418CFF" offset="66.8661905%"></stop>
            <stop stop-color="#B7D2FB" offset="100%"></stop>
        </linearGradient>
    </defs>
    <g id="报告修改（0802）" stroke="none" stroke-width="1" fill="none" fill-rule="evenodd">
        <g id="编组-7">
            <g id="Fill-2" fill="url(#linearGradient-1)">
                <polygon id="Fill-1" points="0 388 1200 388 1200 0 0 0"></polygon>
            </g>
            <g id="编组-16" transform="translate(844.000000, 40.000000)">
                <g id="编组-12" opacity="0.2" transform="translate(134.814815, 30.074074)">
                    <rect id="矩形备份-30" stroke="#FFFFFF" fill="url(#linearGradient-2)" fill-rule="nonzero" opacity="0.4" x="22.2040209" y="11.6363496" width="123.768446" height="160.793195" rx="10"></rect>
                    <rect id="矩形备份-31" stroke="#FFFFFF" fill="url(#linearGradient-2)" fill-rule="nonzero" x="34.8982205" y="0" width="123.768446" height="160.793195" rx="10"></rect>
                    <path d="M134.336117,23.2726993 L133.873318,23.2726993 C129.45504,23.2726993 125.873318,26.8544213 125.873318,31.2726993 L125.873318,31.735499 L125.873318,31.735499" id="路径-5备份-4" stroke="#FFFFFF" stroke-width="5" stroke-linecap="round" stroke-linejoin="round" transform="translate(130.104718, 27.504099) scale(-1, 1) translate(-130.104718, -27.504099) "></path>
                    <rect id="矩形" stroke="#FFFFFF" stroke-width="2" fill="url(#linearGradient-3)" fill-rule="nonzero" x="10.5676712" y="23.2726993" width="123.768446" height="160.793195" rx="10"></rect>
                    <g id="编组" transform="translate(23.526709, 57.678384)" fill="#B0CFFF" fill-rule="nonzero">
                        <rect id="矩形" x="6.89380944e-15" y="7.42610677" width="98.380047" height="1.85123744"></rect>
                        <rect id="矩形" x="6.89380944e-15" y="10.8165159" width="81.6680518" height="1.85123744"></rect>
                        <rect id="矩形" x="6.89380944e-15" y="0" width="38.7892927" height="3.01487241"></rect>
                    </g>
                    <rect id="矩形" fill="#C8DEFF" fill-rule="nonzero" x="23.8499128" y="104.605691" width="97.9014682" height="1"></rect>
                    <rect id="矩形" fill="url(#linearGradient-4)" fill-rule="nonzero" x="23.2618709" y="34.2267357" width="98.380047" height="17.3221457" rx="2"></rect>
                    <path d="M91.2710453,51.9721689 C91.3609625,51.3215912 91.6518712,50.6974597 92.15435,50.1949809 L92.15435,50.1949809 L96.0310453,46.3204459 L96.0313701,46.2280436 L99.8026052,42.4568084 C100.42225,41.8344694 101.242245,41.5291221 102.058491,41.5407667 C102.874696,41.5291221 103.69469,41.8344694 104.314335,42.4568084 L104.314335,42.4568084 L108.08557,46.2280436 L108.085045,46.3204459 L111.962591,50.1949809 C112.465069,50.6974597 112.755978,51.3215912 112.845895,51.9721689 Z" id="形状结合" fill="url(#linearGradient-5)" fill-rule="nonzero" opacity="0.415454683"></path>
                    <path d="M111.766888,39.90739 L101.965908,49.7030807 C101.331198,50.3377907 100.960951,51.1311782 100.844587,51.9563011 L121.430348,51.9563011 C121.816463,51.9563011 122.133818,51.6389462 122.133818,51.2528309 L122.133818,44.6835826 L117.357625,39.90739 C115.813164,38.3576398 113.300771,38.3576398 111.761599,39.90739 L111.766888,39.90739 Z" id="路径备份-4" fill="url(#linearGradient-6)" fill-rule="nonzero" opacity="0.59"></path>
                    <g id="矩形" opacity="0.475449335" transform="translate(0.000000, 117.633547)">
                        <mask id="mask-9" fill="white">
                            <use xlink:href="#path-8"></use>
                        </mask>
                        <use id="蒙版" fill="url(#linearGradient-7)" xlink:href="#path-8"></use>
                        <rect fill="url(#linearGradient-10)" mask="url(#mask-9)" x="-0.528924984" y="0" width="143.338671" height="58.7106732"></rect>
                    </g>
                    <g id="矩形备份-29" opacity="0.497129894" transform="translate(71.669335, 110.653362) scale(1, -1) translate(-71.669335, -110.653362) translate(0.000000, 102.455025)">
                        <mask id="mask-13" fill="white">
                            <use xlink:href="#path-12"></use>
                        </mask>
                        <use id="蒙版" fill="url(#linearGradient-11)" xlink:href="#path-12"></use>
                        <rect id="矩形" fill="url(#linearGradient-14)" opacity="0.656688872" mask="url(#mask-13)" x="-0.528924984" y="0" width="143.338671" height="22.2148493"></rect>
                    </g>
                    <path d="M0,117.932471 C48.4822836,116.525455 97.5010119,116.518558 145.983295,117.932471 C97.5010119,119.346384 48.4822836,119.339487 0,117.932471 L0,117.932471 Z" id="路径" fill="#FFFFFF" fill-rule="nonzero" filter="url(#filter-15)"></path>
                    <path d="M19.030471,23.2726993 L18.5676712,23.2726993 C14.1493932,23.2726993 10.5676712,26.8544213 10.5676712,31.2726993 L10.5676712,31.735499 L10.5676712,31.735499" id="路径-5" stroke="#FFFFFF" stroke-width="5" stroke-linecap="round" stroke-linejoin="round"></path>
                    <path d="M19.030471,175.603095 L18.5676712,175.603095 C14.1493932,175.603095 10.5676712,179.184817 10.5676712,183.603095 L10.5676712,184.065894 L10.5676712,184.065894" id="路径-5备份-5" stroke="#FFFFFF" stroke-width="5" stroke-linecap="round" stroke-linejoin="round" transform="translate(14.799071, 179.834494) scale(1, -1) translate(-14.799071, -179.834494) "></path>
                    <ellipse id="椭圆形" fill="url(#linearGradient-16)" fill-rule="nonzero" opacity="0.42" cx="76.3752999" cy="195.016897" rx="65.586698" ry="4.38782187"></ellipse>
                    <path d="M121.390231,101.251717 L23.4887631,101.251717 L23.4887631,90.6441017 L29.636852,85.6967704 C31.4626624,84.2275514 33.7895538,83.5284574 36.1227772,83.7481314 L37.7766415,83.9038434 C40.1156297,84.1240602 42.4480115,83.4209523 44.2755918,81.9447033 L45.8916059,80.6393493 C48.1328999,78.8289183 51.1544688,78.3144708 53.8685975,79.2811997 L55.9936804,80.0381199 C57.4643506,80.5619489 58.7734681,81.4593254 59.7924414,82.6421023 L64.1948728,87.7522404 C67.5325579,91.6264703 73.3212054,92.2045911 77.3591735,89.0669785 L79.0925093,87.7201289 C82.4392982,85.1195817 87.0402718,84.8433634 90.6741476,87.0248281 L90.860267,87.136558 C94.5463455,89.3493608 99.0482914,89.7340457 103.056353,88.1786964 L105.670416,87.1642958 C108.050377,86.2407392 110.710584,86.3713602 112.988619,87.5236329 L121.390231,91.773326 L121.390231,91.773326 L121.390231,101.251717 Z" id="路径-6" fill="url(#linearGradient-17)"></path>
                    <path d="M23.4887631,90.6441017 L29.636852,85.6967704 C31.4626624,84.2275514 33.7895538,83.5284574 36.1227772,83.7481314 L37.7766415,83.9038434 C40.1156297,84.1240602 42.4480115,83.4209523 44.2755918,81.9447033 L45.8916059,80.6393493 C48.1328999,78.8289183 51.1544688,78.3144708 53.8685975,79.2811997 L56.1605103,80.097542 C57.5251022,80.5835876 58.7522112,81.3918347 59.7375877,82.4536184 L64.907268,88.0241613 C68.0198129,91.3780563 73.1534503,91.8627308 76.8386955,89.1506254 L79.8175436,86.9583833 C82.7414089,84.8066049 86.6717854,84.622156 89.7843185,86.4906517 L92.9240817,88.3754939 C95.3081622,89.8066896 98.2199291,90.055496 100.812262,89.0495278 L105.670416,87.1642958 C108.050377,86.2407392 110.710584,86.3713602 112.988619,87.5236329 L121.390231,91.773326 L121.390231,91.773326" id="路径-6" stroke="url(#linearGradient-18)" stroke-width="2" stroke-linecap="round" stroke-linejoin="round"></path>
                </g>
                <g id="编组-13">
                    <rect id="矩形备份-30" stroke="#FFFFFF" fill="url(#linearGradient-19)" fill-rule="nonzero" opacity="0.4" x="30.3407561" y="15.9005276" width="169.123794" height="219.716381" rx="10"></rect>
                    <rect id="矩形备份-31" stroke="#FFFFFF" fill="url(#linearGradient-19)" fill-rule="nonzero" opacity="0.2" x="47.6867863" y="0" width="169.123794" height="219.716381" rx="10"></rect>
                    <path d="M183.564022,31.8010552 L180.000002,31.8010552 C175.581724,31.8010552 172.000002,35.3827772 172.000002,39.8010552 L172.000002,43.3650753 L172.000002,43.3650753" id="路径-5备份-4" stroke="#FFFFFF" stroke-width="5" stroke-linecap="round" stroke-linejoin="round" transform="translate(177.782012, 37.583065) scale(-1, 1) translate(-177.782012, -37.583065) "></path>
                    <rect id="矩形" stroke="#FFFFFF" stroke-width="2" fill="url(#linearGradient-20)" fill-rule="nonzero" x="14.4402285" y="31.8010552" width="169.123794" height="219.716381" rx="10"></rect>
                    <g id="编组" transform="translate(32.148148, 78.814815)" fill="#B0CFFF" fill-rule="nonzero">
                        <rect id="矩形" x="9.4200682e-15" y="10.1474276" width="134.431733" height="2.52962939"></rect>
                        <rect id="矩形" x="9.4200682e-15" y="14.7802632" width="111.595573" height="2.52962939"></rect>
                        <rect id="矩形" x="9.4200682e-15" y="0" width="53.0037544" height="4.11968215"></rect>
                    </g>
                    <rect id="矩形" fill="#C8DEFF" fill-rule="nonzero" x="32.5897905" y="142.938784" width="133.777778" height="1"></rect>
                    <rect id="矩形" fill="url(#linearGradient-21)" fill-rule="nonzero" x="31.7862587" y="46.7692337" width="134.431733" height="23.669902" rx="2"></rect>
                    <path d="M124.717615,71.0175383 C124.840483,70.1285542 125.237996,69.2757077 125.92461,68.589094 L125.92461,68.589094 L131.221615,63.2950766 L131.222376,63.1684596 L136.375593,58.0152432 C137.179945,57.2073938 138.231356,56.7904393 139.290737,56.7643796 L139.625516,56.7643796 C140.684897,56.7904393 141.736309,57.2073938 142.540661,58.0152432 L142.540661,58.0152432 L147.693877,63.1684596 L147.693615,63.2950766 L152.991644,68.589094 C153.678258,69.2757077 154.075771,70.1285542 154.198639,71.0175383 Z" id="形状结合" fill="url(#linearGradient-22)" fill-rule="nonzero" opacity="0.415454683"></path>
                    <path d="M152.724226,54.5315821 L139.331645,67.9169354 C138.464344,68.7842369 137.958418,69.8683638 137.799413,70.9958557 L165.928891,70.9958557 C166.4565,70.9958557 166.890151,70.562205 166.890151,70.0345965 L166.890151,61.058026 L160.363707,54.5315821 C158.253273,52.413921 154.820205,52.413921 152.716999,54.5315821 L152.724226,54.5315821 Z" id="路径备份-4" fill="url(#linearGradient-23)" fill-rule="nonzero" opacity="0.59"></path>
                    <g id="矩形" opacity="0.321127" transform="translate(0.000000, 161.000000)">
                        <mask id="mask-26" fill="white">
                            <use xlink:href="#path-25"></use>
                        </mask>
                        <use id="蒙版" fill="url(#linearGradient-24)" xlink:href="#path-25"></use>
                        <rect fill="url(#linearGradient-27)" mask="url(#mask-26)" x="-1" y="0" width="196" height="70"></rect>
                        <rect fill="url(#linearGradient-28)" mask="url(#mask-26)" x="-1" y="0" width="196" height="58"></rect>
                    </g>
                    <g id="矩形备份-29" opacity="0.497129894" transform="translate(97.932795, 151.202644) scale(1, -1) translate(-97.932795, -151.202644) translate(0.000000, 140.000000)">
                        <mask id="mask-31" fill="white">
                            <use xlink:href="#path-30"></use>
                        </mask>
                        <use id="蒙版" fill="url(#linearGradient-29)" xlink:href="#path-30"></use>
                        <rect id="矩形" fill="url(#linearGradient-32)" opacity="0.656688872" mask="url(#mask-31)" x="-0.722751254" y="0" width="195.86559" height="30.3555527"></rect>
                    </g>
                    <path d="M199.479346,161.149206 C133.230573,163.081252 66.2487732,163.071828 0,161.149206 C66.2487732,159.226585 133.230573,159.21716 199.479346,161.149206 Z" id="路径" fill="#FFFFFF" fill-rule="nonzero" filter="url(#filter-33)"></path>
                    <path d="M26.0042486,31.8010552 L22.4402285,31.8010552 C18.0219506,31.8010552 14.4402285,35.3827772 14.4402285,39.8010552 L14.4402285,43.3650753 L14.4402285,43.3650753" id="路径-5" stroke="#FFFFFF" stroke-width="5" stroke-linecap="round" stroke-linejoin="round"></path>
                    <path d="M26.0042486,239.953416 L22.4402285,239.953416 C18.0219506,239.953416 14.4402285,243.535138 14.4402285,247.953416 L14.4402285,251.517437 L14.4402285,251.517437" id="路径-5备份-5" stroke="#FFFFFF" stroke-width="5" stroke-linecap="round" stroke-linejoin="round" transform="translate(20.222239, 245.735426) scale(1, -1) translate(-20.222239, -245.735426) "></path>
                    <ellipse id="椭圆形" fill="url(#linearGradient-34)" fill-rule="nonzero" opacity="0.42" cx="104.363276" cy="266.48147" rx="89.6211555" ry="5.99575338"></ellipse>
                    <ellipse id="椭圆形备份-12" fill="url(#linearGradient-35)" fill-rule="nonzero" opacity="0.42" cx="191.816177" cy="276.386244" rx="25.2962939" ry="3.61375627"></ellipse>
                    <g id="编组-6" transform="translate(142.506469, 166.372057)">
                        <path d="M95.6486267,26.2229234 C95.77578,26.3109526 95.9127143,26.4087629 96.0300866,26.5065731 C96.1083348,26.5750403 96.176802,26.6435074 96.2550502,26.7119746 C96.4115465,26.8586899 96.5582619,27.0151863 96.6951962,27.1814637 C96.7832254,27.289055 96.8712546,27.3966462 96.9592838,27.5140185 C97.0081889,27.5824857 97.0668751,27.6607339 97.1157802,27.729201 C97.2429335,27.9248215 97.3603058,28.1204419 97.467897,28.3356245 L97.467897,28.3649675 C97.5852693,28.58015 97.6635175,28.7953326 97.7417657,29.0202961 C97.7515467,29.0594202 97.7711088,29.0985443 97.7808898,29.1376684 C97.849357,29.3626319 97.8982621,29.5875954 97.9373862,29.82234 C97.9373862,29.8614641 97.9471672,29.9103692 97.9569482,29.9494933 C97.9862913,30.1940189 98.0156343,30.4483255 98.0156343,30.7026321 L98.0156343,30.6048219 L98.0156343,30.6048219 C98.0156343,30.6048219 98.0156343,30.673289 98.0156343,30.7026321 L97.9960723,26.0957701 L97.9960723,23.7581056 C97.9862913,23.6016092 97.9765103,23.4451128 97.9569482,23.2886164 C97.9569482,23.2299303 97.9373862,23.1712442 97.9276051,23.112558 C97.9276051,23.0734339 97.9178241,23.0245288 97.9080431,22.9854047 C97.9080431,22.9364996 97.8982621,22.8875945 97.888481,22.8386894 C97.859138,22.691974 97.8297949,22.5452587 97.7808898,22.3985433 C97.7808898,22.3692003 97.7613277,22.3398572 97.7515467,22.3105141 C97.7417657,22.27139 97.7222036,22.2322659 97.7124226,22.1931418 C97.6830796,22.1148936 97.6635175,22.0366455 97.6341744,21.9583973 C97.5754883,21.8116819 97.5168022,21.6747476 97.448335,21.5378133 L97.448335,21.5084702 L97.428773,21.5084702 C97.3505248,21.3324118 97.2624956,21.1759154 97.1646853,21.019419 C97.1451233,20.9802949 97.1059992,20.9411709 97.0864371,20.9118278 C97.037532,20.8335796 96.9886269,20.7651124 96.9299408,20.6966453 C96.8810356,20.6281781 96.8321305,20.5499299 96.7832254,20.4814628 C96.7538823,20.4423387 96.7049772,20.4032146 96.6756342,20.3640905 C96.5386998,20.1978131 96.3919845,20.0510977 96.2354881,19.8946014 C96.186583,19.8456962 96.1474589,19.7870101 96.0887728,19.747886 C96.0692107,19.728324 96.0398676,19.7087619 96.0105246,19.6891999 C95.8931523,19.5913896 95.765999,19.4935794 95.6290647,19.4055502 C95.5312544,19.327302 95.4236632,19.2588348 95.3160719,19.1903677 C95.1791376,19.1023385 95.0226412,19.0338713 94.8759259,18.9556231 C94.7781156,18.906718 94.6998675,18.8480319 94.6020572,18.8089078 C94.5629331,18.7893457 94.523809,18.7795647 94.4846849,18.7600027 L51.5459927,0.489051164 C51.2916861,0.381459908 51.0373795,0.303211722 50.7732919,0.224963536 C50.7439488,0.224963536 50.7146057,0.205401489 50.6754816,0.195620466 C50.6265765,0.185839442 50.5874524,0.176058419 50.5385473,0.166277396 C50.411394,0.136934326 50.2842407,0.117372279 50.1570874,0.0880292096 C50.1081823,0.0880292096 50.0494962,0.068467163 50.000591,0.0586861397 C49.9614669,0.0586861397 49.9223429,0.0586861397 49.8832188,0.0489051164 C49.7951895,0.0391240931 49.7071603,0.0293430699 49.6191311,0.0195620466 C49.560445,0.0195620466 49.5017588,0.00978102329 49.4332917,0 C49.3452625,0 49.2572333,0 49.1692041,0 C49.0811748,0 49.0029267,0 48.9148975,0 C48.8366493,0 48.7681821,0.00978102329 48.6899339,0.0195620466 C48.6312478,0.0195620466 48.5627806,0.0195620466 48.5040945,0.0293430699 C48.4747514,0.0293430699 48.4551894,0.0293430699 48.4258463,0.0293430699 C48.288912,0.0489051164 48.1519776,0.068467163 48.0150433,0.0978102329 C47.9954813,0.0978102329 47.9857002,0.0978102329 47.9661382,0.0978102329 L47.9661382,0.0978102329 C47.8096418,0.127153303 47.6531454,0.166277396 47.4966491,0.205401489 C47.477087,0.205401489 47.457525,0.215182512 47.4379629,0.224963536 C47.3792768,0.244525582 47.3303717,0.264087629 47.2716855,0.283649675 C47.1934374,0.312992745 47.1054081,0.332554792 47.02716,0.361897862 C46.9586928,0.391240931 46.8804446,0.420584001 46.8119774,0.449927071 L3.68744578,18.3394187 C3.59941657,18.3785428 3.50160634,18.4176668 3.41357713,18.4567909 C3.25708075,18.5252581 3.1103654,18.6132873 2.96365006,18.6915355 C2.94408801,18.7013165 2.92452596,18.7110975 2.90496392,18.7208786 L2.88540187,18.7208786 C2.68000038,18.8578129 2.47459889,18.9947472 2.28875945,19.1414626 C2.27897843,19.1414626 2.2691974,19.1610246 2.24963536,19.1708056 C2.21051126,19.2001487 2.17138717,19.2392728 2.13226308,19.2686159 C1.9757667,19.3957692 1.83883238,19.5327035 1.70189805,19.6696378 C1.64321191,19.728324 1.5943068,19.7870101 1.54540168,19.8456962 C1.4280294,19.9826306 1.31065712,20.1195649 1.20306586,20.2662802 C1.16394177,20.3249664 1.11503665,20.3738715 1.08569358,20.4325576 C0.948759259,20.6379591 0.821605956,20.8433606 0.7140147,21.0585431 C0.694452653,21.0878862 0.68467163,21.1172293 0.674890607,21.1465723 C0.586861397,21.3324118 0.508613211,21.5280323 0.440146048,21.7334337 C0.420584001,21.8019009 0.391240931,21.8801491 0.371678885,21.9486163 C0.322773768,22.1148936 0.283649675,22.2909521 0.244525582,22.4670105 C0.234744559,22.5354777 0.215182512,22.6137258 0.205401489,22.682193 C0.166277396,22.9267186 0.146715349,23.1712442 0.146715349,23.4255508 L0,50.6559196 L0.0293430699,57.5026359 L0.176058419,30.2722671 C0.176058419,30.0179605 0.205401489,29.7734349 0.234744559,29.5289093 C0.244525582,29.4604421 0.264087629,29.382194 0.273868652,29.3137268 C0.303211722,29.1376684 0.352116838,28.9616099 0.401021955,28.7953326 C0.420584001,28.7268654 0.440146048,28.6486172 0.469489118,28.58015 C0.537956281,28.3845296 0.616204467,28.1889091 0.704233677,27.9932886 C0.7140147,27.9639456 0.723795723,27.9346025 0.74335777,27.9052594 C0.850949026,27.6900769 0.978102329,27.4846754 1.11503665,27.2792739 C1.15416075,27.2205878 1.19328484,27.1716827 1.23240893,27.1129965 C1.34000019,26.9662812 1.44759145,26.8293469 1.57474475,26.6924125 C1.62364987,26.6337264 1.68233601,26.5750403 1.73124112,26.5163541 C1.86817545,26.3794198 2.0148908,26.2424855 2.16160615,26.1153322 C2.20073024,26.0859891 2.23985433,26.046865 2.27897843,26.0077409 C2.48437991,25.8414635 2.69956243,25.6947482 2.92452596,25.5578138 C2.94408801,25.5480328 2.96365006,25.5382518 2.9832121,25.5284708 C3.20817564,25.3915365 3.4429202,25.2741642 3.6972268,25.1763539 L46.8413205,7.30642439 C46.9880359,7.24773825 47.1445322,7.18905212 47.3010286,7.140147 C47.3597148,7.12058495 47.4086199,7.10102291 47.467306,7.08146086 C47.6433644,7.03255574 47.8194228,6.98365063 48.0052623,6.94452653 C48.0248243,6.94452653 48.0346054,6.94452653 48.0541674,6.94452653 C48.2204448,6.91518346 48.3867222,6.88584039 48.5529996,6.87605937 C48.6116857,6.87605937 48.6703719,6.87605937 48.738839,6.86627835 C48.8953354,6.85649732 49.0616128,6.8467163 49.2181092,6.8467163 C49.3648245,6.8467163 49.5115399,6.85649732 49.6680362,6.86627835 C49.7560655,6.86627835 49.8440947,6.87605937 49.9321239,6.89562142 C50.0299341,6.90540244 50.1179633,6.92496449 50.2059925,6.93474551 C50.3331458,6.95430756 50.4602991,6.98365063 50.5874524,7.0129937 C50.6657006,7.03255574 50.7439488,7.05211779 50.812416,7.07167984 C51.0765036,7.140147 51.3308102,7.22817621 51.5851168,7.33576746 L94.514028,25.5773759 C94.6509623,25.636062 94.7781156,25.7143102 94.9052689,25.7729964 C95.0519843,25.8512445 95.2084807,25.9197117 95.345415,26.0077409 C95.4530062,26.0762081 95.5508165,26.1544563 95.6486267,26.2229234 Z" id="路径" stroke="url(#linearGradient-37)" fill="url(#linearGradient-36)"></path>
                        <path d="M49.2083282,6.84628454 C50.0201531,6.84628454 50.822197,7.0129937 51.5753358,7.33576746 L94.504247,25.5773759 C96.626729,26.47723 97.9960723,28.4921208 97.9767171,30.7026321 L97.8297949,57.9330009 C97.7124226,80.1946099 82.5127124,96.9397218 50.9200072,108.481329 C50.2255546,108.735636 49.4919778,108.862789 48.7584011,108.853533 C48.0248243,108.843227 47.2325614,108.706293 46.5087657,108.422643 C15.0138707,96.0887728 -0.068467163,79.1969455 0.048225424,57.5026359 L0.195620466,30.2722671 C0.205401489,28.0617558 1.58452577,26.056646 3.71678885,25.1763539 L46.8413205,7.30642439 C47.5944593,6.99343165 48.4062842,6.83693528 49.2181092,6.84628454 L49.2083282,6.84628454 Z" id="路径" stroke="#FFFFFF" fill="url(#linearGradient-38)" fill-rule="nonzero"></path>
                        <path d="M49.1789851,16.9113893 C49.8245326,16.9113893 50.4700802,17.0483236 51.0765036,17.3026302 L85.5350486,31.9448221 C87.2369467,32.6686178 88.3324213,34.2824866 88.3227052,36.0528518 L88.205268,57.9134389 C88.1074578,75.7833684 75.9105217,89.2224944 50.5581094,98.4851235 C50.000591,98.690525 49.4137296,98.7883352 48.8268682,98.7883352 C48.2400068,98.7883352 47.6042403,98.6709629 47.02716,98.4459994 C21.7334337,88.5378228 9.62452691,74.9813245 9.72174941,57.5711031 L9.83970943,35.710516 C9.83970943,33.9303698 10.9547461,32.326282 12.6664252,31.6220483 L47.2814666,17.2732871 C47.88789,17.0189805 48.5334375,16.9016082 49.1887661,16.9016082 L49.1789851,16.9113893 Z" id="路径备份-9" fill="url(#linearGradient-39)" fill-rule="nonzero"></path>
                        <path d="M49.1059408,35.985169 C49.4506832,35.985169 49.7954256,36.0582961 50.1192746,36.1941038 L68.5212065,44.0134884 C69.4300728,44.4000178 70.0150903,45.2618738 70.0099016,46.2073037 L69.9471865,57.8815353 C69.8949528,67.424632 63.3814106,74.6015421 49.842436,79.5480734 C49.5447039,79.6577641 49.2313017,79.7099978 48.9178995,79.7099978 C48.6044973,79.7099978 48.2649783,79.6473174 47.9567995,79.5271799 C34.4491651,74.2359063 27.9826332,66.9963157 28.034553,57.6987174 L28.0975474,46.0244858 C28.0975474,45.0738325 28.6930115,44.2171998 29.6071012,43.8411172 L48.0926071,36.1784336 C48.416456,36.042626 48.7611984,35.9799456 49.1111642,35.9799456 L49.1059408,35.985169 Z" id="路径备份-9" fill="url(#linearGradient-40)" fill-rule="nonzero"></path>
                        <path d="M49.1887661,16.1476418 L49.1789851,16.1574228 C49.8245326,16.1574228 50.4700802,16.2943572 51.0765036,16.5486638 L85.5350486,31.1908556 C87.2369467,31.9146514 88.3324213,33.5285202 88.3227052,35.2988854 L88.3203474,35.8859913 C88.2627836,34.1816661 87.1833208,32.6458114 85.5350486,31.9448221 L85.5350486,31.9448221 L51.0765036,17.3026302 C50.4700802,17.0483236 49.8245326,16.9113893 49.1789851,16.9113893 L49.1789851,16.9113893 L49.1887661,16.9016082 C48.5334375,16.9016082 47.88789,17.0189805 47.2814666,17.2732871 L47.2814666,17.2732871 L12.6664252,31.6220483 C10.9547461,32.326282 9.83970943,33.9303698 9.83970943,35.710516 L9.83970943,35.710516 L9.72249555,57.3382874 C9.72102557,57.1649557 9.72077718,56.9912389 9.72174941,56.8171366 L9.83970943,34.9565496 C9.83970943,33.1764034 10.9547461,31.5723155 12.6664252,30.8680819 L47.2814666,16.5193207 C47.88789,16.2650141 48.5334375,16.1476418 49.1887661,16.1476418 Z" id="形状结合" fill="url(#linearGradient-41)"></path>
                    </g>
                    <path d="M203.35696,241.021416 C244.412577,227.275847 273.505478,203.487683 268.337772,187.889064 C263.170066,172.290446 225.698658,170.788253 184.64304,184.533823 C143.587423,198.279392 114.494522,222.067556 119.662228,237.666175 C124.829934,253.264793 162.301342,254.766986 203.35696,241.021416 Z" id="椭圆形" stroke="url(#linearGradient-42)" stroke-width="2" opacity="0.858847482"></path>
                    <g id="椭圆形">
                        <use fill="black" fill-opacity="1" filter="url(#filter-44)" xlink:href="#path-43"></use>
                        <use fill="#FFFFFF" fill-rule="evenodd" xlink:href="#path-43"></use>
                    </g>
                    <circle id="椭圆形备份-3" fill="url(#linearGradient-45)" cx="127.873475" cy="245.954624" r="3.077481"></circle>
                    <path d="M165.874074,138.355737 L32.0962963,138.355737 L32.0962963,123.860926 L41.5407792,116.261006 C43.3665896,114.791787 45.693481,114.092693 48.0267044,114.312367 L52.956952,114.776551 C55.2959401,114.996768 57.6283219,114.29366 59.4559022,112.817411 L63.7151007,109.376995 C66.1525541,107.408114 69.4385726,106.848642 72.3902435,107.899979 L77.3350615,109.661243 C78.8057317,110.185072 80.1148493,111.082449 81.1338225,112.265226 L87.7192915,119.909333 C92.2800821,125.203287 100.189998,125.993262 105.707693,121.705861 L108.076215,119.865454 C112.649446,116.311928 118.936461,115.934488 123.901982,118.915358 L124.156306,119.068032 C129.19316,122.091723 135.344858,122.617377 140.821687,120.492065 L145.763912,118.574208 C148.143874,117.650652 150.804081,117.781273 153.082116,118.933546 L165.874074,125.403958 L165.874074,125.403958 L165.874074,138.355737 Z" id="路径-6" fill="url(#linearGradient-46)"></path>
                    <path d="M32.0962963,123.860926 L41.5407792,116.261006 C43.3665896,114.791787 45.693481,114.092693 48.0267044,114.312367 L52.956952,114.776551 C55.2959401,114.996768 57.6283219,114.29366 59.4559022,112.817411 L63.7151007,109.376995 C66.1525541,107.408114 69.4385726,106.848642 72.3902435,107.899979 L77.5018914,109.720665 C78.8664833,110.206711 80.0935923,111.014958 81.0789688,112.076742 L90.6947222,122.438111 C93.8072671,125.792006 98.9409045,126.276681 102.62615,123.564575 L110.836042,117.522618 C113.759907,115.37084 117.690284,115.186391 120.802817,117.054887 L128.361253,121.592318 C130.745333,123.023514 133.6571,123.27232 136.249433,122.266352 L145.763912,118.574208 C148.143874,117.650652 150.804081,117.781273 153.082116,118.933546 L165.874074,125.403958 L165.874074,125.403958" id="路径-6" stroke="url(#linearGradient-47)" stroke-width="2" stroke-linecap="round" stroke-linejoin="round"></path>
                </g>
            </g>
        </g>
    </g>
</svg>