<?xml version="1.0" encoding="UTF-8"?>
<svg width="1200px" height="394px" viewBox="0 0 1200 394" version="1.1" xmlns="http://www.w3.org/2000/svg" xmlns:xlink="http://www.w3.org/1999/xlink">
    <title>编组 2</title>
    <defs>
        <linearGradient x1="100%" y1="44.6098611%" x2="22.0277077%" y2="54.5912439%" id="linearGradient-1">
            <stop stop-color="#C0E6FF" offset="0.000597546984%"></stop>
            <stop stop-color="#E7EEFF" offset="100%"></stop>
        </linearGradient>
        <linearGradient x1="50%" y1="-0.000961754244%" x2="50%" y2="99.9983975%" id="linearGradient-2">
            <stop stop-color="#FFFFFF" stop-opacity="0.28" offset="0%"></stop>
            <stop stop-color="#FFFFFF" stop-opacity="0.6" offset="100%"></stop>
        </linearGradient>
        <linearGradient x1="-0.210952662%" y1="49.9987179%" x2="100.210953%" y2="49.9987179%" id="linearGradient-3">
            <stop stop-color="#FFFFFF" stop-opacity="0" offset="0%"></stop>
            <stop stop-color="#FFFFFF" stop-opacity="0.85" offset="100%"></stop>
        </linearGradient>
        <linearGradient x1="50.0026877%" y1="0.00122539841%" x2="50.0026877%" y2="100.003539%" id="linearGradient-4">
            <stop stop-color="#B9DDFC" offset="0%"></stop>
            <stop stop-color="#6EA7FF" offset="100%"></stop>
        </linearGradient>
        <linearGradient x1="50%" y1="0%" x2="50%" y2="100%" id="linearGradient-5">
            <stop stop-color="#FFFFFF" offset="0%"></stop>
            <stop stop-color="#FFFFFF" offset="100%"></stop>
        </linearGradient>
        <linearGradient x1="50.0026877%" y1="0.00122539841%" x2="50.0026877%" y2="100.003539%" id="linearGradient-6">
            <stop stop-color="#B9DDFC" offset="0%"></stop>
            <stop stop-color="#6EA7FF" offset="100%"></stop>
        </linearGradient>
        <linearGradient x1="50.9644522%" y1="42.4238733%" x2="46.9480541%" y2="57.577197%" id="linearGradient-7">
            <stop stop-color="#FFFFFF" stop-opacity="0" offset="14%"></stop>
            <stop stop-color="#FFFFFF" stop-opacity="0.85" offset="100%"></stop>
        </linearGradient>
        <linearGradient x1="50%" y1="0%" x2="50%" y2="100%" id="linearGradient-8">
            <stop stop-color="#FFFFFF" stop-opacity="0.28" offset="0%"></stop>
            <stop stop-color="#FFFFFF" stop-opacity="0.6" offset="100%"></stop>
        </linearGradient>
        <linearGradient x1="-4.16666667%" y1="50%" x2="104.166667%" y2="50%" id="linearGradient-9">
            <stop stop-color="#FFFFFF" stop-opacity="0" offset="0%"></stop>
            <stop stop-color="#FFFFFF" stop-opacity="0.85" offset="100%"></stop>
        </linearGradient>
        <linearGradient x1="50%" y1="0%" x2="50%" y2="100%" id="linearGradient-10">
            <stop stop-color="#FFFFFF" stop-opacity="0.28" offset="0%"></stop>
            <stop stop-color="#FFFFFF" stop-opacity="0.6" offset="100%"></stop>
        </linearGradient>
        <linearGradient x1="-1.2195122%" y1="50%" x2="101.219512%" y2="50%" id="linearGradient-11">
            <stop stop-color="#FFFFFF" stop-opacity="0" offset="0%"></stop>
            <stop stop-color="#FFFFFF" stop-opacity="0.85" offset="100%"></stop>
        </linearGradient>
        <linearGradient x1="-3.33333333%" y1="50%" x2="103.333333%" y2="50%" id="linearGradient-12">
            <stop stop-color="#FFFFFF" stop-opacity="0" offset="0%"></stop>
            <stop stop-color="#FFFFFF" stop-opacity="0.85" offset="100%"></stop>
        </linearGradient>
        <linearGradient x1="-0.010372368%" y1="49.9870626%" x2="99.9896276%" y2="49.9870626%" id="linearGradient-13">
            <stop stop-color="#FFFFFF" stop-opacity="0.28" offset="0%"></stop>
            <stop stop-color="#FFFFFF" stop-opacity="0.6" offset="100%"></stop>
        </linearGradient>
        <linearGradient x1="-0.528990769%" y1="49.9870626%" x2="100.508246%" y2="49.9870626%" id="linearGradient-14">
            <stop stop-color="#FFFFFF" stop-opacity="0" offset="0%"></stop>
            <stop stop-color="#FFFFFF" stop-opacity="0.85" offset="100%"></stop>
        </linearGradient>
        <linearGradient x1="0%" y1="49.9873514%" x2="99.9670062%" y2="49.9873514%" id="linearGradient-15">
            <stop stop-color="#FFFFFF" stop-opacity="0.28" offset="0%"></stop>
            <stop stop-color="#FFFFFF" stop-opacity="0.6" offset="100%"></stop>
        </linearGradient>
        <linearGradient x1="-1.26476475%" y1="49.9873514%" x2="101.231771%" y2="49.9873514%" id="linearGradient-16">
            <stop stop-color="#FFFFFF" stop-opacity="0" offset="0%"></stop>
            <stop stop-color="#FFFFFF" stop-opacity="0.85" offset="100%"></stop>
        </linearGradient>
        <linearGradient x1="0%" y1="50%" x2="100%" y2="50%" id="linearGradient-17">
            <stop stop-color="#CAE0FF" stop-opacity="0" offset="0%"></stop>
            <stop stop-color="#B4DCFA" offset="100%"></stop>
        </linearGradient>
    </defs>
    <g id="报告修改（0802）" stroke="none" stroke-width="1" fill="none" fill-rule="evenodd">
        <g id="编组-2">
            <polygon id="Fill-1" fill="url(#linearGradient-1)" points="1200 394 1200 0 0 0 0 394"></polygon>
            <g id="编组-7" transform="translate(833.852975, 81.000000)">
                <path d="M59.878316,35.5152774 C56.025855,37.2223268 53.5348463,41.0650682 53.5348463,45.2988517 L53.5348463,97.4954618 C53.5348463,139.043693 81.0257087,171.297152 138.296469,194.676962 C140.854802,195.722248 143.704875,195.744808 146.278169,194.737122 C203.421761,172.364998 230.837818,140.141619 230.837818,97.4954618 L230.837818,45.2988517 C230.837818,41.0650682 228.346809,37.2223268 224.494348,35.5152774 L146.480143,0.908045046 C143.742278,-0.302681682 140.630387,-0.302681682 137.892521,0.908045046 L59.878316,35.5152774 Z" id="路径" stroke="url(#linearGradient-3)" stroke-width="2" fill="url(#linearGradient-2)" fill-rule="nonzero"></path>
                <path d="M74.2474472,46.378241 C71.0613279,47.7938695 69.008051,50.957285 69.008051,54.4528591 L69.008051,97.5306699 C69.008051,131.822094 91.7042344,158.450144 138.968938,177.746979 C141.077284,178.60901 143.437372,178.624827 145.561452,177.79443 C192.731752,159.327992 215.357133,132.731576 215.357133,97.5306699 L215.357133,54.4528591 C215.357133,50.957285 213.303856,47.785961 210.117736,46.378241 L145.726658,17.812599 C143.46884,16.8082145 140.896344,16.8082145 138.638526,17.812599 L74.2474472,46.378241 L74.2474472,46.378241 Z" id="路径" stroke="url(#linearGradient-5)" fill="url(#linearGradient-4)" fill-rule="nonzero" opacity="0.210292271"></path>
                <path d="M79.5620713,60.6951076 L79.5620713,97.5597726 C79.5620713,126.905318 98.9847668,149.692784 139.432446,166.206422 C141.236703,166.944121 143.256394,166.957657 145.074116,166.247029 C185.441008,150.444019 204.803112,127.683625 204.803112,97.5597726 L204.803112,60.6951076 C204.803112,57.7037028 203.045981,54.9897813 200.319398,53.7850979 L145.215495,29.3395003 C143.283323,28.479979 141.08186,28.479979 139.149689,29.3395003 L84.0457854,53.7850979 C81.3192025,54.9965492 79.5620713,57.7037028 79.5620713,60.6951076 Z" id="路径" fill="url(#linearGradient-6)" fill-rule="nonzero"></path>
                <ellipse id="椭圆形" stroke="url(#linearGradient-7)" stroke-width="4" transform="translate(146.919536, 97.965521) rotate(-18.420000) translate(-146.919536, -97.965521) " cx="146.919536" cy="97.9655212" rx="137.475821" ry="52.17789"></ellipse>
                <ellipse id="椭圆形" stroke="url(#linearGradient-9)" fill="url(#linearGradient-8)" fill-rule="nonzero" cx="37.2530273" cy="158.93901" rx="4.62975093" ry="4.65421949"></ellipse>
                <ellipse id="椭圆形" stroke="url(#linearGradient-11)" fill="url(#linearGradient-10)" fill-rule="nonzero" cx="201.994998" cy="167.083895" rx="15.8183157" ry="15.9019166"></ellipse>
                <ellipse id="椭圆形" stroke="url(#linearGradient-12)" fill="#FFFFFF" fill-rule="nonzero" cx="270.669637" cy="80.2051307" rx="5.78718866" ry="5.81777437"></ellipse>
                <g id="编组-9" transform="translate(110.180894, 62.317599)" fill-rule="nonzero">
                    <path d="M57.6904591,13.8199635 L46.9710613,13.8199635 L45.2626572,7.79884519 C44.6194934,5.87262615 42.7770969,4.61317524 40.7605102,4.72093575 L23.9645537,4.72093575 C21.947967,4.61317524 20.1055705,5.87262615 19.4624066,7.79884519 L17.6133105,13.7728182 L6.89391271,13.7728182 C3.08852649,13.7728182 0,16.8709328 0,20.7031658 L0,51.0848934 C0,54.9103914 3.08852649,58.0152409 6.89391271,58.0152409 L57.6971587,58.0152409 C61.5092445,57.9883008 64.5910714,54.8767162 64.5910714,51.0444832 L64.5910714,20.757046 C64.5642729,16.9382831 61.4958453,13.8536386 57.6971587,13.8266985 L57.6904591,13.8199635 Z" id="路径" fill="url(#linearGradient-13)" opacity="0.35"></path>
                    <path d="M57.6904591,9.10544133 L46.9710613,9.10544133 L45.2626572,3.08432306 C44.6194934,1.15810402 42.7770969,-0.101346894 40.7605102,0.00641361188 L23.9645537,0.00641361188 C21.947967,-0.101346894 20.1055705,1.15810402 19.4624066,3.08432306 L17.6133105,9.05829611 L6.89391271,9.05829611 C3.08852649,9.05829611 0,12.1564107 0,15.9886436 L0,46.3703713 C0,50.1958692 3.08852649,53.3007188 6.89391271,53.3007188 L57.6971587,53.3007188 C61.5092445,53.2737787 64.5910714,50.1621941 64.5910714,46.3299611 L64.5910714,16.0425239 C64.5642729,12.223761 61.4958453,9.13911649 57.6971587,9.11217636 L57.6904591,9.10544133 Z" id="路径" fill="url(#linearGradient-13)" opacity="0.15"></path>
                    <path d="M57.6904591,17.8609824 L46.9710613,17.8609824 L45.2626572,11.8398642 C44.6194934,9.91364512 42.7770969,8.65419421 40.7605102,8.76195472 L23.9645537,8.76195472 C21.947967,8.65419421 20.1055705,9.91364512 19.4624066,11.8398642 L17.6133105,17.8138372 L6.89391271,17.8138372 C3.08852649,17.8138372 0,20.9119518 0,24.7441847 L0,55.1259124 C0,58.9514103 3.08852649,62.0562599 6.89391271,62.0562599 L57.6971587,62.0562599 C61.5092445,62.0293198 64.5910714,58.9177352 64.5910714,55.0855022 L64.5910714,24.798065 C64.5642729,20.9793021 61.4958453,17.8946576 57.6971587,17.8677175 L57.6904591,17.8609824 Z" id="路径" stroke="url(#linearGradient-14)" fill="url(#linearGradient-13)" opacity="0.77"></path>
                    <path d="M16.2532869,28.1857859 L10.9806831,28.1857859 C10.3576181,28.1857859 9.85514636,28.6909133 9.85514636,29.3172712 C9.85514636,29.9436292 10.3576181,30.4487565 10.9806831,30.4487565 L16.2532869,30.4487565 C16.8763519,30.4487565 17.3788237,29.9436292 17.3788237,29.3172712 C17.3788237,28.6909133 16.8763519,28.1857859 16.2532869,28.1857859 Z" id="路径" fill="#FFFFFF"></path>
                    <path d="M32.4056998,25.0333952 C32.3452379,25.0333952 32.284776,25.0333952 32.2243141,25.0333952 C24.8882684,25.0333952 18.9495648,31.010699 18.9495648,38.386084 C18.9495648,45.7614689 24.8949864,51.7320187 32.2310321,51.7320187 C39.4595899,51.7320187 45.3579856,45.9168113 45.5057814,38.6562446 C45.6334232,31.2605976 39.7686175,25.1617215 32.4124178,25.0401492 L32.4056998,25.0333952 Z M43.3544534,39.2917802 C43.2323414,45.3868702 38.2935903,50.2683965 32.2286954,50.2888498 C26.0823925,50.2888498 21.1029373,45.2777859 21.1029373,39.1008825 C21.1029373,32.9239791 26.0891765,27.9197329 32.2286954,27.9197329 C38.3682143,27.9197329 43.3544534,32.9307969 43.3544534,39.1077003 C43.3544534,39.1690602 43.3544534,39.2304202 43.3544534,39.2917802 Z" id="形状" stroke="url(#linearGradient-16)" fill="url(#linearGradient-15)"></path>
                </g>
                <ellipse id="椭圆形" fill="url(#linearGradient-17)" fill-rule="nonzero" cx="141.422423" cy="224.485935" rx="73.6902023" ry="15.514065"></ellipse>
            </g>
        </g>
    </g>
</svg>