<?xml version="1.0" encoding="UTF-8"?>
<svg width="16px" height="16px" viewBox="0 0 16 16" version="1.1" xmlns="http://www.w3.org/2000/svg" xmlns:xlink="http://www.w3.org/1999/xlink">
    <title>Button按钮/图标按钮/a.默认</title>
    <defs>
        <path d="M9.22414674,0 C9.93020608,0 10.5677933,0.42622379 10.8233247,1.07991969 L11.2344521,2.13759576 C11.3633501,2.20440159 11.4898157,2.27516528 11.6135,2.34969385 L12.7894641,2.16125263 C13.4843199,2.04968385 14.181553,2.36697516 14.5411521,2.96699865 L15.765547,5.01251805 C16.1303145,5.62314693 16.0645263,6.39192905 15.6025299,6.93751824 L14.8586186,7.80854499 C14.8623738,7.93616798 14.8623734,8.06387345 14.8586174,8.19149643 L15.6035494,9.06387705 C16.0638917,9.60714737 16.128589,10.3752245 15.7642781,10.9880745 L14.5394302,13.0343469 C14.1796141,13.6327134 13.4836613,13.9493945 12.7887025,13.8387749 L11.6129927,13.6502685 C11.4889188,13.7249319 11.3623938,13.7956857 11.2336104,13.8624238 L10.821609,14.9230385 C10.5663782,15.5742824 9.9287982,16 9.22321387,16 L6.77606554,16 C6.07066407,16 5.43171568,15.5733624 5.1780109,14.9213345 L4.76585927,13.8623342 C4.63711004,13.7955704 4.51061295,13.7248352 4.38656233,13.6502336 L3.20937656,13.8389664 C2.51550778,13.9491 1.81981128,13.6328379 1.45784978,13.0325374 L0.236717252,10.9892277 C-0.131291917,10.3768344 -0.0650209269,9.60413709 0.399332693,9.0619202 L1.14162877,8.19177335 C1.13784976,8.06389011 1.13785159,7.93592391 1.14163427,7.80804075 L0.40045506,6.93849281 C-0.064872757,6.3954765 -0.131185788,5.62291623 0.235892073,5.01214872 L1.45986784,2.96577412 C1.81957852,2.36733579 2.51558417,2.05060011 3.21050389,2.16121343 L4.38730268,2.34977903 C4.51120201,2.27520815 4.63754051,2.20449756 4.76611985,2.13775515 L5.17882397,1.07992618 C5.43248773,0.427327418 6.0693212,0.000990323677 6.77606554,0 L9.22414674,0 Z M9.22414674,1.54838634 L6.77715122,1.54838634 C6.70284458,1.54838634 6.64215035,1.58912314 6.62167569,1.64179647 L5.98568116,3.27195774 L5.7024187,3.40276784 C5.4517014,3.51854864 5.21099606,3.65307633 4.98257746,3.80506155 L4.73035241,3.97288712 L4.43121109,3.9249539 L2.96631153,3.69022375 C2.89061386,3.67817468 2.81851804,3.71098378 2.7878399,3.76201837 L1.56388606,5.80835648 C1.54009283,5.84794539 1.54399156,5.89336639 1.57753214,5.93251084 L2.72889088,7.2832744 L2.70313138,7.60328131 C2.6818756,7.86733923 2.6818756,8.13266077 2.70313138,8.39671869 L2.7289055,8.71690723 L2.52042955,8.96129043 L1.57636394,10.0679568 C1.54384064,10.1059338 1.53991135,10.1517479 1.56487616,10.1932956 L2.78540998,12.2356107 C2.81744035,12.2887309 2.89028095,12.3218441 2.96545242,12.3099135 L4.72922155,12.0271353 L4.98140271,12.1947952 C5.21005865,12.3468146 5.45102639,12.4813506 5.70209481,12.5971532 L5.98594388,12.7280756 L6.09931576,13.0193782 L6.62099684,14.3598081 C6.64067893,14.4103916 6.70241346,14.4516129 6.77606554,14.4516129 L9.22321387,14.4516129 C9.29770218,14.4516129 9.35947039,14.4103698 9.37913054,14.3602147 L10.0132228,12.7278598 L10.2977665,12.5968936 C10.5485011,12.4814885 10.7891435,12.347137 11.0175151,12.1950844 L11.2698367,12.0270857 L11.5691474,12.0750755 L13.0329679,12.3097762 C13.1087007,12.3218309 13.1808488,12.2890012 13.2116645,12.2377585 L14.4344977,10.1948557 C14.4596589,10.1525286 14.4555921,10.1042481 14.4241333,10.0671135 L13.2714323,8.7172102 L13.2971393,8.39690238 C13.3183416,8.13272259 13.3183416,7.86727741 13.2971393,7.60309762 L13.2714292,7.28275088 L13.4801445,7.03837143 L14.4229863,5.93443272 C14.4564222,5.89494623 14.4605111,5.84716385 14.4366197,5.80716843 L13.2127941,3.76260047 C13.1816289,3.71059861 13.1100055,3.6780048 13.0346987,3.69009631 L11.2690242,3.97303515 L11.0163762,3.80417342 C10.7907552,3.65337572 10.5500608,3.51884611 10.2987558,3.40320297 L10.0142597,3.27228629 L9.90079753,2.98039084 L9.38066188,1.64227371 C9.36002451,1.58947985 9.29855395,1.54838634 9.22414674,1.54838634 Z M8.000051,5 C9.65692476,5 11.0000874,6.34316267 11.0000874,8.00003643 C11.0000874,9.65686273 9.65691392,11 8.000051,11 C6.34323554,11 5.00008743,9.6568519 5.00008743,8.00003643 C5.00008743,6.34317351 6.3432247,5 8.000051,5 Z M8.000051,6.52361891 C7.18470539,6.52361891 6.52370635,7.1846358 6.52370635,8.00003643 C6.52370635,8.81538041 7.18470703,9.47638109 8.000051,9.47638109 C8.81545164,9.47638109 9.47646852,8.81538204 9.47646852,8.00003643 C9.47646852,7.18463416 8.81545327,6.52361891 8.000051,6.52361891 Z" id="path-1"></path>
    </defs>
    <g id="性能" stroke="none" stroke-width="1" fill="none" fill-rule="evenodd">
        <g id="性能-未开启" transform="translate(-1840.000000, -88.000000)">
            <g id="Button按钮/图标按钮/a.默认" transform="translate(1840.000000, 88.000000)">
                <g id="矩形" transform="translate(0.000000, 0.000000)">
                    <mask id="mask-2" fill="white">
                        <use xlink:href="#path-1"></use>
                    </mask>
                    <use id="形状结合" fill="#6C7280" fill-rule="nonzero" xlink:href="#path-1"></use>
                    <rect id="换色" fill="#5B7EDE" mask="url(#mask-2)" x="6.97220059e-13" y="0" width="16" height="16"></rect>
                </g>
            </g>
        </g>
    </g>
</svg>