<?xml version="1.0" encoding="UTF-8"?>
<svg width="14px" height="16px" viewBox="0 0 14 16" version="1.1" xmlns="http://www.w3.org/2000/svg" xmlns:xlink="http://www.w3.org/1999/xlink">
    <title>ICON/16/Setting</title>
    <g id="页面-1" stroke="none" stroke-width="1" fill="none" fill-rule="evenodd" fill-opacity="0.5">
        <g id="画板" transform="translate(-53.000000, -38.000000)" fill="#4D4D4D" fill-rule="nonzero">
            <g id="ICON/16/Setting" transform="translate(53.000000, 38.500000)">
                <path d="M7.00015972,0 C7.34594886,0 7.69445321,0.0244205475 8.03577026,0.0722976736 C8.58926106,0.150172596 9.02101101,0.563150515 9.14444456,1.11776501 L9.16737123,1.24817917 C9.23077922,1.7341802 9.50820913,2.15302472 9.92874623,2.3972302 C10.3036928,2.61501578 10.7408543,2.66434878 11.1501544,2.5395873 L11.30216,2.48463005 C11.8650057,2.24813633 12.5208072,2.42422133 12.896783,2.91279294 C13.3064471,3.44489152 13.6429657,4.03009105 13.8972557,4.65259629 C14.1133908,5.18218602 13.9801804,5.78597284 13.5761386,6.168769 L13.4695313,6.25969324 C13.0804586,6.55788098 12.8573327,7.00998243 12.8573327,7.50032132 C12.8573327,7.93617811 13.0336297,8.34182261 13.346065,8.63601166 L13.4695313,8.7409494 C13.9555527,9.11352341 14.131402,9.77432415 13.8972557,10.3480464 C13.6429657,10.9705516 13.3064471,11.5557511 12.896783,12.0878497 C12.5497284,12.5388389 11.9642425,12.7234304 11.4335279,12.5632782 L11.30216,12.5160126 C10.8511168,12.326432 10.3505611,12.3584037 9.92874623,12.6032518 C9.55493547,12.8203233 9.29407087,13.1753813 9.19629462,13.5929372 L9.16737123,13.7523028 C9.086554,14.3718135 8.63183728,14.844319 8.03577026,14.9281843 C7.69260474,14.975909 7.34658942,15 7.00015972,15 C6.65437057,15 6.30586622,14.9755795 5.96438946,14.9277023 C5.41089865,14.8498274 4.97914871,14.4368495 4.85571516,13.882235 L4.83278849,13.7518208 C4.7693805,13.2658198 4.49195059,12.8469753 4.07141349,12.6027698 C3.69646696,12.3849842 3.25917921,12.3356512 2.84985106,12.4605255 L2.69783998,12.5155306 C2.13499427,12.7520243 1.47935249,12.5759393 1.10321696,12.0873677 C0.693061516,11.5544535 0.356376287,10.9691637 0.102744341,10.3475644 C-0.113390769,9.81797464 0.0198195887,9.21418782 0.423861405,8.83151802 L0.530468744,8.74062808 C0.919541428,8.44244034 1.14266727,7.99033889 1.14266727,7.5 C1.14266727,7.06414321 0.966370308,6.65849872 0.653935025,6.36430966 L0.530468744,6.25937192 C0.0444473252,5.88695857 -0.131402028,5.22599717 0.102744341,4.65243563 C0.357034313,4.02993039 0.693552867,3.44473086 1.10321696,2.91263228 C1.45027156,2.4616431 2.03575751,2.2769147 2.56647208,2.43717224 L2.69783998,2.48446939 C3.14888319,2.67388929 3.64959865,2.64207832 4.07141349,2.3972302 C4.44522425,2.18015866 4.70596265,1.82510072 4.80382303,1.4075448 L4.83278849,1.24817917 C4.91360572,0.628668438 5.36832244,0.156162975 5.96438946,0.0722976736 C6.30586622,0.024259886 6.65437057,0 7.00015972,0 Z M7.00015972,1 C6.70054221,1 6.39859238,1.02106196 6.10371495,1.06254431 C5.95885027,1.08292645 5.84776029,1.19836315 5.82438457,1.37755155 C5.72090644,2.17067684 5.26316306,2.86156095 4.57343151,3.26208736 C3.88030144,3.66442407 3.05040603,3.71713696 2.31047031,3.40639387 C2.16758394,3.34635658 1.99576839,3.39248973 1.8955836,3.52267744 C1.54058063,3.98377858 1.24891409,4.49098129 1.02856961,5.03038744 C0.964139978,5.18821333 1.0121616,5.36865215 1.1387701,5.46566577 C1.77478541,5.95311188 2.14266727,6.69860011 2.14266727,7.5 C2.14266727,8.30139989 1.77478541,9.04688812 1.13869139,9.53439455 C1.01212397,9.63137669 0.964126909,9.81171043 1.02863475,9.96977216 C1.24826414,10.5080383 1.53998962,11.0153 1.89559695,11.4773399 C1.99582041,11.6075226 2.16758157,11.6536444 2.31036007,11.5936525 C3.05028375,11.2826509 3.88041675,11.3353789 4.57358383,11.7380011 C5.26316306,12.1384391 5.72090644,12.8293232 5.8244193,13.622715 C5.84771498,13.8016434 5.95880354,13.917067 6.10323748,13.9373886 C6.39925139,13.9788916 6.70136454,14 7.00015972,14 C7.29991912,14 7.59991225,13.9791757 7.89644477,13.9379377 C8.04130945,13.9175555 8.15239943,13.8021188 8.1757334,13.6232509 C8.27896389,12.8300256 8.73687812,12.1389899 9.42672821,11.7383946 C10.1199894,11.3359818 10.9498539,11.2831907 11.689306,11.5939942 C11.8323874,11.6540726 12.0042784,11.6079314 12.1044164,11.4778045 C12.4594194,11.0167034 12.7510859,10.5095007 12.9713934,9.97018527 C13.0358853,9.81216254 12.9878659,9.63173211 12.8612299,9.53465555 C12.2252146,9.04720945 11.8573327,8.30172121 11.8573327,7.50032132 C11.8573327,6.69892143 12.2252146,5.9534332 12.8611433,5.46605344 C12.9878659,5.36891054 13.0358853,5.18848011 12.9715153,5.03075613 C12.7510859,4.49114195 12.4594194,3.98393924 12.1042778,3.52265808 C12.0042316,3.3926504 11.8324161,3.34651724 11.6893608,3.40662547 C10.9494779,3.71734638 10.1196317,3.66455649 9.42657589,3.26199892 C8.73699665,2.86156095 8.27925328,2.17067684 8.17574042,1.37728505 C8.15244474,1.19835663 8.04135617,1.08293302 7.89685852,1.06260244 C7.60105351,1.02110936 7.29896167,1 7.00015972,1 Z M7.00015972,4.8386423 C8.45902257,4.8386423 9.64588591,6.03251789 9.64588591,7.5 C9.64588591,8.96748211 8.45902257,10.1613577 7.00015972,10.1613577 C5.54129687,10.1613577 4.35443352,8.96748211 4.35443352,7.5 C4.35443352,6.03251789 5.54129687,4.8386423 7.00015972,4.8386423 Z M7.00015972,5.8386423 C6.0949046,5.8386423 5.35443352,6.58348824 5.35443352,7.5 C5.35443352,8.41651176 6.0949046,9.1613577 7.00015972,9.1613577 C7.90541483,9.1613577 8.64588591,8.41651176 8.64588591,7.5 C8.64588591,6.58348824 7.90541483,5.8386423 7.00015972,5.8386423 Z" id="ICON"></path>
            </g>
        </g>
    </g>
</svg>