<svg width="48.000000" height="24.000000" viewBox="0 0 48 24" fill="none" xmlns="http://www.w3.org/2000/svg" xmlns:xlink="http://www.w3.org/1999/xlink">
<desc>
			Created with Pixso.
	</desc>
	<defs>
		<clipPath id="clip32_1131">
			<rect id="滑块" width="48.000000" height="24.000000" fill="white" fill-opacity="0"/>
		</clipPath>
	</defs>
	<g clip-path="url(#clip32_1131)">
		<path id="path" d="M10.86 20.41L5.71 14C5.58 13.81 5.51 13.6 5.51 13.37L5.51 4.19C5.55 3.36 5.98 2.96 6.8 3L17.19 3C18.01 2.96 18.44 3.36 18.48 4.19L18.48 13.33C18.48 13.56 18.41 13.77 18.28 13.96L13.09 20.41C12.83 20.8 12.45 21 11.98 21C11.5 21 11.13 20.8 10.86 20.41Z" fill="#000000" fill-opacity="0" fill-rule="nonzero"/>
		<path id="path" d="M5.71 14C5.58 13.81 5.51 13.6 5.51 13.37L5.51 4.19C5.55 3.36 5.98 2.96 6.8 3L17.19 3C18.01 2.96 18.44 3.36 18.48 4.19L18.48 13.33C18.48 13.56 18.41 13.77 18.28 13.96L13.09 20.41C12.83 20.8 12.45 21 11.98 21C11.5 21 11.13 20.8 10.86 20.41L5.71 14Z" stroke="#2673e5" stroke-opacity="1.000000" stroke-width="1.000000"/>
		<rect id="rect" x="8.426270" y="5.975342" rx="0.500000" width="7.135082" height="1.189180" fill="#2673e5" fill-opacity="1.000000"/>
		<rect id="rect" x="8.426270" y="8.353638" rx="0.500000" width="7.135082" height="1.189180" fill="#2673e5" fill-opacity="1.000000"/>
		<rect id="rect" x="8.426270" y="10.731934" rx="0.500000" width="7.135082" height="1.189180" fill="#2673e5" fill-opacity="1.000000"/>
	</g>
  <g clip-path="url(#clip32_1138)" transform='translate(24, 0)'>
    <path id="path" d="M10.73 21.34L5.01 14.22C4.87 14.01 4.79 13.77 4.79 13.52L4.79 3.32C4.83 2.4 5.31 1.96 6.23 2L17.76 2C18.68 1.96 19.16 2.4 19.2 3.32L19.2 13.48C19.2 13.74 19.13 13.97 18.98 14.18L13.22 21.34C12.92 21.78 12.5 22 11.98 22C11.45 22 11.03 21.78 10.73 21.34Z" fill="#000000" fill-opacity="0" fill-rule="nonzero"/>
    <path id="path" d="M5.01 14.22C4.87 14.01 4.79 13.77 4.79 13.52L4.79 3.32C4.83 2.4 5.31 1.96 6.23 2L17.76 2C18.68 1.96 19.16 2.4 19.2 3.32L19.2 13.48C19.2 13.74 19.13 13.97 18.98 14.18L13.22 21.34C12.92 21.78 12.5 22 11.98 22C11.45 22 11.03 21.78 10.73 21.34L5.01 14.22Z" stroke="#1664d9" stroke-opacity="1.000000" stroke-width="1.000000"/>
    <rect id="rect" x="8.029297" y="5.305908" rx="0.500000" width="7.927868" height="1.321311" fill="#1664d9" fill-opacity="1.000000"/>
    <rect id="rect" x="8.029297" y="7.948486" rx="0.500000" width="7.927868" height="1.321311" fill="#1664d9" fill-opacity="1.000000"/>
    <rect id="rect" x="8.029297" y="10.591064" rx="0.500000" width="7.927868" height="1.321311" fill="#1664d9" fill-opacity="1.000000"/>
  </g>
</svg>
