<?xml version="1.0" encoding="UTF-8"?>
<svg width="48px" height="48px" viewBox="0 0 48 48" version="1.1" xmlns="http://www.w3.org/2000/svg" xmlns:xlink="http://www.w3.org/1999/xlink">
    <!-- Generator: Sketch 63.1 (92452) - https://sketch.com -->
    <title>FusionInsight</title>
    <desc>Created with Sketch.</desc>
    <g id="SLA" stroke="none" stroke-width="1" fill="none" fill-rule="evenodd">
        <g id="Summary" transform="translate(-698.000000, -1924.000000)">
            <g id="FusionInsight" transform="translate(698.000000, 1924.000000)">
                <rect id="矩形备份-61" fill="#AE0004" x="0" y="0" width="48" height="48" rx="24"></rect>
                <g id="编组-12" transform="translate(11.666667, 11.666667)" fill="#FFFFFF" fill-rule="nonzero">
                    <path d="M23.3333333,23 C23.7015232,23 24,23.3357864 24,23.75 C24,24.1346269 23.7426399,24.4516304 23.4110808,24.4949542 L23.3333333,24.5 L0.666666667,24.5 C0.298476833,24.5 0,24.1642136 0,23.75 C0,23.3653731 0.257360127,23.0483696 0.58891925,23.0050458 L0.666666667,23 L23.3333333,23 Z M17.3333333,0 C17.7015232,0 18,0.298476833 18,0.666666667 C18,1.00855723 17.7426399,1.29033811 17.4110808,1.32884818 L17.3333333,1.33333333 L1.33333333,1.33333333 L1.33333333,19 L22.6666667,19 L22.6666667,11 C22.6666667,10.6581094 22.9240268,10.3763286 23.2555859,10.3378185 L23.3333333,10.3333333 C23.6752239,10.3333333 23.9570048,10.5906935 23.9955148,10.9222526 L24,11 L24,19.6666667 C24,20.0085572 23.7426399,20.2903381 23.4110808,20.3288482 L23.3333333,20.3333333 L0.666666667,20.3333333 C0.324776107,20.3333333 0.0429952262,20.0759732 0.00448515422,19.7444141 L0,19.6666667 L0,0.666666667 C0,0.324776107 0.257360127,0.0429952262 0.58891925,0.00448515422 L0.666666667,0 L17.3333333,0 Z M24.2189514,1.78104858 L22.3333333,7.43790283 L20.919,6.02304858 L14.690825,12.2519841 L11.368,9.26133333 L6.19567564,14.6690142 C6.28422929,14.8725488 6.33333333,15.0972066 6.33333333,15.3333333 C6.33333333,16.2538079 5.58714125,17 4.66666667,17 C3.74619208,17 3,16.2538079 3,15.3333333 C3,14.4128588 3.74619208,13.6666667 4.66666667,13.6666667 C4.86045079,13.6666667 5.04651048,13.6997389 5.21950936,13.760547 L11.298603,7.40516775 L14.642,10.414 L19.976,5.08004858 L18.5620972,3.66666667 L24.2189514,1.78104858 Z" id="形状结合"></path>
                </g>
            </g>
        </g>
    </g>
</svg>