<?xml version="1.0" encoding="UTF-8"?>
<svg width="48px" height="48px" viewBox="0 0 32 32" version="1.1" xmlns="http://www.w3.org/2000/svg" xmlns:xlink="http://www.w3.org/1999/xlink">
    <title>编组 3</title>
    <g id="存储" stroke="none" stroke-width="1" fill="none" fill-rule="evenodd">
        <g id="SLA图标" transform="translate(-52.000000, -1212.000000)">
            <g id="编组-3" transform="translate(52.000000, 1212.000000)">
                <rect id="矩形备份-56" fill="#016289" x="0" y="0" width="32" height="32" rx="16"></rect>
                <g id="编组-2" transform="translate(6.000000, 6.000000)" stroke="#FFFFFF">
                    <path d="M9.75,0.721687836 C9.90470054,0.632371439 10.0952995,0.632371439 10.25,0.721687836 L10.25,0.721687836 L17.910254,5.14433757 C18.0649546,5.23365396 18.160254,5.39871747 18.160254,5.57735027 L18.160254,5.57735027 L18.160254,14.4226497 L10.25,19.2783122 L2.08974596,14.8556624 C1.93504542,14.766346 1.83974596,14.6012825 1.83974596,14.4226497 L1.83974596,14.4226497 L1.83974596,5.57735027 C1.83974596,5.39871747 1.93504542,5.23365396 2.08974596,5.14433757 L2.08974596,5.14433757 Z" id="多边形"></path>
                    <path d="M9.99332176,3.42637084 L15.1696248,6.33756054 C15.2412517,6.37891433 15.3001451,6.43650512 15.3427201,6.50417493 C15.3001188,6.571988 15.2412701,6.62962149 15.1696248,6.67098589 L15.1696248,6.67098589 L10.2433218,9.5151883 C10.1659715,9.5598465 10.0796466,9.58217559 9.99332176,9.58217559 C9.9069969,9.58217559 9.82067203,9.5598465 9.74332176,9.5151883 L9.74332176,9.5151883 L4.81701869,6.67098589 C4.74542403,6.62965069 4.68655147,6.57209308 4.64396338,6.50445657 C4.68648375,6.43659236 4.74535856,6.37893353 4.81701869,6.33756054 L4.81701869,6.33756054 L9.74332176,3.49335814 C9.82067203,3.44869994 9.9069969,3.42637084 9.99332176,3.42637084 L9.99332176,3.42637084 Z" id="形状结合"></path>
                </g>
            </g>
        </g>
    </g>
</svg>