<?xml version="1.0" encoding="UTF-8"?>
<svg width="48px" height="48px" viewBox="0 0 48 48" version="1.1" xmlns="http://www.w3.org/2000/svg" xmlns:xlink="http://www.w3.org/1999/xlink">
    <!-- Generator: Sketch 63.1 (92452) - https://sketch.com -->
    <title>OpenStack</title>
    <desc>Created with Sketch.</desc>
    <g id="SLA" stroke="none" stroke-width="1" fill="none" fill-rule="evenodd">
        <g id="Summary" transform="translate(-698.000000, -1752.000000)">
            <g id="OpenStack" transform="translate(698.000000, 1752.000000)">
                <rect id="矩形备份-60" fill="#ED2444" x="0" y="0" width="48" height="48" rx="24"></rect>
                <path d="M34.6666667,26.6666667 C35.4030463,26.6666667 36,27.2636203 36,28 C36,28.7363797 35.4030463,29.3333333 34.6666667,29.3333333 C34.0455589,29.3333333 33.5236425,28.9086443 33.3754622,28.333811 L29.48,28.3333333 L26.2466467,31.8908909 C26.1961074,31.9464841 26.1286827,31.982958 26.0556499,31.9953238 L26,32 L23.2764246,32.0000192 C23.1391404,32.3884066 22.7687324,32.6666667 22.3333333,32.6666667 C21.7810486,32.6666667 21.3333333,32.2189514 21.3333333,31.6666667 C21.3333333,31.1143819 21.7810486,30.6666667 22.3333333,30.6666667 C22.7687324,30.6666667 23.1391404,30.9449267 23.2764246,31.3333141 L25.852,31.3333333 L29.0866866,27.7757757 C29.1372259,27.7201826 29.2046506,27.6837087 29.2776834,27.6713428 L29.3333333,27.6666667 L33.3753747,27.6665286 C33.523437,27.0915229 34.0454366,26.6666667 34.6666667,26.6666667 Z M32.3333333,30.6666667 C32.8856181,30.6666667 33.3333333,31.1143819 33.3333333,31.6666667 C33.3333333,32.2189514 32.8856181,32.6666667 32.3333333,32.6666667 C31.7810486,32.6666667 31.3333333,32.2189514 31.3333333,31.6666667 C31.3333333,31.1143819 31.7810486,30.6666667 32.3333333,30.6666667 Z M24.3247863,14.6666667 C26.6334271,14.6666667 28.7798278,15.6748144 30.2544664,17.3926026 C30.4942919,17.6719724 30.462235,18.0928633 30.1828652,18.3326888 C29.9034954,18.5725144 29.4826045,18.5404574 29.2427789,18.2610876 C28.0188292,16.8353238 26.2403799,16 24.3247863,16 C21.4706727,16 18.9826352,17.8619687 18.1434646,20.5320805 L18.0899767,20.7112736 L17.9527539,21.1964163 L16.8547009,21.1965812 C14.1735236,21.1965812 12,23.3701048 12,26.0512821 C12,28.6788358 14.0874521,30.8188389 16.6944527,30.903388 L16.8547009,30.9059829 L19.4529915,30.9059829 C19.8211813,30.9059829 20.1196581,31.2044597 20.1196581,31.5726496 C20.1196581,31.9145401 19.862298,32.196321 19.5307389,32.2348311 L19.4529915,32.2393162 L16.8547009,32.2393162 C13.4371439,32.2393162 10.6666667,29.468839 10.6666667,26.0512821 C10.6666667,22.6936823 13.3407869,19.9606568 16.6753434,19.8657946 L16.8546007,19.8632479 L16.962,19.8626667 L16.9910731,19.7811298 C18.0820323,16.8113318 20.8918996,14.7520739 24.1223474,14.6692594 L24.3247863,14.6666667 Z M27,24.6666667 C27.5522847,24.6666667 28,25.1143819 28,25.6666667 C28,26.2189514 27.5522847,26.6666667 27,26.6666667 L27,26.6666667 L27,26.8333333 L22.3333333,26.8333333 L22.3333333,26.6666667 C21.7810486,26.6666667 21.3333333,26.2189514 21.3333333,25.6666667 C21.3333333,25.1143819 21.7810486,24.6666667 22.3333333,24.6666667 C22.7687324,24.6666667 23.1391404,24.9449267 23.2764246,25.3333141 L26.0569087,25.3333141 C26.1941929,24.9449267 26.5646009,24.6666667 27,24.6666667 Z M23,20 C23.4350338,20 23.8051855,20.2777933 23.9427453,20.6656702 L27.6666667,20.6666667 C27.7373911,20.6666667 27.8057981,20.6891428 27.8623382,20.7301395 L27.9023689,20.7642977 L30.8046667,23.6666667 L32.0422998,23.6655265 C32.1907103,23.0910293 32.7124642,22.6666667 33.3333333,22.6666667 C34.069713,22.6666667 34.6666667,23.2636203 34.6666667,24 C34.6666667,24.7363797 34.069713,25.3333333 33.3333333,25.3333333 C32.7122255,25.3333333 32.1903092,24.9086443 32.0421289,24.333811 L30.6666667,24.3333333 C30.5959423,24.3333333 30.5275352,24.3108572 30.4709952,24.2698605 L30.4309644,24.2357023 L27.5286667,21.3333333 L23.9430913,21.3333526 C23.8058071,21.72174 23.4353991,22 23,22 C22.4477153,22 22,21.5522847 22,21 C22,20.4477153 22.4477153,20 23,20 Z" id="形状结合" fill="#FFFFFF" fill-rule="nonzero"></path>
            </g>
        </g>
    </g>
</svg>