<?xml version="1.0" encoding="UTF-8"?>
<svg width="48px" height="48px" viewBox="0 0 48 48" version="1.1" xmlns="http://www.w3.org/2000/svg" xmlns:xlink="http://www.w3.org/1999/xlink">
    <!-- Generator: Sketch 63.1 (92452) - https://sketch.com -->
    <title>SQL Server</title>
    <desc>Created with Sketch.</desc>
    <g id="SLA" stroke="none" stroke-width="1" fill="none" fill-rule="evenodd">
        <g id="Summary" transform="translate(-1378.000000, -1036.000000)">
            <g id="SQL-Server" transform="translate(1378.000000, 1036.000000)">
                <rect id="矩形备份-45" fill="#0D0D0D" x="0" y="0" width="48" height="48" rx="24"></rect>
                <path d="M35.3333333,28 C35.7015232,28 36,28.2984768 36,28.6666667 L36,28.6666667 L36,34 C36,34.3681898 35.7015232,34.6666667 35.3333333,34.6666667 L35.3333333,34.6666667 L12.6666667,34.6666667 C12.2984768,34.6666667 12,34.3681898 12,34 L12,34 L12,28.6666667 C12,28.2984768 12.2984768,28 12.6666667,28 L12.6666667,28 Z M34.6666667,29.3333333 L13.3333333,29.3333333 L13.3333333,33.3333333 L34.6666667,33.3333333 L34.6666667,29.3333333 Z M18.6666667,30.6666667 L18.6666667,32.1666667 L15.3333333,32.1666667 L15.3333333,30.6666667 L18.6666667,30.6666667 Z M35.3333333,20 C35.7015232,20 36,20.2984768 36,20.6666667 L36,20.6666667 L36,26 C36,26.3681898 35.7015232,26.6666667 35.3333333,26.6666667 L35.3333333,26.6666667 L12.6666667,26.6666667 C12.2984768,26.6666667 12,26.3681898 12,26 L12,26 L12,20.6666667 C12,20.2984768 12.2984768,20 12.6666667,20 L12.6666667,20 Z M34.6666667,21.3333333 L13.3333333,21.3333333 L13.3333333,25.3333333 L34.6666667,25.3333333 L34.6666667,21.3333333 Z M18.6666667,22.6666667 L18.6666667,24.1666667 L15.3333333,24.1666667 L15.3333333,22.6666667 L18.6666667,22.6666667 Z M35.3333333,12 C35.7015232,12 36,12.2984768 36,12.6666667 L36,12.6666667 L36,18 C36,18.3681898 35.7015232,18.6666667 35.3333333,18.6666667 L35.3333333,18.6666667 L12.6666667,18.6666667 C12.2984768,18.6666667 12,18.3681898 12,18 L12,18 L12,12.6666667 C12,12.2984768 12.2984768,12 12.6666667,12 L12.6666667,12 Z M34.6666667,13.3333333 L13.3333333,13.3333333 L13.3333333,17.3333333 L34.6666667,17.3333333 L34.6666667,13.3333333 Z M18.6666667,14.6666667 L18.6666667,16.1666667 L15.3333333,16.1666667 L15.3333333,14.6666667 L18.6666667,14.6666667 Z" id="形状结合" fill="#FFFFFF" fill-rule="nonzero"></path>
            </g>
        </g>
    </g>
</svg>