<?xml version="1.0" encoding="UTF-8"?>
<svg width="48px" height="48px" viewBox="0 0 48 48" version="1.1" xmlns="http://www.w3.org/2000/svg" xmlns:xlink="http://www.w3.org/1999/xlink">
    <!-- Generator: Sketch 63.1 (92452) - https://sketch.com -->
    <title>Fileset</title>
    <desc>Created with Sketch.</desc>
    <g id="SLA" stroke="none" stroke-width="1" fill="none" fill-rule="evenodd">
        <g id="Summary" transform="translate(-358.000000, -864.000000)">
            <g id="Fileset" transform="translate(358.000000, 864.000000)">
                <rect id="矩形备份-44" fill="#E7B854" x="0" y="0" width="48" height="48" rx="24"></rect>
                <g id="文件集备份" transform="translate(10.666667, 12.000000)" fill="#FFFFFF" fill-rule="nonzero">
                    <path d="M19.1586096,7.20594512 L12.0278545,7.20594512 C9.58218232,7.20594512 9.58218232,4.77667683 7.22490792,4.77667683 L2.45142726,4.77667683 C1.09599448,4.77667683 0.00575506446,5.88887195 0.00575506446,7.20594512 L0.00575506446,11.9474085 L0.00575506446,21.4596037 C0.00575506446,22.8059451 1.09599448,23.888872 2.45142726,23.888872 L19.2764733,23.888872 C20.6319061,23.888872 21.7221455,22.7766768 21.7221455,21.4596037 L21.7221455,9.51814024 C21.6042818,8.28887195 20.5140424,7.20594512 19.1586096,7.20594512 Z M20.3961786,21.4596037 C20.3961786,22.0742378 19.8952578,22.688872 19.1586096,22.688872 L2.45142726,22.688872 C1.83264273,22.688872 1.2138582,22.191311 1.2138582,21.4596037 L1.2138582,11.9474085 L20.3667127,11.9474085 C20.3961786,11.9474085 20.3961786,21.4596037 20.3961786,21.4596037 Z M20.3961786,10.7181402 L1.24332413,10.7181402 L1.24332413,7.20594512 C1.24332413,6.59131098 1.74424494,5.97667683 2.48089319,5.97667683 L7.28383978,5.97667683 C9.11072744,5.97667683 9.11072744,8.40594512 12.0573204,8.40594512 L19.3059392,8.40594512 C19.9247238,8.40594512 20.5435083,8.9035061 20.5435083,9.63521341 L20.5435083,10.7474085 L20.3961786,10.7474085 L20.3961786,10.7181402 Z M23.9615562,2.43521341 L16.7129374,2.43521341 C14.2672652,2.43521341 14.2672652,0.00594512195 11.9394567,0.00594512195 L7.25437385,0.00594512195 C5.89894107,0.00594512195 4.80870166,1.11814024 4.80870166,2.43521341 L4.80870166,3.04984756 C4.80870166,3.43033537 5.0444291,3.66448171 5.42748619,3.66448171 C5.81054328,3.66448171 6.04627072,3.43033537 6.04627072,3.04984756 L6.04627072,2.43521341 C6.04627072,1.82057927 6.54719153,1.20594512 7.28383978,1.20594512 L12.0867864,1.20594512 C13.94314,1.20594512 13.94314,3.63521341 16.860267,3.63521341 L23.4901013,3.63521341 L24.1088858,3.63521341 C24.7276703,3.63521341 25.3464549,4.13277439 25.3464549,4.86448171 L25.3464549,16.8059451 C25.3464549,17.4205793 24.8455341,18.0352134 24.1088858,18.0352134 L23.4901013,18.0352134 C23.1070442,18.0352134 22.8713168,18.2693598 22.8713168,18.6498476 C22.8713168,19.0303354 23.1070442,19.2644817 23.4901013,19.2644817 L24.1088858,19.2644817 C25.4643186,19.2644817 26.554558,18.1522866 26.554558,16.8352134 L26.554558,4.74740854 C26.4072284,3.51814024 25.287523,2.43521341 23.9615562,2.43521341 Z" id="形状"></path>
                </g>
            </g>
        </g>
    </g>
</svg>