<?xml version="1.0" encoding="UTF-8"?>
<svg width="48px" height="48px" viewBox="0 0 32 32" version="1.1" xmlns="http://www.w3.org/2000/svg" xmlns:xlink="http://www.w3.org/1999/xlink">
    <title>编组 8</title>
    <g id="存储" stroke="none" stroke-width="1" fill="none" fill-rule="evenodd">
        <g id="SLA图标" transform="translate(-52.000000, -1056.000000)">
            <g id="编组-8" transform="translate(52.000000, 1056.000000)">
                <rect id="矩形备份-51" fill="#F0B939" x="0" y="0" width="32" height="32" rx="16"></rect>
                <g id="编组-17" transform="translate(8.000000, 8.000000)" fill="#FFFFFF" fill-rule="nonzero">
                    <path d="M14.5454545,0 C15.3487778,0 16,0.651222182 16,1.45454545 L16,14.5454545 C16,15.3487778 15.3487778,16 14.5454545,16 L1.45454545,16 C0.651222182,16 0,15.3487778 0,14.5454545 L0,1.45454545 C0,0.651222182 0.651222182,0 1.45454545,0 L14.5454545,0 Z M3.09,1.09 L1.45454545,1.09090909 C1.27602917,1.09090909 1.12755755,1.21954557 1.09676776,1.38918136 L1.09090909,1.45454545 L1.09090909,14.5454545 C1.09090909,14.7239708 1.21954557,14.8724425 1.38918136,14.9032322 L1.45454545,14.9090909 L14.5454545,14.9090909 C14.7239708,14.9090909 14.8724425,14.7804544 14.9032322,14.6108186 L14.9090909,14.5454545 L14.9090909,1.45454545 C14.9090909,1.27602917 14.7804544,1.12755755 14.6108186,1.09676776 L14.5454545,1.09090909 L12.909,1.09 L12.9090909,5.81818182 C12.9090909,6.48594429 12.3948289,7.03359443 11.7407471,7.08669004 L11.6363636,7.09090909 L4.36363636,7.09090909 C3.69587389,7.09090909 3.14822375,6.57664707 3.09512815,5.92256524 L3.09090909,5.81818182 L3.09,1.09 Z M11.818,1.09 L4.181,1.09 L4.18181818,5.81818182 C4.18181818,5.90425217 4.2416243,5.97635405 4.32194712,5.99519805 L4.36363636,6 L11.6363636,6 C11.722434,6 11.7945359,5.94019388 11.8133799,5.85987106 L11.8181818,5.81818182 L11.818,1.09 Z M10.2225516,2.00328563 C10.4986939,2.00328563 10.7269086,2.20848846 10.7630267,2.47472523 L10.7680061,2.54874018 L10.7680061,4.366922 C10.7680061,4.66816822 10.5237978,4.91237654 10.2225516,4.91237654 C9.94640918,4.91237654 9.71819449,4.70717372 9.68207637,4.44093695 L9.67709701,4.366922 L9.67709701,2.54874018 C9.67709701,2.24749395 9.92130533,2.00328563 10.2225516,2.00328563 Z" id="形状结合"></path>
                </g>
            </g>
        </g>
    </g>
</svg>