<?xml version="1.0" encoding="UTF-8"?>
<svg width="48px" height="48px" viewBox="0 0 48 48" version="1.1" xmlns="http://www.w3.org/2000/svg" xmlns:xlink="http://www.w3.org/1999/xlink">
    <title>GaussDB(DWS)备份</title>
    <g id="页面-1" stroke="none" stroke-width="1" fill="none" fill-rule="evenodd">
        <g id="32*32" transform="translate(-711.000000, -442.000000)">
            <g id="GaussDB(DWS)备份" transform="translate(711.000000, 442.000000)">
                <rect id="矩形备份-50" fill="#000000" x="0" y="0" width="48" height="48" rx="24"></rect>
                <rect id="矩形备份-50" fill="#AE0004" x="0" y="0" width="48" height="48" rx="24"></rect>
                <path d="M35.3333333,12.6666667 C35.7015232,12.6666667 36,12.9651435 36,13.3333333 L36,18.6666667 C36,19.0348565 35.7015232,19.3333333 35.3333333,19.3333333 L12.6666667,19.3333333 C12.2984768,19.3333333 12,19.0348565 12,18.6666667 L12,13.3333333 C12,12.9651435 12.2984768,12.6666667 12.6666667,12.6666667 Z M34.6666667,14 L13.3333333,14 L13.3333333,18 L34.6666667,18 L34.6666667,14 Z M18.6666667,15.3333333 L18.6666667,16.8333333 L15.3333333,16.8333333 L15.3333333,15.3333333 L18.6666667,15.3333333 Z M35.3333333,20.6666667 C35.7015232,20.6666667 36,20.9651435 36,21.3333333 L36,26.6666667 C36,27.0348565 35.7015232,27.3333333 35.3333333,27.3333333 L12.6666667,27.3333333 C12.2984768,27.3333333 12,27.0348565 12,26.6666667 L12,21.3333333 C12,20.9651435 12.2984768,20.6666667 12.6666667,20.6666667 Z M34.6666667,22 L13.3333333,22 L13.3333333,26 L34.6666667,26 L34.6666667,22 Z M18.6666667,23.3333333 L18.6666667,24.8333333 L15.3333333,24.8333333 L15.3333333,23.3333333 L18.6666667,23.3333333 Z M35.3333333,28.6666667 C35.7015232,28.6666667 36,28.9651435 36,29.3333333 L36,34.6666667 C36,35.0348565 35.7015232,35.3333333 35.3333333,35.3333333 L12.6666667,35.3333333 C12.2984768,35.3333333 12,35.0348565 12,34.6666667 L12,29.3333333 C12,28.9651435 12.2984768,28.6666667 12.6666667,28.6666667 Z M34.6666667,30 L13.3333333,30 L13.3333333,34 L34.6666667,34 L34.6666667,30 Z M18.6666667,31.3333333 L18.6666667,32.8333333 L15.3333333,32.8333333 L15.3333333,31.3333333 L18.6666667,31.3333333 Z" id="形状结合" fill="#FFFFFF" fill-rule="nonzero"></path>
            </g>
        </g>
    </g>
</svg>