<?xml version="1.0" encoding="UTF-8"?>
<svg width="48px" height="48px" viewBox="0 0 48 48" version="1.1" xmlns="http://www.w3.org/2000/svg" xmlns:xlink="http://www.w3.org/1999/xlink">
    <title>FC</title>
    <g id="页面-1" stroke="none" stroke-width="1" fill="none" fill-rule="evenodd">
        <g id="FC">
            <g id="矩形备份-58" fill="#AE0004">
                <rect id="矩形备份-55" x="0" y="0" width="48" height="48" rx="24"></rect>
            </g>
            <path d="M29.3333333,22 C30.8060927,22 32,23.1939073 32,24.6666667 C32,26.139426 30.8060927,27.3333333 29.3333333,27.3333333 L29.3333333,27.3333333 L24.8326667,27.3326667 L24.8334131,30.1328191 C25.7962608,30.4493251 26.5170276,31.2993373 26.6460133,32.3331558 L31.6666667,32.3333333 L31.6666667,33.8333333 L26.398508,33.8334996 C25.9657107,34.7214881 25.0543074,35.3333333 24,35.3333333 C22.9456926,35.3333333 22.0342893,34.7214881 21.601492,33.8334996 L16.6666667,33.8333333 L16.6666667,32.3333333 L21.3539867,32.3331558 C21.4903121,31.2405098 22.2876832,30.3531834 23.3332413,30.0840353 L23.3326667,27.3326667 L18.6666667,27.3333333 C17.2505519,27.3333333 16.0922515,26.2294989 16.0052463,24.8353109 L16,24.6666667 C16,23.1939073 17.1939073,22 18.6666667,22 L18.6666667,22 Z M24,31.3333333 C23.2636203,31.3333333 22.6666667,31.930287 22.6666667,32.6666667 C22.6666667,33.4030463 23.2636203,34 24,34 C24.7363797,34 25.3333333,33.4030463 25.3333333,32.6666667 C25.3333333,31.930287 24.7363797,31.3333333 24,31.3333333 Z M24.3247863,12.6666667 C28.3737125,12.6666667 31.7031926,15.746982 32.0976415,19.6920278 L32.1073333,19.8113333 L32.1196581,19.8119658 C34.9437177,19.8119658 37.2433532,22.0572924 37.3307563,24.8601375 L37.3333333,25.025641 C37.3333333,27.8497006 35.0880067,30.1493361 32.2851617,30.2367392 L32.1196581,30.2393162 L28.8717949,30.2393162 C28.503605,30.2393162 28.2051282,29.9408394 28.2051282,29.5726496 C28.2051282,29.230759 28.4624883,28.9489781 28.7940475,28.9104681 L28.8717949,28.9059829 L32.1196581,28.9059829 C34.2627118,28.9059829 36,27.1686947 36,25.025641 C36,22.9324258 34.3425763,21.2263227 32.2684984,21.1481011 L32.1196581,21.1452991 L31.4700855,21.1452991 C31.1018956,21.1452991 30.8034188,20.8468223 30.8034188,20.4786325 C30.8034188,16.9005826 27.9028362,14 24.3247863,14 C21.407248,14 18.8722366,15.9456424 18.0899767,18.7112736 C18.0161756,18.9721929 17.7929819,19.1596834 17.5289154,19.1916499 L17.4485778,19.196492 L16.8547009,19.1965812 C14.1735236,19.1965812 12,21.3701048 12,24.0512821 C12,26.6788358 14.0874521,28.8188389 16.6944527,28.903388 L16.8547009,28.9059829 L19.4529915,28.9059829 C19.8211813,28.9059829 20.1196581,29.2044597 20.1196581,29.5726496 C20.1196581,29.9145401 19.862298,30.196321 19.5307389,30.2348311 L19.4529915,30.2393162 L16.8547009,30.2393162 C13.4371439,30.2393162 10.6666667,27.468839 10.6666667,24.0512821 C10.6666667,20.6936823 13.3407869,17.9606568 16.6753434,17.8657946 L16.8546007,17.8632479 L16.962,17.8626667 L16.9910731,17.7811298 C18.0820323,14.8113318 20.8918996,12.7520739 24.1223474,12.6692594 L24.3247863,12.6666667 Z M29.3333333,23.3333333 L18.6666667,23.3333333 C17.930287,23.3333333 17.3333333,23.930287 17.3333333,24.6666667 C17.3333333,25.4030463 17.930287,26 18.6666667,26 L18.6666667,26 L29.3333333,26 C30.069713,26 30.6666667,25.4030463 30.6666667,24.6666667 C30.6666667,23.930287 30.069713,23.3333333 29.3333333,23.3333333 L29.3333333,23.3333333 Z" id="形状结合备份" fill="#FFFFFF" fill-rule="nonzero"></path>
            <g id="编组-8备份-2" transform="translate(10.666667, 12.666667)">
                <g id="编组-8备份-4"></g>
                <circle id="椭圆形备份-2" fill="#FFFFFF" cx="21.6666667" cy="20.3333333" r="1.66666667"></circle>
                <circle id="椭圆形备份-3" fill="#FFFFFF" cx="5" cy="20.3333333" r="1.66666667"></circle>
            </g>
        </g>
    </g>
</svg>