<svg width="24.000000" height="24.000000" viewBox="0 0 24 24" fill="none" xmlns="http://www.w3.org/2000/svg" xmlns:xlink="http://www.w3.org/1999/xlink">
	<desc>
			Created with Pixso.
	</desc>
	<defs/>
	<path id="形状结合" d="M19 2C20.1045 2 21 2.89551 21 4L21 20C21 21.1045 20.1045 22 19 22L5 22C3.89551 22 3 21.1045 3 20L3 4C3 2.89551 3.89551 2 5 2L19 2ZM5 4L19 4L19 20L5 20L5 4ZM17 8C17 7.44775 16.5522 7 16 7L8 7C7.44775 7 7 7.44775 7 8C7 8.55225 7.44775 9 8 9L16 9C16.5522 9 17 8.55225 17 8ZM17 12C17 12.5522 16.5522 13 16 13L8 13C7.44775 13 7 12.5522 7 12C7 11.4478 7.44775 11 8 11L16 11C16.5522 11 17 11.4478 17 12ZM16 17C16.5522 17 17 16.5522 17 16C17 15.4478 16.5522 15 16 15L8 15C7.44775 15 7 15.4478 7 16C7 16.5522 7.44775 17 8 17L16 17Z" clip-rule="evenodd" fill="#808080" fill-opacity="1.000000" fill-rule="evenodd"/>
</svg>
